ISO-10303-21;
HEADER;
FILE_DESCRIPTION (( 'STEP AP203' ),
    '1' );
FILE_NAME ('base_plate_corner_connector_mm_Default_sldprt.STEP',
    '2026-08-23T00:51:35',
    ( '' ),
    ( '' ),
    'SwSTEP 2.0',
    'SolidWorks 2025',
    '' );
FILE_SCHEMA (( 'CONFIG_CONTROL_DESIGN' ));
ENDSEC;

DATA;
#1 = DIRECTION ( 'NONE',  ( -0.000000000000000000, -1.000000000000000000, -0.000000000000000000 ) ) ;
#2 = VERTEX_POINT ( 'NONE', #269 ) ;
#3 = DIRECTION ( 'NONE',  ( 1.000000000000000000, 0.000000000000000000, 0.000000000000000000 ) ) ;
#4 = EDGE_CURVE ( 'NONE', #910, #361, #121, .T. ) ;
#5 = CONICAL_SURFACE ( 'NONE', #858, 0.1562499999999997224, 1.029744258676651203 ) ;
#6 = DATE_TIME_ROLE ( 'classification_date' ) ;
#7 = AXIS2_PLACEMENT_3D ( 'NONE', #1043, #305, #314 ) ;
#8 = CARTESIAN_POINT ( 'NONE',  ( 4.307118925692971168, 0.5000000000000000000, 7.817398747466802966 ) ) ;
#9 = AXIS2_PLACEMENT_3D ( 'NONE', #513, #837, #506 ) ;
#10 = DIRECTION ( 'NONE',  ( 0.000000000000000000, 0.000000000000000000, 1.000000000000000000 ) ) ;
#11 = ADVANCED_FACE ( 'NONE', ( #238, #956, #1047 ), #477, .F. ) ;
#12 = LOCAL_TIME ( 17, 51, 35.00000000000000000, #898 ) ;
#13 = CIRCLE ( 'NONE', #526, 0.1562499999999998057 ) ;
#14 = EDGE_CURVE ( 'NONE', #966, #313, #647, .T. ) ;
#15 = DIRECTION ( 'NONE',  ( 0.01745240643728251939, 0.000000000000000000, -0.9998476951563912696 ) ) ;
#16 = ORIENTED_EDGE ( 'NONE', *, *, #64, .T. ) ;
#17 = LINE ( 'NONE', #723, #630 ) ;
#18 = PERSON_AND_ORGANIZATION_ROLE ( 'design_supplier' ) ;
#19 = FACE_OUTER_BOUND ( 'NONE', #846, .T. ) ;
#20 = ORIENTED_EDGE ( 'NONE', *, *, #900, .F. ) ;
#21 = VECTOR ( 'NONE', #76, 39.37007874015748143 ) ;
#22 = CIRCLE ( 'NONE', #619, 0.2500000000000002776 ) ;
#23 = DIRECTION ( 'NONE',  ( 0.8660254037844381525, -0.000000000000000000, -0.5000000000000006661 ) ) ;
#24 = CIRCLE ( 'NONE', #974, 0.1562499999999998057 ) ;
#25 = EDGE_CURVE ( 'NONE', #349, #709, #713, .T. ) ;
#26 = CIRCLE ( 'NONE', #753, 0.1562499999999998057 ) ;
#27 = VERTEX_POINT ( 'NONE', #148 ) ;
#28 = PERSON_AND_ORGANIZATION ( #883, #640 ) ;
#29 = LINE ( 'NONE', #412, #278 ) ;
#30 = VECTOR ( 'NONE', #593, 39.37007874015748854 ) ;
#31 = ORIENTED_EDGE ( 'NONE', *, *, #662, .F. ) ;
#32 = DIRECTION ( 'NONE',  ( -0.8660254037844383745, -0.000000000000000000, 0.5000000000000006661 ) ) ;
#33 = ADVANCED_FACE ( 'NONE', ( #796 ), #5, .F. ) ;
#34 = DIRECTION ( 'NONE',  ( 0.8660254037844382635, -0.000000000000000000, -0.5000000000000006661 ) ) ;
#35 = AXIS2_PLACEMENT_3D ( 'NONE', #760, #10, #434 ) ;
#36 = EDGE_LOOP ( 'NONE', ( #416, #759, #896, #62 ) ) ;
#37 = DIRECTION ( 'NONE',  ( 0.000000000000000000, 0.000000000000000000, 1.000000000000000000 ) ) ;
#38 = ORIENTED_EDGE ( 'NONE', *, *, #662, .T. ) ;
#39 = AXIS2_PLACEMENT_3D ( 'NONE', #461, #715, #553 ) ;
#40 = CARTESIAN_POINT ( 'NONE',  ( 4.770259803058245041, 0.5000000000000000000, 7.369582278125483832 ) ) ;
#41 = VERTEX_POINT ( 'NONE', #642 ) ;
#42 = DIRECTION ( 'NONE',  ( -0.000000000000000000, 1.000000000000000000, -0.000000000000000000 ) ) ;
#43 = CIRCLE ( 'NONE', #227, 0.1562500000000000000 ) ;
#44 = ORIENTED_EDGE ( 'NONE', *, *, #912, .T. ) ;
#45 = FACE_OUTER_BOUND ( 'NONE', #55, .T. ) ;
#46 = EDGE_LOOP ( 'NONE', ( #249, #161, #265 ) ) ;
#47 = CARTESIAN_POINT ( 'NONE',  ( 3.565179953611527619, 0.000000000000000000, 7.923829102652427459 ) ) ;
#48 = ORIENTED_EDGE ( 'NONE', *, *, #812, .T. ) ;
#49 = DIRECTION ( 'NONE',  ( 0.01745240643728251939, 0.000000000000000000, -0.9998476951563912696 ) ) ;
#50 = EDGE_LOOP ( 'NONE', ( #680, #245, #234, #20 ) ) ;
#51 = DIRECTION ( 'NONE',  ( 1.000000000000000000, 0.000000000000000000, 0.000000000000000000 ) ) ;
#52 = ADVANCED_FACE ( 'NONE', ( #568 ), #154, .F. ) ;
#53 = CARTESIAN_POINT ( 'NONE',  ( 4.236766154004351748, 0.5000000000000000000, 5.945544172448823161 ) ) ;
#54 = DIRECTION ( 'NONE',  ( 0.8660254037844385966, 0.000000000000000000, -0.5000000000000002220 ) ) ;
#55 = EDGE_LOOP ( 'NONE', ( #1008, #525, #206 ) ) ;
#56 = LINE ( 'NONE', #606, #612 ) ;
#57 = PRODUCT_RELATED_PRODUCT_CATEGORY ( 'detail', '', ( #825 ) ) ;
#58 = EDGE_LOOP ( 'NONE', ( #617, #546, #272, #368 ) ) ;
#59 = LINE ( 'NONE', #1027, #445 ) ;
#60 = DIRECTION ( 'NONE',  ( -0.000000000000000000, -0.000000000000000000, 1.000000000000000000 ) ) ;
#61 = LOCAL_TIME ( 17, 51, 35.00000000000000000, #665 ) ;
#62 = ORIENTED_EDGE ( 'NONE', *, *, #428, .T. ) ;
#63 = CARTESIAN_POINT ( 'NONE',  ( 5.486766154004353524, 1.000000000000000000, 8.110607681909920430 ) ) ;
#64 = EDGE_CURVE ( 'NONE', #144, #510, #78, .T. ) ;
#65 = CARTESIAN_POINT ( 'NONE',  ( 3.843978048327699071, 0.5000000000000000000, 9.244582278125481167 ) ) ;
#66 = CARTESIAN_POINT ( 'NONE',  ( 4.848384803058245041, 0.5000000000000000000, 7.504898747466802966 ) ) ;
#67 = VERTEX_POINT ( 'NONE', #131 ) ;
#68 = AXIS2_PLACEMENT_3D ( 'NONE', #926, #857, #784 ) ;
#69 = DIRECTION ( 'NONE',  ( -0.000000000000000000, -0.000000000000000000, 1.000000000000000000 ) ) ;
#70 = EDGE_CURVE ( 'NONE', #313, #27, #22, .T. ) ;
#71 = DIRECTION ( 'NONE',  ( 1.000000000000000000, 0.000000000000000000, 0.000000000000000000 ) ) ;
#72 = CARTESIAN_POINT ( 'NONE',  ( 2.031478048327699071, 0.5000000000000000000, 8.619582278125481167 ) ) ;
#73 = CARTESIAN_POINT ( 'NONE',  ( 3.687728048327699071, 0.5000000000000000000, 8.619582278125481167 ) ) ;
#74 = VECTOR ( 'NONE', #217, 39.37007874015748854 ) ;
#75 = DIRECTION ( 'NONE',  ( 0.8660254037844381525, -0.000000000000000000, -0.5000000000000006661 ) ) ;
#76 = DIRECTION ( 'NONE',  ( 0.8660254037844382635, -0.000000000000000000, -0.5000000000000006661 ) ) ;
#77 = DIRECTION ( 'NONE',  ( 1.000000000000000000, 0.000000000000000000, 0.000000000000000000 ) ) ;
#78 = LINE ( 'NONE', #317, #714 ) ;
#79 = DIRECTION ( 'NONE',  ( 0.4999999999999998335, 0.000000000000000000, -0.8660254037844385966 ) ) ;
#80 = DIRECTION ( 'NONE',  ( -0.000000000000000000, -0.000000000000000000, 1.000000000000000000 ) ) ;
#81 = DIRECTION ( 'NONE',  ( 1.000000000000000000, 0.000000000000000000, 0.000000000000000000 ) ) ;
#82 = CARTESIAN_POINT ( 'NONE',  ( 3.895259803058241488, 0.5000000000000000000, 5.854037821502713790 ) ) ;
#83 = EDGE_CURVE ( 'NONE', #361, #910, #750, .T. ) ;
#84 = EDGE_LOOP ( 'NONE', ( #856, #945, #209, #16 ) ) ;
#85 = CARTESIAN_POINT ( 'NONE',  ( 4.228993925692971168, 0.5000000000000000000, 7.682082278125484720 ) ) ;
#86 = CIRCLE ( 'NONE', #817, 0.1562499999999997224 ) ;
#87 = PERSON_AND_ORGANIZATION ( #883, #640 ) ;
#88 = DIRECTION ( 'NONE',  ( -0.000000000000000000, -0.000000000000000000, 1.000000000000000000 ) ) ;
#89 = EDGE_CURVE ( 'NONE', #413, #213, #373, .T. ) ;
#90 = AXIS2_PLACEMENT_3D ( 'NONE', #40, #352, #282 ) ;
#91 = DIRECTION ( 'NONE',  ( 0.8660254037844381525, -0.000000000000000000, -0.5000000000000006661 ) ) ;
#92 = EDGE_CURVE ( 'NONE', #925, #528, #732, .T. ) ;
#93 = APPROVAL_DATE_TIME ( #574, #480 ) ;
#94 = CIRCLE ( 'NONE', #716, 0.2109499999999995545 ) ;
#95 = FACE_OUTER_BOUND ( 'NONE', #667, .T. ) ;
#96 = ORIENTED_EDGE ( 'NONE', *, *, #836, .T. ) ;
#97 = EDGE_CURVE ( 'NONE', #807, #120, #94, .T. ) ;
#98 = CALENDAR_DATE ( 2026, 22, 8 ) ;
#99 = CIRCLE ( 'NONE', #878, 0.1562499999999997224 ) ;
#100 = CARTESIAN_POINT ( 'NONE',  ( 2.437728048327699071, 0.5000000000000000000, 9.244582278125481167 ) ) ;
#101 = ORIENTED_EDGE ( 'NONE', *, *, #530, .T. ) ;
#102 = SHAPE_DEFINITION_REPRESENTATION ( #174, #931 ) ;
#103 = CIRCLE ( 'NONE', #935, 0.2499999999999996114 ) ;
#104 = DIRECTION ( 'NONE',  ( -0.000000000000000000, -0.000000000000000000, 1.000000000000000000 ) ) ;
#105 = ORIENTED_EDGE ( 'NONE', *, *, #270, .F. ) ;
#106 = AXIS2_PLACEMENT_3D ( 'NONE', #395, #724, #788 ) ;
#107 = PLANE ( 'NONE',  #9 ) ;
#108 = ORIENTED_EDGE ( 'NONE', *, *, #557, .F. ) ;
#109 = ORIENTED_EDGE ( 'NONE', *, *, #961, .T. ) ;
#110 = CARTESIAN_POINT ( 'NONE',  ( 0.000000000000000000, 0.000000000000000000, 0.000000000000000000 ) ) ;
#111 = AXIS2_PLACEMENT_3D ( 'NONE', #407, #339, #183 ) ;
#112 = ORIENTED_EDGE ( 'NONE', *, *, #205, .T. ) ;
#113 = DIRECTION ( 'NONE',  ( 0.5000000000000025535, 0.000000000000000000, 0.8660254037844371533 ) ) ;
#114 = ORIENTED_EDGE ( 'NONE', *, *, #158, .F. ) ;
#115 = CC_DESIGN_PERSON_AND_ORGANIZATION_ASSIGNMENT ( #815, #18, ( #358 ) ) ;
#116 = DIRECTION ( 'NONE',  ( -0.000000000000000000, 1.000000000000000000, -0.000000000000000000 ) ) ;
#117 = AXIS2_PLACEMENT_3D ( 'NONE', #85, #398, #821 ) ;
#118 = ORIENTED_EDGE ( 'NONE', *, *, #1020, .F. ) ;
#119 = CARTESIAN_POINT ( 'NONE',  ( 0.6288823215157088864, 1.000000000000000000, 9.494582278125481167 ) ) ;
#120 = VERTEX_POINT ( 'NONE', #967 ) ;
#121 = CIRCLE ( 'NONE', #1001, 0.2499999999999993339 ) ;
#122 = DIRECTION ( 'NONE',  ( 0.000000000000000000, 0.000000000000000000, 1.000000000000000000 ) ) ;
#123 = ORIENTED_EDGE ( 'NONE', *, *, #912, .F. ) ;
#124 = CARTESIAN_POINT ( 'NONE',  ( 3.937728048327699071, 0.5000000000000000000, 9.244582278125481167 ) ) ;
#125 = VECTOR ( 'NONE', #710, 39.37007874015748143 ) ;
#126 = EDGE_CURVE ( 'NONE', #648, #502, #791, .T. ) ;
#127 = DIRECTION ( 'NONE',  ( 0.4999999999999998890, 0.000000000000000000, 0.8660254037844385966 ) ) ;
#128 = ORIENTED_EDGE ( 'NONE', *, *, #205, .F. ) ;
#129 = CARTESIAN_POINT ( 'NONE',  ( 4.770259803058245041, 0.5000000000000000000, 7.369582278125483832 ) ) ;
#130 = VERTEX_POINT ( 'NONE', #135 ) ;
#131 = CARTESIAN_POINT ( 'NONE',  ( 3.687728048327699071, 0.5000000000000000000, 8.525697806402424916 ) ) ;
#132 = DIRECTION ( 'NONE',  ( -0.000000000000000000, -0.000000000000000000, 1.000000000000000000 ) ) ;
#133 = EDGE_LOOP ( 'NONE', ( #108, #293 ) ) ;
#134 = CARTESIAN_POINT ( 'NONE',  ( 2.187728048327699071, 0.5000000000000000000, 9.244582278125481167 ) ) ;
#135 = CARTESIAN_POINT ( 'NONE',  ( 3.397687588159920669, 0.4999999999999997780, 6.429986408310353951 ) ) ;
#136 = LINE ( 'NONE', #462, #437 ) ;
#137 = ADVANCED_FACE ( 'NONE', ( #1038, #541 ), #634, .T. ) ;
#138 = DIRECTION ( 'NONE',  ( 0.8660254037844385966, 0.000000000000000000, -0.5000000000000002220 ) ) ;
#139 = DIRECTION ( 'NONE',  ( 0.4999999999999990563, 0.000000000000000000, 0.8660254037844392627 ) ) ;
#140 = CC_DESIGN_APPROVAL ( #480, ( #345 ) ) ;
#141 = DIRECTION ( 'NONE',  ( 0.000000000000000000, 0.000000000000000000, 1.000000000000000000 ) ) ;
#142 = AXIS2_PLACEMENT_3D ( 'NONE', #1050, #554, #795 ) ;
#143 = ADVANCED_FACE ( 'NONE', ( #777 ), #863, .F. ) ;
#144 = VERTEX_POINT ( 'NONE', #63 ) ;
#145 = EDGE_CURVE ( 'NONE', #130, #925, #958, .T. ) ;
#146 = APPLICATION_PROTOCOL_DEFINITION ( 'international standard', 'config_control_design', 1994, #540 ) ;
#147 = CARTESIAN_POINT ( 'NONE',  ( 0.6288823215157088864, 1.000000000000000000, 9.494582278125481167 ) ) ;
#148 = CARTESIAN_POINT ( 'NONE',  ( 4.361766154004351748, 0.5000000000000000000, 6.162050523394933421 ) ) ;
#149 = AXIS2_PLACEMENT_3D ( 'NONE', #47, #42, #457 ) ;
#150 = CARTESIAN_POINT ( 'NONE',  ( 2.187728048327699071, 0.5000000000000000000, 9.244582278125481167 ) ) ;
#151 = ADVANCED_FACE ( 'NONE', ( #876 ), #638, .F. ) ;
#152 = LENGTH_MEASURE_WITH_UNIT ( LENGTH_MEASURE( 0.02539999999999999897 ), #560 );
#153 = FACE_OUTER_BOUND ( 'NONE', #598, .T. ) ;
#154 = CYLINDRICAL_SURFACE ( 'NONE', #800, 0.2500000000000005551 ) ;
#155 = ORIENTED_EDGE ( 'NONE', *, *, #187, .T. ) ;
#156 = DIRECTION ( 'NONE',  ( -0.000000000000000000, 1.000000000000000000, -0.000000000000000000 ) ) ;
#157 = DIRECTION ( 'NONE',  ( 1.000000000000000000, 0.000000000000000000, -0.000000000000000000 ) ) ;
#158 = EDGE_CURVE ( 'NONE', #478, #994, #884, .T. ) ;
#159 = DIRECTION ( 'NONE',  ( 0.000000000000000000, 0.000000000000000000, 1.000000000000000000 ) ) ;
#160 = DIRECTION ( 'NONE',  ( -2.692241270091322985E-16, 0.000000000000000000, -1.000000000000000000 ) ) ;
#161 = ORIENTED_EDGE ( 'NONE', *, *, #450, .T. ) ;
#162 = CARTESIAN_POINT ( 'NONE',  ( 3.531478048327699515, 0.5000000000000000000, 8.619582278125481167 ) ) ;
#163 = AXIS2_PLACEMENT_3D ( 'NONE', #597, #267, #330 ) ;
#164 = DATE_AND_TIME ( #98, #12 ) ;
#165 = FACE_OUTER_BOUND ( 'NONE', #515, .T. ) ;
#166 = ADVANCED_FACE ( 'NONE', ( #394 ), #682, .F. ) ;
#167 = EDGE_LOOP ( 'NONE', ( #773, #768, #423, #605 ) ) ;
#168 = DIRECTION ( 'NONE',  ( 0.8571673007021105573, 0.000000000000000000, 0.5150380749100569311 ) ) ;
#169 = APPROVAL_STATUS ( 'not_yet_approved' ) ;
#170 = DIRECTION ( 'NONE',  ( 0.8660254037844383745, -0.000000000000000000, -0.5000000000000007772 ) ) ;
#171 = VERTEX_POINT ( 'NONE', #295 ) ;
#172 = EDGE_CURVE ( 'NONE', #514, #994, #43, .T. ) ;
#173 = AXIS2_PLACEMENT_3D ( 'NONE', #455, #287, #613 ) ;
#174 = PRODUCT_DEFINITION_SHAPE ( 'NONE', 'NONE',  #345 ) ;
#175 = DIRECTION ( 'NONE',  ( 1.000000000000000000, 0.000000000000000000, 0.000000000000000000 ) ) ;
#176 = AXIS2_PLACEMENT_3D ( 'NONE', #570, #250, #321 ) ;
#177 = FACE_OUTER_BOUND ( 'NONE', #366, .T. ) ;
#178 = ORIENTED_EDGE ( 'NONE', *, *, #650, .T. ) ;
#179 = DIRECTION ( 'NONE',  ( 0.000000000000000000, 0.000000000000000000, 1.000000000000000000 ) ) ;
#180 = EDGE_LOOP ( 'NONE', ( #676, #284, #775, #228 ) ) ;
#181 = VECTOR ( 'NONE', #320, 39.37007874015748143 ) ;
#182 = CALENDAR_DATE ( 2026, 22, 8 ) ;
#183 = DIRECTION ( 'NONE',  ( -0.4999999999999997224, 0.000000000000000000, -0.8660254037844387076 ) ) ;
#184 = ORIENTED_EDGE ( 'NONE', *, *, #322, .F. ) ;
#185 = ORIENTED_EDGE ( 'NONE', *, *, #900, .T. ) ;
#186 = COORDINATED_UNIVERSAL_TIME_OFFSET ( 8, 0, .BEHIND. ) ;
#187 = EDGE_CURVE ( 'NONE', #331, #514, #624, .T. ) ;
#188 = DIRECTION ( 'NONE',  ( -0.4999999999999997224, 0.000000000000000000, -0.8660254037844387076 ) ) ;
#189 = ORIENTED_EDGE ( 'NONE', *, *, #172, .F. ) ;
#190 = ORIENTED_EDGE ( 'NONE', *, *, #504, .F. ) ;
#191 = DIRECTION ( 'NONE',  ( 1.000000000000000000, 0.000000000000000000, 0.000000000000000000 ) ) ;
#192 = ORIENTED_EDGE ( 'NONE', *, *, #403, .T. ) ;
#193 = DESIGN_CONTEXT ( 'detailed design', #370, 'design' ) ;
#194 = ORIENTED_EDGE ( 'NONE', *, *, #836, .F. ) ;
#195 = FACE_OUTER_BOUND ( 'NONE', #761, .T. ) ;
#196 = AXIS2_PLACEMENT_3D ( 'NONE', #652, #717, #311 ) ;
#197 = VERTEX_POINT ( 'NONE', #301 ) ;
#198 = EDGE_CURVE ( 'NONE', #999, #349, #59, .T. ) ;
#199 = FACE_OUTER_BOUND ( 'NONE', #919, .T. ) ;
#200 = EDGE_CURVE ( 'NONE', #197, #957, #24, .T. ) ;
#201 = CARTESIAN_POINT ( 'NONE',  ( 3.942134803058243264, 0.5000000000000000000, 5.935227703107506692 ) ) ;
#202 = AXIS2_PLACEMENT_3D ( 'NONE', #129, #285, #950 ) ;
#203 = ORIENTED_EDGE ( 'NONE', *, *, #812, .F. ) ;
#204 = DIRECTION ( 'NONE',  ( 0.4999999999999998335, 0.000000000000000000, -0.8660254037844385966 ) ) ;
#205 = EDGE_CURVE ( 'NONE', #709, #349, #521, .T. ) ;
#206 = ORIENTED_EDGE ( 'NONE', *, *, #1002, .T. ) ;
#207 = VECTOR ( 'NONE', #127, 39.37007874015748854 ) ;
#208 = PLANE ( 'NONE',  #1036 ) ;
#209 = ORIENTED_EDGE ( 'NONE', *, *, #892, .T. ) ;
#210 = DIRECTION ( 'NONE',  ( -0.8660254037844383745, -0.000000000000000000, 0.5000000000000006661 ) ) ;
#211 = AXIS2_PLACEMENT_3D ( 'NONE', #573, #653, #491 ) ;
#212 = DIRECTION ( 'NONE',  ( 1.000000000000000000, 0.000000000000000000, 0.000000000000000000 ) ) ;
#213 = VERTEX_POINT ( 'NONE', #162 ) ;
#214 = VECTOR ( 'NONE', #1040, 39.37007874015748854 ) ;
#215 = CARTESIAN_POINT ( 'NONE',  ( 4.895259803058242376, 0.5000000000000000000, 7.586088629071591427 ) ) ;
#216 = DIRECTION ( 'NONE',  ( -0.000000000000000000, -0.000000000000000000, 1.000000000000000000 ) ) ;
#217 = DIRECTION ( 'NONE',  ( 0.4999999999999998890, 0.000000000000000000, 0.8660254037844385966 ) ) ;
#218 = ADVANCED_FACE ( 'NONE', ( #972 ), #1048, .F. ) ;
#219 = ORIENTED_EDGE ( 'NONE', *, *, #961, .F. ) ;
#220 = CARTESIAN_POINT ( 'NONE',  ( 4.986766154004351748, 0.5000000000000000000, 7.244582278125481167 ) ) ;
#221 = CIRCLE ( 'NONE', #386, 0.2499999999999998057 ) ;
#222 = CARTESIAN_POINT ( 'NONE',  ( 4.770259803058242376, 0.5000000000000000000, 7.369582278125482055 ) ) ;
#223 = FACE_OUTER_BOUND ( 'NONE', #36, .T. ) ;
#224 = AXIS2_PLACEMENT_3D ( 'NONE', #707, #486, #310 ) ;
#225 = DIRECTION ( 'NONE',  ( -0.4999999999999997224, 0.000000000000000000, -0.8660254037844387076 ) ) ;
#226 = CC_DESIGN_DATE_AND_TIME_ASSIGNMENT ( #164, #262, ( #345 ) ) ;
#227 = AXIS2_PLACEMENT_3D ( 'NONE', #150, #235, #479 ) ;
#228 = ORIENTED_EDGE ( 'NONE', *, *, #14, .F. ) ;
#229 = DIRECTION ( 'NONE',  ( -0.8660254037844383745, -0.000000000000000000, 0.5000000000000006661 ) ) ;
#230 = CARTESIAN_POINT ( 'NONE',  ( 0.000000000000000000, 0.000000000000000000, 0.000000000000000000 ) ) ;
#231 = LINE ( 'NONE', #722, #181 ) ;
#232 = APPROVAL_PERSON_ORGANIZATION ( #323, #480, #997 ) ;
#233 = DIRECTION ( 'NONE',  ( 0.8660254037844382635, -0.000000000000000000, -0.5000000000000006661 ) ) ;
#234 = ORIENTED_EDGE ( 'NONE', *, *, #336, .T. ) ;
#235 = DIRECTION ( 'NONE',  ( -0.000000000000000000, -0.000000000000000000, 1.000000000000000000 ) ) ;
#236 = LINE ( 'NONE', #242, #845 ) ;
#237 = CARTESIAN_POINT ( 'NONE',  ( 3.687728048327699071, 0.5000000000000000000, 9.244582278125481167 ) ) ;
#238 = FACE_BOUND ( 'NONE', #672, .T. ) ;
#239 = EDGE_LOOP ( 'NONE', ( #1015, #995, #860, #862 ) ) ;
#240 = CIRCLE ( 'NONE', #117, 0.1562499999999998057 ) ;
#241 = DIRECTION ( 'NONE',  ( 0.000000000000000000, 0.000000000000000000, 1.000000000000000000 ) ) ;
#242 = CARTESIAN_POINT ( 'NONE',  ( 3.565179953611527619, 1.000000000000000000, 7.712879102652427932 ) ) ;
#243 = CYLINDRICAL_SURFACE ( 'NONE', #142, 0.2499999999999993339 ) ;
#244 = VECTOR ( 'NONE', #49, 39.37007874015748143 ) ;
#245 = ORIENTED_EDGE ( 'NONE', *, *, #1033, .T. ) ;
#246 = CYLINDRICAL_SURFACE ( 'NONE', #496, 0.2109499999999995545 ) ;
#247 = EDGE_CURVE ( 'NONE', #67, #213, #834, .T. ) ;
#248 = FACE_OUTER_BOUND ( 'NONE', #572, .T. ) ;
#249 = ORIENTED_EDGE ( 'NONE', *, *, #397, .F. ) ;
#250 = DIRECTION ( 'NONE',  ( -0.000000000000000000, -0.000000000000000000, 1.000000000000000000 ) ) ;
#251 = SECURITY_CLASSIFICATION_LEVEL ( 'unclassified' ) ;
#252 = CARTESIAN_POINT ( 'NONE',  ( 2.437728048327699071, 0.5000000000000000000, 9.494582278125481167 ) ) ;
#253 = ADVANCED_FACE ( 'NONE', ( #890, #414 ), #591, .T. ) ;
#254 = ORIENTED_EDGE ( 'NONE', *, *, #83, .F. ) ;
#255 = CARTESIAN_POINT ( 'NONE',  ( 3.687728048327699071, 0.5000000000000000000, 9.244582278125481167 ) ) ;
#256 = AXIS2_PLACEMENT_3D ( 'NONE', #332, #404, #664 ) ;
#257 = CARTESIAN_POINT ( 'NONE',  ( 3.687728048327699071, 0.5000000000000000000, 9.244582278125481167 ) ) ;
#258 = EDGE_CURVE ( 'NONE', #687, #448, #393, .T. ) ;
#259 = VERTEX_POINT ( 'NONE', #982 ) ;
#260 = VECTOR ( 'NONE', #543, 39.37007874015748854 ) ;
#261 = DIRECTION ( 'NONE',  ( -0.000000000000000000, 1.000000000000000000, -0.000000000000000000 ) ) ;
#262 = DATE_TIME_ROLE ( 'creation_date' ) ;
#263 = CARTESIAN_POINT ( 'NONE',  ( 3.531478048327699515, 0.5000000000000000000, 9.244582278125481167 ) ) ;
#264 = ORIENTED_EDGE ( 'NONE', *, *, #126, .F. ) ;
#265 = ORIENTED_EDGE ( 'NONE', *, *, #654, .T. ) ;
#266 = ADVANCED_FACE ( 'NONE', ( #485 ), #808, .F. ) ;
#267 = DIRECTION ( 'NONE',  ( 0.8660254037844382635, -0.000000000000000000, -0.5000000000000006661 ) ) ;
#268 = ORIENTED_EDGE ( 'NONE', *, *, #523, .T. ) ;
#269 = CARTESIAN_POINT ( 'NONE',  ( 3.937728048327699071, 0.5000000000000000000, 9.494582278125481167 ) ) ;
#270 = EDGE_CURVE ( 'NONE', #446, #374, #701, .T. ) ;
#271 = LINE ( 'NONE', #731, #944 ) ;
#272 = ORIENTED_EDGE ( 'NONE', *, *, #934, .T. ) ;
#273 = ORIENTED_EDGE ( 'NONE', *, *, #530, .F. ) ;
#274 = EDGE_CURVE ( 'NONE', #67, #413, #902, .T. ) ;
#275 = CARTESIAN_POINT ( 'NONE',  ( 3.843978048327699071, 0.5000000000000000000, 9.244582278125481167 ) ) ;
#276 = EDGE_CURVE ( 'NONE', #502, #510, #17, .T. ) ;
#277 = ORIENTED_EDGE ( 'NONE', *, *, #329, .F. ) ;
#278 = VECTOR ( 'NONE', #15, 39.37007874015748143 ) ;
#279 = CARTESIAN_POINT ( 'NONE',  ( 4.020259803058243264, 0.5000000000000000000, 6.070544172448824938 ) ) ;
#280 = ORIENTED_EDGE ( 'NONE', *, *, #430, .T. ) ;
#281 = CC_DESIGN_APPROVAL ( #954, ( #927 ) ) ;
#282 = DIRECTION ( 'NONE',  ( -0.4999999999999997224, 0.000000000000000000, -0.8660254037844387076 ) ) ;
#283 = AXIS2_PLACEMENT_3D ( 'NONE', #576, #818, #848 ) ;
#284 = ORIENTED_EDGE ( 'NONE', *, *, #511, .T. ) ;
#285 = DIRECTION ( 'NONE',  ( 0.8660254037844383745, -0.000000000000000000, -0.5000000000000007772 ) ) ;
#286 = EDGE_CURVE ( 'NONE', #374, #446, #548, .T. ) ;
#287 = DIRECTION ( 'NONE',  ( 0.8660254037844383745, -0.000000000000000000, -0.5000000000000007772 ) ) ;
#288 = AXIS2_PLACEMENT_3D ( 'NONE', #686, #610, #628 ) ;
#289 = ORIENTED_EDGE ( 'NONE', *, *, #436, .T. ) ;
#290 = PLANE ( 'NONE',  #853 ) ;
#291 = ADVANCED_FACE ( 'NONE', ( #498 ), #246, .F. ) ;
#292 = LINE ( 'NONE', #536, #207 ) ;
#293 = ORIENTED_EDGE ( 'NONE', *, *, #979, .F. ) ;
#294 = FACE_OUTER_BOUND ( 'NONE', #1010, .T. ) ;
#295 = CARTESIAN_POINT ( 'NONE',  ( 3.565179953611527619, 1.000000000000000000, 8.134779102652426985 ) ) ;
#296 = FACE_OUTER_BOUND ( 'NONE', #459, .T. ) ;
#297 = ORIENTED_EDGE ( 'NONE', *, *, #458, .T. ) ;
#298 = CONICAL_SURFACE ( 'NONE', #111, 0.1562499999999998057, 1.029744258676654534 ) ;
#299 = CARTESIAN_POINT ( 'NONE',  ( 0.6288823215157088864, 1.000000000000000000, 9.494582278125481167 ) ) ;
#300 = EDGE_LOOP ( 'NONE', ( #746, #492, #602 ) ) ;
#301 = CARTESIAN_POINT ( 'NONE',  ( 3.942134803058243264, 0.5000000000000000000, 5.935227703107506692 ) ) ;
#302 = EDGE_CURVE ( 'NONE', #259, #813, #240, .T. ) ;
#303 = DIRECTION ( 'NONE',  ( 0.8660254037844382635, -0.000000000000000000, -0.5000000000000006661 ) ) ;
#304 = AXIS2_PLACEMENT_3D ( 'NONE', #780, #1009, #362 ) ;
#305 = DIRECTION ( 'NONE',  ( -0.000000000000000000, -0.000000000000000000, 1.000000000000000000 ) ) ;
#306 = VECTOR ( 'NONE', #80, 39.37007874015748143 ) ;
#307 = CARTESIAN_POINT ( 'NONE',  ( 4.687728048327699959, 0.000000000000000000, 9.494582278125479391 ) ) ;
#308 = ORIENTED_EDGE ( 'NONE', *, *, #644, .T. ) ;
#309 = DIRECTION ( 'NONE',  ( -0.4999999999999997224, 0.000000000000000000, -0.8660254037844387076 ) ) ;
#310 = DIRECTION ( 'NONE',  ( -0.4999999999999997224, 0.000000000000000000, -0.8660254037844387076 ) ) ;
#311 = DIRECTION ( 'NONE',  ( 1.000000000000000000, 0.000000000000000000, 0.000000000000000000 ) ) ;
#312 = ADVANCED_FACE ( 'NONE', ( #906 ), #401, .F. ) ;
#313 = VERTEX_POINT ( 'NONE', #733 ) ;
#314 = DIRECTION ( 'NONE',  ( 1.000000000000000000, 0.000000000000000000, 0.000000000000000000 ) ) ;
#315 =( NAMED_UNIT ( * ) PLANE_ANGLE_UNIT ( ) SI_UNIT ( $, .RADIAN. ) );
#316 = CARTESIAN_POINT ( 'NONE',  ( 2.187728048327699071, 0.5000000000000000000, 9.244582278125481167 ) ) ;
#317 = CARTESIAN_POINT ( 'NONE',  ( 5.486766154004353524, 1.000000000000000000, 8.110607681909920430 ) ) ;
#318 = DIRECTION ( 'NONE',  ( -0.8660254037844383745, -0.000000000000000000, 0.5000000000000006661 ) ) ;
#319 = PLANE ( 'NONE',  #618 ) ;
#320 = DIRECTION ( 'NONE',  ( -0.000000000000000000, -1.000000000000000000, -0.000000000000000000 ) ) ;
#321 = DIRECTION ( 'NONE',  ( 1.000000000000000000, 0.000000000000000000, 0.000000000000000000 ) ) ;
#322 = EDGE_CURVE ( 'NONE', #2, #1017, #221, .T. ) ;
#323 = PERSON_AND_ORGANIZATION ( #883, #640 ) ;
#324 = DIRECTION ( 'NONE',  ( 1.000000000000000000, 0.000000000000000000, 0.000000000000000000 ) ) ;
#325 = CC_DESIGN_SECURITY_CLASSIFICATION ( #927, ( #358 ) ) ;
#326 = CARTESIAN_POINT ( 'NONE',  ( 3.687728048327699071, 0.5000000000000000000, 9.494582278125481167 ) ) ;
#327 = CIRCLE ( 'NONE', #1044, 0.2500000000000002776 ) ;
#328 = COORDINATED_UNIVERSAL_TIME_OFFSET ( 8, 0, .BEHIND. ) ;
#329 = EDGE_CURVE ( 'NONE', #847, #702, #86, .T. ) ;
#330 = DIRECTION ( 'NONE',  ( -0.5000000000000009992, 0.000000000000000000, -0.8660254037844381525 ) ) ;
#331 = VERTEX_POINT ( 'NONE', #986 ) ;
#332 = CARTESIAN_POINT ( 'NONE',  ( 3.687728048327699071, 0.5000000000000000000, 9.244582278125481167 ) ) ;
#333 = CIRCLE ( 'NONE', #149, 0.2109499999999995545 ) ;
#334 = APPROVAL_ROLE ( '' ) ;
#335 = CYLINDRICAL_SURFACE ( 'NONE', #350, 0.2500000000000005551 ) ;
#336 = EDGE_CURVE ( 'NONE', #337, #171, #365, .T. ) ;
#337 = VERTEX_POINT ( 'NONE', #911 ) ;
#338 = CIRCLE ( 'NONE', #173, 0.1562499999999998057 ) ;
#339 = DIRECTION ( 'NONE',  ( 0.8660254037844381525, -0.000000000000000000, -0.5000000000000006661 ) ) ;
#340 = ORIENTED_EDGE ( 'NONE', *, *, #523, .F. ) ;
#341 = ADVANCED_FACE ( 'NONE', ( #529 ), #290, .F. ) ;
#342 = LINE ( 'NONE', #100, #635 ) ;
#343 = ORIENTED_EDGE ( 'NONE', *, *, #865, .T. ) ;
#344 = ORIENTED_EDGE ( 'NONE', *, *, #4, .F. ) ;
#345 = PRODUCT_DEFINITION ( 'UNKNOWN', '', #358, #193 ) ;
#346 = LINE ( 'NONE', #201, #767 ) ;
#347 = EDGE_LOOP ( 'NONE', ( #194, #38, #343 ) ) ;
#348 = CARTESIAN_POINT ( 'NONE',  ( 3.565179953611527619, 1.000000000000000000, 7.923829102652427459 ) ) ;
#349 = VERTEX_POINT ( 'NONE', #355 ) ;
#350 = AXIS2_PLACEMENT_3D ( 'NONE', #364, #34, #532 ) ;
#351 = EDGE_CURVE ( 'NONE', #120, #807, #333, .T. ) ;
#352 = DIRECTION ( 'NONE',  ( 0.8660254037844383745, -0.000000000000000000, -0.5000000000000007772 ) ) ;
#353 = AXIS2_PLACEMENT_3D ( 'NONE', #552, #138, #369 ) ;
#354 = ORIENTED_EDGE ( 'NONE', *, *, #302, .T. ) ;
#355 = CARTESIAN_POINT ( 'NONE',  ( 1.937728048327698849, 0.5000000000000000000, 9.494582278125481167 ) ) ;
#356 = ORIENTED_EDGE ( 'NONE', *, *, #83, .T. ) ;
#357 = CIRCLE ( 'NONE', #489, 0.1562499999999997224 ) ;
#358 = PRODUCT_DEFINITION_FORMATION_WITH_SPECIFIED_SOURCE ( 'ANY', '', #825, .NOT_KNOWN. ) ;
#359 = FACE_OUTER_BOUND ( 'NONE', #417, .T. ) ;
#360 = CC_DESIGN_PERSON_AND_ORGANIZATION_ASSIGNMENT ( #419, #493, ( #358 ) ) ;
#361 = VERTEX_POINT ( 'NONE', #215 ) ;
#362 = DIRECTION ( 'NONE',  ( 1.000000000000000000, 0.000000000000000000, 0.000000000000000000 ) ) ;
#363 = ORIENTED_EDGE ( 'NONE', *, *, #377, .F. ) ;
#364 = CARTESIAN_POINT ( 'NONE',  ( 4.020259803058242376, 0.5000000000000000000, 6.070544172448824050 ) ) ;
#365 = CIRCLE ( 'NONE', #1031, 0.2109499999999995545 ) ;
#366 = EDGE_LOOP ( 'NONE', ( #589, #439 ) ) ;
#367 = DIRECTION ( 'NONE',  ( -0.4999999999999997224, 0.000000000000000000, -0.8660254037844387076 ) ) ;
#368 = ORIENTED_EDGE ( 'NONE', *, *, #200, .T. ) ;
#369 = DIRECTION ( 'NONE',  ( 0.5000000000000002220, 0.000000000000000000, 0.8660254037844385966 ) ) ;
#370 = APPLICATION_CONTEXT ( 'configuration controlled 3d designs of mechanical parts and assemblies' ) ;
#371 = CONICAL_SURFACE ( 'NONE', #698, 0.1562499999999997224, 1.029744258676651203 ) ;
#372 = DIRECTION ( 'NONE',  ( 0.5000000000000002220, 0.000000000000000000, 0.8660254037844385966 ) ) ;
#373 = CIRCLE ( 'NONE', #7, 0.1562499999999997224 ) ;
#374 = VERTEX_POINT ( 'NONE', #776 ) ;
#375 = DIRECTION ( 'NONE',  ( -0.8571673007021102242, 1.049727191138616107E-16, 0.5150380749100575972 ) ) ;
#376 = VECTOR ( 'NONE', #69, 39.37007874015748143 ) ;
#377 = EDGE_CURVE ( 'NONE', #994, #514, #583, .T. ) ;
#378 = ORIENTED_EDGE ( 'NONE', *, *, #89, .F. ) ;
#379 = CARTESIAN_POINT ( 'NONE',  ( 2.031478048327699071, 0.5000000000000000000, 9.244582278125481167 ) ) ;
#380 = CARTESIAN_POINT ( 'NONE',  ( 4.147687588159922889, 0.4999999999999997780, 7.729024513987012845 ) ) ;
#381 = LINE ( 'NONE', #703, #951 ) ;
#382 = EDGE_LOOP ( 'NONE', ( #727, #1021 ) ) ;
#383 = CARTESIAN_POINT ( 'NONE',  ( 3.565179953611527619, 0.000000000000000000, 7.923829102652427459 ) ) ;
#384 = CARTESIAN_POINT ( 'NONE',  ( 2.187728048327699071, 0.5000000000000000000, 9.244582278125481167 ) ) ;
#385 = CARTESIAN_POINT ( 'NONE',  ( 4.236766154004351748, 0.5000000000000000000, 5.945544172448823161 ) ) ;
#386 = AXIS2_PLACEMENT_3D ( 'NONE', #326, #179, #659 ) ;
#387 = CARTESIAN_POINT ( 'NONE',  ( 2.187728048327699071, 0.5000000000000000000, 8.619582278125481167 ) ) ;
#388 = CARTESIAN_POINT ( 'NONE',  ( 3.687728048327699071, 0.5000000000000000000, 9.244582278125481167 ) ) ;
#389 = EDGE_CURVE ( 'NONE', #446, #2, #56, .T. ) ;
#390 = VECTOR ( 'NONE', #924, 39.37007874015748854 ) ;
#391 = CARTESIAN_POINT ( 'NONE',  ( 4.145259803058242376, 0.5000000000000000000, 6.287050523394934309 ) ) ;
#392 = DIRECTION ( 'NONE',  ( 1.000000000000000000, 0.000000000000000000, 0.000000000000000000 ) ) ;
#393 = CIRCLE ( 'NONE', #426, 0.2499999999999996114 ) ;
#394 = FACE_OUTER_BOUND ( 'NONE', #827, .T. ) ;
#395 = CARTESIAN_POINT ( 'NONE',  ( 3.687728048327699071, 0.5000000000000000000, 8.619582278125481167 ) ) ;
#396 = CARTESIAN_POINT ( 'NONE',  ( 3.687728048327699071, 0.5000000000000000000, 9.494582278125481167 ) ) ;
#397 = EDGE_CURVE ( 'NONE', #584, #478, #933, .T. ) ;
#398 = DIRECTION ( 'NONE',  ( 0.8660254037844383745, -0.000000000000000000, -0.5000000000000007772 ) ) ;
#399 = DIRECTION ( 'NONE',  ( 0.4999999999999990563, 0.000000000000000000, 0.8660254037844392627 ) ) ;
#400 = DIRECTION ( 'NONE',  ( 0.000000000000000000, 0.000000000000000000, 1.000000000000000000 ) ) ;
#401 = CONICAL_SURFACE ( 'NONE', #677, 0.1562499999999998057, 1.029744258676654534 ) ;
#402 = ORIENTED_EDGE ( 'NONE', *, *, #511, .F. ) ;
#403 = EDGE_CURVE ( 'NONE', #648, #144, #381, .T. ) ;
#404 = DIRECTION ( 'NONE',  ( 0.000000000000000000, 0.000000000000000000, 1.000000000000000000 ) ) ;
#405 = ORIENTED_EDGE ( 'NONE', *, *, #466, .F. ) ;
#406 = CALENDAR_DATE ( 2026, 22, 8 ) ;
#407 = CARTESIAN_POINT ( 'NONE',  ( 3.478993925692968947, 0.5000000000000000000, 6.383044172448825826 ) ) ;
#408 = EDGE_LOOP ( 'NONE', ( #971, #378, #109, #755 ) ) ;
#409 = DIRECTION ( 'NONE',  ( -0.4999999999999997224, 0.000000000000000000, -0.8660254037844387076 ) ) ;
#410 = ADVANCED_FACE ( 'NONE', ( #1025 ), #792, .F. ) ;
#411 = APPROVAL_STATUS ( 'not_yet_approved' ) ;
#412 = CARTESIAN_POINT ( 'NONE',  ( 3.400868925692968947, 0.5000000000000000000, 6.247727703107507580 ) ) ;
#413 = VERTEX_POINT ( 'NONE', #534 ) ;
#414 = FACE_OUTER_BOUND ( 'NONE', #663, .T. ) ;
#415 = CARTESIAN_POINT ( 'NONE',  ( 0.6288823215157088864, 1.000000000000000000, 9.494582278125481167 ) ) ;
#416 = ORIENTED_EDGE ( 'NONE', *, *, #616, .F. ) ;
#417 = EDGE_LOOP ( 'NONE', ( #694, #697, #178, #219 ) ) ;
#418 = CONICAL_SURFACE ( 'NONE', #1014, 0.1562499999999998057, 1.029744258676654534 ) ;
#419 = PERSON_AND_ORGANIZATION ( #883, #640 ) ;
#420 = CYLINDRICAL_SURFACE ( 'NONE', #163, 0.2499999999999993339 ) ;
#421 = ADVANCED_FACE ( 'NONE', ( #199 ), #870, .F. ) ;
#422 = UNCERTAINTY_MEASURE_WITH_UNIT (LENGTH_MEASURE( 1.000000000000000082E-05 ), #809, 'distance_accuracy_value', 'NONE');
#423 = ORIENTED_EDGE ( 'NONE', *, *, #25, .T. ) ;
#424 = AXIS2_PLACEMENT_3D ( 'NONE', #110, #432, #758 ) ;
#425 = AXIS2_PLACEMENT_3D ( 'NONE', #222, #467, #720 ) ;
#426 = AXIS2_PLACEMENT_3D ( 'NONE', #741, #318, #113 ) ;
#427 = FACE_OUTER_BOUND ( 'NONE', #239, .T. ) ;
#428 = EDGE_CURVE ( 'NONE', #601, #922, #762, .T. ) ;
#429 = EDGE_LOOP ( 'NONE', ( #738, #740, #578 ) ) ;
#430 = EDGE_CURVE ( 'NONE', #478, #331, #531, .T. ) ;
#431 = AXIS2_PLACEMENT_3D ( 'NONE', #237, #88, #888 ) ;
#432 = DIRECTION ( 'NONE',  ( 0.000000000000000000, 1.000000000000000000, 0.000000000000000000 ) ) ;
#433 = ORIENTED_EDGE ( 'NONE', *, *, #322, .T. ) ;
#434 = DIRECTION ( 'NONE',  ( 1.000000000000000000, 0.000000000000000000, 0.000000000000000000 ) ) ;
#435 = ORIENTED_EDGE ( 'NONE', *, *, #14, .T. ) ;
#436 = EDGE_CURVE ( 'NONE', #448, #687, #103, .T. ) ;
#437 = VECTOR ( 'NONE', #452, 39.37007874015748143 ) ;
#438 = CARTESIAN_POINT ( 'NONE',  ( 4.770259803058242376, 0.5000000000000000000, 7.369582278125482055 ) ) ;
#439 = ORIENTED_EDGE ( 'NONE', *, *, #286, .T. ) ;
#440 = CARTESIAN_POINT ( 'NONE',  ( 4.228993925692971168, 0.5000000000000000000, 7.682082278125484720 ) ) ;
#441 = VECTOR ( 'NONE', #233, 39.37007874015748143 ) ;
#442 = ORIENTED_EDGE ( 'NONE', *, *, #542, .T. ) ;
#443 = ADVANCED_FACE ( 'NONE', ( #867 ), #551, .F. ) ;
#444 = LINE ( 'NONE', #948, #244 ) ;
#445 = VECTOR ( 'NONE', #782, 39.37007874015748143 ) ;
#446 = VERTEX_POINT ( 'NONE', #124 ) ;
#447 = LINE ( 'NONE', #119, #886 ) ;
#448 = VERTEX_POINT ( 'NONE', #691 ) ;
#449 = DIRECTION ( 'NONE',  ( -0.000000000000000000, 1.000000000000000000, -0.000000000000000000 ) ) ;
#450 = EDGE_CURVE ( 'NONE', #584, #331, #136, .T. ) ;
#451 = ORIENTED_EDGE ( 'NONE', *, *, #979, .T. ) ;
#452 = DIRECTION ( 'NONE',  ( 0.8571673007021102242, 0.000000000000000000, 0.5150380749100575972 ) ) ;
#453 = EDGE_LOOP ( 'NONE', ( #949, #442 ) ) ;
#454 = CARTESIAN_POINT ( 'NONE',  ( 4.687728048327699959, 1.000000000000000000, 9.494582278125479391 ) ) ;
#455 = CARTESIAN_POINT ( 'NONE',  ( 4.228993925692971168, 0.5000000000000000000, 7.682082278125484720 ) ) ;
#456 = ORIENTED_EDGE ( 'NONE', *, *, #200, .F. ) ;
#457 = DIRECTION ( 'NONE',  ( 0.000000000000000000, 0.000000000000000000, 1.000000000000000000 ) ) ;
#458 = EDGE_CURVE ( 'NONE', #621, #838, #447, .T. ) ;
#459 = EDGE_LOOP ( 'NONE', ( #190, #544, #840, #614 ) ) ;
#460 = DIRECTION ( 'NONE',  ( 0.000000000000000000, 0.000000000000000000, 1.000000000000000000 ) ) ;
#461 = CARTESIAN_POINT ( 'NONE',  ( 4.228993925692971168, 0.5000000000000000000, 7.682082278125484720 ) ) ;
#462 = CARTESIAN_POINT ( 'NONE',  ( 2.343978048327698627, 0.5000000000000000000, 8.619582278125481167 ) ) ;
#463 = ADVANCED_FACE ( 'NONE', ( #1005 ), #418, .F. ) ;
#464 = AXIS2_PLACEMENT_3D ( 'NONE', #500, #747, #830 ) ;
#465 = ORIENTED_EDGE ( 'NONE', *, *, #276, .T. ) ;
#466 = EDGE_CURVE ( 'NONE', #374, #1017, #939, .T. ) ;
#467 = DIRECTION ( 'NONE',  ( -0.8660254037844383745, -0.000000000000000000, 0.5000000000000006661 ) ) ;
#468 = CARTESIAN_POINT ( 'NONE',  ( 4.645259803058242376, 0.5000000000000000000, 7.153075927179372684 ) ) ;
#469 =( GEOMETRIC_REPRESENTATION_CONTEXT ( 3 ) GLOBAL_UNCERTAINTY_ASSIGNED_CONTEXT ( ( #422 ) ) GLOBAL_UNIT_ASSIGNED_CONTEXT ( ( #809, #315, #481 ) ) REPRESENTATION_CONTEXT ( 'NONE', 'WORKASPACE' ) );
#470 = CIRCLE ( 'NONE', #787, 0.2499999999999998057 ) ;
#471 = DIRECTION ( 'NONE',  ( -0.4999999999999998335, 0.000000000000000000, 0.8660254037844385966 ) ) ;
#472 = ORIENTED_EDGE ( 'NONE', *, *, #64, .F. ) ;
#473 = CARTESIAN_POINT ( 'NONE',  ( 3.478993925692968947, 0.5000000000000000000, 6.383044172448825826 ) ) ;
#474 = ADVANCED_FACE ( 'NONE', ( #294 ), #943, .F. ) ;
#475 = DIRECTION ( 'NONE',  ( -0.8660254037844387076, 0.000000000000000000, -0.4999999999999998890 ) ) ;
#476 = VECTOR ( 'NONE', #168, 39.37007874015748854 ) ;
#477 = PLANE ( 'NONE',  #822 ) ;
#478 = VERTEX_POINT ( 'NONE', #72 ) ;
#479 = DIRECTION ( 'NONE',  ( 1.000000000000000000, 0.000000000000000000, 0.000000000000000000 ) ) ;
#480 = APPROVAL ( #169, 'UNSPECIFIED' ) ;
#481 =( NAMED_UNIT ( * ) SI_UNIT ( $, .STERADIAN. ) SOLID_ANGLE_UNIT ( ) );
#482 = CIRCLE ( 'NONE', #106, 0.1562499999999997224 ) ;
#483 = CARTESIAN_POINT ( 'NONE',  ( 2.343978048327699071, 0.5000000000000000000, 9.244582278125481167 ) ) ;
#484 = DIRECTION ( 'NONE',  ( 0.8660254037844382635, -0.000000000000000000, -0.5000000000000006661 ) ) ;
#485 = FACE_OUTER_BOUND ( 'NONE', #50, .T. ) ;
#486 = DIRECTION ( 'NONE',  ( 0.8660254037844381525, -0.000000000000000000, -0.5000000000000006661 ) ) ;
#487 = LINE ( 'NONE', #391, #671 ) ;
#488 = EDGE_CURVE ( 'NONE', #27, #313, #832, .T. ) ;
#489 = AXIS2_PLACEMENT_3D ( 'NONE', #744, #104, #191 ) ;
#490 = EDGE_LOOP ( 'NONE', ( #123, #850 ) ) ;
#491 = DIRECTION ( 'NONE',  ( 0.000000000000000000, -0.000000000000000000, 1.000000000000000000 ) ) ;
#492 = ORIENTED_EDGE ( 'NONE', *, *, #145, .T. ) ;
#493 = PERSON_AND_ORGANIZATION_ROLE ( 'creator' ) ;
#494 = CARTESIAN_POINT ( 'NONE',  ( 2.437728048327699071, 0.5000000000000000000, 9.244582278125481167 ) ) ;
#495 = ADVANCED_FACE ( 'NONE', ( #153 ), #708, .F. ) ;
#496 = AXIS2_PLACEMENT_3D ( 'NONE', #897, #814, #37 ) ;
#497 = ORIENTED_EDGE ( 'NONE', *, *, #377, .T. ) ;
#498 = FACE_OUTER_BOUND ( 'NONE', #942, .T. ) ;
#499 = COORDINATED_UNIVERSAL_TIME_OFFSET ( 8, 0, .BEHIND. ) ;
#500 = CARTESIAN_POINT ( 'NONE',  ( 2.187728048327699071, 0.5000000000000000000, 9.244582278125481167 ) ) ;
#501 = AXIS2_PLACEMENT_3D ( 'NONE', #527, #116, #122 ) ;
#502 = VERTEX_POINT ( 'NONE', #307 ) ;
#503 = DIRECTION ( 'NONE',  ( 0.000000000000000000, 0.000000000000000000, 1.000000000000000000 ) ) ;
#504 = EDGE_CURVE ( 'NONE', #838, #502, #566, .T. ) ;
#505 = ORIENTED_EDGE ( 'NONE', *, *, #89, .T. ) ;
#506 = DIRECTION ( 'NONE',  ( 1.000000000000000000, 0.000000000000000000, -0.000000000000000000 ) ) ;
#507 = VERTEX_POINT ( 'NONE', #494 ) ;
#508 = LOCAL_TIME ( 17, 51, 35.00000000000000000, #328 ) ;
#509 = DIRECTION ( 'NONE',  ( 0.000000000000000000, 0.000000000000000000, 1.000000000000000000 ) ) ;
#510 = VERTEX_POINT ( 'NONE', #811 ) ;
#511 = EDGE_CURVE ( 'NONE', #670, #27, #487, .T. ) ;
#512 = APPROVAL_STATUS ( 'not_yet_approved' ) ;
#513 = CARTESIAN_POINT ( 'NONE',  ( 3.687728048327699071, 0.5000000000000000000, 9.244582278125481167 ) ) ;
#514 = VERTEX_POINT ( 'NONE', #483 ) ;
#515 = EDGE_LOOP ( 'NONE', ( #938, #611, #497, #675 ) ) ;
#516 = AXIS2_PLACEMENT_3D ( 'NONE', #134, #60, #51 ) ;
#517 = EDGE_CURVE ( 'NONE', #957, #197, #13, .T. ) ;
#518 = DIRECTION ( 'NONE',  ( -0.4999999999999997224, 0.000000000000000000, -0.8660254037844387076 ) ) ;
#519 = ORIENTED_EDGE ( 'NONE', *, *, #247, .F. ) ;
#520 = AXIS2_PLACEMENT_3D ( 'NONE', #388, #1039, #783 ) ;
#521 = CIRCLE ( 'NONE', #959, 0.2500000000000000555 ) ;
#522 = CARTESIAN_POINT ( 'NONE',  ( 4.307118925692971168, 0.5000000000000000000, 7.817398747466802966 ) ) ;
#523 = EDGE_CURVE ( 'NONE', #621, #648, #874, .T. ) ;
#524 = DIMENSIONAL_EXPONENTS ( 1.000000000000000000, 0.000000000000000000, 0.000000000000000000, 0.000000000000000000, 0.000000000000000000, 0.000000000000000000, 0.000000000000000000 ) ;
#525 = ORIENTED_EDGE ( 'NONE', *, *, #247, .T. ) ;
#526 = AXIS2_PLACEMENT_3D ( 'NONE', #571, #804, #225 ) ;
#527 = CARTESIAN_POINT ( 'NONE',  ( 3.565179953611527619, 1.000000000000000000, 7.923829102652427459 ) ) ;
#528 = VERTEX_POINT ( 'NONE', #1029 ) ;
#529 = FACE_OUTER_BOUND ( 'NONE', #1037, .T. ) ;
#530 = EDGE_CURVE ( 'NONE', #1017, #2, #470, .T. ) ;
#531 = CIRCLE ( 'NONE', #68, 0.1562499999999997224 ) ;
#532 = DIRECTION ( 'NONE',  ( -0.5000000000000006661, 0.000000000000000000, -0.8660254037844383745 ) ) ;
#533 = EDGE_LOOP ( 'NONE', ( #920, #623 ) ) ;
#534 = CARTESIAN_POINT ( 'NONE',  ( 3.843978048327699071, 0.5000000000000000000, 8.619582278125481167 ) ) ;
#535 = VECTOR ( 'NONE', #1016, 39.37007874015748143 ) ;
#536 = CARTESIAN_POINT ( 'NONE',  ( 3.457343290598357211, 1.000000000000000000, 4.595544172448823517 ) ) ;
#537 = AXIS2_PLACEMENT_3D ( 'NONE', #387, #564, #712 ) ;
#538 = EDGE_LOOP ( 'NONE', ( #277, #569 ) ) ;
#539 = DIRECTION ( 'NONE',  ( 0.5000000000000025535, 0.000000000000000000, 0.8660254037844371533 ) ) ;
#540 = APPLICATION_CONTEXT ( 'configuration controlled 3d designs of mechanical parts and assemblies' ) ;
#541 = FACE_OUTER_BOUND ( 'NONE', #133, .T. ) ;
#542 = EDGE_CURVE ( 'NONE', #999, #507, #688, .T. ) ;
#543 = DIRECTION ( 'NONE',  ( 0.8660254037844382635, -0.000000000000000000, -0.5000000000000007772 ) ) ;
#544 = ORIENTED_EDGE ( 'NONE', *, *, #644, .F. ) ;
#545 = DIRECTION ( 'NONE',  ( 0.8660254037844387076, -0.000000000000000000, 0.4999999999999999445 ) ) ;
#546 = ORIENTED_EDGE ( 'NONE', *, *, #763, .F. ) ;
#547 = CARTESIAN_POINT ( 'NONE',  ( 4.020259803058243264, 0.5000000000000000000, 6.070544172448824938 ) ) ;
#548 = CIRCLE ( 'NONE', #256, 0.2499999999999998057 ) ;
#549 = PLANE ( 'NONE',  #424 ) ;
#550 = ORIENTED_EDGE ( 'NONE', *, *, #4, .T. ) ;
#551 = CYLINDRICAL_SURFACE ( 'NONE', #745, 0.1562499999999998057 ) ;
#552 = CARTESIAN_POINT ( 'NONE',  ( 4.020259803058242376, 0.5000000000000000000, 6.070544172448824050 ) ) ;
#553 = DIRECTION ( 'NONE',  ( -0.4999999999999997224, 0.000000000000000000, -0.8660254037844387076 ) ) ;
#554 = DIRECTION ( 'NONE',  ( 0.8660254037844382635, -0.000000000000000000, -0.5000000000000006661 ) ) ;
#555 = AXIS2_PLACEMENT_3D ( 'NONE', #473, #872, #645 ) ;
#556 = CARTESIAN_POINT ( 'NONE',  ( 0.6288823215157088864, 1.000000000000000000, 9.494582278125481167 ) ) ;
#557 = EDGE_CURVE ( 'NONE', #966, #670, #327, .T. ) ;
#558 = ORIENTED_EDGE ( 'NONE', *, *, #632, .F. ) ;
#559 = DIRECTION ( 'NONE',  ( 0.8746197071393959632, 1.049727191138618449E-16, 0.4848096202463363924 ) ) ;
#560 =( LENGTH_UNIT ( ) NAMED_UNIT ( * ) SI_UNIT ( $, .METRE. ) );
#561 = CARTESIAN_POINT ( 'NONE',  ( 4.692134803058245041, 0.5000000000000000000, 7.234265808784165586 ) ) ;
#562 = APPROVAL ( #411, 'UNSPECIFIED' ) ;
#563 = ORIENTED_EDGE ( 'NONE', *, *, #517, .T. ) ;
#564 = DIRECTION ( 'NONE',  ( -0.000000000000000000, -0.000000000000000000, 1.000000000000000000 ) ) ;
#565 = FACE_OUTER_BOUND ( 'NONE', #408, .T. ) ;
#566 = LINE ( 'NONE', #899, #810 ) ;
#567 = VECTOR ( 'NONE', #766, 39.37007874015748143 ) ;
#568 = FACE_OUTER_BOUND ( 'NONE', #180, .T. ) ;
#569 = ORIENTED_EDGE ( 'NONE', *, *, #650, .F. ) ;
#570 = CARTESIAN_POINT ( 'NONE',  ( 2.187728048327699071, 0.5000000000000000000, 9.244582278125481167 ) ) ;
#571 = CARTESIAN_POINT ( 'NONE',  ( 4.020259803058243264, 0.5000000000000000000, 6.070544172448824938 ) ) ;
#572 = EDGE_LOOP ( 'NONE', ( #114, #771, #155, #1012 ) ) ;
#573 = CARTESIAN_POINT ( 'NONE',  ( 0.000000000000000000, 1.000000000000000000, 0.000000000000000000 ) ) ;
#574 = DATE_AND_TIME ( #580, #831 ) ;
#575 = ADVANCED_FACE ( 'NONE', ( #969 ), #243, .F. ) ;
#576 = CARTESIAN_POINT ( 'NONE',  ( 2.187728048327699071, 0.5000000000000000000, 9.244582278125481167 ) ) ;
#577 = DIRECTION ( 'NONE',  ( 0.5000000000000009992, 0.000000000000000000, 0.8660254037844381525 ) ) ;
#578 = ORIENTED_EDGE ( 'NONE', *, *, #763, .T. ) ;
#579 = DIRECTION ( 'NONE',  ( -0.8571673007021105573, 1.049727191138616477E-16, 0.5150380749100569311 ) ) ;
#580 = CALENDAR_DATE ( 2026, 22, 8 ) ;
#581 = FACE_BOUND ( 'NONE', #991, .T. ) ;
#582 = CC_DESIGN_PERSON_AND_ORGANIZATION_ASSIGNMENT ( #586, #903, ( #345 ) ) ;
#583 = CIRCLE ( 'NONE', #516, 0.1562500000000000000 ) ;
#584 = VERTEX_POINT ( 'NONE', #789 ) ;
#585 = DIRECTION ( 'NONE',  ( -0.000000000000000000, -0.000000000000000000, 1.000000000000000000 ) ) ;
#586 = PERSON_AND_ORGANIZATION ( #883, #640 ) ;
#587 = PLANE ( 'NONE',  #805 ) ;
#588 = CIRCLE ( 'NONE', #988, 0.2500000000000002776 ) ;
#589 = ORIENTED_EDGE ( 'NONE', *, *, #270, .T. ) ;
#590 = EDGE_CURVE ( 'NONE', #41, #889, #231, .T. ) ;
#591 = PLANE ( 'NONE',  #211 ) ;
#592 = AXIS2_PLACEMENT_3D ( 'NONE', #699, #962, #1022 ) ;
#593 = DIRECTION ( 'NONE',  ( 0.8746197071393959632, 1.049727191138618449E-16, 0.4848096202463363924 ) ) ;
#594 = ORIENTED_EDGE ( 'NONE', *, *, #126, .T. ) ;
#595 = CC_DESIGN_PERSON_AND_ORGANIZATION_ASSIGNMENT ( #87, #735, ( #927 ) ) ;
#596 = DATE_AND_TIME ( #406, #737 ) ;
#597 = CARTESIAN_POINT ( 'NONE',  ( 4.770259803058242376, 0.5000000000000000000, 7.369582278125482055 ) ) ;
#598 = EDGE_LOOP ( 'NONE', ( #465, #472, #790, #594 ) ) ;
#599 = CARTESIAN_POINT ( 'NONE',  ( 4.770259803058242376, 0.5000000000000000000, 7.369582278125482055 ) ) ;
#600 = DIRECTION ( 'NONE',  ( -0.4999999999999998890, -0.000000000000000000, 0.8660254037844385966 ) ) ;
#601 = VERTEX_POINT ( 'NONE', #561 ) ;
#602 = ORIENTED_EDGE ( 'NONE', *, *, #92, .T. ) ;
#603 = AXIS2_PLACEMENT_3D ( 'NONE', #881, #141, #392 ) ;
#604 = CARTESIAN_POINT ( 'NONE',  ( 4.098384803058243264, 0.5000000000000000000, 6.205860641790143184 ) ) ;
#605 = ORIENTED_EDGE ( 'NONE', *, *, #802, .F. ) ;
#606 = CARTESIAN_POINT ( 'NONE',  ( 3.937728048327699071, 0.5000000000000000000, 9.244582278125481167 ) ) ;
#607 = AXIS2_PLACEMENT_3D ( 'NONE', #230, #879, #71 ) ;
#608 = LINE ( 'NONE', #604, #260 ) ;
#609 = ORIENTED_EDGE ( 'NONE', *, *, #632, .T. ) ;
#610 = DIRECTION ( 'NONE',  ( -0.000000000000000000, -0.000000000000000000, 1.000000000000000000 ) ) ;
#611 = ORIENTED_EDGE ( 'NONE', *, *, #158, .T. ) ;
#612 = VECTOR ( 'NONE', #852, 39.37007874015748143 ) ;
#613 = DIRECTION ( 'NONE',  ( -0.4999999999999997224, 0.000000000000000000, -0.8660254037844387076 ) ) ;
#614 = ORIENTED_EDGE ( 'NONE', *, *, #276, .F. ) ;
#615 = DIRECTION ( 'NONE',  ( 0.8660254037844381525, -0.000000000000000000, -0.5000000000000006661 ) ) ;
#616 = EDGE_CURVE ( 'NONE', #813, #922, #1046, .T. ) ;
#617 = ORIENTED_EDGE ( 'NONE', *, *, #849, .F. ) ;
#618 = AXIS2_PLACEMENT_3D ( 'NONE', #384, #873, #157 ) ;
#619 = AXIS2_PLACEMENT_3D ( 'NONE', #53, #229, #952 ) ;
#620 = CARTESIAN_POINT ( 'NONE',  ( 4.848384803058245041, 0.5000000000000000000, 7.504898747466802966 ) ) ;
#621 = VERTEX_POINT ( 'NONE', #147 ) ;
#622 = DIRECTION ( 'NONE',  ( 0.4999999999999998890, 0.000000000000000000, -0.8660254037844385966 ) ) ;
#623 = ORIENTED_EDGE ( 'NONE', *, *, #97, .T. ) ;
#624 = LINE ( 'NONE', #946, #803 ) ;
#625 = ADVANCED_FACE ( 'NONE', ( #165 ), #711, .F. ) ;
#626 = CARTESIAN_POINT ( 'NONE',  ( 3.687728048327699071, 0.5000000000000000000, 8.619582278125481167 ) ) ;
#627 = EDGE_LOOP ( 'NONE', ( #456, #685 ) ) ;
#628 = DIRECTION ( 'NONE',  ( 1.000000000000000000, 0.000000000000000000, 0.000000000000000000 ) ) ;
#629 = CARTESIAN_POINT ( 'NONE',  ( 2.187728048327699071, 0.5000000000000000000, 9.494582278125481167 ) ) ;
#630 = VECTOR ( 'NONE', #79, 39.37007874015748854 ) ;
#631 = DIRECTION ( 'NONE',  ( -0.8660254037844383745, -0.000000000000000000, 0.5000000000000006661 ) ) ;
#632 = EDGE_CURVE ( 'NONE', #361, #687, #1034, .T. ) ;
#633 = CARTESIAN_POINT ( 'NONE',  ( 4.020259803058242376, 0.5000000000000000000, 6.070544172448824050 ) ) ;
#634 = PLANE ( 'NONE',  #353 ) ;
#635 = VECTOR ( 'NONE', #666, 39.37007874015748143 ) ;
#636 = DIRECTION ( 'NONE',  ( 1.000000000000000000, 0.000000000000000000, -2.692241270091322985E-16 ) ) ;
#637 = ADVANCED_FACE ( 'NONE', ( #248 ), #965, .F. ) ;
#638 = CYLINDRICAL_SURFACE ( 'NONE', #592, 0.2499999999999998057 ) ;
#639 = CARTESIAN_POINT ( 'NONE',  ( 2.031478048327699071, 0.5000000000000000000, 9.244582278125481167 ) ) ;
#640 = ORGANIZATION ( 'UNSPECIFIED', 'UNSPECIFIED', '' ) ;
#641 = DIRECTION ( 'NONE',  ( 0.8660254037844382635, -0.000000000000000000, -0.5000000000000006661 ) ) ;
#642 = CARTESIAN_POINT ( 'NONE',  ( 3.457343290598357211, 1.000000000000000000, 4.595544172448823517 ) ) ;
#643 = ORIENTED_EDGE ( 'NONE', *, *, #436, .F. ) ;
#644 = EDGE_CURVE ( 'NONE', #889, #838, #271, .T. ) ;
#645 = DIRECTION ( 'NONE',  ( -0.4999999999999997224, 0.000000000000000000, -0.8660254037844387076 ) ) ;
#646 = CARTESIAN_POINT ( 'NONE',  ( 4.687728048327699959, 1.000000000000000000, 9.494582278125479391 ) ) ;
#647 = LINE ( 'NONE', #82, #441 ) ;
#648 = VERTEX_POINT ( 'NONE', #669 ) ;
#649 = CARTESIAN_POINT ( 'NONE',  ( 3.565179953611527619, 1.000000000000000000, 7.923829102652427459 ) ) ;
#650 = EDGE_CURVE ( 'NONE', #702, #847, #99, .T. ) ;
#651 = CARTESIAN_POINT ( 'NONE',  ( 3.895259803058241488, 0.5000000000000000000, 5.854037821502713790 ) ) ;
#652 = CARTESIAN_POINT ( 'NONE',  ( 2.187728048327699071, 0.5000000000000000000, 9.244582278125481167 ) ) ;
#653 = DIRECTION ( 'NONE',  ( 0.000000000000000000, 1.000000000000000000, 0.000000000000000000 ) ) ;
#654 = EDGE_CURVE ( 'NONE', #331, #478, #357, .T. ) ;
#655 = PERSON_AND_ORGANIZATION ( #883, #640 ) ;
#656 = CARTESIAN_POINT ( 'NONE',  ( 5.111766154004352636, 0.5000000000000000000, 7.461088629071590539 ) ) ;
#657 = VECTOR ( 'NONE', #895, 39.37007874015748143 ) ;
#658 = ORIENTED_EDGE ( 'NONE', *, *, #940, .F. ) ;
#659 = DIRECTION ( 'NONE',  ( 1.000000000000000000, 0.000000000000000000, 0.000000000000000000 ) ) ;
#660 = CALENDAR_DATE ( 2026, 22, 8 ) ;
#661 = CARTESIAN_POINT ( 'NONE',  ( 4.145259803058242376, 0.5000000000000000000, 6.287050523394934309 ) ) ;
#662 = EDGE_CURVE ( 'NONE', #983, #813, #989, .T. ) ;
#663 = EDGE_LOOP ( 'NONE', ( #268, #192, #936, #48 ) ) ;
#664 = DIRECTION ( 'NONE',  ( 1.000000000000000000, 0.000000000000000000, 0.000000000000000000 ) ) ;
#665 = COORDINATED_UNIVERSAL_TIME_OFFSET ( 8, 0, .BEHIND. ) ;
#666 = DIRECTION ( 'NONE',  ( -0.000000000000000000, -0.000000000000000000, 1.000000000000000000 ) ) ;
#667 = EDGE_LOOP ( 'NONE', ( #558, #356, #1030, #841 ) ) ;
#668 = AXIS2_PLACEMENT_3D ( 'NONE', #984, #23, #518 ) ;
#669 = CARTESIAN_POINT ( 'NONE',  ( 4.687728048327699959, 1.000000000000000000, 9.494582278125479391 ) ) ;
#670 = VERTEX_POINT ( 'NONE', #661 ) ;
#671 = VECTOR ( 'NONE', #303, 39.37007874015748143 ) ;
#672 = EDGE_LOOP ( 'NONE', ( #128, #719 ) ) ;
#673 = APPLICATION_PROTOCOL_DEFINITION ( 'international standard', 'config_control_design', 1994, #370 ) ;
#674 = CARTESIAN_POINT ( 'NONE',  ( 3.565179953611527619, 0.000000000000000000, 7.712879102652427932 ) ) ;
#675 = ORIENTED_EDGE ( 'NONE', *, *, #187, .F. ) ;
#676 = ORIENTED_EDGE ( 'NONE', *, *, #557, .T. ) ;
#677 = AXIS2_PLACEMENT_3D ( 'NONE', #728, #91, #409 ) ;
#678 = ADVANCED_FACE ( 'NONE', ( #95 ), #420, .F. ) ;
#679 = DIRECTION ( 'NONE',  ( 0.8660254037844382635, -0.000000000000000000, -0.5000000000000007772 ) ) ;
#680 = ORIENTED_EDGE ( 'NONE', *, *, #97, .F. ) ;
#681 = ORIENTED_EDGE ( 'NONE', *, *, #389, .T. ) ;
#682 = CONICAL_SURFACE ( 'NONE', #537, 0.1562499999999997224, 1.029744258676650537 ) ;
#683 = VECTOR ( 'NONE', #559, 39.37007874015748854 ) ;
#684 = DIRECTION ( 'NONE',  ( -0.000000000000000000, -0.000000000000000000, 1.000000000000000000 ) ) ;
#685 = ORIENTED_EDGE ( 'NONE', *, *, #517, .F. ) ;
#686 = CARTESIAN_POINT ( 'NONE',  ( 2.187728048327699071, 0.5000000000000000000, 8.619582278125481167 ) ) ;
#687 = VERTEX_POINT ( 'NONE', #656 ) ;
#688 = CIRCLE ( 'NONE', #739, 0.2500000000000000555 ) ;
#689 = CARTESIAN_POINT ( 'NONE',  ( 3.687728048327699071, 0.5000000000000000000, 9.244582278125481167 ) ) ;
#690 = ORIENTED_EDGE ( 'NONE', *, *, #286, .F. ) ;
#691 = CARTESIAN_POINT ( 'NONE',  ( 4.861766154004351748, 0.5000000000000000000, 7.028075927179372684 ) ) ;
#692 = ORIENTED_EDGE ( 'NONE', *, *, #397, .T. ) ;
#693 = CARTESIAN_POINT ( 'NONE',  ( 4.645259803058242376, 0.5000000000000000000, 7.153075927179372684 ) ) ;
#694 = ORIENTED_EDGE ( 'NONE', *, *, #1002, .F. ) ;
#695 = DIRECTION ( 'NONE',  ( -0.000000000000000000, -1.000000000000000000, -0.000000000000000000 ) ) ;
#696 = CC_DESIGN_PERSON_AND_ORGANIZATION_ASSIGNMENT ( #28, #823, ( #825 ) ) ;
#697 = ORIENTED_EDGE ( 'NONE', *, *, #917, .T. ) ;
#698 = AXIS2_PLACEMENT_3D ( 'NONE', #626, #684, #1011 ) ;
#699 = CARTESIAN_POINT ( 'NONE',  ( 3.687728048327699071, 0.5000000000000000000, 9.244582278125481167 ) ) ;
#700 = LINE ( 'NONE', #770, #535 ) ;
#701 = CIRCLE ( 'NONE', #35, 0.2499999999999998057 ) ;
#702 = VERTEX_POINT ( 'NONE', #263 ) ;
#703 = CARTESIAN_POINT ( 'NONE',  ( 4.687728048327699959, 1.000000000000000000, 9.494582278125479391 ) ) ;
#704 = ORIENTED_EDGE ( 'NONE', *, *, #351, .F. ) ;
#705 = DIRECTION ( 'NONE',  ( -0.4999999999999997224, 0.000000000000000000, -0.8660254037844387076 ) ) ;
#706 = ADVANCED_FACE ( 'NONE', ( #980 ), #298, .F. ) ;
#707 = CARTESIAN_POINT ( 'NONE',  ( 4.770259803058245041, 0.5000000000000000000, 7.369582278125483832 ) ) ;
#708 = PLANE ( 'NONE',  #914 ) ;
#709 = VERTEX_POINT ( 'NONE', #252 ) ;
#710 = DIRECTION ( 'NONE',  ( -0.000000000000000000, -1.000000000000000000, -0.000000000000000000 ) ) ;
#711 = CYLINDRICAL_SURFACE ( 'NONE', #196, 0.1562499999999997224 ) ;
#712 = DIRECTION ( 'NONE',  ( 1.000000000000000000, 0.000000000000000000, 0.000000000000000000 ) ) ;
#713 = CIRCLE ( 'NONE', #603, 0.2500000000000000555 ) ;
#714 = VECTOR ( 'NONE', #1, 39.37007874015748143 ) ;
#715 = DIRECTION ( 'NONE',  ( 0.8660254037844381525, -0.000000000000000000, -0.5000000000000006661 ) ) ;
#716 = AXIS2_PLACEMENT_3D ( 'NONE', #383, #798, #460 ) ;
#717 = DIRECTION ( 'NONE',  ( -0.000000000000000000, -0.000000000000000000, 1.000000000000000000 ) ) ;
#718 = DIRECTION ( 'NONE',  ( -0.000000000000000000, -0.000000000000000000, 1.000000000000000000 ) ) ;
#719 = ORIENTED_EDGE ( 'NONE', *, *, #25, .F. ) ;
#720 = DIRECTION ( 'NONE',  ( 0.5000000000000009992, 0.000000000000000000, 0.8660254037844381525 ) ) ;
#721 = CARTESIAN_POINT ( 'NONE',  ( 4.020259803058242376, 0.5000000000000000000, 6.070544172448824050 ) ) ;
#722 = CARTESIAN_POINT ( 'NONE',  ( 3.457343290598357211, 1.000000000000000000, 4.595544172448823517 ) ) ;
#723 = CARTESIAN_POINT ( 'NONE',  ( 4.687728048327699959, 0.000000000000000000, 9.494582278125479391 ) ) ;
#724 = DIRECTION ( 'NONE',  ( -0.000000000000000000, -0.000000000000000000, 1.000000000000000000 ) ) ;
#725 = DIRECTION ( 'NONE',  ( 0.4999999999999990563, 0.000000000000000000, 0.8660254037844392627 ) ) ;
#726 = CARTESIAN_POINT ( 'NONE',  ( 4.020259803058242376, 0.5000000000000000000, 6.070544172448824050 ) ) ;
#727 = ORIENTED_EDGE ( 'NONE', *, *, #70, .T. ) ;
#728 = CARTESIAN_POINT ( 'NONE',  ( 3.478993925692968947, 0.5000000000000000000, 6.383044172448825826 ) ) ;
#729 = ADVANCED_FACE ( 'NONE', ( #427 ), #998, .F. ) ;
#730 = DATE_AND_TIME ( #660, #508 ) ;
#731 = CARTESIAN_POINT ( 'NONE',  ( 0.6288823215157088864, 0.000000000000000000, 9.494582278125481167 ) ) ;
#732 = CIRCLE ( 'NONE', #555, 0.1562499999999998057 ) ;
#733 = CARTESIAN_POINT ( 'NONE',  ( 4.111766154004350859, 0.5000000000000000000, 5.729037821502713790 ) ) ;
#734 = EDGE_LOOP ( 'NONE', ( #868, #828, #563, #797 ) ) ;
#735 = PERSON_AND_ORGANIZATION_ROLE ( 'classification_officer' ) ;
#736 = DIRECTION ( 'NONE',  ( -0.4999999999999998335, 0.000000000000000000, -0.8660254037844385966 ) ) ;
#737 = LOCAL_TIME ( 17, 51, 35.00000000000000000, #499 ) ;
#738 = ORIENTED_EDGE ( 'NONE', *, *, #145, .F. ) ;
#739 = AXIS2_PLACEMENT_3D ( 'NONE', #316, #400, #77 ) ;
#740 = ORIENTED_EDGE ( 'NONE', *, *, #793, .T. ) ;
#741 = CARTESIAN_POINT ( 'NONE',  ( 4.986766154004351748, 0.5000000000000000000, 7.244582278125481167 ) ) ;
#742 = APPROVAL_ROLE ( '' ) ;
#743 = ADVANCED_FACE ( 'NONE', ( #918, #581, #904 ), #587, .T. ) ;
#744 = CARTESIAN_POINT ( 'NONE',  ( 2.187728048327699071, 0.5000000000000000000, 8.619582278125481167 ) ) ;
#745 = AXIS2_PLACEMENT_3D ( 'NONE', #279, #1013, #367 ) ;
#746 = ORIENTED_EDGE ( 'NONE', *, *, #793, .F. ) ;
#747 = DIRECTION ( 'NONE',  ( 0.000000000000000000, 0.000000000000000000, 1.000000000000000000 ) ) ;
#748 = AXIS2_PLACEMENT_3D ( 'NONE', #689, #132, #212 ) ;
#749 = ORIENTED_EDGE ( 'NONE', *, *, #466, .T. ) ;
#750 = CIRCLE ( 'NONE', #425, 0.2499999999999993339 ) ;
#751 = ORIENTED_EDGE ( 'NONE', *, *, #258, .T. ) ;
#752 = VECTOR ( 'NONE', #579, 39.37007874015748854 ) ;
#753 = AXIS2_PLACEMENT_3D ( 'NONE', #909, #170, #188 ) ;
#754 = DIRECTION ( 'NONE',  ( 0.8660254037844387076, 0.000000000000000000, -0.4999999999999998890 ) ) ;
#755 = ORIENTED_EDGE ( 'NONE', *, *, #329, .T. ) ;
#756 = MANIFOLD_SOLID_BREP ( '3/8-16 Tapped Hole2', #907 ) ;
#757 = EDGE_LOOP ( 'NONE', ( #779, #264, #340, #297 ) ) ;
#758 = DIRECTION ( 'NONE',  ( 0.000000000000000000, -0.000000000000000000, 1.000000000000000000 ) ) ;
#759 = ORIENTED_EDGE ( 'NONE', *, *, #302, .F. ) ;
#760 = CARTESIAN_POINT ( 'NONE',  ( 3.687728048327699071, 0.5000000000000000000, 9.244582278125481167 ) ) ;
#761 = EDGE_LOOP ( 'NONE', ( #344, #254 ) ) ;
#762 = CIRCLE ( 'NONE', #202, 0.1562499999999998057 ) ;
#763 = EDGE_CURVE ( 'NONE', #528, #925, #26, .T. ) ;
#764 = LINE ( 'NONE', #859, #390 ) ;
#765 = EDGE_LOOP ( 'NONE', ( #690, #749, #101, #819 ) ) ;
#766 = DIRECTION ( 'NONE',  ( -0.000000000000000000, -0.000000000000000000, 1.000000000000000000 ) ) ;
#767 = VECTOR ( 'NONE', #679, 39.37007874015748854 ) ;
#768 = ORIENTED_EDGE ( 'NONE', *, *, #198, .T. ) ;
#769 = EDGE_CURVE ( 'NONE', #507, #999, #923, .T. ) ;
#770 = CARTESIAN_POINT ( 'NONE',  ( 3.531478048327699515, 0.5000000000000000000, 9.244582278125481167 ) ) ;
#771 = ORIENTED_EDGE ( 'NONE', *, *, #654, .F. ) ;
#772 = DIRECTION ( 'NONE',  ( -0.4999999999999997224, 0.000000000000000000, -0.8660254037844387076 ) ) ;
#773 = ORIENTED_EDGE ( 'NONE', *, *, #542, .F. ) ;
#774 = LINE ( 'NONE', #1006, #74 ) ;
#775 = ORIENTED_EDGE ( 'NONE', *, *, #70, .F. ) ;
#776 = CARTESIAN_POINT ( 'NONE',  ( 3.437728048327699515, 0.5000000000000000000, 9.244582278125481167 ) ) ;
#777 = FACE_OUTER_BOUND ( 'NONE', #58, .T. ) ;
#778 = CYLINDRICAL_SURFACE ( 'NONE', #748, 0.1562499999999997224 ) ;
#779 = ORIENTED_EDGE ( 'NONE', *, *, #504, .T. ) ;
#780 = CARTESIAN_POINT ( 'NONE',  ( 2.187728048327699071, 0.5000000000000000000, 9.244582278125481167 ) ) ;
#781 = ADVANCED_FACE ( 'NONE', ( #843, #177 ), #107, .T. ) ;
#782 = DIRECTION ( 'NONE',  ( -0.000000000000000000, -0.000000000000000000, 1.000000000000000000 ) ) ;
#783 = DIRECTION ( 'NONE',  ( 1.000000000000000000, 0.000000000000000000, 0.000000000000000000 ) ) ;
#784 = DIRECTION ( 'NONE',  ( 1.000000000000000000, 0.000000000000000000, 0.000000000000000000 ) ) ;
#785 = CARTESIAN_POINT ( 'NONE',  ( 4.020259803058243264, 0.5000000000000000000, 6.070544172448824938 ) ) ;
#786 = APPROVAL_PERSON_ORGANIZATION ( #992, #562, #742 ) ;
#787 = AXIS2_PLACEMENT_3D ( 'NONE', #396, #159, #81 ) ;
#788 = DIRECTION ( 'NONE',  ( 1.000000000000000000, 0.000000000000000000, 0.000000000000000000 ) ) ;
#789 = CARTESIAN_POINT ( 'NONE',  ( 2.187728048327698627, 0.5000000000000000000, 8.525697806402424916 ) ) ;
#790 = ORIENTED_EDGE ( 'NONE', *, *, #403, .F. ) ;
#791 = LINE ( 'NONE', #454, #125 ) ;
#792 = CONICAL_SURFACE ( 'NONE', #288, 0.1562499999999997224, 1.029744258676650537 ) ;
#793 = EDGE_CURVE ( 'NONE', #130, #528, #29, .T. ) ;
#794 = CYLINDRICAL_SURFACE ( 'NONE', #520, 0.1562499999999997224 ) ;
#795 = DIRECTION ( 'NONE',  ( -0.5000000000000009992, 0.000000000000000000, -0.8660254037844381525 ) ) ;
#796 = FACE_OUTER_BOUND ( 'NONE', #915, .T. ) ;
#797 = ORIENTED_EDGE ( 'NONE', *, *, #934, .F. ) ;
#798 = DIRECTION ( 'NONE',  ( -0.000000000000000000, 1.000000000000000000, -0.000000000000000000 ) ) ;
#799 = CIRCLE ( 'NONE', #90, 0.1562499999999998057 ) ;
#800 = AXIS2_PLACEMENT_3D ( 'NONE', #726, #484, #806 ) ;
#801 = CYLINDRICAL_SURFACE ( 'NONE', #224, 0.1562499999999998057 ) ;
#802 = EDGE_CURVE ( 'NONE', #507, #709, #342, .T. ) ;
#803 = VECTOR ( 'NONE', #216, 39.37007874015748143 ) ;
#804 = DIRECTION ( 'NONE',  ( 0.8660254037844383745, -0.000000000000000000, -0.5000000000000007772 ) ) ;
#805 = AXIS2_PLACEMENT_3D ( 'NONE', #913, #754, #736 ) ;
#806 = DIRECTION ( 'NONE',  ( -0.5000000000000006661, 0.000000000000000000, -0.8660254037844383745 ) ) ;
#807 = VERTEX_POINT ( 'NONE', #674 ) ;
#808 = CYLINDRICAL_SURFACE ( 'NONE', #970, 0.2109499999999995545 ) ;
#809 =( CONVERSION_BASED_UNIT ( 'INCH', #152 ) LENGTH_UNIT ( ) NAMED_UNIT ( #524 ) );
#810 = VECTOR ( 'NONE', #636, 39.37007874015748143 ) ;
#811 = CARTESIAN_POINT ( 'NONE',  ( 5.486766154004353524, 0.000000000000000000, 8.110607681909920430 ) ) ;
#812 = EDGE_CURVE ( 'NONE', #41, #621, #921, .T. ) ;
#813 = VERTEX_POINT ( 'NONE', #522 ) ;
#814 = DIRECTION ( 'NONE',  ( -0.000000000000000000, 1.000000000000000000, -0.000000000000000000 ) ) ;
#815 = PERSON_AND_ORGANIZATION ( #883, #640 ) ;
#816 = ORIENTED_EDGE ( 'NONE', *, *, #198, .F. ) ;
#817 = AXIS2_PLACEMENT_3D ( 'NONE', #255, #585, #175 ) ;
#818 = DIRECTION ( 'NONE',  ( -0.000000000000000000, -0.000000000000000000, 1.000000000000000000 ) ) ;
#819 = ORIENTED_EDGE ( 'NONE', *, *, #389, .F. ) ;
#820 = ADVANCED_FACE ( 'NONE', ( #19 ), #335, .F. ) ;
#821 = DIRECTION ( 'NONE',  ( -0.4999999999999997224, 0.000000000000000000, -0.8660254037844387076 ) ) ;
#822 = AXIS2_PLACEMENT_3D ( 'NONE', #556, #160, #1035 ) ;
#823 = PERSON_AND_ORGANIZATION_ROLE ( 'design_owner' ) ;
#824 = CIRCLE ( 'NONE', #501, 0.2109499999999995545 ) ;
#825 = PRODUCT ( 'base_plate_corner_connector_mm_Default_sldprt', 'base_plate_corner_connector_mm_Default_sldprt', '', ( #835 ) ) ;
#826 = DIRECTION ( 'NONE',  ( -0.4999999999999998890, -0.000000000000000000, 0.8660254037844385966 ) ) ;
#827 = EDGE_LOOP ( 'NONE', ( #1004, #692, #280 ) ) ;
#828 = ORIENTED_EDGE ( 'NONE', *, *, #849, .T. ) ;
#829 = CARTESIAN_POINT ( 'NONE',  ( 3.843978048327699071, 0.5000000000000000000, 8.619582278125481167 ) ) ;
#830 = DIRECTION ( 'NONE',  ( 1.000000000000000000, 0.000000000000000000, 0.000000000000000000 ) ) ;
#831 = LOCAL_TIME ( 17, 51, 35.00000000000000000, #186 ) ;
#832 = CIRCLE ( 'NONE', #929, 0.2500000000000002776 ) ;
#833 = ORIENTED_EDGE ( 'NONE', *, *, #769, .F. ) ;
#834 = LINE ( 'NONE', #977, #752 ) ;
#835 = MECHANICAL_CONTEXT ( 'NONE', #540, 'mechanical' ) ;
#836 = EDGE_CURVE ( 'NONE', #983, #259, #444, .T. ) ;
#837 = DIRECTION ( 'NONE',  ( 0.000000000000000000, 0.000000000000000000, 1.000000000000000000 ) ) ;
#838 = VERTEX_POINT ( 'NONE', #1003 ) ;
#839 = VECTOR ( 'NONE', #375, 39.37007874015748143 ) ;
#840 = ORIENTED_EDGE ( 'NONE', *, *, #885, .T. ) ;
#841 = ORIENTED_EDGE ( 'NONE', *, *, #258, .F. ) ;
#842 = APPROVAL_DATE_TIME ( #596, #562 ) ;
#843 = FACE_BOUND ( 'NONE', #538, .T. ) ;
#844 = ADVANCED_FACE ( 'NONE', ( #359 ), #778, .F. ) ;
#845 = VECTOR ( 'NONE', #887, 39.37007874015748143 ) ;
#846 = EDGE_LOOP ( 'NONE', ( #402, #451, #435, #981 ) ) ;
#847 = VERTEX_POINT ( 'NONE', #275 ) ;
#848 = DIRECTION ( 'NONE',  ( 1.000000000000000000, 0.000000000000000000, 0.000000000000000000 ) ) ;
#849 = EDGE_CURVE ( 'NONE', #925, #957, #608, .T. ) ;
#850 = ORIENTED_EDGE ( 'NONE', *, *, #336, .F. ) ;
#851 = CARTESIAN_POINT ( 'NONE',  ( 3.565179953611527619, 1.000000000000000000, 8.134779102652426985 ) ) ;
#852 = DIRECTION ( 'NONE',  ( -0.000000000000000000, -0.000000000000000000, 1.000000000000000000 ) ) ;
#853 = AXIS2_PLACEMENT_3D ( 'NONE', #299, #545, #622 ) ;
#854 = ADVANCED_FACE ( 'NONE', ( #45 ), #371, .F. ) ;
#855 = CARTESIAN_POINT ( 'NONE',  ( 3.457343290598357211, 0.000000000000000000, 4.595544172448823517 ) ) ;
#856 = ORIENTED_EDGE ( 'NONE', *, *, #885, .F. ) ;
#857 = DIRECTION ( 'NONE',  ( -0.000000000000000000, -0.000000000000000000, 1.000000000000000000 ) ) ;
#858 = AXIS2_PLACEMENT_3D ( 'NONE', #73, #718, #1041 ) ;
#859 = CARTESIAN_POINT ( 'NONE',  ( 4.692134803058245041, 0.5000000000000000000, 7.234265808784165586 ) ) ;
#860 = ORIENTED_EDGE ( 'NONE', *, *, #940, .T. ) ;
#861 = CARTESIAN_POINT ( 'NONE',  ( 2.031478048327699071, 0.5000000000000000000, 8.619582278125481167 ) ) ;
#862 = ORIENTED_EDGE ( 'NONE', *, *, #871, .F. ) ;
#863 = CYLINDRICAL_SURFACE ( 'NONE', #894, 0.1562499999999998057 ) ;
#864 = LINE ( 'NONE', #851, #891 ) ;
#865 = EDGE_CURVE ( 'NONE', #813, #259, #338, .T. ) ;
#866 = ORIENTED_EDGE ( 'NONE', *, *, #1033, .F. ) ;
#867 = FACE_OUTER_BOUND ( 'NONE', #734, .T. ) ;
#868 = ORIENTED_EDGE ( 'NONE', *, *, #92, .F. ) ;
#869 = DIRECTION ( 'NONE',  ( 0.8660254037844383745, -0.000000000000000000, -0.5000000000000007772 ) ) ;
#870 = CYLINDRICAL_SURFACE ( 'NONE', #304, 0.2500000000000000555 ) ;
#871 = EDGE_CURVE ( 'NONE', #259, #601, #764, .T. ) ;
#872 = DIRECTION ( 'NONE',  ( 0.8660254037844383745, -0.000000000000000000, -0.5000000000000007772 ) ) ;
#873 = DIRECTION ( 'NONE',  ( 0.000000000000000000, 0.000000000000000000, 1.000000000000000000 ) ) ;
#874 = LINE ( 'NONE', #880, #657 ) ;
#875 = ADVANCED_FACE ( 'NONE', ( #937, #195 ), #208, .T. ) ;
#876 = FACE_OUTER_BOUND ( 'NONE', #765, .T. ) ;
#877 = APPROVAL_PERSON_ORGANIZATION ( #655, #954, #334 ) ;
#878 = AXIS2_PLACEMENT_3D ( 'NONE', #257, #993, #324 ) ;
#879 = DIRECTION ( 'NONE',  ( 0.000000000000000000, 0.000000000000000000, 1.000000000000000000 ) ) ;
#880 = CARTESIAN_POINT ( 'NONE',  ( 0.6288823215157088864, 1.000000000000000000, 9.494582278125481167 ) ) ;
#881 = CARTESIAN_POINT ( 'NONE',  ( 2.187728048327699071, 0.5000000000000000000, 9.494582278125481167 ) ) ;
#882 = ORIENTED_EDGE ( 'NONE', *, *, #458, .F. ) ;
#883 = PERSON ( 'UNSPECIFIED', 'UNSPECIFIED', 'UNSPECIFIED', ('UNSPECIFIED'), ('UNSPECIFIED'), ('UNSPECIFIED') ) ;
#884 = LINE ( 'NONE', #379, #376 ) ;
#885 = EDGE_CURVE ( 'NONE', #889, #510, #774, .T. ) ;
#886 = VECTOR ( 'NONE', #695, 39.37007874015748143 ) ;
#887 = DIRECTION ( 'NONE',  ( -0.000000000000000000, 1.000000000000000000, -0.000000000000000000 ) ) ;
#888 = DIRECTION ( 'NONE',  ( 1.000000000000000000, 0.000000000000000000, 0.000000000000000000 ) ) ;
#889 = VERTEX_POINT ( 'NONE', #855 ) ;
#890 = FACE_BOUND ( 'NONE', #490, .T. ) ;
#891 = VECTOR ( 'NONE', #449, 39.37007874015748143 ) ;
#892 = EDGE_CURVE ( 'NONE', #41, #144, #292, .T. ) ;
#893 = FACE_OUTER_BOUND ( 'NONE', #453, .T. ) ;
#894 = AXIS2_PLACEMENT_3D ( 'NONE', #785, #75, #309 ) ;
#895 = DIRECTION ( 'NONE',  ( 1.000000000000000000, 0.000000000000000000, -2.692241270091322985E-16 ) ) ;
#896 = ORIENTED_EDGE ( 'NONE', *, *, #871, .T. ) ;
#897 = CARTESIAN_POINT ( 'NONE',  ( 3.565179953611527619, 1.000000000000000000, 7.923829102652427459 ) ) ;
#898 = COORDINATED_UNIVERSAL_TIME_OFFSET ( 8, 0, .BEHIND. ) ;
#899 = CARTESIAN_POINT ( 'NONE',  ( 0.6288823215157088864, 0.000000000000000000, 9.494582278125481167 ) ) ;
#900 = EDGE_CURVE ( 'NONE', #120, #171, #864, .T. ) ;
#901 = ORIENTED_EDGE ( 'NONE', *, *, #802, .T. ) ;
#902 = LINE ( 'NONE', #829, #476 ) ;
#903 = PERSON_AND_ORGANIZATION_ROLE ( 'creator' ) ;
#904 = FACE_OUTER_BOUND ( 'NONE', #84, .T. ) ;
#905 = EDGE_LOOP ( 'NONE', ( #31, #96, #354 ) ) ;
#906 = FACE_OUTER_BOUND ( 'NONE', #429, .T. ) ;
#907 = CLOSED_SHELL ( 'NONE', ( #443, #706, #729, #463, #266, #52, #575, #844, #854, #625, #166, #218, #151, #11, #495, #341, #253, #928, #474, #781, #421, #1028, #410, #637, #33, #990, #743, #678, #875, #820, #137, #291, #947, #996, #312, #143 ) ) ;
#908 = VECTOR ( 'NONE', #600, 39.37007874015748854 ) ;
#909 = CARTESIAN_POINT ( 'NONE',  ( 3.478993925692968947, 0.5000000000000000000, 6.383044172448825826 ) ) ;
#910 = VERTEX_POINT ( 'NONE', #693 ) ;
#911 = CARTESIAN_POINT ( 'NONE',  ( 3.565179953611527619, 1.000000000000000000, 7.712879102652427932 ) ) ;
#912 = EDGE_CURVE ( 'NONE', #171, #337, #824, .T. ) ;
#913 = CARTESIAN_POINT ( 'NONE',  ( 3.457343290598357211, 1.000000000000000000, 4.595544172448823517 ) ) ;
#914 = AXIS2_PLACEMENT_3D ( 'NONE', #646, #475, #471 ) ;
#915 = EDGE_LOOP ( 'NONE', ( #519, #976, #505 ) ) ;
#916 = EDGE_LOOP ( 'NONE', ( #184, #273 ) ) ;
#917 = EDGE_CURVE ( 'NONE', #213, #702, #700, .T. ) ;
#918 = FACE_BOUND ( 'NONE', #382, .T. ) ;
#919 = EDGE_LOOP ( 'NONE', ( #816, #833, #901, #112 ) ) ;
#920 = ORIENTED_EDGE ( 'NONE', *, *, #351, .T. ) ;
#921 = LINE ( 'NONE', #415, #908 ) ;
#922 = VERTEX_POINT ( 'NONE', #620 ) ;
#923 = CIRCLE ( 'NONE', #464, 0.2500000000000000555 ) ;
#924 = DIRECTION ( 'NONE',  ( 0.8660254037844382635, -0.000000000000000000, -0.5000000000000007772 ) ) ;
#925 = VERTEX_POINT ( 'NONE', #941 ) ;
#926 = CARTESIAN_POINT ( 'NONE',  ( 2.187728048327699071, 0.5000000000000000000, 8.619582278125481167 ) ) ;
#927 = SECURITY_CLASSIFICATION ( '', '', #251 ) ;
#928 = ADVANCED_FACE ( 'NONE', ( #1023, #296 ), #549, .F. ) ;
#929 = AXIS2_PLACEMENT_3D ( 'NONE', #385, #960, #139 ) ;
#930 = FACE_OUTER_BOUND ( 'NONE', #905, .T. ) ;
#931 = ADVANCED_BREP_SHAPE_REPRESENTATION ( 'base_plate_corner_connector_mm_Default_sldprt', ( #756, #607 ), #469 ) ;
#932 = EDGE_LOOP ( 'NONE', ( #189, #363 ) ) ;
#933 = LINE ( 'NONE', #861, #839 ) ;
#934 = EDGE_CURVE ( 'NONE', #528, #197, #346, .T. ) ;
#935 = AXIS2_PLACEMENT_3D ( 'NONE', #220, #210, #539 ) ;
#936 = ORIENTED_EDGE ( 'NONE', *, *, #892, .F. ) ;
#937 = FACE_BOUND ( 'NONE', #985, .T. ) ;
#938 = ORIENTED_EDGE ( 'NONE', *, *, #430, .F. ) ;
#939 = LINE ( 'NONE', #1018, #567 ) ;
#940 = EDGE_CURVE ( 'NONE', #922, #601, #799, .T. ) ;
#941 = CARTESIAN_POINT ( 'NONE',  ( 3.557118925692969391, 0.5000000000000000000, 6.518360641790144072 ) ) ;
#942 = EDGE_LOOP ( 'NONE', ( #866, #704, #185, #44 ) ) ;
#943 = CYLINDRICAL_SURFACE ( 'NONE', #431, 0.2499999999999998057 ) ;
#944 = VECTOR ( 'NONE', #826, 39.37007874015748854 ) ;
#945 = ORIENTED_EDGE ( 'NONE', *, *, #590, .F. ) ;
#946 = CARTESIAN_POINT ( 'NONE',  ( 2.343978048327698627, 0.5000000000000000000, 9.244582278125481167 ) ) ;
#947 = ADVANCED_FACE ( 'NONE', ( #930 ), #1019, .F. ) ;
#948 = CARTESIAN_POINT ( 'NONE',  ( 4.150868925692971168, 0.5000000000000000000, 7.546765808784166474 ) ) ;
#949 = ORIENTED_EDGE ( 'NONE', *, *, #769, .T. ) ;
#950 = DIRECTION ( 'NONE',  ( -0.4999999999999997224, 0.000000000000000000, -0.8660254037844387076 ) ) ;
#951 = VECTOR ( 'NONE', #204, 39.37007874015748854 ) ;
#952 = DIRECTION ( 'NONE',  ( 0.4999999999999990563, 0.000000000000000000, 0.8660254037844392627 ) ) ;
#953 = LINE ( 'NONE', #468, #21 ) ;
#954 = APPROVAL ( #512, 'UNSPECIFIED' ) ;
#955 = DIRECTION ( 'NONE',  ( -0.8660254037844383745, -0.000000000000000000, 0.5000000000000006661 ) ) ;
#956 = FACE_BOUND ( 'NONE', #916, .T. ) ;
#957 = VERTEX_POINT ( 'NONE', #968 ) ;
#958 = LINE ( 'NONE', #1032, #683 ) ;
#959 = AXIS2_PLACEMENT_3D ( 'NONE', #629, #241, #3 ) ;
#960 = DIRECTION ( 'NONE',  ( -0.8660254037844383745, -0.000000000000000000, 0.5000000000000006661 ) ) ;
#961 = EDGE_CURVE ( 'NONE', #413, #847, #1049, .T. ) ;
#962 = DIRECTION ( 'NONE',  ( -0.000000000000000000, -0.000000000000000000, 1.000000000000000000 ) ) ;
#963 = CC_DESIGN_APPROVAL ( #562, ( #358 ) ) ;
#964 = CARTESIAN_POINT ( 'NONE',  ( 1.937728048327698849, 0.5000000000000000000, 9.244582278125481167 ) ) ;
#965 = CYLINDRICAL_SURFACE ( 'NONE', #283, 0.1562499999999997224 ) ;
#966 = VERTEX_POINT ( 'NONE', #651 ) ;
#967 = CARTESIAN_POINT ( 'NONE',  ( 3.565179953611527619, 0.000000000000000000, 8.134779102652426985 ) ) ;
#968 = CARTESIAN_POINT ( 'NONE',  ( 4.098384803058243264, 0.5000000000000000000, 6.205860641790143184 ) ) ;
#969 = FACE_OUTER_BOUND ( 'NONE', #1000, .T. ) ;
#970 = AXIS2_PLACEMENT_3D ( 'NONE', #649, #156, #503 ) ;
#971 = ORIENTED_EDGE ( 'NONE', *, *, #917, .F. ) ;
#972 = FACE_OUTER_BOUND ( 'NONE', #167, .T. ) ;
#973 = CARTESIAN_POINT ( 'NONE',  ( 3.437728048327699515, 0.5000000000000000000, 9.494582278125481167 ) ) ;
#974 = AXIS2_PLACEMENT_3D ( 'NONE', #547, #869, #705 ) ;
#975 = CARTESIAN_POINT ( 'NONE',  ( 4.895259803058242376, 0.5000000000000000000, 7.586088629071591427 ) ) ;
#976 = ORIENTED_EDGE ( 'NONE', *, *, #274, .T. ) ;
#977 = CARTESIAN_POINT ( 'NONE',  ( 3.531478048327699515, 0.5000000000000000000, 8.619582278125481167 ) ) ;
#978 = DATE_AND_TIME ( #182, #61 ) ;
#979 = EDGE_CURVE ( 'NONE', #670, #966, #588, .T. ) ;
#980 = FACE_OUTER_BOUND ( 'NONE', #300, .T. ) ;
#981 = ORIENTED_EDGE ( 'NONE', *, *, #488, .F. ) ;
#982 = CARTESIAN_POINT ( 'NONE',  ( 4.150868925692971168, 0.5000000000000000000, 7.546765808784166474 ) ) ;
#983 = VERTEX_POINT ( 'NONE', #380 ) ;
#984 = CARTESIAN_POINT ( 'NONE',  ( 4.770259803058245041, 0.5000000000000000000, 7.369582278125483832 ) ) ;
#985 = EDGE_LOOP ( 'NONE', ( #1024, #658 ) ) ;
#986 = CARTESIAN_POINT ( 'NONE',  ( 2.343978048327698627, 0.5000000000000000000, 8.619582278125481167 ) ) ;
#987 = APPROVAL_DATE_TIME ( #978, #954 ) ;
#988 = AXIS2_PLACEMENT_3D ( 'NONE', #721, #631, #399 ) ;
#989 = LINE ( 'NONE', #8, #30 ) ;
#990 = ADVANCED_FACE ( 'NONE', ( #565 ), #794, .F. ) ;
#991 = EDGE_LOOP ( 'NONE', ( #289, #751 ) ) ;
#992 = PERSON_AND_ORGANIZATION ( #883, #640 ) ;
#993 = DIRECTION ( 'NONE',  ( -0.000000000000000000, -0.000000000000000000, 1.000000000000000000 ) ) ;
#994 = VERTEX_POINT ( 'NONE', #639 ) ;
#995 = ORIENTED_EDGE ( 'NONE', *, *, #616, .T. ) ;
#996 = ADVANCED_FACE ( 'NONE', ( #223 ), #801, .F. ) ;
#997 = APPROVAL_ROLE ( '' ) ;
#998 = CYLINDRICAL_SURFACE ( 'NONE', #668, 0.1562499999999998057 ) ;
#999 = VERTEX_POINT ( 'NONE', #964 ) ;
#1000 = EDGE_LOOP ( 'NONE', ( #550, #609, #643, #118 ) ) ;
#1001 = AXIS2_PLACEMENT_3D ( 'NONE', #599, #32, #577 ) ;
#1002 = EDGE_CURVE ( 'NONE', #213, #413, #482, .T. ) ;
#1003 = CARTESIAN_POINT ( 'NONE',  ( 0.6288823215157088864, 0.000000000000000000, 9.494582278125481167 ) ) ;
#1004 = ORIENTED_EDGE ( 'NONE', *, *, #450, .F. ) ;
#1005 = FACE_OUTER_BOUND ( 'NONE', #347, .T. ) ;
#1006 = CARTESIAN_POINT ( 'NONE',  ( 3.457343290598357211, 0.000000000000000000, 4.595544172448823517 ) ) ;
#1007 = CC_DESIGN_DATE_AND_TIME_ASSIGNMENT ( #730, #6, ( #927 ) ) ;
#1008 = ORIENTED_EDGE ( 'NONE', *, *, #274, .F. ) ;
#1009 = DIRECTION ( 'NONE',  ( -0.000000000000000000, -0.000000000000000000, 1.000000000000000000 ) ) ;
#1010 = EDGE_LOOP ( 'NONE', ( #405, #105, #681, #433 ) ) ;
#1011 = DIRECTION ( 'NONE',  ( 1.000000000000000000, 0.000000000000000000, 0.000000000000000000 ) ) ;
#1012 = ORIENTED_EDGE ( 'NONE', *, *, #172, .T. ) ;
#1013 = DIRECTION ( 'NONE',  ( 0.8660254037844381525, -0.000000000000000000, -0.5000000000000006661 ) ) ;
#1014 = AXIS2_PLACEMENT_3D ( 'NONE', #440, #615, #772 ) ;
#1015 = ORIENTED_EDGE ( 'NONE', *, *, #865, .F. ) ;
#1016 = DIRECTION ( 'NONE',  ( -0.000000000000000000, -0.000000000000000000, 1.000000000000000000 ) ) ;
#1017 = VERTEX_POINT ( 'NONE', #973 ) ;
#1018 = CARTESIAN_POINT ( 'NONE',  ( 3.437728048327699515, 0.5000000000000000000, 9.244582278125481167 ) ) ;
#1019 = CONICAL_SURFACE ( 'NONE', #39, 0.1562499999999998057, 1.029744258676654534 ) ;
#1020 = EDGE_CURVE ( 'NONE', #910, #448, #953, .T. ) ;
#1021 = ORIENTED_EDGE ( 'NONE', *, *, #488, .T. ) ;
#1022 = DIRECTION ( 'NONE',  ( 1.000000000000000000, 0.000000000000000000, 0.000000000000000000 ) ) ;
#1023 = FACE_BOUND ( 'NONE', #533, .T. ) ;
#1024 = ORIENTED_EDGE ( 'NONE', *, *, #428, .F. ) ;
#1025 = FACE_OUTER_BOUND ( 'NONE', #46, .T. ) ;
#1026 = VECTOR ( 'NONE', #641, 39.37007874015748143 ) ;
#1027 = CARTESIAN_POINT ( 'NONE',  ( 1.937728048327698849, 0.5000000000000000000, 9.244582278125481167 ) ) ;
#1028 = ADVANCED_FACE ( 'NONE', ( #1045, #893 ), #319, .T. ) ;
#1029 = CARTESIAN_POINT ( 'NONE',  ( 3.400868925692968947, 0.5000000000000000000, 6.247727703107507580 ) ) ;
#1030 = ORIENTED_EDGE ( 'NONE', *, *, #1020, .T. ) ;
#1031 = AXIS2_PLACEMENT_3D ( 'NONE', #348, #261, #509 ) ;
#1032 = CARTESIAN_POINT ( 'NONE',  ( 3.557118925692968947, 0.5000000000000000000, 6.518360641790144072 ) ) ;
#1033 = EDGE_CURVE ( 'NONE', #807, #337, #236, .T. ) ;
#1034 = LINE ( 'NONE', #975, #1026 ) ;
#1035 = DIRECTION ( 'NONE',  ( -1.000000000000000000, 0.000000000000000000, 2.692241270091322985E-16 ) ) ;
#1036 = AXIS2_PLACEMENT_3D ( 'NONE', #438, #54, #372 ) ;
#1037 = EDGE_LOOP ( 'NONE', ( #308, #882, #203, #1042 ) ) ;
#1038 = FACE_BOUND ( 'NONE', #627, .T. ) ;
#1039 = DIRECTION ( 'NONE',  ( -0.000000000000000000, -0.000000000000000000, 1.000000000000000000 ) ) ;
#1040 = DIRECTION ( 'NONE',  ( 0.8660254037844382635, -0.000000000000000000, -0.5000000000000007772 ) ) ;
#1041 = DIRECTION ( 'NONE',  ( 1.000000000000000000, 0.000000000000000000, 0.000000000000000000 ) ) ;
#1042 = ORIENTED_EDGE ( 'NONE', *, *, #590, .T. ) ;
#1043 = CARTESIAN_POINT ( 'NONE',  ( 3.687728048327699071, 0.5000000000000000000, 8.619582278125481167 ) ) ;
#1044 = AXIS2_PLACEMENT_3D ( 'NONE', #633, #955, #725 ) ;
#1045 = FACE_BOUND ( 'NONE', #932, .T. ) ;
#1046 = LINE ( 'NONE', #66, #214 ) ;
#1047 = FACE_OUTER_BOUND ( 'NONE', #757, .T. ) ;
#1048 = CYLINDRICAL_SURFACE ( 'NONE', #176, 0.2500000000000000555 ) ;
#1049 = LINE ( 'NONE', #65, #306 ) ;
#1050 = CARTESIAN_POINT ( 'NONE',  ( 4.770259803058242376, 0.5000000000000000000, 7.369582278125482055 ) ) ;
ENDSEC;
END-ISO-10303-21;
