ISO-10303-21;
HEADER;
FILE_DESCRIPTION (( 'STEP AP203' ),
    '1' );
FILE_NAME ('MotorRotor_Default_sldprt.STEP',
    '2026-08-23T00:51:27',
    ( '' ),
    ( '' ),
    'SwSTEP 2.0',
    'SolidWorks 2025',
    '' );
FILE_SCHEMA (( 'CONFIG_CONTROL_DESIGN' ));
ENDSEC;

DATA;
#1 = ORIENTED_EDGE ( 'NONE', *, *, #492, .T. ) ;
#2 = DIRECTION ( 'NONE',  ( 1.000000000000000000, 0.000000000000000000, 0.000000000000000000 ) ) ;
#3 = CIRCLE ( 'NONE', #851, 10.00000000000000000 ) ;
#4 = CIRCLE ( 'NONE', #275, 10.70000000000001528 ) ;
#5 = CLOSED_SHELL ( 'NONE', ( #584, #413, #796, #102, #1141, #167, #712, #333, #551, #253, #843, #478, #751, #7, #128, #960, #292, #239, #656, #1000, #761, #356, #1106, #444, #151, #185, #1071, #383, #13, #405, #311, #504, #1063, #204, #562, #820, #962, #880, #979, #714, #1120 ) ) ;
#6 = DIRECTION ( 'NONE',  ( 0.000000000000000000, 0.000000000000000000, 1.000000000000000000 ) ) ;
#7 = ADVANCED_FACE ( 'NONE', ( #1138 ), #180, .F. ) ;
#8 = ORIENTED_EDGE ( 'NONE', *, *, #1136, .F. ) ;
#9 = DIRECTION ( 'NONE',  ( 1.000000000000000000, 0.000000000000000000, 0.000000000000000000 ) ) ;
#10 = ORIENTED_EDGE ( 'NONE', *, *, #511, .F. ) ;
#11 = CARTESIAN_POINT ( 'NONE',  ( 14.99038105676665289, 7.499999999999879208, -4.000000000000000000 ) ) ;
#12 = CARTESIAN_POINT ( 'NONE',  ( -2.000000000000000000, 13.50000000000000000, 0.000000000000000000 ) ) ;
#13 = ADVANCED_FACE ( 'NONE', ( #876 ), #89, .T. ) ;
#14 = DIRECTION ( 'NONE',  ( 1.000000000000000000, 0.000000000000000000, 0.000000000000000000 ) ) ;
#15 = EDGE_LOOP ( 'NONE', ( #543, #1115 ) ) ;
#16 = DIRECTION ( 'NONE',  ( -1.000000000000000000, 0.000000000000000000, 0.000000000000000000 ) ) ;
#17 = CARTESIAN_POINT ( 'NONE',  ( 0.000000000000000000, -15.00000000000000000, -4.000000000000000000 ) ) ;
#18 = CARTESIAN_POINT ( 'NONE',  ( 0.000000000000000000, 0.000000000000000000, -2.700000000000000178 ) ) ;
#19 = APPROVAL_DATE_TIME ( #385, #46 ) ;
#20 = ORIENTED_EDGE ( 'NONE', *, *, #132, .F. ) ;
#21 = CARTESIAN_POINT ( 'NONE',  ( 9.791342951090793889, -6.749999999999494626, 2.500000000000000000 ) ) ;
#22 = CONICAL_SURFACE ( 'NONE', #153, 20.49999999999998934, 0.7853981633974587151 ) ;
#23 = VECTOR ( 'NONE', #447, 1000.000000000000000 ) ;
#24 = AXIS2_PLACEMENT_3D ( 'NONE', #319, #713, #628 ) ;
#25 = CARTESIAN_POINT ( 'NONE',  ( 0.000000000000000000, 13.50000000000000000, 2.500000000000000000 ) ) ;
#26 = APPROVAL_STATUS ( 'not_yet_approved' ) ;
#27 = VERTEX_POINT ( 'NONE', #305 ) ;
#28 = CARTESIAN_POINT ( 'NONE',  ( -9.691342951089062296, -6.750000000000500044, 2.500000000000000000 ) ) ;
#29 = EDGE_CURVE ( 'NONE', #839, #604, #673, .T. ) ;
#30 = LINE ( 'NONE', #902, #784 ) ;
#31 = EDGE_LOOP ( 'NONE', ( #1108, #792 ) ) ;
#32 = DIRECTION ( 'NONE',  ( 1.000000000000000000, 0.000000000000000000, -0.000000000000000000 ) ) ;
#33 = DIRECTION ( 'NONE',  ( -1.000000000000000000, 0.000000000000000000, 0.000000000000000000 ) ) ;
#34 = APPROVAL_ROLE ( '' ) ;
#35 = CIRCLE ( 'NONE', #388, 2.000000000000000000 ) ;
#36 = ORIENTED_EDGE ( 'NONE', *, *, #499, .T. ) ;
#37 = FACE_OUTER_BOUND ( 'NONE', #234, .T. ) ;
#38 = CARTESIAN_POINT ( 'NONE',  ( -20.49999999999998934, 0.000000000000000000, 0.000000000000000000 ) ) ;
#39 = EDGE_CURVE ( 'NONE', #587, #532, #194, .T. ) ;
#40 = DIRECTION ( 'NONE',  ( 0.000000000000000000, 0.000000000000000000, -1.000000000000000000 ) ) ;
#41 = AXIS2_PLACEMENT_3D ( 'NONE', #270, #1133, #1045 ) ;
#42 = CIRCLE ( 'NONE', #209, 2.499999999999968026 ) ;
#43 = VERTEX_POINT ( 'NONE', #815 ) ;
#44 = CARTESIAN_POINT ( 'NONE',  ( 0.000000000000000000, 0.000000000000000000, -0.7000000000000148326 ) ) ;
#45 = DIRECTION ( 'NONE',  ( -1.000000000000000000, 0.000000000000000000, 0.000000000000000000 ) ) ;
#46 = APPROVAL ( #26, 'UNSPECIFIED' ) ;
#47 = PLANE ( 'NONE',  #907 ) ;
#48 = EDGE_CURVE ( 'NONE', #690, #920, #252, .T. ) ;
#49 = EDGE_LOOP ( 'NONE', ( #131, #1050, #381, #1029 ) ) ;
#50 = DIRECTION ( 'NONE',  ( 0.000000000000000000, 0.000000000000000000, -1.000000000000000000 ) ) ;
#51 = LOCAL_TIME ( 17, 51, 27.00000000000000000, #391 ) ;
#52 = PLANE ( 'NONE',  #909 ) ;
#53 = DIRECTION ( 'NONE',  ( -1.000000000000000000, 0.000000000000000000, 0.000000000000000000 ) ) ;
#54 = EDGE_LOOP ( 'NONE', ( #168, #146, #170, #1098 ) ) ;
#55 = DIRECTION ( 'NONE',  ( 1.000000000000000000, 0.000000000000000000, 0.000000000000000000 ) ) ;
#56 = ORIENTED_EDGE ( 'NONE', *, *, #693, .T. ) ;
#57 = CIRCLE ( 'NONE', #882, 2.000000000000000000 ) ;
#58 = CARTESIAN_POINT ( 'NONE',  ( 13.69134295109078714, -6.749999999999494626, 2.399999999999985256 ) ) ;
#59 = DIRECTION ( 'NONE',  ( 0.000000000000000000, 0.000000000000000000, 1.000000000000000000 ) ) ;
#60 = EDGE_LOOP ( 'NONE', ( #903, #260, #698, #995 ) ) ;
#61 = DIRECTION ( 'NONE',  ( -0.000000000000000000, -0.000000000000000000, -1.000000000000000000 ) ) ;
#62 = AXIS2_PLACEMENT_3D ( 'NONE', #948, #159, #845 ) ;
#63 = AXIS2_PLACEMENT_3D ( 'NONE', #418, #669, #236 ) ;
#64 = EDGE_CURVE ( 'NONE', #604, #839, #233, .T. ) ;
#65 = ORIENTED_EDGE ( 'NONE', *, *, #459, .F. ) ;
#66 = EDGE_CURVE ( 'NONE', #175, #455, #380, .T. ) ;
#67 = CARTESIAN_POINT ( 'NONE',  ( 0.000000000000000000, 13.50000000000000000, 2.500000000000000000 ) ) ;
#68 = ORIENTED_EDGE ( 'NONE', *, *, #99, .T. ) ;
#69 = CARTESIAN_POINT ( 'NONE',  ( 9.691342951090787139, -6.749999999999494626, 2.399999999999985256 ) ) ;
#70 = LOCAL_TIME ( 17, 51, 27.00000000000000000, #220 ) ;
#71 = CARTESIAN_POINT ( 'NONE',  ( 9.691342951090787139, -6.749999999999494626, 2.500000000000000000 ) ) ;
#72 = VERTEX_POINT ( 'NONE', #205 ) ;
#73 = CARTESIAN_POINT ( 'NONE',  ( 0.000000000000000000, 0.000000000000000000, -34.50000000000000000 ) ) ;
#74 = PRODUCT_DEFINITION ( 'UNKNOWN', '', #403, #214 ) ;
#75 = CARTESIAN_POINT ( 'NONE',  ( 7.000000000000000000, 0.000000000000000000, -0.6999999999999999556 ) ) ;
#76 = ORIENTED_EDGE ( 'NONE', *, *, #182, .T. ) ;
#77 = DIRECTION ( 'NONE',  ( 1.000000000000000000, 0.000000000000000000, 0.000000000000000000 ) ) ;
#78 = EDGE_LOOP ( 'NONE', ( #264, #406 ) ) ;
#79 = CARTESIAN_POINT ( 'NONE',  ( 12.99038105676665289, 7.499999999999879208, -4.000000000000000000 ) ) ;
#80 = AXIS2_PLACEMENT_3D ( 'NONE', #1043, #263, #526 ) ;
#81 = DIRECTION ( 'NONE',  ( 1.000000000000000000, 0.000000000000000000, -0.000000000000000000 ) ) ;
#82 = CONICAL_SURFACE ( 'NONE', #256, 1.899999999999985034, 0.7853981633974657095 ) ;
#83 = ORIENTED_EDGE ( 'NONE', *, *, #237, .T. ) ;
#84 = DIRECTION ( 'NONE',  ( 0.000000000000000000, 0.000000000000000000, 1.000000000000000000 ) ) ;
#85 = EDGE_CURVE ( 'NONE', #548, #95, #620, .T. ) ;
#86 = EDGE_LOOP ( 'NONE', ( #8, #221, #1044, #349 ) ) ;
#87 = LINE ( 'NONE', #433, #905 ) ;
#88 = DIRECTION ( 'NONE',  ( 0.000000000000000000, 0.000000000000000000, 1.000000000000000000 ) ) ;
#89 = CYLINDRICAL_SURFACE ( 'NONE', #1056, 2.000000000000000000 ) ;
#90 = DIRECTION ( 'NONE',  ( 1.000000000000000000, 0.000000000000000000, -0.000000000000000000 ) ) ;
#91 = VERTEX_POINT ( 'NONE', #370 ) ;
#92 = DIRECTION ( 'NONE',  ( 0.7071067811865549002, 8.659560562355022838E-17, -0.7071067811865401342 ) ) ;
#93 = EDGE_CURVE ( 'NONE', #710, #587, #819, .T. ) ;
#94 = DIRECTION ( 'NONE',  ( 1.000000000000000000, 0.000000000000000000, 0.000000000000000000 ) ) ;
#95 = VERTEX_POINT ( 'NONE', #568 ) ;
#96 = DIRECTION ( 'NONE',  ( 0.000000000000000000, 0.000000000000000000, 1.000000000000000000 ) ) ;
#97 = VERTEX_POINT ( 'NONE', #563 ) ;
#98 = DIRECTION ( 'NONE',  ( 1.000000000000000000, 0.000000000000000000, 0.000000000000000000 ) ) ;
#99 = EDGE_CURVE ( 'NONE', #43, #613, #1068, .T. ) ;
#100 = AXIS2_PLACEMENT_3D ( 'NONE', #503, #331, #942 ) ;
#101 = VECTOR ( 'NONE', #832, 1000.000000000000000 ) ;
#102 = ADVANCED_FACE ( 'NONE', ( #1005 ), #692, .F. ) ;
#103 = AXIS2_PLACEMENT_3D ( 'NONE', #555, #291, #549 ) ;
#104 = DIRECTION ( 'NONE',  ( 1.000000000000000000, 0.000000000000000000, 0.000000000000000000 ) ) ;
#105 = CARTESIAN_POINT ( 'NONE',  ( 0.000000000000000000, 13.50000000000000000, 2.500000000000000000 ) ) ;
#106 = DIRECTION ( 'NONE',  ( 0.000000000000000000, 0.000000000000000000, -1.000000000000000000 ) ) ;
#107 = ORIENTED_EDGE ( 'NONE', *, *, #345, .T. ) ;
#108 = FACE_OUTER_BOUND ( 'NONE', #1046, .T. ) ;
#109 = DIRECTION ( 'NONE',  ( -0.000000000000000000, -0.000000000000000000, -1.000000000000000000 ) ) ;
#110 = DIRECTION ( 'NONE',  ( 0.000000000000000000, 0.000000000000000000, -1.000000000000000000 ) ) ;
#111 = COORDINATED_UNIVERSAL_TIME_OFFSET ( 8, 0, .BEHIND. ) ;
#112 = VERTEX_POINT ( 'NONE', #912 ) ;
#113 = DIRECTION ( 'NONE',  ( 0.000000000000000000, 0.000000000000000000, 1.000000000000000000 ) ) ;
#114 = EDGE_CURVE ( 'NONE', #27, #43, #1037, .T. ) ;
#115 = AXIS2_PLACEMENT_3D ( 'NONE', #442, #972, #2 ) ;
#116 = CARTESIAN_POINT ( 'NONE',  ( -2.000000000000000000, 13.50000000000000000, 2.500000000000000000 ) ) ;
#117 = DATE_AND_TIME ( #130, #606 ) ;
#118 = ORIENTED_EDGE ( 'NONE', *, *, #678, .F. ) ;
#119 = FACE_OUTER_BOUND ( 'NONE', #163, .T. ) ;
#120 = AXIS2_PLACEMENT_3D ( 'NONE', #940, #486, #681 ) ;
#121 = VECTOR ( 'NONE', #84, 1000.000000000000000 ) ;
#122 = CIRCLE ( 'NONE', #415, 1.899999999999991918 ) ;
#123 = VECTOR ( 'NONE', #809, 1000.000000000000000 ) ;
#124 = FACE_OUTER_BOUND ( 'NONE', #1093, .T. ) ;
#125 = COORDINATED_UNIVERSAL_TIME_OFFSET ( 8, 0, .BEHIND. ) ;
#126 = EDGE_LOOP ( 'NONE', ( #803, #650, #290, #83 ) ) ;
#127 = DIRECTION ( 'NONE',  ( 0.000000000000000000, 0.000000000000000000, 1.000000000000000000 ) ) ;
#128 = ADVANCED_FACE ( 'NONE', ( #642 ), #993, .T. ) ;
#129 = DIRECTION ( 'NONE',  ( -0.000000000000000000, -0.000000000000000000, 1.000000000000000000 ) ) ;
#130 = CALENDAR_DATE ( 2026, 22, 8 ) ;
#131 = ORIENTED_EDGE ( 'NONE', *, *, #277, .F. ) ;
#132 = EDGE_CURVE ( 'NONE', #343, #559, #837, .T. ) ;
#133 = CARTESIAN_POINT ( 'NONE',  ( 0.000000000000000000, 0.000000000000000000, -0.5000000000000004441 ) ) ;
#134 = FACE_BOUND ( 'NONE', #770, .T. ) ;
#135 = DATE_AND_TIME ( #736, #898 ) ;
#136 = ORIENTED_EDGE ( 'NONE', *, *, #988, .F. ) ;
#137 = FACE_OUTER_BOUND ( 'NONE', #910, .T. ) ;
#138 = APPLICATION_CONTEXT ( 'configuration controlled 3d designs of mechanical parts and assemblies' ) ;
#139 = CARTESIAN_POINT ( 'NONE',  ( 0.000000000000000000, 13.50000000000000000, 0.000000000000000000 ) ) ;
#140 = EDGE_CURVE ( 'NONE', #412, #839, #30, .T. ) ;
#141 = DIRECTION ( 'NONE',  ( -0.000000000000000000, -0.000000000000000000, -1.000000000000000000 ) ) ;
#142 = CIRCLE ( 'NONE', #599, 7.000000000000000000 ) ;
#143 = EDGE_LOOP ( 'NONE', ( #697, #857, #965, #715 ) ) ;
#144 = DIRECTION ( 'NONE',  ( 0.000000000000000000, 0.000000000000000000, 1.000000000000000000 ) ) ;
#145 = LINE ( 'NONE', #1024, #377 ) ;
#146 = ORIENTED_EDGE ( 'NONE', *, *, #255, .T. ) ;
#147 = CARTESIAN_POINT ( 'NONE',  ( -13.69134295108906230, -6.750000000000500044, 0.000000000000000000 ) ) ;
#148 = FACE_OUTER_BOUND ( 'NONE', #500, .T. ) ;
#149 = ORIENTED_EDGE ( 'NONE', *, *, #459, .T. ) ;
#150 = CARTESIAN_POINT ( 'NONE',  ( 0.000000000000000000, 0.000000000000000000, -2.700000000000000178 ) ) ;
#151 = ADVANCED_FACE ( 'NONE', ( #288 ), #460, .T. ) ;
#152 = CARTESIAN_POINT ( 'NONE',  ( 11.69134295109078714, -6.749999999999494626, 2.500000000000000000 ) ) ;
#153 = AXIS2_PLACEMENT_3D ( 'NONE', #861, #179, #1143 ) ;
#154 = CYLINDRICAL_SURFACE ( 'NONE', #867, 7.000000000000000000 ) ;
#155 = CIRCLE ( 'NONE', #1001, 2.000000000000000000 ) ;
#156 = EDGE_LOOP ( 'NONE', ( #866, #782 ) ) ;
#157 = DIRECTION ( 'NONE',  ( 0.000000000000000000, 0.000000000000000000, -1.000000000000000000 ) ) ;
#158 = ORIENTED_EDGE ( 'NONE', *, *, #262, .F. ) ;
#159 = DIRECTION ( 'NONE',  ( 0.000000000000000000, 0.000000000000000000, 1.000000000000000000 ) ) ;
#160 = AXIS2_PLACEMENT_3D ( 'NONE', #169, #531, #195 ) ;
#161 = ORIENTED_EDGE ( 'NONE', *, *, #85, .T. ) ;
#162 = DIRECTION ( 'NONE',  ( -0.000000000000000000, -0.000000000000000000, 1.000000000000000000 ) ) ;
#163 = EDGE_LOOP ( 'NONE', ( #873, #618, #183, #495 ) ) ;
#164 = CIRCLE ( 'NONE', #321, 2.000000000000000000 ) ;
#165 = CC_DESIGN_DATE_AND_TIME_ASSIGNMENT ( #728, #212, ( #457 ) ) ;
#166 = DIRECTION ( 'NONE',  ( 0.000000000000000000, 0.000000000000000000, 1.000000000000000000 ) ) ;
#167 = ADVANCED_FACE ( 'NONE', ( #124 ), #82, .T. ) ;
#168 = ORIENTED_EDGE ( 'NONE', *, *, #831, .F. ) ;
#169 = CARTESIAN_POINT ( 'NONE',  ( 0.000000000000000000, 0.000000000000000000, 0.000000000000000000 ) ) ;
#170 = ORIENTED_EDGE ( 'NONE', *, *, #678, .T. ) ;
#171 = CIRCLE ( 'NONE', #100, 2.000000000000000000 ) ;
#172 = VECTOR ( 'NONE', #324, 1000.000000000000000 ) ;
#173 = AXIS2_PLACEMENT_3D ( 'NONE', #25, #200, #997 ) ;
#174 = CARTESIAN_POINT ( 'NONE',  ( 11.69134295109078714, -6.749999999999494626, 2.500000000000000000 ) ) ;
#175 = VERTEX_POINT ( 'NONE', #473 ) ;
#176 = CARTESIAN_POINT ( 'NONE',  ( 11.69134295109078714, -6.749999999999494626, 2.500000000000000000 ) ) ;
#177 = ORIENTED_EDGE ( 'NONE', *, *, #950, .F. ) ;
#178 = LINE ( 'NONE', #539, #372 ) ;
#179 = DIRECTION ( 'NONE',  ( 0.000000000000000000, 0.000000000000000000, -1.000000000000000000 ) ) ;
#180 = CYLINDRICAL_SURFACE ( 'NONE', #983, 2.000000000000000000 ) ;
#181 =( NAMED_UNIT ( * ) PLANE_ANGLE_UNIT ( ) SI_UNIT ( $, .RADIAN. ) );
#182 = EDGE_CURVE ( 'NONE', #72, #559, #821, .T. ) ;
#183 = ORIENTED_EDGE ( 'NONE', *, *, #216, .T. ) ;
#184 = FACE_OUTER_BOUND ( 'NONE', #1060, .T. ) ;
#185 = ADVANCED_FACE ( 'NONE', ( #1102 ), #750, .T. ) ;
#186 = AXIS2_PLACEMENT_3D ( 'NONE', #401, #387, #566 ) ;
#187 = DIRECTION ( 'NONE',  ( 0.000000000000000000, 0.000000000000000000, 1.000000000000000000 ) ) ;
#188 = ORIENTED_EDGE ( 'NONE', *, *, #93, .T. ) ;
#189 = EDGE_LOOP ( 'NONE', ( #56, #718 ) ) ;
#190 = CARTESIAN_POINT ( 'NONE',  ( 13.69134295109078714, -6.749999999999494626, 0.000000000000000000 ) ) ;
#191 = CIRCLE ( 'NONE', #816, 1.899999999999991918 ) ;
#192 = AXIS2_PLACEMENT_3D ( 'NONE', #520, #88, #422 ) ;
#193 = CARTESIAN_POINT ( 'NONE',  ( 0.000000000000000000, 0.000000000000000000, 0.000000000000000000 ) ) ;
#194 = LINE ( 'NONE', #116, #748 ) ;
#195 = DIRECTION ( 'NONE',  ( 1.000000000000000000, 0.000000000000000000, 0.000000000000000000 ) ) ;
#196 = ORIENTED_EDGE ( 'NONE', *, *, #901, .T. ) ;
#197 = EDGE_CURVE ( 'NONE', #72, #759, #399, .T. ) ;
#198 = PERSON ( 'UNSPECIFIED', 'UNSPECIFIED', 'UNSPECIFIED', ('UNSPECIFIED'), ('UNSPECIFIED'), ('UNSPECIFIED') ) ;
#199 = EDGE_CURVE ( 'NONE', #626, #455, #694, .T. ) ;
#200 = DIRECTION ( 'NONE',  ( 0.000000000000000000, 0.000000000000000000, 1.000000000000000000 ) ) ;
#201 = PERSON_AND_ORGANIZATION ( #198, #556 ) ;
#202 = ORIENTED_EDGE ( 'NONE', *, *, #277, .T. ) ;
#203 = DIRECTION ( 'NONE',  ( -0.7071067811865230368, 0.000000000000000000, -0.7071067811865721087 ) ) ;
#204 = ADVANCED_FACE ( 'NONE', ( #1107 ), #250, .T. ) ;
#205 = CARTESIAN_POINT ( 'NONE',  ( -7.000000000000000000, 8.572527594031473190E-16, -2.700000000000000178 ) ) ;
#206 = SECURITY_CLASSIFICATION_LEVEL ( 'unclassified' ) ;
#207 = EDGE_LOOP ( 'NONE', ( #435, #322, #1041, #118 ) ) ;
#208 = CARTESIAN_POINT ( 'NONE',  ( 0.000000000000000000, 0.000000000000000000, 0.000000000000000000 ) ) ;
#209 = AXIS2_PLACEMENT_3D ( 'NONE', #316, #660, #419 ) ;
#210 = AXIS2_PLACEMENT_3D ( 'NONE', #402, #109, #1004 ) ;
#211 = DIRECTION ( 'NONE',  ( 1.000000000000000000, 0.000000000000000000, 0.000000000000000000 ) ) ;
#212 = DATE_TIME_ROLE ( 'classification_date' ) ;
#213 = ORIENTED_EDGE ( 'NONE', *, *, #950, .T. ) ;
#214 = DESIGN_CONTEXT ( 'detailed design', #999, 'design' ) ;
#215 = CARTESIAN_POINT ( 'NONE',  ( 0.000000000000000000, 0.000000000000000000, -2.700000000000000178 ) ) ;
#216 = EDGE_CURVE ( 'NONE', #766, #756, #145, .T. ) ;
#217 = FACE_BOUND ( 'NONE', #621, .T. ) ;
#218 = CC_DESIGN_APPROVAL ( #575, ( #74 ) ) ;
#219 = DIRECTION ( 'NONE',  ( -0.7071067811865505703, 8.659560562354969836E-17, 0.7071067811865444641 ) ) ;
#220 = COORDINATED_UNIVERSAL_TIME_OFFSET ( 8, 0, .BEHIND. ) ;
#221 = ORIENTED_EDGE ( 'NONE', *, *, #451, .T. ) ;
#222 = CARTESIAN_POINT ( 'NONE',  ( 10.00000000000000000, 0.000000000000000000, -0.6999999999999999556 ) ) ;
#223 = DIRECTION ( 'NONE',  ( 0.000000000000000000, 0.000000000000000000, -1.000000000000000000 ) ) ;
#224 = EDGE_CURVE ( 'NONE', #613, #412, #42, .T. ) ;
#225 = CYLINDRICAL_SURFACE ( 'NONE', #396, 2.000000000000000000 ) ;
#226 = AXIS2_PLACEMENT_3D ( 'NONE', #44, #304, #468 ) ;
#227 = FACE_OUTER_BOUND ( 'NONE', #521, .T. ) ;
#228 = LINE ( 'NONE', #916, #471 ) ;
#229 = CIRCLE ( 'NONE', #379, 2.000000000000000000 ) ;
#230 = CARTESIAN_POINT ( 'NONE',  ( -11.69134295108906230, -6.750000000000500044, 2.500000000000000000 ) ) ;
#231 = AXIS2_PLACEMENT_3D ( 'NONE', #793, #865, #77 ) ;
#232 = VECTOR ( 'NONE', #1015, 1000.000000000000000 ) ;
#233 = CIRCLE ( 'NONE', #927, 2.877177557921777318 ) ;
#234 = EDGE_LOOP ( 'NONE', ( #846, #76, #1064, #933 ) ) ;
#235 = DIRECTION ( 'NONE',  ( 0.000000000000000000, 0.000000000000000000, 1.000000000000000000 ) ) ;
#236 = DIRECTION ( 'NONE',  ( 1.000000000000000000, 0.000000000000000000, 0.000000000000000000 ) ) ;
#237 = EDGE_CURVE ( 'NONE', #249, #425, #506, .T. ) ;
#238 = CARTESIAN_POINT ( 'NONE',  ( -2.499999999999968026, 3.061616997868344191E-16, -3.077177557921806361 ) ) ;
#239 = ADVANCED_FACE ( 'NONE', ( #931, #1028, #134, #1010, #838, #325, #666, #592 ), #677, .T. ) ;
#240 = ORIENTED_EDGE ( 'NONE', *, *, #683, .F. ) ;
#241 = DIRECTION ( 'NONE',  ( -1.000000000000000000, 0.000000000000000000, 0.000000000000000000 ) ) ;
#242 = DIRECTION ( 'NONE',  ( 0.000000000000000000, 0.000000000000000000, 1.000000000000000000 ) ) ;
#243 = DIRECTION ( 'NONE',  ( 0.000000000000000000, 0.000000000000000000, 1.000000000000000000 ) ) ;
#244 = ORIENTED_EDGE ( 'NONE', *, *, #863, .T. ) ;
#245 = DIRECTION ( 'NONE',  ( -0.000000000000000000, -0.000000000000000000, 1.000000000000000000 ) ) ;
#246 = AXIS2_PLACEMENT_3D ( 'NONE', #215, #823, #32 ) ;
#247 = ORIENTED_EDGE ( 'NONE', *, *, #512, .F. ) ;
#248 = CARTESIAN_POINT ( 'NONE',  ( -14.99038105676654631, 7.500000000000061284, -4.000000000000000000 ) ) ;
#249 = VERTEX_POINT ( 'NONE', #769 ) ;
#250 = CONICAL_SURFACE ( 'NONE', #670, 1.899999999999991918, 0.7853981633974136400 ) ;
#251 = CARTESIAN_POINT ( 'NONE',  ( 21.00000000000000000, 0.000000000000000000, -34.50000000000000000 ) ) ;
#252 = CIRCLE ( 'NONE', #173, 1.899999999999985034 ) ;
#253 = ADVANCED_FACE ( 'NONE', ( #148 ), #225, .T. ) ;
#254 = EDGE_LOOP ( 'NONE', ( #240, #737, #68, #977 ) ) ;
#255 = EDGE_CURVE ( 'NONE', #455, #626, #958, .T. ) ;
#256 = AXIS2_PLACEMENT_3D ( 'NONE', #384, #1075, #1085 ) ;
#257 = DIRECTION ( 'NONE',  ( 1.000000000000000000, 0.000000000000000000, 0.000000000000000000 ) ) ;
#258 = ORIENTED_EDGE ( 'NONE', *, *, #901, .F. ) ;
#259 = PLANE ( 'NONE',  #1020 ) ;
#260 = ORIENTED_EDGE ( 'NONE', *, *, #477, .F. ) ;
#261 = APPROVAL_PERSON_ORGANIZATION ( #298, #575, #637 ) ;
#262 = EDGE_CURVE ( 'NONE', #425, #249, #1018, .T. ) ;
#263 = DIRECTION ( 'NONE',  ( 0.000000000000000000, 0.000000000000000000, 1.000000000000000000 ) ) ;
#264 = ORIENTED_EDGE ( 'NONE', *, *, #764, .F. ) ;
#265 = ORIENTED_EDGE ( 'NONE', *, *, #99, .F. ) ;
#266 = CARTESIAN_POINT ( 'NONE',  ( 11.69134295109078714, -6.749999999999494626, 2.399999999999985256 ) ) ;
#267 = CIRCLE ( 'NONE', #633, 20.49999999999998934 ) ;
#268 = FACE_OUTER_BOUND ( 'NONE', #580, .T. ) ;
#269 = ORIENTED_EDGE ( 'NONE', *, *, #301, .T. ) ;
#270 = CARTESIAN_POINT ( 'NONE',  ( 0.000000000000000000, 0.000000000000000000, -0.6999999999999999556 ) ) ;
#271 = VECTOR ( 'NONE', #774, 1000.000000000000000 ) ;
#272 = EDGE_LOOP ( 'NONE', ( #541, #410, #1, #899 ) ) ;
#273 = CARTESIAN_POINT ( 'NONE',  ( -13.59134295108905377, -6.750000000000500044, 2.500000000000000000 ) ) ;
#274 = CIRCLE ( 'NONE', #41, 10.00000000000000000 ) ;
#275 = AXIS2_PLACEMENT_3D ( 'NONE', #193, #641, #929 ) ;
#276 = DIRECTION ( 'NONE',  ( -0.000000000000000000, -0.000000000000000000, -1.000000000000000000 ) ) ;
#277 = EDGE_CURVE ( 'NONE', #613, #604, #853, .T. ) ;
#278 = CARTESIAN_POINT ( 'NONE',  ( -11.69134295108906230, -6.750000000000500044, 2.500000000000000000 ) ) ;
#279 = LINE ( 'NONE', #611, #121 ) ;
#280 = DIRECTION ( 'NONE',  ( 1.000000000000000000, 0.000000000000000000, 0.000000000000000000 ) ) ;
#281 = DIRECTION ( 'NONE',  ( 0.000000000000000000, 0.000000000000000000, 1.000000000000000000 ) ) ;
#282 = ORIENTED_EDGE ( 'NONE', *, *, #1083, .T. ) ;
#283 = DIRECTION ( 'NONE',  ( -1.000000000000000000, 0.000000000000000000, 0.000000000000000000 ) ) ;
#284 = ORIENTED_EDGE ( 'NONE', *, *, #199, .F. ) ;
#285 = CARTESIAN_POINT ( 'NONE',  ( 2.499999999999972022, 3.061616997868348629E-16, -34.50000000000000000 ) ) ;
#286 = CONICAL_SURFACE ( 'NONE', #226, 10.00000000000000000, 0.7853981633974482790 ) ;
#287 = DIRECTION ( 'NONE',  ( 0.000000000000000000, 0.000000000000000000, 1.000000000000000000 ) ) ;
#288 = FACE_OUTER_BOUND ( 'NONE', #742, .T. ) ;
#289 = APPROVAL_STATUS ( 'not_yet_approved' ) ;
#290 = ORIENTED_EDGE ( 'NONE', *, *, #479, .T. ) ;
#291 = DIRECTION ( 'NONE',  ( 0.000000000000000000, 0.000000000000000000, 1.000000000000000000 ) ) ;
#292 = ADVANCED_FACE ( 'NONE', ( #1114 ), #47, .F. ) ;
#293 = AXIS2_PLACEMENT_3D ( 'NONE', #426, #777, #1127 ) ;
#294 = EDGE_CURVE ( 'NONE', #97, #937, #295, .T. ) ;
#295 = CIRCLE ( 'NONE', #527, 2.000000000000000000 ) ;
#296 = CARTESIAN_POINT ( 'NONE',  ( 11.69134295109078714, -6.749999999999494626, 2.500000000000000000 ) ) ;
#297 = DIRECTION ( 'NONE',  ( 0.000000000000000000, 0.000000000000000000, 1.000000000000000000 ) ) ;
#298 = PERSON_AND_ORGANIZATION ( #198, #556 ) ;
#299 = AXIS2_PLACEMENT_3D ( 'NONE', #105, #373, #33 ) ;
#300 = CARTESIAN_POINT ( 'NONE',  ( 7.000000000000000000, 0.000000000000000000, -2.700000000000000178 ) ) ;
#301 = EDGE_CURVE ( 'NONE', #1123, #602, #573, .T. ) ;
#302 = CARTESIAN_POINT ( 'NONE',  ( 0.000000000000000000, 0.000000000000000000, -0.6999999999999999556 ) ) ;
#303 = ORIENTED_EDGE ( 'NONE', *, *, #596, .F. ) ;
#304 = DIRECTION ( 'NONE',  ( 0.000000000000000000, 0.000000000000000000, 1.000000000000000000 ) ) ;
#305 = CARTESIAN_POINT ( 'NONE',  ( 2.499999999999972022, 3.061616997868348629E-16, -2.700000000000001066 ) ) ;
#306 = ORIENTED_EDGE ( 'NONE', *, *, #1119, .T. ) ;
#307 = DIRECTION ( 'NONE',  ( -0.000000000000000000, -0.000000000000000000, -1.000000000000000000 ) ) ;
#308 = CIRCLE ( 'NONE', #103, 2.000000000000000000 ) ;
#309 = EDGE_CURVE ( 'NONE', #766, #1077, #3, .T. ) ;
#310 = DIRECTION ( 'NONE',  ( 1.000000000000000000, 0.000000000000000000, 0.000000000000000000 ) ) ;
#311 = ADVANCED_FACE ( 'NONE', ( #967 ), #982, .T. ) ;
#312 = EDGE_LOOP ( 'NONE', ( #177, #657 ) ) ;
#313 = FACE_OUTER_BOUND ( 'NONE', #272, .T. ) ;
#314 = CARTESIAN_POINT ( 'NONE',  ( -12.99038105676654631, 7.500000000000061284, -4.000000000000000000 ) ) ;
#315 =( GEOMETRIC_REPRESENTATION_CONTEXT ( 3 ) GLOBAL_UNCERTAINTY_ASSIGNED_CONTEXT ( ( #987 ) ) GLOBAL_UNIT_ASSIGNED_CONTEXT ( ( #976, #181, #348 ) ) REPRESENTATION_CONTEXT ( 'NONE', 'WORKASPACE' ) );
#316 = CARTESIAN_POINT ( 'NONE',  ( 0.000000000000000000, 0.000000000000000000, -3.077177557921806361 ) ) ;
#317 = ORIENTED_EDGE ( 'NONE', *, *, #564, .F. ) ;
#318 = CYLINDRICAL_SURFACE ( 'NONE', #443, 2.000000000000000000 ) ;
#319 = CARTESIAN_POINT ( 'NONE',  ( -11.69134295108906230, -6.750000000000500044, 2.500000000000000000 ) ) ;
#320 = DIRECTION ( 'NONE',  ( 0.7071067811865474617, 0.000000000000000000, 0.7071067811865474617 ) ) ;
#321 = AXIS2_PLACEMENT_3D ( 'NONE', #996, #574, #560 ) ;
#322 = ORIENTED_EDGE ( 'NONE', *, *, #831, .T. ) ;
#323 = DIRECTION ( 'NONE',  ( 1.000000000000000000, 0.000000000000000000, 0.000000000000000000 ) ) ;
#324 = DIRECTION ( 'NONE',  ( -0.000000000000000000, -0.000000000000000000, 1.000000000000000000 ) ) ;
#325 = FACE_BOUND ( 'NONE', #708, .T. ) ;
#326 = AXIS2_PLACEMENT_3D ( 'NONE', #440, #454, #283 ) ;
#327 = EDGE_LOOP ( 'NONE', ( #554, #833, #524, #213 ) ) ;
#328 = DIRECTION ( 'NONE',  ( 0.000000000000000000, 0.000000000000000000, 1.000000000000000000 ) ) ;
#329 = DIRECTION ( 'NONE',  ( 0.000000000000000000, 0.000000000000000000, 1.000000000000000000 ) ) ;
#330 = VERTEX_POINT ( 'NONE', #1131 ) ;
#331 = DIRECTION ( 'NONE',  ( 0.000000000000000000, 0.000000000000000000, 1.000000000000000000 ) ) ;
#332 = ORIENTED_EDGE ( 'NONE', *, *, #1084, .F. ) ;
#333 = ADVANCED_FACE ( 'NONE', ( #961 ), #22, .T. ) ;
#334 = CARTESIAN_POINT ( 'NONE',  ( 0.000000000000000000, -15.00000000000000000, 0.000000000000000000 ) ) ;
#335 = EDGE_LOOP ( 'NONE', ( #702, #788, #149, #914 ) ) ;
#336 = CARTESIAN_POINT ( 'NONE',  ( 0.000000000000000000, 0.000000000000000000, -34.50000000000000000 ) ) ;
#337 = CARTESIAN_POINT ( 'NONE',  ( -2.000000000000000000, -15.00000000000000000, 0.000000000000000000 ) ) ;
#338 = CIRCLE ( 'NONE', #1129, 2.000000000000000000 ) ;
#339 = EDGE_LOOP ( 'NONE', ( #686, #594 ) ) ;
#340 = VECTOR ( 'NONE', #219, 1000.000000000000000 ) ;
#341 = LINE ( 'NONE', #802, #747 ) ;
#342 = EDGE_CURVE ( 'NONE', #518, #953, #1074, .T. ) ;
#343 = VERTEX_POINT ( 'NONE', #75 ) ;
#344 = AXIS2_PLACEMENT_3D ( 'NONE', #453, #465, #310 ) ;
#345 = EDGE_CURVE ( 'NONE', #430, #822, #835, .T. ) ;
#346 = PLANE ( 'NONE',  #617 ) ;
#347 = ORIENTED_EDGE ( 'NONE', *, *, #66, .T. ) ;
#348 =( NAMED_UNIT ( * ) SI_UNIT ( $, .STERADIAN. ) SOLID_ANGLE_UNIT ( ) );
#349 = ORIENTED_EDGE ( 'NONE', *, *, #216, .F. ) ;
#350 = DIRECTION ( 'NONE',  ( 1.000000000000000000, 0.000000000000000000, 0.000000000000000000 ) ) ;
#351 = CARTESIAN_POINT ( 'NONE',  ( -10.00000000000000000, 1.224646799147353256E-15, -0.7000000000000148326 ) ) ;
#352 = DIRECTION ( 'NONE',  ( -0.000000000000000000, -0.000000000000000000, 1.000000000000000000 ) ) ;
#353 = CARTESIAN_POINT ( 'NONE',  ( 0.000000000000000000, 13.50000000000000000, 2.500000000000000000 ) ) ;
#354 = EDGE_LOOP ( 'NONE', ( #439, #812 ) ) ;
#355 = DIRECTION ( 'NONE',  ( -0.000000000000000000, -0.000000000000000000, -1.000000000000000000 ) ) ;
#356 = ADVANCED_FACE ( 'NONE', ( #1038 ), #875, .T. ) ;
#357 = EDGE_CURVE ( 'NONE', #1126, #776, #799, .T. ) ;
#358 = DIRECTION ( 'NONE',  ( 0.000000000000000000, 0.000000000000000000, 1.000000000000000000 ) ) ;
#359 = ORIENTED_EDGE ( 'NONE', *, *, #513, .F. ) ;
#360 = ORIENTED_EDGE ( 'NONE', *, *, #693, .F. ) ;
#361 = DIRECTION ( 'NONE',  ( -0.000000000000000000, -0.000000000000000000, 1.000000000000000000 ) ) ;
#362 = DIRECTION ( 'NONE',  ( -1.000000000000000000, 0.000000000000000000, 0.000000000000000000 ) ) ;
#363 = EDGE_LOOP ( 'NONE', ( #1052, #347, #284, #247 ) ) ;
#364 = CYLINDRICAL_SURFACE ( 'NONE', #231, 2.000000000000000000 ) ;
#365 = VERTEX_POINT ( 'NONE', #248 ) ;
#366 = CARTESIAN_POINT ( 'NONE',  ( 0.000000000000000000, 0.000000000000000000, -34.50000000000000000 ) ) ;
#367 = CC_DESIGN_APPROVAL ( #46, ( #403 ) ) ;
#368 = DIRECTION ( 'NONE',  ( 1.000000000000000000, 0.000000000000000000, 0.000000000000000000 ) ) ;
#369 = CC_DESIGN_PERSON_AND_ORGANIZATION_ASSIGNMENT ( #990, #897, ( #74 ) ) ;
#370 = CARTESIAN_POINT ( 'NONE',  ( -10.99038105676654631, 7.500000000000061284, 0.000000000000000000 ) ) ;
#371 = EDGE_LOOP ( 'NONE', ( #432, #317, #975, #794 ) ) ;
#372 = VECTOR ( 'NONE', #92, 1000.000000000000000 ) ;
#373 = DIRECTION ( 'NONE',  ( -0.000000000000000000, -0.000000000000000000, -1.000000000000000000 ) ) ;
#374 = PERSON_AND_ORGANIZATION_ROLE ( 'design_supplier' ) ;
#375 = EDGE_LOOP ( 'NONE', ( #420, #826 ) ) ;
#376 = DIRECTION ( 'NONE',  ( -0.000000000000000000, -0.000000000000000000, 1.000000000000000000 ) ) ;
#377 = VECTOR ( 'NONE', #320, 1000.000000000000114 ) ;
#378 = CIRCLE ( 'NONE', #1036, 1.899999999999985034 ) ;
#379 = AXIS2_PLACEMENT_3D ( 'NONE', #139, #187, #368 ) ;
#380 = LINE ( 'NONE', #735, #889 ) ;
#381 = ORIENTED_EDGE ( 'NONE', *, *, #140, .T. ) ;
#382 = CYLINDRICAL_SURFACE ( 'NONE', #974, 2.000000000000000000 ) ;
#383 = ADVANCED_FACE ( 'NONE', ( #540 ), #346, .T. ) ;
#384 = CARTESIAN_POINT ( 'NONE',  ( 0.000000000000000000, 13.50000000000000000, 2.500000000000000000 ) ) ;
#385 = DATE_AND_TIME ( #643, #951 ) ;
#386 = VERTEX_POINT ( 'NONE', #600 ) ;
#387 = DIRECTION ( 'NONE',  ( -0.000000000000000000, -0.000000000000000000, -1.000000000000000000 ) ) ;
#388 = AXIS2_PLACEMENT_3D ( 'NONE', #680, #1122, #407 ) ;
#389 = EDGE_CURVE ( 'NONE', #97, #1126, #798, .T. ) ;
#390 = CARTESIAN_POINT ( 'NONE',  ( 0.000000000000000000, 0.000000000000000000, -2.700000000000000178 ) ) ;
#391 = COORDINATED_UNIVERSAL_TIME_OFFSET ( 8, 0, .BEHIND. ) ;
#392 = ORIENTED_EDGE ( 'NONE', *, *, #811, .F. ) ;
#393 = CARTESIAN_POINT ( 'NONE',  ( 14.99038105676665289, 7.499999999999879208, 0.000000000000000000 ) ) ;
#394 = FACE_OUTER_BOUND ( 'NONE', #207, .T. ) ;
#395 = AXIS2_PLACEMENT_3D ( 'NONE', #546, #106, #9 ) ;
#396 = AXIS2_PLACEMENT_3D ( 'NONE', #152, #141, #507 ) ;
#397 = CARTESIAN_POINT ( 'NONE',  ( 0.000000000000000000, 0.000000000000000000, -0.6999999999999999556 ) ) ;
#398 = PERSON_AND_ORGANIZATION_ROLE ( 'creator' ) ;
#399 = CIRCLE ( 'NONE', #1039, 7.000000000000000000 ) ;
#400 = EDGE_LOOP ( 'NONE', ( #928, #679 ) ) ;
#401 = CARTESIAN_POINT ( 'NONE',  ( 0.000000000000000000, 0.000000000000000000, -3.077177557921806361 ) ) ;
#402 = CARTESIAN_POINT ( 'NONE',  ( -11.69134295108906230, -6.750000000000500044, 2.500000000000000000 ) ) ;
#403 = PRODUCT_DEFINITION_FORMATION_WITH_SPECIFIED_SOURCE ( 'ANY', '', #932, .NOT_KNOWN. ) ;
#404 = DIRECTION ( 'NONE',  ( 1.000000000000000000, 0.000000000000000000, -0.000000000000000000 ) ) ;
#405 = ADVANCED_FACE ( 'NONE', ( #268 ), #615, .T. ) ;
#406 = ORIENTED_EDGE ( 'NONE', *, *, #492, .F. ) ;
#407 = DIRECTION ( 'NONE',  ( 1.000000000000000000, 0.000000000000000000, 0.000000000000000000 ) ) ;
#408 = DIRECTION ( 'NONE',  ( 1.000000000000000000, 0.000000000000000000, 0.000000000000000000 ) ) ;
#409 = AXIS2_PLACEMENT_3D ( 'NONE', #743, #476, #746 ) ;
#410 = ORIENTED_EDGE ( 'NONE', *, *, #758, .T. ) ;
#411 = LINE ( 'NONE', #579, #1124 ) ;
#412 = VERTEX_POINT ( 'NONE', #946 ) ;
#413 = ADVANCED_FACE ( 'NONE', ( #707 ), #787, .T. ) ;
#414 = CARTESIAN_POINT ( 'NONE',  ( 12.99038105676665289, 7.499999999999879208, -4.000000000000000000 ) ) ;
#415 = AXIS2_PLACEMENT_3D ( 'NONE', #490, #720, #104 ) ;
#416 = EDGE_LOOP ( 'NONE', ( #957, #202, #1022, #467 ) ) ;
#417 = FACE_OUTER_BOUND ( 'NONE', #644, .T. ) ;
#418 = CARTESIAN_POINT ( 'NONE',  ( 0.000000000000000000, 0.000000000000000000, -2.700000000000001066 ) ) ;
#419 = DIRECTION ( 'NONE',  ( -1.000000000000000000, 0.000000000000000000, 0.000000000000000000 ) ) ;
#420 = ORIENTED_EDGE ( 'NONE', *, *, #598, .F. ) ;
#421 = FACE_OUTER_BOUND ( 'NONE', #60, .T. ) ;
#422 = DIRECTION ( 'NONE',  ( 1.000000000000000000, 0.000000000000000000, -0.000000000000000000 ) ) ;
#423 = EDGE_CURVE ( 'NONE', #1007, #386, #858, .T. ) ;
#424 = EDGE_CURVE ( 'NONE', #602, #647, #701, .T. ) ;
#425 = VERTEX_POINT ( 'NONE', #337 ) ;
#426 = CARTESIAN_POINT ( 'NONE',  ( 0.000000000000000000, 13.50000000000000000, 2.500000000000000000 ) ) ;
#427 = CIRCLE ( 'NONE', #923, 2.000000000000000000 ) ;
#428 = DIRECTION ( 'NONE',  ( -0.000000000000000000, -0.000000000000000000, 1.000000000000000000 ) ) ;
#429 = AXIS2_PLACEMENT_3D ( 'NONE', #176, #872, #431 ) ;
#430 = VERTEX_POINT ( 'NONE', #689 ) ;
#431 = DIRECTION ( 'NONE',  ( -1.000000000000000000, 0.000000000000000000, 0.000000000000000000 ) ) ;
#432 = ORIENTED_EDGE ( 'NONE', *, *, #66, .F. ) ;
#433 = CARTESIAN_POINT ( 'NONE',  ( 1.899999999999985034, 13.50000000000000000, 2.500000000000000000 ) ) ;
#434 = DIRECTION ( 'NONE',  ( 0.000000000000000000, 0.000000000000000000, 1.000000000000000000 ) ) ;
#435 = ORIENTED_EDGE ( 'NONE', *, *, #199, .T. ) ;
#436 = CARTESIAN_POINT ( 'NONE',  ( -1.899999999999985034, 13.50000000000000000, 2.500000000000000000 ) ) ;
#437 = EDGE_LOOP ( 'NONE', ( #971, #850, #667, #516 ) ) ;
#438 = DIRECTION ( 'NONE',  ( 0.000000000000000000, 0.000000000000000000, 1.000000000000000000 ) ) ;
#439 = ORIENTED_EDGE ( 'NONE', *, *, #664, .F. ) ;
#440 = CARTESIAN_POINT ( 'NONE',  ( -11.69134295108906230, -6.750000000000500044, 2.500000000000000000 ) ) ;
#441 = EDGE_LOOP ( 'NONE', ( #1103, #1069, #695, #538 ) ) ;
#442 = CARTESIAN_POINT ( 'NONE',  ( -11.69134295108906230, -6.750000000000500044, 0.000000000000000000 ) ) ;
#443 = AXIS2_PLACEMENT_3D ( 'NONE', #1082, #651, #648 ) ;
#444 = ADVANCED_FACE ( 'NONE', ( #781 ), #696, .T. ) ;
#445 = CARTESIAN_POINT ( 'NONE',  ( 12.99038105676665289, 7.499999999999879208, 0.000000000000000000 ) ) ;
#446 = CARTESIAN_POINT ( 'NONE',  ( 12.99038105676665289, 7.499999999999879208, -4.000000000000000000 ) ) ;
#447 = DIRECTION ( 'NONE',  ( -0.7071067811865597852, 0.000000000000000000, -0.7071067811865352493 ) ) ;
#448 = CIRCLE ( 'NONE', #1091, 2.000000000000000000 ) ;
#449 = ORIENTED_EDGE ( 'NONE', *, *, #739, .F. ) ;
#450 = CIRCLE ( 'NONE', #1092, 2.000000000000000000 ) ;
#451 = EDGE_CURVE ( 'NONE', #1077, #943, #1137, .T. ) ;
#452 = EDGE_CURVE ( 'NONE', #587, #710, #448, .T. ) ;
#453 = CARTESIAN_POINT ( 'NONE',  ( 0.000000000000000000, 0.000000000000000000, -0.7000000000000148326 ) ) ;
#454 = DIRECTION ( 'NONE',  ( 0.000000000000000000, 0.000000000000000000, -1.000000000000000000 ) ) ;
#455 = VERTEX_POINT ( 'NONE', #544 ) ;
#456 = DIRECTION ( 'NONE',  ( 0.000000000000000000, 0.000000000000000000, -1.000000000000000000 ) ) ;
#457 = SECURITY_CLASSIFICATION ( '', '', #206 ) ;
#458 = DIRECTION ( 'NONE',  ( -0.7071067811865549002, 0.000000000000000000, -0.7071067811865401342 ) ) ;
#459 = EDGE_CURVE ( 'NONE', #822, #624, #726, .T. ) ;
#460 = CYLINDRICAL_SURFACE ( 'NONE', #299, 2.000000000000000000 ) ;
#461 = PERSON_AND_ORGANIZATION ( #198, #556 ) ;
#462 = EDGE_LOOP ( 'NONE', ( #684, #762, #844, #1144 ) ) ;
#463 = DIRECTION ( 'NONE',  ( 0.000000000000000000, 0.000000000000000000, 1.000000000000000000 ) ) ;
#464 = CIRCLE ( 'NONE', #862, 7.000000000000000000 ) ;
#465 = DIRECTION ( 'NONE',  ( 0.000000000000000000, 0.000000000000000000, 1.000000000000000000 ) ) ;
#466 = SHAPE_DEFINITION_REPRESENTATION ( #949, #854 ) ;
#467 = ORIENTED_EDGE ( 'NONE', *, *, #140, .F. ) ;
#468 = DIRECTION ( 'NONE',  ( 1.000000000000000000, 0.000000000000000000, 0.000000000000000000 ) ) ;
#469 = AXIS2_PLACEMENT_3D ( 'NONE', #1048, #870, #609 ) ;
#470 = CIRCLE ( 'NONE', #582, 2.000000000000000000 ) ;
#471 = VECTOR ( 'NONE', #1095, 1000.000000000000000 ) ;
#472 = AXIS2_PLACEMENT_3D ( 'NONE', #553, #110, #636 ) ;
#473 = CARTESIAN_POINT ( 'NONE',  ( -9.791342951089070823, -6.750000000000500044, 2.500000000000000000 ) ) ;
#474 = COORDINATED_UNIVERSAL_TIME_OFFSET ( 8, 0, .BEHIND. ) ;
#475 = ORIENTED_EDGE ( 'NONE', *, *, #423, .F. ) ;
#476 = DIRECTION ( 'NONE',  ( 0.000000000000000000, 0.000000000000000000, 1.000000000000000000 ) ) ;
#477 = EDGE_CURVE ( 'NONE', #759, #72, #142, .T. ) ;
#478 = ADVANCED_FACE ( 'NONE', ( #572 ), #497, .F. ) ;
#479 = EDGE_CURVE ( 'NONE', #518, #249, #836, .T. ) ;
#480 = DIRECTION ( 'NONE',  ( 1.000000000000000000, 0.000000000000000000, 0.000000000000000000 ) ) ;
#481 = DATE_AND_TIME ( #985, #70 ) ;
#482 = ORIENTED_EDGE ( 'NONE', *, *, #683, .T. ) ;
#483 = CYLINDRICAL_SURFACE ( 'NONE', #682, 7.000000000000000000 ) ;
#484 = CC_DESIGN_PERSON_AND_ORGANIZATION_ASSIGNMENT ( #998, #374, ( #403 ) ) ;
#485 = CARTESIAN_POINT ( 'NONE',  ( -7.000000000000000000, 8.572527594031473190E-16, -0.6999999999999999556 ) ) ;
#486 = DIRECTION ( 'NONE',  ( 0.000000000000000000, 0.000000000000000000, 1.000000000000000000 ) ) ;
#487 = DATE_TIME_ROLE ( 'creation_date' ) ;
#488 = VERTEX_POINT ( 'NONE', #1072 ) ;
#489 = PLANE ( 'NONE',  #246 ) ;
#490 = CARTESIAN_POINT ( 'NONE',  ( -11.69134295108906230, -6.750000000000500044, 2.500000000000000000 ) ) ;
#491 = VECTOR ( 'NONE', #1125, 1000.000000000000000 ) ;
#492 = EDGE_CURVE ( 'NONE', #855, #532, #229, .T. ) ;
#493 = CARTESIAN_POINT ( 'NONE',  ( -11.69134295108906230, -6.750000000000500044, 2.399999999999985256 ) ) ;
#494 = AXIS2_PLACEMENT_3D ( 'NONE', #1080, #906, #211 ) ;
#495 = ORIENTED_EDGE ( 'NONE', *, *, #634, .F. ) ;
#496 = CARTESIAN_POINT ( 'NONE',  ( -10.99038105676654631, 7.500000000000061284, -4.000000000000000000 ) ) ;
#497 = CYLINDRICAL_SURFACE ( 'NONE', #729, 2.000000000000000000 ) ;
#498 = DIRECTION ( 'NONE',  ( 1.000000000000000000, 0.000000000000000000, 0.000000000000000000 ) ) ;
#499 = EDGE_CURVE ( 'NONE', #175, #675, #122, .T. ) ;
#500 = EDGE_LOOP ( 'NONE', ( #892, #1081, #631, #475 ) ) ;
#501 = LINE ( 'NONE', #251, #1111 ) ;
#502 = DIRECTION ( 'NONE',  ( 1.000000000000000000, 0.000000000000000000, -0.000000000000000000 ) ) ;
#503 = CARTESIAN_POINT ( 'NONE',  ( 12.99038105676665289, 7.499999999999879208, -4.000000000000000000 ) ) ;
#504 = ADVANCED_FACE ( 'NONE', ( #552 ), #1055, .T. ) ;
#505 = DIRECTION ( 'NONE',  ( 1.000000000000000000, 0.000000000000000000, 0.000000000000000000 ) ) ;
#506 = CIRCLE ( 'NONE', #1054, 2.000000000000000000 ) ;
#507 = DIRECTION ( 'NONE',  ( -1.000000000000000000, 0.000000000000000000, 0.000000000000000000 ) ) ;
#508 = VECTOR ( 'NONE', #711, 1000.000000000000000 ) ;
#509 = ORIENTED_EDGE ( 'NONE', *, *, #1032, .F. ) ;
#510 = CARTESIAN_POINT ( 'NONE',  ( 12.99038105676665289, 7.499999999999879208, -4.000000000000000000 ) ) ;
#511 = EDGE_CURVE ( 'NONE', #624, #1113, #1021, .T. ) ;
#512 = EDGE_CURVE ( 'NONE', #675, #626, #228, .T. ) ;
#513 = EDGE_CURVE ( 'NONE', #365, #488, #155, .T. ) ;
#514 = DIRECTION ( 'NONE',  ( 1.000000000000000000, 0.000000000000000000, 0.000000000000000000 ) ) ;
#515 = CC_DESIGN_SECURITY_CLASSIFICATION ( #457, ( #403 ) ) ;
#516 = ORIENTED_EDGE ( 'NONE', *, *, #1035, .T. ) ;
#517 = CARTESIAN_POINT ( 'NONE',  ( 14.99038105676665289, 7.499999999999879208, -4.000000000000000000 ) ) ;
#518 = VERTEX_POINT ( 'NONE', #659 ) ;
#519 = FACE_OUTER_BOUND ( 'NONE', #416, .T. ) ;
#520 = CARTESIAN_POINT ( 'NONE',  ( -11.69134295108906230, -6.750000000000500044, 2.500000000000000000 ) ) ;
#521 = EDGE_LOOP ( 'NONE', ( #303, #360, #196, #590 ) ) ;
#522 = FACE_OUTER_BOUND ( 'NONE', #126, .T. ) ;
#523 = VECTOR ( 'NONE', #753, 1000.000000000000000 ) ;
#524 = ORIENTED_EDGE ( 'NONE', *, *, #423, .T. ) ;
#525 = LINE ( 'NONE', #1105, #172 ) ;
#526 = DIRECTION ( 'NONE',  ( 1.000000000000000000, 0.000000000000000000, -0.000000000000000000 ) ) ;
#527 = AXIS2_PLACEMENT_3D ( 'NONE', #414, #329, #765 ) ;
#528 = CONICAL_SURFACE ( 'NONE', #326, 1.899999999999991918, 0.7853981633974136400 ) ;
#529 = ORIENTED_EDGE ( 'NONE', *, *, #764, .T. ) ;
#530 = CIRCLE ( 'NONE', #24, 1.899999999999991918 ) ;
#531 = DIRECTION ( 'NONE',  ( 0.000000000000000000, 0.000000000000000000, 1.000000000000000000 ) ) ;
#532 = VERTEX_POINT ( 'NONE', #12 ) ;
#533 = LINE ( 'NONE', #285, #709 ) ;
#534 = CARTESIAN_POINT ( 'NONE',  ( 10.99038105676665289, 7.499999999999879208, -4.000000000000000000 ) ) ;
#535 = ORIENTED_EDGE ( 'NONE', *, *, #48, .T. ) ;
#536 = CARTESIAN_POINT ( 'NONE',  ( 0.000000000000000000, 0.000000000000000000, -2.700000000000000178 ) ) ;
#537 = EDGE_CURVE ( 'NONE', #756, #943, #4, .T. ) ;
#538 = ORIENTED_EDGE ( 'NONE', *, *, #616, .F. ) ;
#539 = CARTESIAN_POINT ( 'NONE',  ( 20.49999999999998934, 2.510525938252072904E-15, 0.000000000000000000 ) ) ;
#540 = FACE_OUTER_BOUND ( 'NONE', #156, .T. ) ;
#541 = ORIENTED_EDGE ( 'NONE', *, *, #452, .T. ) ;
#542 = FACE_OUTER_BOUND ( 'NONE', #327, .T. ) ;
#543 = ORIENTED_EDGE ( 'NONE', *, *, #309, .T. ) ;
#544 = CARTESIAN_POINT ( 'NONE',  ( -9.691342951089062296, -6.750000000000500044, 2.399999999999985256 ) ) ;
#545 = DIRECTION ( 'NONE',  ( 1.000000000000000000, 0.000000000000000000, 0.000000000000000000 ) ) ;
#546 = CARTESIAN_POINT ( 'NONE',  ( 0.000000000000000000, 0.000000000000000000, -0.5000000000000004441 ) ) ;
#547 = AXIS2_PLACEMENT_3D ( 'NONE', #510, #685, #1040 ) ;
#548 = VERTEX_POINT ( 'NONE', #895 ) ;
#549 = DIRECTION ( 'NONE',  ( 1.000000000000000000, 0.000000000000000000, 0.000000000000000000 ) ) ;
#550 = CC_DESIGN_PERSON_AND_ORGANIZATION_ASSIGNMENT ( #741, #1006, ( #457 ) ) ;
#551 = ADVANCED_FACE ( 'NONE', ( #394 ), #841, .T. ) ;
#552 = FACE_OUTER_BOUND ( 'NONE', #778, .T. ) ;
#553 = CARTESIAN_POINT ( 'NONE',  ( 0.000000000000000000, 13.50000000000000000, 2.399999999999988365 ) ) ;
#554 = ORIENTED_EDGE ( 'NONE', *, *, #424, .F. ) ;
#555 = CARTESIAN_POINT ( 'NONE',  ( -12.99038105676654631, 7.500000000000061284, -4.000000000000000000 ) ) ;
#556 = ORGANIZATION ( 'UNSPECIFIED', 'UNSPECIFIED', '' ) ;
#557 = CARTESIAN_POINT ( 'NONE',  ( 0.000000000000000000, 0.000000000000000000, -34.50000000000000000 ) ) ;
#558 = PERSON_AND_ORGANIZATION ( #198, #556 ) ;
#559 = VERTEX_POINT ( 'NONE', #485 ) ;
#560 = DIRECTION ( 'NONE',  ( 1.000000000000000000, 0.000000000000000000, 0.000000000000000000 ) ) ;
#561 = CIRCLE ( 'NONE', #186, 2.499999999999968026 ) ;
#562 = ADVANCED_FACE ( 'NONE', ( #217, #754 ), #52, .T. ) ;
#563 = CARTESIAN_POINT ( 'NONE',  ( 10.99038105676665289, 7.499999999999879208, -4.000000000000000000 ) ) ;
#564 = EDGE_CURVE ( 'NONE', #675, #175, #530, .T. ) ;
#565 = EDGE_LOOP ( 'NONE', ( #661, #482, #991, #265 ) ) ;
#566 = DIRECTION ( 'NONE',  ( -1.000000000000000000, 0.000000000000000000, 0.000000000000000000 ) ) ;
#567 = CIRCLE ( 'NONE', #62, 1.899999999999991918 ) ;
#568 = CARTESIAN_POINT ( 'NONE',  ( 21.00000000000000000, 0.000000000000000000, -34.50000000000000000 ) ) ;
#569 = CALENDAR_DATE ( 2026, 22, 8 ) ;
#570 = ORIENTED_EDGE ( 'NONE', *, *, #758, .F. ) ;
#571 = CARTESIAN_POINT ( 'NONE',  ( -12.99038105676654631, 7.500000000000061284, -4.000000000000000000 ) ) ;
#572 = FACE_OUTER_BOUND ( 'NONE', #143, .T. ) ;
#573 = LINE ( 'NONE', #918, #101 ) ;
#574 = DIRECTION ( 'NONE',  ( 0.000000000000000000, 0.000000000000000000, 1.000000000000000000 ) ) ;
#575 = APPROVAL ( #289, 'UNSPECIFIED' ) ;
#576 = CARTESIAN_POINT ( 'NONE',  ( 0.000000000000000000, 0.000000000000000000, -2.700000000000000178 ) ) ;
#577 = CONICAL_SURFACE ( 'NONE', #612, 1.899999999999991918, 0.7853981633974136400 ) ;
#578 = DIRECTION ( 'NONE',  ( 1.000000000000000000, 0.000000000000000000, 0.000000000000000000 ) ) ;
#579 = CARTESIAN_POINT ( 'NONE',  ( -2.000000000000000000, -15.00000000000000000, -4.000000000000000000 ) ) ;
#580 = EDGE_LOOP ( 'NONE', ( #790, #36 ) ) ;
#581 = DIRECTION ( 'NONE',  ( -0.7071067811865474617, 8.659560562354932858E-17, 0.7071067811865474617 ) ) ;
#582 = AXIS2_PLACEMENT_3D ( 'NONE', #1019, #235, #55 ) ;
#583 = AXIS2_PLACEMENT_3D ( 'NONE', #445, #358, #257 ) ;
#584 = ADVANCED_FACE ( 'NONE', ( #519 ), #672, .F. ) ;
#585 = CARTESIAN_POINT ( 'NONE',  ( 0.000000000000000000, 0.000000000000000000, -2.700000000000000178 ) ) ;
#586 = AXIS2_PLACEMENT_3D ( 'NONE', #302, #727, #545 ) ;
#587 = VERTEX_POINT ( 'NONE', #954 ) ;
#588 = PLANE ( 'NONE',  #547 ) ;
#589 = CARTESIAN_POINT ( 'NONE',  ( 0.000000000000000000, 0.000000000000000000, -34.50000000000000000 ) ) ;
#590 = ORIENTED_EDGE ( 'NONE', *, *, #988, .T. ) ;
#591 = DIRECTION ( 'NONE',  ( 1.000000000000000000, 0.000000000000000000, 0.000000000000000000 ) ) ;
#592 = FACE_BOUND ( 'NONE', #610, .T. ) ;
#593 = AXIS2_PLACEMENT_3D ( 'NONE', #622, #627, #280 ) ;
#594 = ORIENTED_EDGE ( 'NONE', *, *, #634, .T. ) ;
#595 = CARTESIAN_POINT ( 'NONE',  ( 12.99038105676665289, 7.499999999999879208, 0.000000000000000000 ) ) ;
#596 = EDGE_CURVE ( 'NONE', #365, #1139, #525, .T. ) ;
#597 = ORIENTED_EDGE ( 'NONE', *, *, #811, .T. ) ;
#598 = EDGE_CURVE ( 'NONE', #43, #27, #601, .T. ) ;
#599 = AXIS2_PLACEMENT_3D ( 'NONE', #576, #287, #1062 ) ;
#600 = CARTESIAN_POINT ( 'NONE',  ( 9.691342951090787139, -6.749999999999494626, 0.000000000000000000 ) ) ;
#601 = CIRCLE ( 'NONE', #63, 2.499999999999972022 ) ;
#602 = VERTEX_POINT ( 'NONE', #58 ) ;
#603 = DIRECTION ( 'NONE',  ( 0.000000000000000000, 0.000000000000000000, 1.000000000000000000 ) ) ;
#604 = VERTEX_POINT ( 'NONE', #1117 ) ;
#605 = CARTESIAN_POINT ( 'NONE',  ( 13.69134295109078714, -6.749999999999494626, 2.500000000000000000 ) ) ;
#606 = LOCAL_TIME ( 17, 51, 27.00000000000000000, #125 ) ;
#607 = ORIENTED_EDGE ( 'NONE', *, *, #1023, .T. ) ;
#608 = EDGE_LOOP ( 'NONE', ( #332, #161, #607, #282 ) ) ;
#609 = DIRECTION ( 'NONE',  ( 1.000000000000000000, 0.000000000000000000, 0.000000000000000000 ) ) ;
#610 = EDGE_LOOP ( 'NONE', ( #800, #785 ) ) ;
#611 = CARTESIAN_POINT ( 'NONE',  ( -21.00000000000000000, 2.571758278209441661E-15, -34.50000000000000000 ) ) ;
#612 = AXIS2_PLACEMENT_3D ( 'NONE', #795, #456, #16 ) ;
#613 = VERTEX_POINT ( 'NONE', #879 ) ;
#614 = LINE ( 'NONE', #11, #654 ) ;
#615 = PLANE ( 'NONE',  #192 ) ;
#616 = EDGE_CURVE ( 'NONE', #937, #776, #614, .T. ) ;
#617 = AXIS2_PLACEMENT_3D ( 'NONE', #174, #6, #1031 ) ;
#618 = ORIENTED_EDGE ( 'NONE', *, *, #309, .F. ) ;
#619 = AXIS2_PLACEMENT_3D ( 'NONE', #366, #1140, #966 ) ;
#620 = CIRCLE ( 'NONE', #869, 21.00000000000000000 ) ;
#621 = EDGE_LOOP ( 'NONE', ( #20, #864 ) ) ;
#622 = CARTESIAN_POINT ( 'NONE',  ( 0.000000000000000000, 0.000000000000000000, -3.077177557921806361 ) ) ;
#623 = DIRECTION ( 'NONE',  ( -1.000000000000000000, 0.000000000000000000, 0.000000000000000000 ) ) ;
#624 = VERTEX_POINT ( 'NONE', #1070 ) ;
#625 = LINE ( 'NONE', #436, #23 ) ;
#626 = VERTEX_POINT ( 'NONE', #1047 ) ;
#627 = DIRECTION ( 'NONE',  ( 0.000000000000000000, 0.000000000000000000, 1.000000000000000000 ) ) ;
#628 = DIRECTION ( 'NONE',  ( 1.000000000000000000, 0.000000000000000000, 0.000000000000000000 ) ) ;
#629 = EDGE_LOOP ( 'NONE', ( #969, #1087, #1026, #1134 ) ) ;
#630 = CARTESIAN_POINT ( 'NONE',  ( 0.000000000000000000, -15.00000000000000000, -4.000000000000000000 ) ) ;
#631 = ORIENTED_EDGE ( 'NONE', *, *, #1013, .T. ) ;
#632 = CARTESIAN_POINT ( 'NONE',  ( -13.69134295108906230, -6.750000000000500044, 2.500000000000000000 ) ) ;
#633 = AXIS2_PLACEMENT_3D ( 'NONE', #208, #113, #813 ) ;
#634 = EDGE_CURVE ( 'NONE', #943, #756, #959, .T. ) ;
#635 = DIRECTION ( 'NONE',  ( 0.000000000000000000, 0.000000000000000000, -1.000000000000000000 ) ) ;
#636 = DIRECTION ( 'NONE',  ( 1.000000000000000000, 0.000000000000000000, 0.000000000000000000 ) ) ;
#637 = APPROVAL_ROLE ( '' ) ;
#638 = CIRCLE ( 'NONE', #779, 2.000000000000000000 ) ;
#639 = VECTOR ( 'NONE', #458, 1000.000000000000000 ) ;
#640 = ORIENTED_EDGE ( 'NONE', *, *, #1025, .F. ) ;
#641 = DIRECTION ( 'NONE',  ( -0.000000000000000000, -0.000000000000000000, -1.000000000000000000 ) ) ;
#642 = FACE_OUTER_BOUND ( 'NONE', #629, .T. ) ;
#643 = CALENDAR_DATE ( 2026, 22, 8 ) ;
#644 = EDGE_LOOP ( 'NONE', ( #731, #1121 ) ) ;
#645 = DIRECTION ( 'NONE',  ( 1.000000000000000000, 0.000000000000000000, 0.000000000000000000 ) ) ;
#646 = DIRECTION ( 'NONE',  ( 0.000000000000000000, 0.000000000000000000, 1.000000000000000000 ) ) ;
#647 = VERTEX_POINT ( 'NONE', #190 ) ;
#648 = DIRECTION ( 'NONE',  ( -1.000000000000000000, 0.000000000000000000, 0.000000000000000000 ) ) ;
#649 = DIRECTION ( 'NONE',  ( 1.000000000000000000, 0.000000000000000000, 0.000000000000000000 ) ) ;
#650 = ORIENTED_EDGE ( 'NONE', *, *, #342, .F. ) ;
#651 = DIRECTION ( 'NONE',  ( -0.000000000000000000, -0.000000000000000000, -1.000000000000000000 ) ) ;
#652 = AXIS2_PLACEMENT_3D ( 'NONE', #493, #40, #408 ) ;
#653 = AXIS2_PLACEMENT_3D ( 'NONE', #1016, #925, #498 ) ;
#654 = VECTOR ( 'NONE', #791, 1000.000000000000000 ) ;
#655 = DIRECTION ( 'NONE',  ( -0.000000000000000000, -0.000000000000000000, -1.000000000000000000 ) ) ;
#656 = ADVANCED_FACE ( 'NONE', ( #1135 ), #1053, .F. ) ;
#657 = ORIENTED_EDGE ( 'NONE', *, *, #1013, .F. ) ;
#658 = LINE ( 'NONE', #21, #814 ) ;
#659 = CARTESIAN_POINT ( 'NONE',  ( 2.000000000000000000, -15.00000000000000000, -4.000000000000000000 ) ) ;
#660 = DIRECTION ( 'NONE',  ( -0.000000000000000000, -0.000000000000000000, -1.000000000000000000 ) ) ;
#661 = ORIENTED_EDGE ( 'NONE', *, *, #598, .T. ) ;
#662 = CARTESIAN_POINT ( 'NONE',  ( 2.000000000000000000, 13.50000000000000000, 0.000000000000000000 ) ) ;
#663 = CARTESIAN_POINT ( 'NONE',  ( 2.000000000000000000, -15.00000000000000000, -4.000000000000000000 ) ) ;
#664 = EDGE_CURVE ( 'NONE', #95, #548, #1112, .T. ) ;
#665 = CONICAL_SURFACE ( 'NONE', #593, 2.499999999999968026, 0.7853981633974526089 ) ;
#666 = FACE_BOUND ( 'NONE', #1128, .T. ) ;
#667 = ORIENTED_EDGE ( 'NONE', *, *, #616, .T. ) ;
#668 = LINE ( 'NONE', #496, #1049 ) ;
#669 = DIRECTION ( 'NONE',  ( -0.000000000000000000, -0.000000000000000000, -1.000000000000000000 ) ) ;
#670 = AXIS2_PLACEMENT_3D ( 'NONE', #230, #755, #53 ) ;
#671 = CONICAL_SURFACE ( 'NONE', #293, 1.899999999999985034, 0.7853981633974657095 ) ;
#672 = CONICAL_SURFACE ( 'NONE', #945, 2.499999999999968026, 0.7853981633974526089 ) ;
#673 = CIRCLE ( 'NONE', #780, 2.877177557921777318 ) ;
#674 = DIRECTION ( 'NONE',  ( 0.000000000000000000, 0.000000000000000000, 1.000000000000000000 ) ) ;
#675 = VERTEX_POINT ( 'NONE', #273 ) ;
#676 = CARTESIAN_POINT ( 'NONE',  ( -2.000000000000000000, -15.00000000000000000, -4.000000000000000000 ) ) ;
#677 = PLANE ( 'NONE',  #120 ) ;
#678 = EDGE_CURVE ( 'NONE', #626, #1014, #699, .T. ) ;
#679 = ORIENTED_EDGE ( 'NONE', *, *, #1142, .T. ) ;
#680 = CARTESIAN_POINT ( 'NONE',  ( 11.69134295109078714, -6.749999999999494626, 0.000000000000000000 ) ) ;
#681 = DIRECTION ( 'NONE',  ( 1.000000000000000000, 0.000000000000000000, -0.000000000000000000 ) ) ;
#682 = AXIS2_PLACEMENT_3D ( 'NONE', #904, #834, #827 ) ;
#683 = EDGE_CURVE ( 'NONE', #27, #412, #533, .T. ) ;
#684 = ORIENTED_EDGE ( 'NONE', *, *, #706, .F. ) ;
#685 = DIRECTION ( 'NONE',  ( 0.000000000000000000, 0.000000000000000000, 1.000000000000000000 ) ) ;
#686 = ORIENTED_EDGE ( 'NONE', *, *, #537, .T. ) ;
#687 = AXIS2_PLACEMENT_3D ( 'NONE', #630, #1145, #806 ) ;
#688 = AXIS2_PLACEMENT_3D ( 'NONE', #334, #1118, #842 ) ;
#689 = CARTESIAN_POINT ( 'NONE',  ( 20.49999999999998934, 2.541142108230757480E-15, 0.000000000000000000 ) ) ;
#690 = VERTEX_POINT ( 'NONE', #978 ) ;
#691 = CYLINDRICAL_SURFACE ( 'NONE', #981, 2.499999999999972022 ) ;
#692 = CONICAL_SURFACE ( 'NONE', #344, 10.00000000000000000, 0.7853981633974482790 ) ;
#693 = EDGE_CURVE ( 'NONE', #488, #365, #308, .T. ) ;
#694 = CIRCLE ( 'NONE', #653, 2.000000000000000000 ) ;
#695 = ORIENTED_EDGE ( 'NONE', *, *, #357, .T. ) ;
#696 = PLANE ( 'NONE',  #80 ) ;
#697 = ORIENTED_EDGE ( 'NONE', *, *, #1142, .F. ) ;
#698 = ORIENTED_EDGE ( 'NONE', *, *, #1066, .T. ) ;
#699 = LINE ( 'NONE', #632, #508 ) ;
#700 = EDGE_CURVE ( 'NONE', #1007, #602, #450, .T. ) ;
#701 = LINE ( 'NONE', #605, #491 ) ;
#702 = ORIENTED_EDGE ( 'NONE', *, *, #733, .F. ) ;
#703 = DIRECTION ( 'NONE',  ( 1.000000000000000000, 0.000000000000000000, 0.000000000000000000 ) ) ;
#704 = ORIENTED_EDGE ( 'NONE', *, *, #596, .T. ) ;
#705 = FACE_OUTER_BOUND ( 'NONE', #49, .T. ) ;
#706 = EDGE_CURVE ( 'NONE', #920, #710, #87, .T. ) ;
#707 = FACE_OUTER_BOUND ( 'NONE', #565, .T. ) ;
#708 = EDGE_LOOP ( 'NONE', ( #947, #158 ) ) ;
#709 = VECTOR ( 'NONE', #355, 1000.000000000000000 ) ;
#710 = VERTEX_POINT ( 'NONE', #786 ) ;
#711 = DIRECTION ( 'NONE',  ( -0.000000000000000000, -0.000000000000000000, -1.000000000000000000 ) ) ;
#712 = ADVANCED_FACE ( 'NONE', ( #108 ), #577, .T. ) ;
#713 = DIRECTION ( 'NONE',  ( 0.000000000000000000, 0.000000000000000000, 1.000000000000000000 ) ) ;
#714 = ADVANCED_FACE ( 'NONE', ( #705 ), #665, .F. ) ;
#715 = ORIENTED_EDGE ( 'NONE', *, *, #479, .F. ) ;
#716 = CARTESIAN_POINT ( 'NONE',  ( 10.99038105676665289, 7.499999999999879208, 0.000000000000000000 ) ) ;
#717 = CC_DESIGN_APPROVAL ( #968, ( #457 ) ) ;
#718 = ORIENTED_EDGE ( 'NONE', *, *, #513, .T. ) ;
#719 = CARTESIAN_POINT ( 'NONE',  ( 0.000000000000000000, 0.000000000000000000, 0.000000000000000000 ) ) ;
#720 = DIRECTION ( 'NONE',  ( 0.000000000000000000, 0.000000000000000000, 1.000000000000000000 ) ) ;
#721 = PRODUCT_RELATED_PRODUCT_CATEGORY ( 'detail', '', ( #932 ) ) ;
#722 = DIRECTION ( 'NONE',  ( 0.000000000000000000, 0.000000000000000000, 1.000000000000000000 ) ) ;
#723 = CARTESIAN_POINT ( 'NONE',  ( 13.59134295109077861, -6.749999999999494626, 2.500000000000000000 ) ) ;
#724 = ORIENTED_EDGE ( 'NONE', *, *, #477, .T. ) ;
#725 = MANIFOLD_SOLID_BREP ( 'Cut-Revolve1', #5 ) ;
#726 = LINE ( 'NONE', #38, #639 ) ;
#727 = DIRECTION ( 'NONE',  ( 0.000000000000000000, 0.000000000000000000, 1.000000000000000000 ) ) ;
#728 = DATE_AND_TIME ( #569, #51 ) ;
#729 = AXIS2_PLACEMENT_3D ( 'NONE', #17, #886, #749 ) ;
#730 = AXIS2_PLACEMENT_3D ( 'NONE', #952, #434, #514 ) ;
#731 = ORIENTED_EDGE ( 'NONE', *, *, #1058, .T. ) ;
#732 = CARTESIAN_POINT ( 'NONE',  ( 10.70000000000001528, 0.000000000000000000, 0.000000000000000000 ) ) ;
#733 = EDGE_CURVE ( 'NONE', #430, #1113, #178, .T. ) ;
#734 = VECTOR ( 'NONE', #129, 1000.000000000000000 ) ;
#735 = CARTESIAN_POINT ( 'NONE',  ( -9.791342951089070823, -6.750000000000500044, 2.500000000000000000 ) ) ;
#736 = CALENDAR_DATE ( 2026, 22, 8 ) ;
#737 = ORIENTED_EDGE ( 'NONE', *, *, #114, .T. ) ;
#738 = DIRECTION ( 'NONE',  ( -0.000000000000000000, -0.000000000000000000, 1.000000000000000000 ) ) ;
#739 = EDGE_CURVE ( 'NONE', #1014, #330, #775, .T. ) ;
#740 = CARTESIAN_POINT ( 'NONE',  ( -7.000000000000000000, 8.572527594031473190E-16, -2.700000000000000178 ) ) ;
#741 = PERSON_AND_ORGANIZATION ( #198, #556 ) ;
#742 = EDGE_LOOP ( 'NONE', ( #570, #188, #752, #529 ) ) ;
#743 = CARTESIAN_POINT ( 'NONE',  ( -11.69134295108906230, -6.750000000000500044, 0.000000000000000000 ) ) ;
#744 = VECTOR ( 'NONE', #307, 1000.000000000000000 ) ;
#745 = DIRECTION ( 'NONE',  ( -1.000000000000000000, 0.000000000000000000, 0.000000000000000000 ) ) ;
#746 = DIRECTION ( 'NONE',  ( 1.000000000000000000, 0.000000000000000000, 0.000000000000000000 ) ) ;
#747 = VECTOR ( 'NONE', #162, 1000.000000000000000 ) ;
#748 = VECTOR ( 'NONE', #1089, 1000.000000000000000 ) ;
#749 = DIRECTION ( 'NONE',  ( 1.000000000000000000, 0.000000000000000000, 0.000000000000000000 ) ) ;
#750 = PLANE ( 'NONE',  #894 ) ;
#751 = ADVANCED_FACE ( 'NONE', ( #184 ), #818, .F. ) ;
#752 = ORIENTED_EDGE ( 'NONE', *, *, #39, .T. ) ;
#753 = DIRECTION ( 'NONE',  ( -0.000000000000000000, -0.000000000000000000, -1.000000000000000000 ) ) ;
#754 = FACE_OUTER_BOUND ( 'NONE', #15, .T. ) ;
#755 = DIRECTION ( 'NONE',  ( 0.000000000000000000, 0.000000000000000000, -1.000000000000000000 ) ) ;
#756 = VERTEX_POINT ( 'NONE', #732 ) ;
#757 = DIRECTION ( 'NONE',  ( 1.000000000000000000, 0.000000000000000000, 0.000000000000000000 ) ) ;
#758 = EDGE_CURVE ( 'NONE', #710, #855, #992, .T. ) ;
#759 = VERTEX_POINT ( 'NONE', #300 ) ;
#760 = CARTESIAN_POINT ( 'NONE',  ( 11.69134295109078714, -6.749999999999494626, 0.000000000000000000 ) ) ;
#761 = ADVANCED_FACE ( 'NONE', ( #227 ), #382, .F. ) ;
#762 = ORIENTED_EDGE ( 'NONE', *, *, #48, .F. ) ;
#763 = AXIS2_PLACEMENT_3D ( 'NONE', #1057, #157, #362 ) ;
#764 = EDGE_CURVE ( 'NONE', #532, #855, #164, .T. ) ;
#765 = DIRECTION ( 'NONE',  ( 1.000000000000000000, 0.000000000000000000, 0.000000000000000000 ) ) ;
#766 = VERTEX_POINT ( 'NONE', #222 ) ;
#767 = DIRECTION ( 'NONE',  ( 1.000000000000000000, 0.000000000000000000, 0.000000000000000000 ) ) ;
#768 = ORIENTED_EDGE ( 'NONE', *, *, #452, .F. ) ;
#769 = CARTESIAN_POINT ( 'NONE',  ( 2.000000000000000000, -15.00000000000000000, 0.000000000000000000 ) ) ;
#770 = EDGE_LOOP ( 'NONE', ( #449, #941 ) ) ;
#771 = CARTESIAN_POINT ( 'NONE',  ( 11.69134295109078714, -6.749999999999494626, 2.399999999999985256 ) ) ;
#772 = CARTESIAN_POINT ( 'NONE',  ( 0.000000000000000000, 0.000000000000000000, -3.077177557921806361 ) ) ;
#773 = EDGE_CURVE ( 'NONE', #412, #613, #561, .T. ) ;
#774 = DIRECTION ( 'NONE',  ( -0.000000000000000000, -0.000000000000000000, -1.000000000000000000 ) ) ;
#775 = CIRCLE ( 'NONE', #115, 2.000000000000000000 ) ;
#776 = VERTEX_POINT ( 'NONE', #393 ) ;
#777 = DIRECTION ( 'NONE',  ( 0.000000000000000000, 0.000000000000000000, -1.000000000000000000 ) ) ;
#778 = EDGE_LOOP ( 'NONE', ( #939, #640, #807, #871 ) ) ;
#779 = AXIS2_PLACEMENT_3D ( 'NONE', #595, #1027, #591 ) ;
#780 = AXIS2_PLACEMENT_3D ( 'NONE', #390, #805, #989 ) ;
#781 = FACE_OUTER_BOUND ( 'NONE', #400, .T. ) ;
#782 = ORIENTED_EDGE ( 'NONE', *, *, #1032, .T. ) ;
#783 = EDGE_CURVE ( 'NONE', #112, #1007, #658, .T. ) ;
#784 = VECTOR ( 'NONE', #984, 1000.000000000000000 ) ;
#785 = ORIENTED_EDGE ( 'NONE', *, *, #357, .F. ) ;
#786 = CARTESIAN_POINT ( 'NONE',  ( 2.000000000000000000, 13.50000000000000000, 2.399999999999988365 ) ) ;
#787 = CYLINDRICAL_SURFACE ( 'NONE', #1130, 2.499999999999972022 ) ;
#788 = ORIENTED_EDGE ( 'NONE', *, *, #863, .F. ) ;
#789 = CARTESIAN_POINT ( 'NONE',  ( -14.99038105676654631, 7.500000000000061284, 0.000000000000000000 ) ) ;
#790 = ORIENTED_EDGE ( 'NONE', *, *, #564, .T. ) ;
#791 = DIRECTION ( 'NONE',  ( -0.000000000000000000, -0.000000000000000000, 1.000000000000000000 ) ) ;
#792 = ORIENTED_EDGE ( 'NONE', *, *, #64, .F. ) ;
#793 = CARTESIAN_POINT ( 'NONE',  ( 0.000000000000000000, -15.00000000000000000, -4.000000000000000000 ) ) ;
#794 = ORIENTED_EDGE ( 'NONE', *, *, #255, .F. ) ;
#795 = CARTESIAN_POINT ( 'NONE',  ( 11.69134295109078714, -6.749999999999494626, 2.500000000000000000 ) ) ;
#796 = ADVANCED_FACE ( 'NONE', ( #37 ), #483, .F. ) ;
#797 = EDGE_CURVE ( 'NONE', #330, #1014, #956, .T. ) ;
#798 = LINE ( 'NONE', #534, #888 ) ;
#799 = CIRCLE ( 'NONE', #583, 2.000000000000000000 ) ;
#800 = ORIENTED_EDGE ( 'NONE', *, *, #1035, .F. ) ;
#801 = AXIS2_PLACEMENT_3D ( 'NONE', #296, #223, #45 ) ;
#802 = CARTESIAN_POINT ( 'NONE',  ( 7.000000000000000000, 0.000000000000000000, -2.700000000000000178 ) ) ;
#803 = ORIENTED_EDGE ( 'NONE', *, *, #917, .F. ) ;
#804 = DIRECTION ( 'NONE',  ( 1.000000000000000000, 0.000000000000000000, 0.000000000000000000 ) ) ;
#805 = DIRECTION ( 'NONE',  ( 0.000000000000000000, 0.000000000000000000, 1.000000000000000000 ) ) ;
#806 = DIRECTION ( 'NONE',  ( 1.000000000000000000, 0.000000000000000000, 0.000000000000000000 ) ) ;
#807 = ORIENTED_EDGE ( 'NONE', *, *, #783, .T. ) ;
#808 = DIRECTION ( 'NONE',  ( 1.000000000000000000, 0.000000000000000000, 0.000000000000000000 ) ) ;
#809 = DIRECTION ( 'NONE',  ( -0.000000000000000000, -0.000000000000000000, -1.000000000000000000 ) ) ;
#810 = APPROVAL_ROLE ( '' ) ;
#811 = EDGE_CURVE ( 'NONE', #1139, #91, #427, .T. ) ;
#812 = ORIENTED_EDGE ( 'NONE', *, *, #85, .F. ) ;
#813 = DIRECTION ( 'NONE',  ( 1.000000000000000000, 0.000000000000000000, 0.000000000000000000 ) ) ;
#814 = VECTOR ( 'NONE', #203, 1000.000000000000000 ) ;
#815 = CARTESIAN_POINT ( 'NONE',  ( -2.499999999999972022, 0.000000000000000000, -2.700000000000001066 ) ) ;
#816 = AXIS2_PLACEMENT_3D ( 'NONE', #1110, #328, #856 ) ;
#817 = AXIS2_PLACEMENT_3D ( 'NONE', #719, #885, #350 ) ;
#818 = CYLINDRICAL_SURFACE ( 'NONE', #828, 2.000000000000000000 ) ;
#819 = CIRCLE ( 'NONE', #472, 2.000000000000000000 ) ;
#820 = ADVANCED_FACE ( 'NONE', ( #119 ), #286, .F. ) ;
#821 = LINE ( 'NONE', #740, #734 ) ;
#822 = VERTEX_POINT ( 'NONE', #1008 ) ;
#823 = DIRECTION ( 'NONE',  ( 0.000000000000000000, 0.000000000000000000, 1.000000000000000000 ) ) ;
#824 = CARTESIAN_POINT ( 'NONE',  ( -2.499999999999972022, 0.000000000000000000, -34.50000000000000000 ) ) ;
#825 = APPROVAL_DATE_TIME ( #481, #575 ) ;
#826 = ORIENTED_EDGE ( 'NONE', *, *, #114, .F. ) ;
#827 = DIRECTION ( 'NONE',  ( 1.000000000000000000, 0.000000000000000000, 0.000000000000000000 ) ) ;
#828 = AXIS2_PLACEMENT_3D ( 'NONE', #915, #738, #900 ) ;
#829 = DIRECTION ( 'NONE',  ( 0.000000000000000000, 0.000000000000000000, -1.000000000000000000 ) ) ;
#830 = CC_DESIGN_PERSON_AND_ORGANIZATION_ASSIGNMENT ( #461, #1086, ( #932 ) ) ;
#831 = EDGE_CURVE ( 'NONE', #455, #330, #1003, .T. ) ;
#832 = DIRECTION ( 'NONE',  ( 0.7071067811865230368, 8.659560562354633338E-17, -0.7071067811865721087 ) ) ;
#833 = ORIENTED_EDGE ( 'NONE', *, *, #936, .T. ) ;
#834 = DIRECTION ( 'NONE',  ( -0.000000000000000000, -0.000000000000000000, 1.000000000000000000 ) ) ;
#835 = CIRCLE ( 'NONE', #469, 20.49999999999998934 ) ;
#836 = LINE ( 'NONE', #663, #232 ) ;
#837 = CIRCLE ( 'NONE', #586, 7.000000000000000000 ) ;
#838 = FACE_BOUND ( 'NONE', #78, .T. ) ;
#839 = VERTEX_POINT ( 'NONE', #1099 ) ;
#840 = CARTESIAN_POINT ( 'NONE',  ( 1.899999999999985034, 13.50000000000000000, 2.500000000000000000 ) ) ;
#841 = CYLINDRICAL_SURFACE ( 'NONE', #210, 2.000000000000000000 ) ;
#842 = DIRECTION ( 'NONE',  ( 1.000000000000000000, 0.000000000000000000, 0.000000000000000000 ) ) ;
#843 = ADVANCED_FACE ( 'NONE', ( #313 ), #318, .T. ) ;
#844 = ORIENTED_EDGE ( 'NONE', *, *, #1097, .T. ) ;
#845 = DIRECTION ( 'NONE',  ( 1.000000000000000000, 0.000000000000000000, 0.000000000000000000 ) ) ;
#846 = ORIENTED_EDGE ( 'NONE', *, *, #197, .F. ) ;
#847 = CARTESIAN_POINT ( 'NONE',  ( 0.000000000000000000, -15.00000000000000000, 0.000000000000000000 ) ) ;
#848 = EDGE_LOOP ( 'NONE', ( #535, #306 ) ) ;
#849 = DIRECTION ( 'NONE',  ( -0.000000000000000000, -0.000000000000000000, 1.000000000000000000 ) ) ;
#850 = ORIENTED_EDGE ( 'NONE', *, *, #1058, .F. ) ;
#851 = AXIS2_PLACEMENT_3D ( 'NONE', #397, #166, #94 ) ;
#852 = AXIS2_PLACEMENT_3D ( 'NONE', #133, #635, #804 ) ;
#853 = LINE ( 'NONE', #238, #340 ) ;
#854 = ADVANCED_BREP_SHAPE_REPRESENTATION ( 'MotorRotor_Default_sldprt', ( #725, #160 ), #315 ) ;
#855 = VERTEX_POINT ( 'NONE', #662 ) ;
#856 = DIRECTION ( 'NONE',  ( 1.000000000000000000, 0.000000000000000000, 0.000000000000000000 ) ) ;
#857 = ORIENTED_EDGE ( 'NONE', *, *, #917, .T. ) ;
#858 = LINE ( 'NONE', #71, #271 ) ;
#859 = ORIENTED_EDGE ( 'NONE', *, *, #1119, .F. ) ;
#860 = FACE_OUTER_BOUND ( 'NONE', #462, .T. ) ;
#861 = CARTESIAN_POINT ( 'NONE',  ( 0.000000000000000000, 0.000000000000000000, 0.000000000000000000 ) ) ;
#862 = AXIS2_PLACEMENT_3D ( 'NONE', #911, #127, #1012 ) ;
#863 = EDGE_CURVE ( 'NONE', #822, #430, #267, .T. ) ;
#864 = ORIENTED_EDGE ( 'NONE', *, *, #878, .F. ) ;
#865 = DIRECTION ( 'NONE',  ( -0.000000000000000000, -0.000000000000000000, 1.000000000000000000 ) ) ;
#866 = ORIENTED_EDGE ( 'NONE', *, *, #1025, .T. ) ;
#867 = AXIS2_PLACEMENT_3D ( 'NONE', #150, #245, #1104 ) ;
#868 = AXIS2_PLACEMENT_3D ( 'NONE', #79, #361, #98 ) ;
#869 = AXIS2_PLACEMENT_3D ( 'NONE', #896, #297, #14 ) ;
#870 = DIRECTION ( 'NONE',  ( 0.000000000000000000, 0.000000000000000000, 1.000000000000000000 ) ) ;
#871 = ORIENTED_EDGE ( 'NONE', *, *, #936, .F. ) ;
#872 = DIRECTION ( 'NONE',  ( -0.000000000000000000, -0.000000000000000000, -1.000000000000000000 ) ) ;
#873 = ORIENTED_EDGE ( 'NONE', *, *, #451, .F. ) ;
#874 = DIRECTION ( 'NONE',  ( 0.000000000000000000, 0.000000000000000000, -1.000000000000000000 ) ) ;
#875 = PLANE ( 'NONE',  #1109 ) ;
#876 = FACE_OUTER_BOUND ( 'NONE', #54, .T. ) ;
#877 = FACE_OUTER_BOUND ( 'NONE', #375, .T. ) ;
#878 = EDGE_CURVE ( 'NONE', #559, #343, #464, .T. ) ;
#879 = CARTESIAN_POINT ( 'NONE',  ( -2.499999999999968026, 0.000000000000000000, -3.077177557921806361 ) ) ;
#880 = ADVANCED_FACE ( 'NONE', ( #921, #137 ), #489, .T. ) ;
#881 = CARTESIAN_POINT ( 'NONE',  ( -12.99038105676654631, 7.500000000000061284, -4.000000000000000000 ) ) ;
#882 = AXIS2_PLACEMENT_3D ( 'NONE', #771, #50, #323 ) ;
#883 = CARTESIAN_POINT ( 'NONE',  ( -10.00000000000000000, 1.267509437117511387E-15, -0.6999999999999999556 ) ) ;
#884 = ORIENTED_EDGE ( 'NONE', *, *, #783, .F. ) ;
#885 = DIRECTION ( 'NONE',  ( -0.000000000000000000, -0.000000000000000000, -1.000000000000000000 ) ) ;
#886 = DIRECTION ( 'NONE',  ( -0.000000000000000000, -0.000000000000000000, 1.000000000000000000 ) ) ;
#887 = AXIS2_PLACEMENT_3D ( 'NONE', #336, #1116, #757 ) ;
#888 = VECTOR ( 'NONE', #428, 1000.000000000000000 ) ;
#889 = VECTOR ( 'NONE', #890, 1000.000000000000000 ) ;
#890 = DIRECTION ( 'NONE',  ( 0.7071067811865230368, 8.659560562354633338E-17, -0.7071067811865721087 ) ) ;
#891 = CARTESIAN_POINT ( 'NONE',  ( 21.00000000000000000, 0.000000000000000000, -0.5000000000000004441 ) ) ;
#892 = ORIENTED_EDGE ( 'NONE', *, *, #700, .T. ) ;
#893 = DIRECTION ( 'NONE',  ( 1.000000000000000000, 0.000000000000000000, 0.000000000000000000 ) ) ;
#894 = AXIS2_PLACEMENT_3D ( 'NONE', #67, #243, #404 ) ;
#895 = CARTESIAN_POINT ( 'NONE',  ( -21.00000000000000000, 2.571758278209441661E-15, -34.50000000000000000 ) ) ;
#896 = CARTESIAN_POINT ( 'NONE',  ( 0.000000000000000000, 0.000000000000000000, -34.50000000000000000 ) ) ;
#897 = PERSON_AND_ORGANIZATION_ROLE ( 'creator' ) ;
#898 = LOCAL_TIME ( 17, 51, 27.00000000000000000, #111 ) ;
#899 = ORIENTED_EDGE ( 'NONE', *, *, #39, .F. ) ;
#900 = DIRECTION ( 'NONE',  ( 1.000000000000000000, 0.000000000000000000, 0.000000000000000000 ) ) ;
#901 = EDGE_CURVE ( 'NONE', #488, #91, #668, .T. ) ;
#902 = CARTESIAN_POINT ( 'NONE',  ( 2.499999999999968026, 0.000000000000000000, -3.077177557921806361 ) ) ;
#903 = ORIENTED_EDGE ( 'NONE', *, *, #182, .F. ) ;
#904 = CARTESIAN_POINT ( 'NONE',  ( 0.000000000000000000, 0.000000000000000000, -2.700000000000000178 ) ) ;
#905 = VECTOR ( 'NONE', #1061, 1000.000000000000000 ) ;
#906 = DIRECTION ( 'NONE',  ( -0.000000000000000000, -0.000000000000000000, -1.000000000000000000 ) ) ;
#907 = AXIS2_PLACEMENT_3D ( 'NONE', #589, #935, #502 ) ;
#908 = CIRCLE ( 'NONE', #687, 2.000000000000000000 ) ;
#909 = AXIS2_PLACEMENT_3D ( 'NONE', #1009, #281, #1101 ) ;
#910 = EDGE_LOOP ( 'NONE', ( #724, #1059 ) ) ;
#911 = CARTESIAN_POINT ( 'NONE',  ( 0.000000000000000000, 0.000000000000000000, -0.6999999999999999556 ) ) ;
#912 = CARTESIAN_POINT ( 'NONE',  ( 9.791342951090793889, -6.749999999999494626, 2.500000000000000000 ) ) ;
#913 = APPLICATION_PROTOCOL_DEFINITION ( 'international standard', 'config_control_design', 1994, #999 ) ;
#914 = ORIENTED_EDGE ( 'NONE', *, *, #1083, .F. ) ;
#915 = CARTESIAN_POINT ( 'NONE',  ( -12.99038105676654631, 7.500000000000061284, -4.000000000000000000 ) ) ;
#916 = CARTESIAN_POINT ( 'NONE',  ( -13.59134295108905377, -6.750000000000500044, 2.500000000000000000 ) ) ;
#917 = EDGE_CURVE ( 'NONE', #953, #425, #411, .T. ) ;
#918 = CARTESIAN_POINT ( 'NONE',  ( 13.59134295109077861, -6.749999999999494626, 2.500000000000000000 ) ) ;
#919 = APPROVAL_STATUS ( 'not_yet_approved' ) ;
#920 = VERTEX_POINT ( 'NONE', #840 ) ;
#921 = FACE_BOUND ( 'NONE', #31, .T. ) ;
#922 = CC_DESIGN_PERSON_AND_ORGANIZATION_ASSIGNMENT ( #201, #398, ( #403 ) ) ;
#923 = AXIS2_PLACEMENT_3D ( 'NONE', #1094, #463, #1088 ) ;
#924 = DIRECTION ( 'NONE',  ( 1.000000000000000000, 0.000000000000000000, 0.000000000000000000 ) ) ;
#925 = DIRECTION ( 'NONE',  ( 0.000000000000000000, 0.000000000000000000, -1.000000000000000000 ) ) ;
#926 = CARTESIAN_POINT ( 'NONE',  ( -10.70000000000001528, 1.310372075087669714E-15, 0.000000000000000000 ) ) ;
#927 = AXIS2_PLACEMENT_3D ( 'NONE', #18, #722, #480 ) ;
#928 = ORIENTED_EDGE ( 'NONE', *, *, #342, .T. ) ;
#929 = DIRECTION ( 'NONE',  ( 1.000000000000000000, 0.000000000000000000, 0.000000000000000000 ) ) ;
#930 = CC_DESIGN_DATE_AND_TIME_ASSIGNMENT ( #135, #487, ( #74 ) ) ;
#931 = FACE_BOUND ( 'NONE', #339, .T. ) ;
#932 = PRODUCT ( 'MotorRotor_Default_sldprt', 'MotorRotor_Default_sldprt', '', ( #994 ) ) ;
#933 = ORIENTED_EDGE ( 'NONE', *, *, #1066, .F. ) ;
#934 = FACE_OUTER_BOUND ( 'NONE', #254, .T. ) ;
#935 = DIRECTION ( 'NONE',  ( 0.000000000000000000, 0.000000000000000000, 1.000000000000000000 ) ) ;
#936 = EDGE_CURVE ( 'NONE', #602, #1007, #57, .T. ) ;
#937 = VERTEX_POINT ( 'NONE', #517 ) ;
#938 = DIRECTION ( 'NONE',  ( -0.000000000000000000, -0.000000000000000000, 1.000000000000000000 ) ) ;
#939 = ORIENTED_EDGE ( 'NONE', *, *, #301, .F. ) ;
#940 = CARTESIAN_POINT ( 'NONE',  ( 0.000000000000000000, 0.000000000000000000, 0.000000000000000000 ) ) ;
#941 = ORIENTED_EDGE ( 'NONE', *, *, #797, .F. ) ;
#942 = DIRECTION ( 'NONE',  ( 1.000000000000000000, 0.000000000000000000, 0.000000000000000000 ) ) ;
#943 = VERTEX_POINT ( 'NONE', #926 ) ;
#944 = VECTOR ( 'NONE', #581, 1000.000000000000114 ) ;
#945 = AXIS2_PLACEMENT_3D ( 'NONE', #772, #242, #505 ) ;
#946 = CARTESIAN_POINT ( 'NONE',  ( 2.499999999999968026, 3.061616997868345670E-16, -3.077177557921806361 ) ) ;
#947 = ORIENTED_EDGE ( 'NONE', *, *, #237, .F. ) ;
#948 = CARTESIAN_POINT ( 'NONE',  ( 11.69134295109078714, -6.749999999999494626, 2.500000000000000000 ) ) ;
#949 = PRODUCT_DEFINITION_SHAPE ( 'NONE', 'NONE',  #74 ) ;
#950 = EDGE_CURVE ( 'NONE', #386, #647, #35, .T. ) ;
#951 = LOCAL_TIME ( 17, 51, 27.00000000000000000, #474 ) ;
#952 = CARTESIAN_POINT ( 'NONE',  ( 0.000000000000000000, -15.00000000000000000, -4.000000000000000000 ) ) ;
#953 = VERTEX_POINT ( 'NONE', #676 ) ;
#954 = CARTESIAN_POINT ( 'NONE',  ( -2.000000000000000000, 13.50000000000000000, 2.399999999999988365 ) ) ;
#955 = CARTESIAN_POINT ( 'NONE',  ( 0.000000000000000000, 0.000000000000000000, -34.50000000000000000 ) ) ;
#956 = CIRCLE ( 'NONE', #409, 2.000000000000000000 ) ;
#957 = ORIENTED_EDGE ( 'NONE', *, *, #773, .T. ) ;
#958 = CIRCLE ( 'NONE', #652, 2.000000000000000000 ) ;
#959 = CIRCLE ( 'NONE', #817, 10.70000000000001528 ) ;
#960 = ADVANCED_FACE ( 'NONE', ( #1034 ), #1030, .T. ) ;
#961 = FACE_OUTER_BOUND ( 'NONE', #1002, .T. ) ;
#962 = ADVANCED_FACE ( 'NONE', ( #421 ), #154, .F. ) ;
#963 = DIRECTION ( 'NONE',  ( 1.000000000000000000, 0.000000000000000000, 0.000000000000000000 ) ) ;
#964 = APPLICATION_PROTOCOL_DEFINITION ( 'international standard', 'config_control_design', 1994, #138 ) ;
#965 = ORIENTED_EDGE ( 'NONE', *, *, #262, .T. ) ;
#966 = DIRECTION ( 'NONE',  ( 1.000000000000000000, 0.000000000000000000, 0.000000000000000000 ) ) ;
#967 = FACE_OUTER_BOUND ( 'NONE', #335, .T. ) ;
#968 = APPROVAL ( #919, 'UNSPECIFIED' ) ;
#969 = ORIENTED_EDGE ( 'NONE', *, *, #664, .T. ) ;
#970 = CYLINDRICAL_SURFACE ( 'NONE', #429, 2.000000000000000000 ) ;
#971 = ORIENTED_EDGE ( 'NONE', *, *, #389, .F. ) ;
#972 = DIRECTION ( 'NONE',  ( 0.000000000000000000, 0.000000000000000000, 1.000000000000000000 ) ) ;
#973 = CARTESIAN_POINT ( 'NONE',  ( 0.000000000000000000, 13.50000000000000000, 2.399999999999988365 ) ) ;
#974 = AXIS2_PLACEMENT_3D ( 'NONE', #571, #376, #645 ) ;
#975 = ORIENTED_EDGE ( 'NONE', *, *, #512, .T. ) ;
#976 =( LENGTH_UNIT ( ) NAMED_UNIT ( * ) SI_UNIT ( .MILLI., .METRE. ) );
#977 = ORIENTED_EDGE ( 'NONE', *, *, #773, .F. ) ;
#978 = CARTESIAN_POINT ( 'NONE',  ( -1.899999999999985034, 13.50000000000000000, 2.500000000000000000 ) ) ;
#979 = ADVANCED_FACE ( 'NONE', ( #934 ), #691, .T. ) ;
#980 = DIRECTION ( 'NONE',  ( 0.000000000000000000, 0.000000000000000000, 1.000000000000000000 ) ) ;
#981 = AXIS2_PLACEMENT_3D ( 'NONE', #73, #61, #241 ) ;
#982 = CONICAL_SURFACE ( 'NONE', #763, 20.49999999999998934, 0.7853981633974587151 ) ;
#983 = AXIS2_PLACEMENT_3D ( 'NONE', #446, #352, #963 ) ;
#984 = DIRECTION ( 'NONE',  ( 0.7071067811865505703, 0.000000000000000000, 0.7071067811865444641 ) ) ;
#985 = CALENDAR_DATE ( 2026, 22, 8 ) ;
#986 = ORIENTED_EDGE ( 'NONE', *, *, #1097, .F. ) ;
#987 = UNCERTAINTY_MEASURE_WITH_UNIT (LENGTH_MEASURE( 1.000000000000000082E-05 ), #976, 'distance_accuracy_value', 'NONE');
#988 = EDGE_CURVE ( 'NONE', #91, #1139, #470, .T. ) ;
#989 = DIRECTION ( 'NONE',  ( 1.000000000000000000, 0.000000000000000000, 0.000000000000000000 ) ) ;
#990 = PERSON_AND_ORGANIZATION ( #198, #556 ) ;
#991 = ORIENTED_EDGE ( 'NONE', *, *, #224, .F. ) ;
#992 = LINE ( 'NONE', #1078, #523 ) ;
#993 = CYLINDRICAL_SURFACE ( 'NONE', #1079, 21.00000000000000000 ) ;
#994 = MECHANICAL_CONTEXT ( 'NONE', #138, 'mechanical' ) ;
#995 = ORIENTED_EDGE ( 'NONE', *, *, #132, .T. ) ;
#996 = CARTESIAN_POINT ( 'NONE',  ( 0.000000000000000000, 13.50000000000000000, 0.000000000000000000 ) ) ;
#997 = DIRECTION ( 'NONE',  ( 1.000000000000000000, 0.000000000000000000, 0.000000000000000000 ) ) ;
#998 = PERSON_AND_ORGANIZATION ( #198, #556 ) ;
#999 = APPLICATION_CONTEXT ( 'configuration controlled 3d designs of mechanical parts and assemblies' ) ;
#1000 = ADVANCED_FACE ( 'NONE', ( #417 ), #588, .T. ) ;
#1001 = AXIS2_PLACEMENT_3D ( 'NONE', #314, #980, #808 ) ;
#1002 = EDGE_LOOP ( 'NONE', ( #1033, #1011, #10, #65 ) ) ;
#1003 = LINE ( 'NONE', #28, #744 ) ;
#1004 = DIRECTION ( 'NONE',  ( -1.000000000000000000, 0.000000000000000000, 0.000000000000000000 ) ) ;
#1005 = FACE_OUTER_BOUND ( 'NONE', #86, .T. ) ;
#1006 = PERSON_AND_ORGANIZATION_ROLE ( 'classification_officer' ) ;
#1007 = VERTEX_POINT ( 'NONE', #69 ) ;
#1008 = CARTESIAN_POINT ( 'NONE',  ( -20.49999999999998934, 0.000000000000000000, 0.000000000000000000 ) ) ;
#1009 = CARTESIAN_POINT ( 'NONE',  ( 0.000000000000000000, 0.000000000000000000, -0.6999999999999999556 ) ) ;
#1010 = FACE_BOUND ( 'NONE', #312, .T. ) ;
#1011 = ORIENTED_EDGE ( 'NONE', *, *, #733, .T. ) ;
#1012 = DIRECTION ( 'NONE',  ( 1.000000000000000000, 0.000000000000000000, 0.000000000000000000 ) ) ;
#1013 = EDGE_CURVE ( 'NONE', #647, #386, #338, .T. ) ;
#1014 = VERTEX_POINT ( 'NONE', #147 ) ;
#1015 = DIRECTION ( 'NONE',  ( -0.000000000000000000, -0.000000000000000000, 1.000000000000000000 ) ) ;
#1016 = CARTESIAN_POINT ( 'NONE',  ( -11.69134295108906230, -6.750000000000500044, 2.399999999999985256 ) ) ;
#1017 = ORIENTED_EDGE ( 'NONE', *, *, #706, .T. ) ;
#1018 = CIRCLE ( 'NONE', #688, 2.000000000000000000 ) ;
#1019 = CARTESIAN_POINT ( 'NONE',  ( -12.99038105676654631, 7.500000000000061284, 0.000000000000000000 ) ) ;
#1020 = AXIS2_PLACEMENT_3D ( 'NONE', #536, #1051, #90 ) ;
#1021 = CIRCLE ( 'NONE', #852, 21.00000000000000000 ) ;
#1022 = ORIENTED_EDGE ( 'NONE', *, *, #64, .T. ) ;
#1023 = EDGE_CURVE ( 'NONE', #95, #1113, #501, .T. ) ;
#1024 = CARTESIAN_POINT ( 'NONE',  ( 10.00000000000000000, 0.000000000000000000, -0.7000000000000148326 ) ) ;
#1025 = EDGE_CURVE ( 'NONE', #112, #1123, #567, .T. ) ;
#1026 = ORIENTED_EDGE ( 'NONE', *, *, #511, .T. ) ;
#1027 = DIRECTION ( 'NONE',  ( 0.000000000000000000, 0.000000000000000000, 1.000000000000000000 ) ) ;
#1028 = FACE_OUTER_BOUND ( 'NONE', #1132, .T. ) ;
#1029 = ORIENTED_EDGE ( 'NONE', *, *, #29, .T. ) ;
#1030 = CYLINDRICAL_SURFACE ( 'NONE', #887, 21.00000000000000000 ) ;
#1031 = DIRECTION ( 'NONE',  ( 1.000000000000000000, 0.000000000000000000, -0.000000000000000000 ) ) ;
#1032 = EDGE_CURVE ( 'NONE', #1123, #112, #191, .T. ) ;
#1033 = ORIENTED_EDGE ( 'NONE', *, *, #345, .F. ) ;
#1034 = FACE_OUTER_BOUND ( 'NONE', #608, .T. ) ;
#1035 = EDGE_CURVE ( 'NONE', #776, #1126, #638, .T. ) ;
#1036 = AXIS2_PLACEMENT_3D ( 'NONE', #353, #96, #703 ) ;
#1037 = CIRCLE ( 'NONE', #494, 2.499999999999972022 ) ;
#1038 = FACE_OUTER_BOUND ( 'NONE', #189, .T. ) ;
#1039 = AXIS2_PLACEMENT_3D ( 'NONE', #585, #674, #1096 ) ;
#1040 = DIRECTION ( 'NONE',  ( 1.000000000000000000, 0.000000000000000000, -0.000000000000000000 ) ) ;
#1041 = ORIENTED_EDGE ( 'NONE', *, *, #797, .T. ) ;
#1042 = APPROVAL_PERSON_ORGANIZATION ( #1076, #46, #810 ) ;
#1043 = CARTESIAN_POINT ( 'NONE',  ( 0.000000000000000000, -15.00000000000000000, -4.000000000000000000 ) ) ;
#1044 = ORIENTED_EDGE ( 'NONE', *, *, #537, .F. ) ;
#1045 = DIRECTION ( 'NONE',  ( 1.000000000000000000, 0.000000000000000000, 0.000000000000000000 ) ) ;
#1046 = EDGE_LOOP ( 'NONE', ( #509, #269, #1067, #884 ) ) ;
#1047 = CARTESIAN_POINT ( 'NONE',  ( -13.69134295108906230, -6.750000000000500044, 2.399999999999985256 ) ) ;
#1048 = CARTESIAN_POINT ( 'NONE',  ( 0.000000000000000000, 0.000000000000000000, 0.000000000000000000 ) ) ;
#1049 = VECTOR ( 'NONE', #938, 1000.000000000000000 ) ;
#1050 = ORIENTED_EDGE ( 'NONE', *, *, #224, .T. ) ;
#1051 = DIRECTION ( 'NONE',  ( 0.000000000000000000, 0.000000000000000000, 1.000000000000000000 ) ) ;
#1052 = ORIENTED_EDGE ( 'NONE', *, *, #499, .F. ) ;
#1053 = CYLINDRICAL_SURFACE ( 'NONE', #868, 2.000000000000000000 ) ;
#1054 = AXIS2_PLACEMENT_3D ( 'NONE', #847, #59, #578 ) ;
#1055 = CONICAL_SURFACE ( 'NONE', #801, 1.899999999999991918, 0.7853981633974136400 ) ;
#1056 = AXIS2_PLACEMENT_3D ( 'NONE', #278, #655, #745 ) ;
#1057 = CARTESIAN_POINT ( 'NONE',  ( 0.000000000000000000, 0.000000000000000000, 0.000000000000000000 ) ) ;
#1058 = EDGE_CURVE ( 'NONE', #937, #97, #171, .T. ) ;
#1059 = ORIENTED_EDGE ( 'NONE', *, *, #197, .T. ) ;
#1060 = EDGE_LOOP ( 'NONE', ( #359, #704, #597, #258 ) ) ;
#1061 = DIRECTION ( 'NONE',  ( 0.7071067811865597852, 8.659560562355082002E-17, -0.7071067811865352493 ) ) ;
#1062 = DIRECTION ( 'NONE',  ( 1.000000000000000000, 0.000000000000000000, 0.000000000000000000 ) ) ;
#1063 = ADVANCED_FACE ( 'NONE', ( #860 ), #671, .T. ) ;
#1064 = ORIENTED_EDGE ( 'NONE', *, *, #878, .T. ) ;
#1065 = FACE_OUTER_BOUND ( 'NONE', #363, .T. ) ;
#1066 = EDGE_CURVE ( 'NONE', #759, #343, #341, .T. ) ;
#1067 = ORIENTED_EDGE ( 'NONE', *, *, #700, .F. ) ;
#1068 = LINE ( 'NONE', #824, #123 ) ;
#1069 = ORIENTED_EDGE ( 'NONE', *, *, #389, .T. ) ;
#1070 = CARTESIAN_POINT ( 'NONE',  ( -21.00000000000000000, 2.571758278209441661E-15, -0.5000000000000004441 ) ) ;
#1071 = ADVANCED_FACE ( 'NONE', ( #542 ), #970, .T. ) ;
#1072 = CARTESIAN_POINT ( 'NONE',  ( -10.99038105676654631, 7.500000000000061284, -4.000000000000000000 ) ) ;
#1073 = CIRCLE ( 'NONE', #395, 21.00000000000000000 ) ;
#1074 = CIRCLE ( 'NONE', #730, 2.000000000000000000 ) ;
#1075 = DIRECTION ( 'NONE',  ( 0.000000000000000000, 0.000000000000000000, -1.000000000000000000 ) ) ;
#1076 = PERSON_AND_ORGANIZATION ( #198, #556 ) ;
#1077 = VERTEX_POINT ( 'NONE', #883 ) ;
#1078 = CARTESIAN_POINT ( 'NONE',  ( 2.000000000000000000, 13.50000000000000000, 2.500000000000000000 ) ) ;
#1079 = AXIS2_PLACEMENT_3D ( 'NONE', #557, #646, #649 ) ;
#1080 = CARTESIAN_POINT ( 'NONE',  ( 0.000000000000000000, 0.000000000000000000, -2.700000000000001066 ) ) ;
#1081 = ORIENTED_EDGE ( 'NONE', *, *, #424, .T. ) ;
#1082 = CARTESIAN_POINT ( 'NONE',  ( 0.000000000000000000, 13.50000000000000000, 2.500000000000000000 ) ) ;
#1083 = EDGE_CURVE ( 'NONE', #1113, #624, #1073, .T. ) ;
#1084 = EDGE_CURVE ( 'NONE', #548, #624, #279, .T. ) ;
#1085 = DIRECTION ( 'NONE',  ( -1.000000000000000000, 0.000000000000000000, 0.000000000000000000 ) ) ;
#1086 = PERSON_AND_ORGANIZATION_ROLE ( 'design_owner' ) ;
#1087 = ORIENTED_EDGE ( 'NONE', *, *, #1084, .T. ) ;
#1088 = DIRECTION ( 'NONE',  ( 1.000000000000000000, 0.000000000000000000, 0.000000000000000000 ) ) ;
#1089 = DIRECTION ( 'NONE',  ( -0.000000000000000000, -0.000000000000000000, -1.000000000000000000 ) ) ;
#1090 = APPROVAL_DATE_TIME ( #117, #968 ) ;
#1091 = AXIS2_PLACEMENT_3D ( 'NONE', #973, #829, #924 ) ;
#1092 = AXIS2_PLACEMENT_3D ( 'NONE', #266, #874, #893 ) ;
#1093 = EDGE_LOOP ( 'NONE', ( #859, #1017, #768, #986 ) ) ;
#1094 = CARTESIAN_POINT ( 'NONE',  ( -12.99038105676654631, 7.500000000000061284, 0.000000000000000000 ) ) ;
#1095 = DIRECTION ( 'NONE',  ( -0.7071067811865230368, 0.000000000000000000, -0.7071067811865721087 ) ) ;
#1096 = DIRECTION ( 'NONE',  ( 1.000000000000000000, 0.000000000000000000, 0.000000000000000000 ) ) ;
#1097 = EDGE_CURVE ( 'NONE', #690, #587, #625, .T. ) ;
#1098 = ORIENTED_EDGE ( 'NONE', *, *, #739, .T. ) ;
#1099 = CARTESIAN_POINT ( 'NONE',  ( 2.877177557921777318, 0.000000000000000000, -2.700000000000000178 ) ) ;
#1100 = APPROVAL_PERSON_ORGANIZATION ( #558, #968, #34 ) ;
#1101 = DIRECTION ( 'NONE',  ( 1.000000000000000000, 0.000000000000000000, -0.000000000000000000 ) ) ;
#1102 = FACE_OUTER_BOUND ( 'NONE', #848, .T. ) ;
#1103 = ORIENTED_EDGE ( 'NONE', *, *, #294, .F. ) ;
#1104 = DIRECTION ( 'NONE',  ( 1.000000000000000000, 0.000000000000000000, 0.000000000000000000 ) ) ;
#1105 = CARTESIAN_POINT ( 'NONE',  ( -14.99038105676654631, 7.500000000000061284, -4.000000000000000000 ) ) ;
#1106 = ADVANCED_FACE ( 'NONE', ( #522 ), #364, .F. ) ;
#1107 = FACE_OUTER_BOUND ( 'NONE', #371, .T. ) ;
#1108 = ORIENTED_EDGE ( 'NONE', *, *, #29, .F. ) ;
#1109 = AXIS2_PLACEMENT_3D ( 'NONE', #881, #438, #81 ) ;
#1110 = CARTESIAN_POINT ( 'NONE',  ( 11.69134295109078714, -6.749999999999494626, 2.500000000000000000 ) ) ;
#1111 = VECTOR ( 'NONE', #603, 1000.000000000000000 ) ;
#1112 = CIRCLE ( 'NONE', #619, 21.00000000000000000 ) ;
#1113 = VERTEX_POINT ( 'NONE', #891 ) ;
#1114 = FACE_OUTER_BOUND ( 'NONE', #354, .T. ) ;
#1115 = ORIENTED_EDGE ( 'NONE', *, *, #1136, .T. ) ;
#1116 = DIRECTION ( 'NONE',  ( 0.000000000000000000, 0.000000000000000000, 1.000000000000000000 ) ) ;
#1117 = CARTESIAN_POINT ( 'NONE',  ( -2.877177557921777318, 3.523526286887503409E-16, -2.700000000000000178 ) ) ;
#1118 = DIRECTION ( 'NONE',  ( 0.000000000000000000, 0.000000000000000000, 1.000000000000000000 ) ) ;
#1119 = EDGE_CURVE ( 'NONE', #920, #690, #378, .T. ) ;
#1120 = ADVANCED_FACE ( 'NONE', ( #877 ), #259, .T. ) ;
#1121 = ORIENTED_EDGE ( 'NONE', *, *, #294, .T. ) ;
#1122 = DIRECTION ( 'NONE',  ( 0.000000000000000000, 0.000000000000000000, 1.000000000000000000 ) ) ;
#1123 = VERTEX_POINT ( 'NONE', #723 ) ;
#1124 = VECTOR ( 'NONE', #849, 1000.000000000000000 ) ;
#1125 = DIRECTION ( 'NONE',  ( -0.000000000000000000, -0.000000000000000000, -1.000000000000000000 ) ) ;
#1126 = VERTEX_POINT ( 'NONE', #716 ) ;
#1127 = DIRECTION ( 'NONE',  ( -1.000000000000000000, 0.000000000000000000, 0.000000000000000000 ) ) ;
#1128 = EDGE_LOOP ( 'NONE', ( #136, #392 ) ) ;
#1129 = AXIS2_PLACEMENT_3D ( 'NONE', #760, #144, #767 ) ;
#1130 = AXIS2_PLACEMENT_3D ( 'NONE', #955, #276, #623 ) ;
#1131 = CARTESIAN_POINT ( 'NONE',  ( -9.691342951089062296, -6.750000000000500044, 0.000000000000000000 ) ) ;
#1132 = EDGE_LOOP ( 'NONE', ( #244, #107 ) ) ;
#1133 = DIRECTION ( 'NONE',  ( 0.000000000000000000, 0.000000000000000000, 1.000000000000000000 ) ) ;
#1134 = ORIENTED_EDGE ( 'NONE', *, *, #1023, .F. ) ;
#1135 = FACE_OUTER_BOUND ( 'NONE', #437, .T. ) ;
#1136 = EDGE_CURVE ( 'NONE', #1077, #766, #274, .T. ) ;
#1137 = LINE ( 'NONE', #351, #944 ) ;
#1138 = FACE_OUTER_BOUND ( 'NONE', #441, .T. ) ;
#1139 = VERTEX_POINT ( 'NONE', #789 ) ;
#1140 = DIRECTION ( 'NONE',  ( 0.000000000000000000, 0.000000000000000000, 1.000000000000000000 ) ) ;
#1141 = ADVANCED_FACE ( 'NONE', ( #1065 ), #528, .T. ) ;
#1142 = EDGE_CURVE ( 'NONE', #953, #518, #908, .T. ) ;
#1143 = DIRECTION ( 'NONE',  ( -1.000000000000000000, 0.000000000000000000, 0.000000000000000000 ) ) ;
#1144 = ORIENTED_EDGE ( 'NONE', *, *, #93, .F. ) ;
#1145 = DIRECTION ( 'NONE',  ( 0.000000000000000000, 0.000000000000000000, 1.000000000000000000 ) ) ;
ENDSEC;
END-ISO-10303-21;
