ISO-10303-21;
HEADER;
FILE_DESCRIPTION (( 'STEP AP203' ),
    '1' );
FILE_NAME ('ServoArm_Default_sldprt.STEP',
    '2026-08-23T00:51:32',
    ( '' ),
    ( '' ),
    'SwSTEP 2.0',
    'SolidWorks 2025',
    '' );
FILE_SCHEMA (( 'CONFIG_CONTROL_DESIGN' ));
ENDSEC;

DATA;
#1 = CARTESIAN_POINT ( 'NONE',  ( -0.2202755905511836754, -0.5114323250695491652, 0.5000000000000000000 ) ) ;
#2 = PERSON_AND_ORGANIZATION ( #485, #354 ) ;
#3 = AXIS2_PLACEMENT_3D ( 'NONE', #499, #172, #225 ) ;
#4 = ORIENTED_EDGE ( 'NONE', *, *, #739, .F. ) ;
#5 = CARTESIAN_POINT ( 'NONE',  ( 0.1907480314960586509, -0.4602890925625977014, 0.5000000000000000000 ) ) ;
#6 = CIRCLE ( 'NONE', #506, 0.07500000000000002498 ) ;
#7 = CC_DESIGN_APPROVAL ( #48, ( #545 ) ) ;
#8 = FACE_OUTER_BOUND ( 'NONE', #289, .T. ) ;
#9 = ADVANCED_FACE ( 'NONE', ( #206 ), #344, .F. ) ;
#10 = ORIENTED_EDGE ( 'NONE', *, *, #68, .T. ) ;
#11 = VECTOR ( 'NONE', #748, 39.37007874015748143 ) ;
#12 = CARTESIAN_POINT ( 'NONE',  ( -0.2202755905511765144, 0.5114323250695533840, 0.5000000000000000000 ) ) ;
#13 = EDGE_CURVE ( 'NONE', #244, #859, #271, .T. ) ;
#14 = CARTESIAN_POINT ( 'NONE',  ( -0.2952755905511836865, -0.5114323250695491652, 0.5000000000000000000 ) ) ;
#15 = EDGE_LOOP ( 'NONE', ( #538, #603, #523, #298 ) ) ;
#16 = DIRECTION ( 'NONE',  ( 0.000000000000000000, 0.000000000000000000, 1.000000000000000000 ) ) ;
#17 = VERTEX_POINT ( 'NONE', #1 ) ;
#18 = FACE_BOUND ( 'NONE', #717, .T. ) ;
#19 = AXIS2_PLACEMENT_3D ( 'NONE', #841, #239, #297 ) ;
#20 = EDGE_CURVE ( 'NONE', #73, #167, #479, .T. ) ;
#21 = LOCAL_TIME ( 17, 51, 32.00000000000000000, #337 ) ;
#22 = EDGE_CURVE ( 'NONE', #689, #383, #711, .T. ) ;
#23 = VERTEX_POINT ( 'NONE', #740 ) ;
#24 = DIRECTION ( 'NONE',  ( 1.000000000000000000, 0.000000000000000000, -0.000000000000000000 ) ) ;
#25 = CIRCLE ( 'NONE', #731, 0.1774999999999999911 ) ;
#26 = CYLINDRICAL_SURFACE ( 'NONE', #722, 0.07500000000000002498 ) ;
#27 = ORIENTED_EDGE ( 'NONE', *, *, #13, .F. ) ;
#28 = LINE ( 'NONE', #493, #11 ) ;
#29 = FACE_OUTER_BOUND ( 'NONE', #95, .T. ) ;
#30 = ORIENTED_EDGE ( 'NONE', *, *, #284, .T. ) ;
#31 = ORIENTED_EDGE ( 'NONE', *, *, #688, .F. ) ;
#32 = EDGE_CURVE ( 'NONE', #859, #236, #531, .T. ) ;
#33 = LINE ( 'NONE', #283, #35 ) ;
#34 = CARTESIAN_POINT ( 'NONE',  ( 0.5905511811023624880, 0.000000000000000000, 0.5000000000000000000 ) ) ;
#35 = VECTOR ( 'NONE', #355, 39.37007874015748143 ) ;
#36 = ORIENTED_EDGE ( 'NONE', *, *, #580, .T. ) ;
#37 = DIRECTION ( 'NONE',  ( 0.000000000000000000, 0.000000000000000000, 1.000000000000000000 ) ) ;
#38 = ORIENTED_EDGE ( 'NONE', *, *, #625, .T. ) ;
#39 = CARTESIAN_POINT ( 'NONE',  ( -0.2952755905511764700, 0.5114323250695533840, 0.5000000000000000000 ) ) ;
#40 = CARTESIAN_POINT ( 'NONE',  ( 2.731847993664263218E-16, 0.000000000000000000, 0.5000000000000000000 ) ) ;
#41 = CIRCLE ( 'NONE', #301, 0.1774999999999999634 ) ;
#42 = ORIENTED_EDGE ( 'NONE', *, *, #85, .T. ) ;
#43 = CARTESIAN_POINT ( 'NONE',  ( 2.731847993664263218E-16, 0.000000000000000000, 0.5000000000000000000 ) ) ;
#44 = PLANE ( 'NONE',  #655 ) ;
#45 = ORIENTED_EDGE ( 'NONE', *, *, #475, .T. ) ;
#46 = DIRECTION ( 'NONE',  ( 0.000000000000000000, 0.000000000000000000, 1.000000000000000000 ) ) ;
#47 = CYLINDRICAL_SURFACE ( 'NONE', #491, 0.1774999999999999911 ) ;
#48 = APPROVAL ( #866, 'UNSPECIFIED' ) ;
#49 = DIRECTION ( 'NONE',  ( 1.000000000000000000, 0.000000000000000000, 0.000000000000000000 ) ) ;
#50 = ORIENTED_EDGE ( 'NONE', *, *, #90, .F. ) ;
#51 = CYLINDRICAL_SURFACE ( 'NONE', #552, 0.8267716535433072833 ) ;
#52 = VECTOR ( 'NONE', #139, 39.37007874015748143 ) ;
#53 = ORIENTED_EDGE ( 'NONE', *, *, #90, .T. ) ;
#54 = APPLICATION_PROTOCOL_DEFINITION ( 'international standard', 'config_control_design', 1994, #631 ) ;
#55 = DIRECTION ( 'NONE',  ( 0.000000000000000000, 0.000000000000000000, 1.000000000000000000 ) ) ;
#56 = DIRECTION ( 'NONE',  ( 0.000000000000000000, 0.000000000000000000, 1.000000000000000000 ) ) ;
#57 = ORIENTED_EDGE ( 'NONE', *, *, #754, .F. ) ;
#58 = APPROVAL_ROLE ( '' ) ;
#59 = DIRECTION ( 'NONE',  ( -0.000000000000000000, -0.000000000000000000, -1.000000000000000000 ) ) ;
#60 = EDGE_CURVE ( 'NONE', #607, #153, #742, .T. ) ;
#61 = DIRECTION ( 'NONE',  ( 1.000000000000000000, 0.000000000000000000, 0.000000000000000000 ) ) ;
#62 = ORIENTED_EDGE ( 'NONE', *, *, #733, .F. ) ;
#63 = CARTESIAN_POINT ( 'NONE',  ( 0.5155511811023624213, 0.000000000000000000, 0.000000000000000000 ) ) ;
#64 = CARTESIAN_POINT ( 'NONE',  ( 0.3407480314960650292, 0.4602890925625939267, 0.000000000000000000 ) ) ;
#65 = EDGE_LOOP ( 'NONE', ( #50, #57 ) ) ;
#66 = COORDINATED_UNIVERSAL_TIME_OFFSET ( 8, 0, .BEHIND. ) ;
#67 = CARTESIAN_POINT ( 'NONE',  ( 0.000000000000000000, 0.8267716535433072833, 0.5000000000000000000 ) ) ;
#68 = EDGE_CURVE ( 'NONE', #519, #534, #97, .T. ) ;
#69 = ORIENTED_EDGE ( 'NONE', *, *, #773, .F. ) ;
#70 = EDGE_CURVE ( 'NONE', #158, #269, #583, .T. ) ;
#71 = ORIENTED_EDGE ( 'NONE', *, *, #245, .F. ) ;
#72 = VECTOR ( 'NONE', #313, 39.37007874015748143 ) ;
#73 = VERTEX_POINT ( 'NONE', #667 ) ;
#74 = AXIS2_PLACEMENT_3D ( 'NONE', #677, #101, #569 ) ;
#75 = CARTESIAN_POINT ( 'NONE',  ( 0.5155511811023624213, 0.000000000000000000, 0.5000000000000000000 ) ) ;
#76 = EDGE_LOOP ( 'NONE', ( #579, #192 ) ) ;
#77 = CARTESIAN_POINT ( 'NONE',  ( -0.5314960629921257063, 0.000000000000000000, 0.5000000000000000000 ) ) ;
#78 = ADVANCED_FACE ( 'NONE', ( #403 ), #735, .F. ) ;
#79 = VECTOR ( 'NONE', #786, 39.37007874015748143 ) ;
#80 = ORIENTED_EDGE ( 'NONE', *, *, #435, .T. ) ;
#81 = DIRECTION ( 'NONE',  ( -1.000000000000000000, 0.000000000000000000, 0.000000000000000000 ) ) ;
#82 = AXIS2_PLACEMENT_3D ( 'NONE', #161, #837, #420 ) ;
#83 = CC_DESIGN_PERSON_AND_ORGANIZATION_ASSIGNMENT ( #532, #790, ( #448 ) ) ;
#84 = DIRECTION ( 'NONE',  ( 1.000000000000000000, 0.000000000000000000, 0.000000000000000000 ) ) ;
#85 = EDGE_CURVE ( 'NONE', #17, #348, #585, .T. ) ;
#86 = ORIENTED_EDGE ( 'NONE', *, *, #608, .T. ) ;
#87 = FACE_BOUND ( 'NONE', #635, .T. ) ;
#88 = CARTESIAN_POINT ( 'NONE',  ( -0.8267716535433070613, 0.000000000000000000, 0.5000000000000000000 ) ) ;
#89 = DIRECTION ( 'NONE',  ( 1.000000000000000000, 0.000000000000000000, 0.000000000000000000 ) ) ;
#90 = EDGE_CURVE ( 'NONE', #763, #853, #222, .T. ) ;
#91 = VERTEX_POINT ( 'NONE', #130 ) ;
#92 = FACE_OUTER_BOUND ( 'NONE', #227, .T. ) ;
#93 = AXIS2_PLACEMENT_3D ( 'NONE', #604, #388, #662 ) ;
#94 = DIRECTION ( 'NONE',  ( 1.000000000000000000, 0.000000000000000000, -0.000000000000000000 ) ) ;
#95 = EDGE_LOOP ( 'NONE', ( #45, #546, #196, #414 ) ) ;
#96 = EDGE_CURVE ( 'NONE', #823, #167, #361, .T. ) ;
#97 = CIRCLE ( 'NONE', #857, 0.07499999999999998335 ) ;
#98 = CARTESIAN_POINT ( 'NONE',  ( 0.2657480314960586343, -0.4602890925625977014, 0.5000000000000000000 ) ) ;
#99 = DIRECTION ( 'NONE',  ( -0.000000000000000000, -0.000000000000000000, -1.000000000000000000 ) ) ;
#100 = ORIENTED_EDGE ( 'NONE', *, *, #647, .T. ) ;
#101 = DIRECTION ( 'NONE',  ( 0.000000000000000000, 0.000000000000000000, 1.000000000000000000 ) ) ;
#102 = DIRECTION ( 'NONE',  ( 1.000000000000000000, 0.000000000000000000, 0.000000000000000000 ) ) ;
#103 = CYLINDRICAL_SURFACE ( 'NONE', #323, 0.8267716535433072833 ) ;
#104 = ORIENTED_EDGE ( 'NONE', *, *, #22, .F. ) ;
#105 = CC_DESIGN_DATE_AND_TIME_ASSIGNMENT ( #326, #137, ( #168 ) ) ;
#106 = FACE_OUTER_BOUND ( 'NONE', #215, .T. ) ;
#107 = FACE_BOUND ( 'NONE', #428, .T. ) ;
#108 = ADVANCED_FACE ( 'NONE', ( #8 ), #663, .F. ) ;
#109 = ORIENTED_EDGE ( 'NONE', *, *, #849, .T. ) ;
#110 = FACE_OUTER_BOUND ( 'NONE', #371, .T. ) ;
#111 = DIRECTION ( 'NONE',  ( 0.000000000000000000, 0.000000000000000000, 1.000000000000000000 ) ) ;
#112 = CARTESIAN_POINT ( 'NONE',  ( -0.4564960629921256952, 9.184850993605148746E-18, 0.000000000000000000 ) ) ;
#113 = ORIENTED_EDGE ( 'NONE', *, *, #824, .F. ) ;
#114 = CC_DESIGN_SECURITY_CLASSIFICATION ( #545, ( #448 ) ) ;
#115 = CARTESIAN_POINT ( 'NONE',  ( 0.000000000000000000, 0.8267716535433072833, 0.000000000000000000 ) ) ;
#116 = FACE_OUTER_BOUND ( 'NONE', #814, .T. ) ;
#117 = AXIS2_PLACEMENT_3D ( 'NONE', #144, #489, #291 ) ;
#118 = ORIENTED_EDGE ( 'NONE', *, *, #614, .F. ) ;
#119 = EDGE_CURVE ( 'NONE', #689, #123, #645, .T. ) ;
#120 = DIRECTION ( 'NONE',  ( -0.000000000000000000, -0.000000000000000000, -1.000000000000000000 ) ) ;
#121 = CARTESIAN_POINT ( 'NONE',  ( 0.000000000000000000, -0.8267716535433072833, 0.5000000000000000000 ) ) ;
#122 = CIRCLE ( 'NONE', #93, 0.07500000000000002498 ) ;
#123 = VERTEX_POINT ( 'NONE', #778 ) ;
#124 = PERSON_AND_ORGANIZATION ( #485, #354 ) ;
#125 = DIRECTION ( 'NONE',  ( 1.000000000000000000, 0.000000000000000000, 0.000000000000000000 ) ) ;
#126 = CARTESIAN_POINT ( 'NONE',  ( 3.937007874015748143, -0.8267716535433072833, 0.5000000000000000000 ) ) ;
#127 = APPROVAL_DATE_TIME ( #252, #822 ) ;
#128 = DIRECTION ( 'NONE',  ( -1.000000000000000000, -0.000000000000000000, -0.000000000000000000 ) ) ;
#129 = EDGE_CURVE ( 'NONE', #443, #257, #557, .T. ) ;
#130 = CARTESIAN_POINT ( 'NONE',  ( 0.000000000000000000, -0.8267716535433072833, 0.000000000000000000 ) ) ;
#131 = SECURITY_CLASSIFICATION_LEVEL ( 'unclassified' ) ;
#132 = ORIENTED_EDGE ( 'NONE', *, *, #357, .T. ) ;
#133 = DIRECTION ( 'NONE',  ( -0.000000000000000000, -0.000000000000000000, -1.000000000000000000 ) ) ;
#134 = EDGE_CURVE ( 'NONE', #706, #519, #312, .T. ) ;
#135 = FACE_OUTER_BOUND ( 'NONE', #712, .T. ) ;
#136 = DIRECTION ( 'NONE',  ( 0.000000000000000000, 0.000000000000000000, 1.000000000000000000 ) ) ;
#137 = DATE_TIME_ROLE ( 'creation_date' ) ;
#138 = ORIENTED_EDGE ( 'NONE', *, *, #85, .F. ) ;
#139 = DIRECTION ( 'NONE',  ( -0.000000000000000000, -0.000000000000000000, -1.000000000000000000 ) ) ;
#140 = VECTOR ( 'NONE', #593, 39.37007874015748143 ) ;
#141 = DIRECTION ( 'NONE',  ( 1.000000000000000000, 0.000000000000000000, 0.000000000000000000 ) ) ;
#142 = ORIENTED_EDGE ( 'NONE', *, *, #623, .T. ) ;
#143 = CIRCLE ( 'NONE', #430, 0.07500000000000002498 ) ;
#144 = CARTESIAN_POINT ( 'NONE',  ( 3.937007874015748143, 0.000000000000000000, 0.000000000000000000 ) ) ;
#145 = DIRECTION ( 'NONE',  ( -0.000000000000000000, -0.000000000000000000, -1.000000000000000000 ) ) ;
#146 = ADVANCED_FACE ( 'NONE', ( #642 ), #166, .F. ) ;
#147 = CIRCLE ( 'NONE', #634, 0.8267716535433072833 ) ;
#148 = ORIENTED_EDGE ( 'NONE', *, *, #201, .F. ) ;
#149 = CARTESIAN_POINT ( 'NONE',  ( -0.2952755905511836865, -0.5114323250695491652, 0.5000000000000000000 ) ) ;
#150 = ORIENTED_EDGE ( 'NONE', *, *, #119, .F. ) ;
#151 = ADVANCED_FACE ( 'NONE', ( #175 ), #103, .T. ) ;
#152 = DIRECTION ( 'NONE',  ( -0.000000000000000000, -0.000000000000000000, -1.000000000000000000 ) ) ;
#153 = VERTEX_POINT ( 'NONE', #427 ) ;
#154 = ORIENTED_EDGE ( 'NONE', *, *, #356, .T. ) ;
#155 = CYLINDRICAL_SURFACE ( 'NONE', #462, 0.07499999999999998335 ) ;
#156 = DIRECTION ( 'NONE',  ( 0.000000000000000000, 1.000000000000000000, 0.000000000000000000 ) ) ;
#157 = ADVANCED_FACE ( 'NONE', ( #107, #432, #639, #692, #701, #696, #705, #374, #834 ), #44, .T. ) ;
#158 = VERTEX_POINT ( 'NONE', #565 ) ;
#159 = FACE_OUTER_BOUND ( 'NONE', #251, .T. ) ;
#160 = VECTOR ( 'NONE', #174, 39.37007874015748143 ) ;
#161 = CARTESIAN_POINT ( 'NONE',  ( 2.731847993664263218E-16, 0.000000000000000000, 0.5000000000000000000 ) ) ;
#162 = CLOSED_SHELL ( 'NONE', ( #78, #439, #726, #108, #421, #146, #699, #391, #151, #157, #756, #510, #210, #544, #441, #704, #170, #177, #458, #263, #235, #9, #315 ) ) ;
#163 = ORIENTED_EDGE ( 'NONE', *, *, #187, .F. ) ;
#164 = VECTOR ( 'NONE', #243, 39.37007874015748143 ) ;
#165 = DIRECTION ( 'NONE',  ( -0.000000000000000000, -0.000000000000000000, -1.000000000000000000 ) ) ;
#166 = CYLINDRICAL_SURFACE ( 'NONE', #82, 0.1774999999999999911 ) ;
#167 = VERTEX_POINT ( 'NONE', #775 ) ;
#168 = PRODUCT_DEFINITION ( 'UNKNOWN', '', #448, #422 ) ;
#169 = LINE ( 'NONE', #781, #749 ) ;
#170 = ADVANCED_FACE ( 'NONE', ( #307 ), #502, .F. ) ;
#171 = DIRECTION ( 'NONE',  ( 0.000000000000000000, -0.000000000000000000, -1.000000000000000000 ) ) ;
#172 = DIRECTION ( 'NONE',  ( -0.000000000000000000, -0.000000000000000000, -1.000000000000000000 ) ) ;
#173 = ORIENTED_EDGE ( 'NONE', *, *, #567, .F. ) ;
#174 = DIRECTION ( 'NONE',  ( -1.000000000000000000, -0.000000000000000000, -0.000000000000000000 ) ) ;
#175 = FACE_OUTER_BOUND ( 'NONE', #471, .T. ) ;
#176 = CIRCLE ( 'NONE', #501, 0.07499999999999998335 ) ;
#177 = ADVANCED_FACE ( 'NONE', ( #765 ), #47, .F. ) ;
#178 = ORIENTED_EDGE ( 'NONE', *, *, #475, .F. ) ;
#179 =( LENGTH_UNIT ( ) NAMED_UNIT ( * ) SI_UNIT ( $, .METRE. ) );
#180 = DIRECTION ( 'NONE',  ( -0.000000000000000000, -0.000000000000000000, -1.000000000000000000 ) ) ;
#181 = CIRCLE ( 'NONE', #182, 0.8267716535433072833 ) ;
#182 = AXIS2_PLACEMENT_3D ( 'NONE', #761, #111, #379 ) ;
#183 = ORIENTED_EDGE ( 'NONE', *, *, #647, .F. ) ;
#184 = CALENDAR_DATE ( 2026, 22, 8 ) ;
#185 = CARTESIAN_POINT ( 'NONE',  ( 0.6655511811023624436, 9.184850993605151827E-18, 0.5000000000000000000 ) ) ;
#186 = CARTESIAN_POINT ( 'NONE',  ( 3.937007874015748143, -0.8267716535433072833, 0.000000000000000000 ) ) ;
#187 = EDGE_CURVE ( 'NONE', #550, #437, #713, .T. ) ;
#188 = EDGE_LOOP ( 'NONE', ( #212, #768, #231, #788 ) ) ;
#189 = PERSON_AND_ORGANIZATION ( #485, #354 ) ;
#190 = CARTESIAN_POINT ( 'NONE',  ( 2.731847993664263218E-16, 0.000000000000000000, 0.000000000000000000 ) ) ;
#191 = VECTOR ( 'NONE', #714, 39.37007874015748143 ) ;
#192 = ORIENTED_EDGE ( 'NONE', *, *, #849, .F. ) ;
#193 = APPROVAL_ROLE ( '' ) ;
#194 = CARTESIAN_POINT ( 'NONE',  ( 0.2657480314960650181, 0.4602890925625939267, 0.5000000000000000000 ) ) ;
#195 = CARTESIAN_POINT ( 'NONE',  ( -0.4564960629921256952, 9.184850993605151827E-18, 0.5000000000000000000 ) ) ;
#196 = ORIENTED_EDGE ( 'NONE', *, *, #637, .F. ) ;
#197 = APPROVAL_STATUS ( 'not_yet_approved' ) ;
#198 = EDGE_CURVE ( 'NONE', #807, #386, #460, .T. ) ;
#199 = ORIENTED_EDGE ( 'NONE', *, *, #317, .T. ) ;
#200 = LINE ( 'NONE', #392, #438 ) ;
#201 = EDGE_CURVE ( 'NONE', #236, #664, #181, .T. ) ;
#202 = CARTESIAN_POINT ( 'NONE',  ( 0.5905511811023624880, 0.000000000000000000, 0.5000000000000000000 ) ) ;
#203 = SHAPE_DEFINITION_REPRESENTATION ( #226, #474 ) ;
#204 = ORIENTED_EDGE ( 'NONE', *, *, #96, .F. ) ;
#205 = LINE ( 'NONE', #185, #52 ) ;
#206 = FACE_OUTER_BOUND ( 'NONE', #433, .T. ) ;
#207 = AXIS2_PLACEMENT_3D ( 'NONE', #43, #515, #102 ) ;
#208 = ORIENTED_EDGE ( 'NONE', *, *, #739, .T. ) ;
#209 = CARTESIAN_POINT ( 'NONE',  ( 4.114507874015748357, 2.173748068486549903E-17, 0.5000000000000000000 ) ) ;
#210 = ADVANCED_FACE ( 'NONE', ( #366 ), #633, .F. ) ;
#211 = ORIENTED_EDGE ( 'NONE', *, *, #261, .T. ) ;
#212 = ORIENTED_EDGE ( 'NONE', *, *, #625, .F. ) ;
#213 = FACE_OUTER_BOUND ( 'NONE', #819, .T. ) ;
#214 = EDGE_CURVE ( 'NONE', #153, #607, #656, .T. ) ;
#215 = EDGE_LOOP ( 'NONE', ( #241, #173, #69, #377 ) ) ;
#216 = CARTESIAN_POINT ( 'NONE',  ( -0.3702755905511764811, 0.5114323250695533840, 0.5000000000000000000 ) ) ;
#217 = VERTEX_POINT ( 'NONE', #524 ) ;
#218 = CARTESIAN_POINT ( 'NONE',  ( -0.5314960629921257063, 0.000000000000000000, 0.5000000000000000000 ) ) ;
#219 = AXIS2_PLACEMENT_3D ( 'NONE', #541, #262, #456 ) ;
#220 = VERTEX_POINT ( 'NONE', #63 ) ;
#221 = CARTESIAN_POINT ( 'NONE',  ( -0.6064960629921257729, 0.000000000000000000, 0.5000000000000000000 ) ) ;
#222 = CIRCLE ( 'NONE', #554, 0.07500000000000002498 ) ;
#223 = DIRECTION ( 'NONE',  ( -0.000000000000000000, -0.000000000000000000, -1.000000000000000000 ) ) ;
#224 = APPROVAL_PERSON_ORGANIZATION ( #517, #566, #193 ) ;
#225 = DIRECTION ( 'NONE',  ( -1.000000000000000000, 0.000000000000000000, 0.000000000000000000 ) ) ;
#226 = PRODUCT_DEFINITION_SHAPE ( 'NONE', 'NONE',  #168 ) ;
#227 = EDGE_LOOP ( 'NONE', ( #389, #482, #630, #358 ) ) ;
#228 = AXIS2_PLACEMENT_3D ( 'NONE', #149, #690, #626 ) ;
#229 = DIRECTION ( 'NONE',  ( -1.000000000000000000, 0.000000000000000000, 0.000000000000000000 ) ) ;
#230 = CARTESIAN_POINT ( 'NONE',  ( 3.759507874015748374, 0.000000000000000000, 0.5000000000000000000 ) ) ;
#231 = ORIENTED_EDGE ( 'NONE', *, *, #599, .T. ) ;
#232 = LINE ( 'NONE', #115, #160 ) ;
#233 = AXIS2_PLACEMENT_3D ( 'NONE', #472, #59, #398 ) ;
#234 = CARTESIAN_POINT ( 'NONE',  ( 2.731847993664263218E-16, 0.000000000000000000, 0.5000000000000000000 ) ) ;
#235 = ADVANCED_FACE ( 'NONE', ( #116 ), #581, .F. ) ;
#236 = VERTEX_POINT ( 'NONE', #186 ) ;
#237 = LENGTH_MEASURE_WITH_UNIT ( LENGTH_MEASURE( 0.02539999999999999897 ), #179 );
#238 = AXIS2_PLACEMENT_3D ( 'NONE', #336, #136, #267 ) ;
#239 = DIRECTION ( 'NONE',  ( -0.000000000000000000, -0.000000000000000000, -1.000000000000000000 ) ) ;
#240 = CC_DESIGN_DATE_AND_TIME_ASSIGNMENT ( #721, #806, ( #545 ) ) ;
#241 = ORIENTED_EDGE ( 'NONE', *, *, #201, .T. ) ;
#242 =( NAMED_UNIT ( * ) SI_UNIT ( $, .STERADIAN. ) SOLID_ANGLE_UNIT ( ) );
#243 = DIRECTION ( 'NONE',  ( -0.000000000000000000, -0.000000000000000000, -1.000000000000000000 ) ) ;
#244 = VERTEX_POINT ( 'NONE', #451 ) ;
#245 = EDGE_CURVE ( 'NONE', #386, #807, #461, .T. ) ;
#246 = CARTESIAN_POINT ( 'NONE',  ( 0.6655511811023624436, 9.184850993605148746E-18, 0.5000000000000000000 ) ) ;
#247 = CIRCLE ( 'NONE', #455, 0.1774999999999999634 ) ;
#248 = DIRECTION ( 'NONE',  ( -0.000000000000000000, -0.000000000000000000, -1.000000000000000000 ) ) ;
#249 = ORIENTED_EDGE ( 'NONE', *, *, #672, .T. ) ;
#250 = VECTOR ( 'NONE', #260, 39.37007874015748143 ) ;
#251 = EDGE_LOOP ( 'NONE', ( #375, #750, #163, #118 ) ) ;
#252 = DATE_AND_TIME ( #584, #818 ) ;
#253 = LINE ( 'NONE', #322, #424 ) ;
#254 = DIRECTION ( 'NONE',  ( 1.000000000000000000, 0.000000000000000000, 0.000000000000000000 ) ) ;
#255 = AXIS2_PLACEMENT_3D ( 'NONE', #39, #559, #444 ) ;
#256 = CYLINDRICAL_SURFACE ( 'NONE', #658, 0.07500000000000002498 ) ;
#257 = VERTEX_POINT ( 'NONE', #522 ) ;
#258 = APPROVAL_DATE_TIME ( #651, #48 ) ;
#259 = FACE_OUTER_BOUND ( 'NONE', #542, .T. ) ;
#260 = DIRECTION ( 'NONE',  ( -0.000000000000000000, -0.000000000000000000, -1.000000000000000000 ) ) ;
#261 = EDGE_CURVE ( 'NONE', #91, #236, #792, .T. ) ;
#262 = DIRECTION ( 'NONE',  ( -0.000000000000000000, -0.000000000000000000, -1.000000000000000000 ) ) ;
#263 = ADVANCED_FACE ( 'NONE', ( #727 ), #319, .F. ) ;
#264 = CALENDAR_DATE ( 2026, 22, 8 ) ;
#265 = VERTEX_POINT ( 'NONE', #574 ) ;
#266 = DIRECTION ( 'NONE',  ( 0.000000000000000000, 0.000000000000000000, 1.000000000000000000 ) ) ;
#267 = DIRECTION ( 'NONE',  ( 1.000000000000000000, 0.000000000000000000, 0.000000000000000000 ) ) ;
#268 = AXIS2_PLACEMENT_3D ( 'NONE', #851, #442, #646 ) ;
#269 = VERTEX_POINT ( 'NONE', #112 ) ;
#270 = AXIS2_PLACEMENT_3D ( 'NONE', #594, #321, #796 ) ;
#271 = LINE ( 'NONE', #813, #682 ) ;
#272 = EDGE_LOOP ( 'NONE', ( #555, #772 ) ) ;
#273 = CARTESIAN_POINT ( 'NONE',  ( -0.3702755905511836421, -0.5114323250695491652, 0.5000000000000000000 ) ) ;
#274 = ORIENTED_EDGE ( 'NONE', *, *, #766, .F. ) ;
#275 = CIRCLE ( 'NONE', #767, 0.8267716535433072833 ) ;
#276 = ORIENTED_EDGE ( 'NONE', *, *, #413, .T. ) ;
#277 = DIRECTION ( 'NONE',  ( 1.000000000000000000, 0.000000000000000000, 0.000000000000000000 ) ) ;
#278 = EDGE_LOOP ( 'NONE', ( #30, #132 ) ) ;
#279 = FACE_BOUND ( 'NONE', #747, .T. ) ;
#280 = DIRECTION ( 'NONE',  ( 0.000000000000000000, 0.000000000000000000, 1.000000000000000000 ) ) ;
#281 = ORIENTED_EDGE ( 'NONE', *, *, #794, .F. ) ;
#282 = CARTESIAN_POINT ( 'NONE',  ( 3.937007874015748143, 0.000000000000000000, 0.5000000000000000000 ) ) ;
#283 = CARTESIAN_POINT ( 'NONE',  ( -0.3702755905511764811, 0.5114323250695533840, 0.5000000000000000000 ) ) ;
#284 = EDGE_CURVE ( 'NONE', #123, #397, #380, .T. ) ;
#285 = ORIENTED_EDGE ( 'NONE', *, *, #754, .T. ) ;
#286 = VECTOR ( 'NONE', #133, 39.37007874015748143 ) ;
#287 = CARTESIAN_POINT ( 'NONE',  ( 0.1907480314960649792, 0.4602890925625939267, 0.000000000000000000 ) ) ;
#288 = CARTESIAN_POINT ( 'NONE',  ( -0.2952755905511836865, -0.5114323250695491652, 0.5000000000000000000 ) ) ;
#289 = EDGE_LOOP ( 'NONE', ( #870, #827, #839, #558 ) ) ;
#290 = ORIENTED_EDGE ( 'NONE', *, *, #599, .F. ) ;
#291 = DIRECTION ( 'NONE',  ( 1.000000000000000000, 0.000000000000000000, 0.000000000000000000 ) ) ;
#292 = CIRCLE ( 'NONE', #785, 0.07500000000000002498 ) ;
#293 = DIRECTION ( 'NONE',  ( -1.000000000000000000, 0.000000000000000000, 0.000000000000000000 ) ) ;
#294 = EDGE_LOOP ( 'NONE', ( #500, #138 ) ) ;
#295 = EDGE_CURVE ( 'NONE', #759, #706, #697, .T. ) ;
#296 = CARTESIAN_POINT ( 'NONE',  ( 2.731847993664263218E-16, 0.000000000000000000, 0.5000000000000000000 ) ) ;
#297 = DIRECTION ( 'NONE',  ( -1.000000000000000000, 0.000000000000000000, 0.000000000000000000 ) ) ;
#298 = ORIENTED_EDGE ( 'NONE', *, *, #20, .F. ) ;
#299 = CARTESIAN_POINT ( 'NONE',  ( 3.937007874015748143, -0.8267716535433072833, 0.5000000000000000000 ) ) ;
#300 = CARTESIAN_POINT ( 'NONE',  ( 0.1775000000000002687, 2.173748068486551752E-17, 0.5000000000000000000 ) ) ;
#301 = AXIS2_PLACEMENT_3D ( 'NONE', #719, #723, #535 ) ;
#302 = DIRECTION ( 'NONE',  ( 0.000000000000000000, 0.000000000000000000, 1.000000000000000000 ) ) ;
#303 = EDGE_CURVE ( 'NONE', #244, #91, #715, .T. ) ;
#304 = EDGE_LOOP ( 'NONE', ( #516, #698 ) ) ;
#305 = AXIS2_PLACEMENT_3D ( 'NONE', #14, #745, #602 ) ;
#306 = DIRECTION ( 'NONE',  ( -1.000000000000000000, 0.000000000000000000, 0.000000000000000000 ) ) ;
#307 = FACE_OUTER_BOUND ( 'NONE', #537, .T. ) ;
#308 = AXIS2_PLACEMENT_3D ( 'NONE', #547, #821, #490 ) ;
#309 = LINE ( 'NONE', #195, #72 ) ;
#310 = ORIENTED_EDGE ( 'NONE', *, *, #70, .T. ) ;
#311 = CARTESIAN_POINT ( 'NONE',  ( 2.731847993664263218E-16, 0.000000000000000000, 0.5000000000000000000 ) ) ;
#312 = LINE ( 'NONE', #376, #504 ) ;
#313 = DIRECTION ( 'NONE',  ( -0.000000000000000000, -0.000000000000000000, -1.000000000000000000 ) ) ;
#314 = ORIENTED_EDGE ( 'NONE', *, *, #119, .T. ) ;
#315 = ADVANCED_FACE ( 'NONE', ( #526 ), #256, .F. ) ;
#316 = APPLICATION_PROTOCOL_DEFINITION ( 'international standard', 'config_control_design', 1994, #863 ) ;
#317 = EDGE_CURVE ( 'NONE', #853, #269, #309, .T. ) ;
#318 = DIRECTION ( 'NONE',  ( -0.000000000000000000, -0.000000000000000000, -1.000000000000000000 ) ) ;
#319 = CYLINDRICAL_SURFACE ( 'NONE', #587, 0.07499999999999998335 ) ;
#320 = ORIENTED_EDGE ( 'NONE', *, *, #32, .F. ) ;
#321 = DIRECTION ( 'NONE',  ( 0.000000000000000000, 0.000000000000000000, 1.000000000000000000 ) ) ;
#322 = CARTESIAN_POINT ( 'NONE',  ( 0.000000000000000000, 0.8267716535433072833, 0.5000000000000000000 ) ) ;
#323 = AXIS2_PLACEMENT_3D ( 'NONE', #234, #846, #293 ) ;
#324 = LOCAL_TIME ( 17, 51, 32.00000000000000000, #394 ) ;
#325 = VERTEX_POINT ( 'NONE', #463 ) ;
#326 = DATE_AND_TIME ( #264, #862 ) ;
#327 = DIRECTION ( 'NONE',  ( -0.000000000000000000, -0.000000000000000000, -1.000000000000000000 ) ) ;
#328 = CARTESIAN_POINT ( 'NONE',  ( -0.5314960629921257063, 0.000000000000000000, 0.5000000000000000000 ) ) ;
#329 = CC_DESIGN_PERSON_AND_ORGANIZATION_ASSIGNMENT ( #189, #453, ( #525 ) ) ;
#330 = DIRECTION ( 'NONE',  ( 1.000000000000000000, 0.000000000000000000, 0.000000000000000000 ) ) ;
#331 = DIRECTION ( 'NONE',  ( 1.000000000000000000, 0.000000000000000000, 0.000000000000000000 ) ) ;
#332 = ORIENTED_EDGE ( 'NONE', *, *, #637, .T. ) ;
#333 = CARTESIAN_POINT ( 'NONE',  ( -0.8267716535433070613, 0.000000000000000000, 0.000000000000000000 ) ) ;
#334 = CIRCLE ( 'NONE', #797, 0.1774999999999999634 ) ;
#335 = CARTESIAN_POINT ( 'NONE',  ( 3.937007874015748143, 0.000000000000000000, 0.5000000000000000000 ) ) ;
#336 = CARTESIAN_POINT ( 'NONE',  ( 0.2657480314960586343, -0.4602890925625977014, 0.5000000000000000000 ) ) ;
#337 = COORDINATED_UNIVERSAL_TIME_OFFSET ( 8, 0, .BEHIND. ) ;
#338 = ORIENTED_EDGE ( 'NONE', *, *, #70, .F. ) ;
#339 = AXIS2_PLACEMENT_3D ( 'NONE', #770, #512, #440 ) ;
#340 = ORIENTED_EDGE ( 'NONE', *, *, #303, .T. ) ;
#341 = AXIS2_PLACEMENT_3D ( 'NONE', #653, #56, #254 ) ;
#342 = ORIENTED_EDGE ( 'NONE', *, *, #614, .T. ) ;
#343 = DIRECTION ( 'NONE',  ( -1.000000000000000000, 0.000000000000000000, 0.000000000000000000 ) ) ;
#344 = CYLINDRICAL_SURFACE ( 'NONE', #219, 0.07500000000000002498 ) ;
#345 = CIRCLE ( 'NONE', #74, 0.1774999999999999911 ) ;
#346 = EDGE_LOOP ( 'NONE', ( #680, #109, #154, #513 ) ) ;
#347 = FACE_BOUND ( 'NONE', #278, .T. ) ;
#348 = VERTEX_POINT ( 'NONE', #578 ) ;
#349 = DIRECTION ( 'NONE',  ( -0.000000000000000000, -0.000000000000000000, -1.000000000000000000 ) ) ;
#350 = VECTOR ( 'NONE', #507, 39.37007874015748143 ) ;
#351 = ORIENTED_EDGE ( 'NONE', *, *, #623, .F. ) ;
#352 = AXIS2_PLACEMENT_3D ( 'NONE', #597, #266, #684 ) ;
#353 = DIRECTION ( 'NONE',  ( -0.000000000000000000, -0.000000000000000000, -1.000000000000000000 ) ) ;
#354 = ORGANIZATION ( 'UNSPECIFIED', 'UNSPECIFIED', '' ) ;
#355 = DIRECTION ( 'NONE',  ( -0.000000000000000000, -0.000000000000000000, -1.000000000000000000 ) ) ;
#356 = EDGE_CURVE ( 'NONE', #759, #534, #33, .T. ) ;
#357 = EDGE_CURVE ( 'NONE', #397, #123, #143, .T. ) ;
#358 = ORIENTED_EDGE ( 'NONE', *, *, #868, .F. ) ;
#359 = DIRECTION ( 'NONE',  ( 0.000000000000000000, 0.000000000000000000, 1.000000000000000000 ) ) ;
#360 = DIRECTION ( 'NONE',  ( 1.000000000000000000, 0.000000000000000000, 0.000000000000000000 ) ) ;
#361 = LINE ( 'NONE', #621, #613 ) ;
#362 = VERTEX_POINT ( 'NONE', #88 ) ;
#363 = AXIS2_PLACEMENT_3D ( 'NONE', #98, #641, #369 ) ;
#364 = DIRECTION ( 'NONE',  ( 0.000000000000000000, 0.000000000000000000, 1.000000000000000000 ) ) ;
#365 = DIRECTION ( 'NONE',  ( -1.000000000000000000, 0.000000000000000000, 0.000000000000000000 ) ) ;
#366 = FACE_OUTER_BOUND ( 'NONE', #562, .T. ) ;
#367 = AXIS2_PLACEMENT_3D ( 'NONE', #800, #725, #61 ) ;
#368 = EDGE_LOOP ( 'NONE', ( #776, #476 ) ) ;
#369 = DIRECTION ( 'NONE',  ( 1.000000000000000000, 0.000000000000000000, 0.000000000000000000 ) ) ;
#370 = DIRECTION ( 'NONE',  ( 1.000000000000000000, 0.000000000000000000, 0.000000000000000000 ) ) ;
#371 = EDGE_LOOP ( 'NONE', ( #31, #42, #342, #575 ) ) ;
#372 = DIRECTION ( 'NONE',  ( -1.000000000000000000, 0.000000000000000000, 0.000000000000000000 ) ) ;
#373 = EDGE_CURVE ( 'NONE', #362, #244, #571, .T. ) ;
#374 = FACE_BOUND ( 'NONE', #65, .T. ) ;
#375 = ORIENTED_EDGE ( 'NONE', *, *, #809, .T. ) ;
#376 = CARTESIAN_POINT ( 'NONE',  ( -0.2202755905511765144, 0.5114323250695533840, 0.5000000000000000000 ) ) ;
#377 = ORIENTED_EDGE ( 'NONE', *, *, #32, .T. ) ;
#378 = FACE_OUTER_BOUND ( 'NONE', #188, .T. ) ;
#379 = DIRECTION ( 'NONE',  ( 1.000000000000000000, 0.000000000000000000, 0.000000000000000000 ) ) ;
#380 = CIRCLE ( 'NONE', #268, 0.07500000000000002498 ) ;
#381 = CC_DESIGN_APPROVAL ( #822, ( #448 ) ) ;
#382 = EDGE_CURVE ( 'NONE', #383, #397, #412, .T. ) ;
#383 = VERTEX_POINT ( 'NONE', #755 ) ;
#384 = AXIS2_PLACEMENT_3D ( 'NONE', #218, #364, #478 ) ;
#385 = DIRECTION ( 'NONE',  ( 0.000000000000000000, 0.000000000000000000, 1.000000000000000000 ) ) ;
#386 = VERTEX_POINT ( 'NONE', #64 ) ;
#387 = PERSON_AND_ORGANIZATION_ROLE ( 'classification_officer' ) ;
#388 = DIRECTION ( 'NONE',  ( 0.000000000000000000, 0.000000000000000000, 1.000000000000000000 ) ) ;
#389 = ORIENTED_EDGE ( 'NONE', *, *, #710, .T. ) ;
#390 = PERSON_AND_ORGANIZATION_ROLE ( 'creator' ) ;
#391 = ADVANCED_FACE ( 'NONE', ( #29 ), #764, .F. ) ;
#392 = CARTESIAN_POINT ( 'NONE',  ( -0.2202755905511836754, -0.5114323250695491652, 0.5000000000000000000 ) ) ;
#393 = DIRECTION ( 'NONE',  ( 1.000000000000000000, 0.000000000000000000, 0.000000000000000000 ) ) ;
#394 = COORDINATED_UNIVERSAL_TIME_OFFSET ( 8, 0, .BEHIND. ) ;
#395 = CARTESIAN_POINT ( 'NONE',  ( 0.2657480314960586343, -0.4602890925625977014, 0.5000000000000000000 ) ) ;
#396 = DIRECTION ( 'NONE',  ( -0.000000000000000000, -0.000000000000000000, -1.000000000000000000 ) ) ;
#397 = VERTEX_POINT ( 'NONE', #804 ) ;
#398 = DIRECTION ( 'NONE',  ( -1.000000000000000000, 0.000000000000000000, 0.000000000000000000 ) ) ;
#399 = CIRCLE ( 'NONE', #363, 0.07500000000000002498 ) ;
#400 = PLANE ( 'NONE',  #838 ) ;
#401 = DIRECTION ( 'NONE',  ( 1.000000000000000000, 0.000000000000000000, 0.000000000000000000 ) ) ;
#402 = ORIENTED_EDGE ( 'NONE', *, *, #429, .F. ) ;
#403 = FACE_OUTER_BOUND ( 'NONE', #795, .T. ) ;
#404 = ORIENTED_EDGE ( 'NONE', *, *, #509, .T. ) ;
#405 = LINE ( 'NONE', #75, #718 ) ;
#406 = CARTESIAN_POINT ( 'NONE',  ( -0.5314960629921257063, 0.000000000000000000, 0.5000000000000000000 ) ) ;
#407 = ORIENTED_EDGE ( 'NONE', *, *, #794, .T. ) ;
#408 = DIRECTION ( 'NONE',  ( -0.000000000000000000, -0.000000000000000000, -1.000000000000000000 ) ) ;
#409 = VECTOR ( 'NONE', #318, 39.37007874015748143 ) ;
#410 = ORIENTED_EDGE ( 'NONE', *, *, #746, .F. ) ;
#411 = CC_DESIGN_PERSON_AND_ORGANIZATION_ASSIGNMENT ( #2, #861, ( #168 ) ) ;
#412 = LINE ( 'NONE', #826, #757 ) ;
#413 = EDGE_CURVE ( 'NONE', #835, #418, #6, .T. ) ;
#414 = ORIENTED_EDGE ( 'NONE', *, *, #129, .F. ) ;
#415 = CIRCLE ( 'NONE', #352, 0.8267716535433072833 ) ;
#416 = FACE_BOUND ( 'NONE', #600, .T. ) ;
#417 = DIMENSIONAL_EXPONENTS ( 1.000000000000000000, 0.000000000000000000, 0.000000000000000000, 0.000000000000000000, 0.000000000000000000, 0.000000000000000000, 0.000000000000000000 ) ;
#418 = VERTEX_POINT ( 'NONE', #620 ) ;
#419 = PLANE ( 'NONE',  #789 ) ;
#420 = DIRECTION ( 'NONE',  ( -1.000000000000000000, 0.000000000000000000, 0.000000000000000000 ) ) ;
#421 = ADVANCED_FACE ( 'NONE', ( #159 ), #155, .F. ) ;
#422 = DESIGN_CONTEXT ( 'detailed design', #863, 'design' ) ;
#423 = ORIENTED_EDGE ( 'NONE', *, *, #382, .T. ) ;
#424 = VECTOR ( 'NONE', #128, 39.37007874015748143 ) ;
#425 = DIRECTION ( 'NONE',  ( -0.000000000000000000, -0.000000000000000000, -1.000000000000000000 ) ) ;
#426 = CARTESIAN_POINT ( 'NONE',  ( 0.000000000000000000, 0.8267716535433072833, 0.000000000000000000 ) ) ;
#427 = CARTESIAN_POINT ( 'NONE',  ( 0.5155511811023624213, 0.000000000000000000, 0.5000000000000000000 ) ) ;
#428 = EDGE_LOOP ( 'NONE', ( #568, #848 ) ) ;
#429 = EDGE_CURVE ( 'NONE', #648, #91, #415, .T. ) ;
#430 = AXIS2_PLACEMENT_3D ( 'NONE', #833, #280, #752 ) ;
#431 = CARTESIAN_POINT ( 'NONE',  ( -0.3702755905511764811, 0.5114323250695533840, 0.000000000000000000 ) ) ;
#432 = FACE_BOUND ( 'NONE', #76, .T. ) ;
#433 = EDGE_LOOP ( 'NONE', ( #449, #276, #736, #71 ) ) ;
#434 = CARTESIAN_POINT ( 'NONE',  ( 3.937007874015748143, 0.000000000000000000, 0.5000000000000000000 ) ) ;
#435 = EDGE_CURVE ( 'NONE', #217, #220, #292, .T. ) ;
#436 = DIRECTION ( 'NONE',  ( -1.000000000000000000, 0.000000000000000000, 0.000000000000000000 ) ) ;
#437 = VERTEX_POINT ( 'NONE', #494 ) ;
#438 = VECTOR ( 'NONE', #803, 39.37007874015748143 ) ;
#439 = ADVANCED_FACE ( 'NONE', ( #92 ), #26, .F. ) ;
#440 = DIRECTION ( 'NONE',  ( 1.000000000000000000, 0.000000000000000000, 0.000000000000000000 ) ) ;
#441 = ADVANCED_FACE ( 'NONE', ( #135 ), #400, .F. ) ;
#442 = DIRECTION ( 'NONE',  ( 0.000000000000000000, 0.000000000000000000, 1.000000000000000000 ) ) ;
#443 = VERTEX_POINT ( 'NONE', #564 ) ;
#444 = DIRECTION ( 'NONE',  ( 1.000000000000000000, 0.000000000000000000, 0.000000000000000000 ) ) ;
#445 = AXIS2_PLACEMENT_3D ( 'NONE', #709, #37, #370 ) ;
#446 = DIRECTION ( 'NONE',  ( 1.000000000000000000, 0.000000000000000000, 0.000000000000000000 ) ) ;
#447 = DIRECTION ( 'NONE',  ( 0.000000000000000000, 0.000000000000000000, 1.000000000000000000 ) ) ;
#448 = PRODUCT_DEFINITION_FORMATION_WITH_SPECIFIED_SOURCE ( 'ANY', '', #525, .NOT_KNOWN. ) ;
#449 = ORIENTED_EDGE ( 'NONE', *, *, #678, .F. ) ;
#450 = COORDINATED_UNIVERSAL_TIME_OFFSET ( 8, 0, .BEHIND. ) ;
#451 = CARTESIAN_POINT ( 'NONE',  ( 0.000000000000000000, -0.8267716535433072833, 0.5000000000000000000 ) ) ;
#452 = ORIENTED_EDGE ( 'NONE', *, *, #766, .T. ) ;
#453 = PERSON_AND_ORGANIZATION_ROLE ( 'design_owner' ) ;
#454 = DIRECTION ( 'NONE',  ( 0.000000000000000000, 0.000000000000000000, 1.000000000000000000 ) ) ;
#455 = AXIS2_PLACEMENT_3D ( 'NONE', #434, #703, #446 ) ;
#456 = DIRECTION ( 'NONE',  ( -1.000000000000000000, 0.000000000000000000, 0.000000000000000000 ) ) ;
#457 = APPROVAL_ROLE ( '' ) ;
#458 = ADVANCED_FACE ( 'NONE', ( #110 ), #774, .F. ) ;
#459 = FACE_OUTER_BOUND ( 'NONE', #589, .T. ) ;
#460 = CIRCLE ( 'NONE', #445, 0.07500000000000002498 ) ;
#461 = CIRCLE ( 'NONE', #341, 0.07500000000000002498 ) ;
#462 = AXIS2_PLACEMENT_3D ( 'NONE', #288, #223, #229 ) ;
#463 = CARTESIAN_POINT ( 'NONE',  ( 4.114507874015748357, 2.173748068486548670E-17, 0.5000000000000000000 ) ) ;
#464 = DIRECTION ( 'NONE',  ( -1.000000000000000000, 0.000000000000000000, 0.000000000000000000 ) ) ;
#465 = PERSON_AND_ORGANIZATION ( #485, #354 ) ;
#466 = EDGE_LOOP ( 'NONE', ( #310, #100 ) ) ;
#467 = CARTESIAN_POINT ( 'NONE',  ( 4.114507874015748357, 2.173748068486548670E-17, 0.000000000000000000 ) ) ;
#468 = CARTESIAN_POINT ( 'NONE',  ( 0.5905511811023624880, 0.000000000000000000, 0.000000000000000000 ) ) ;
#469 = DIRECTION ( 'NONE',  ( 0.000000000000000000, 0.000000000000000000, 1.000000000000000000 ) ) ;
#470 = APPROVAL_DATE_TIME ( #801, #566 ) ;
#471 = EDGE_LOOP ( 'NONE', ( #831, #38, #654, #640 ) ) ;
#472 = CARTESIAN_POINT ( 'NONE',  ( 0.5905511811023624880, 0.000000000000000000, 0.5000000000000000000 ) ) ;
#473 = EDGE_CURVE ( 'NONE', #534, #519, #176, .T. ) ;
#474 = ADVANCED_BREP_SHAPE_REPRESENTATION ( 'ServoArm_Default_sldprt', ( #628, #270 ), #548 ) ;
#475 = EDGE_CURVE ( 'NONE', #443, #325, #247, .T. ) ;
#476 = ORIENTED_EDGE ( 'NONE', *, *, #549, .T. ) ;
#477 = ORIENTED_EDGE ( 'NONE', *, *, #373, .T. ) ;
#478 = DIRECTION ( 'NONE',  ( 1.000000000000000000, 0.000000000000000000, 0.000000000000000000 ) ) ;
#479 = CIRCLE ( 'NONE', #367, 0.1774999999999999911 ) ;
#480 = ORIENTED_EDGE ( 'NONE', *, *, #13, .T. ) ;
#481 = APPROVAL_PERSON_ORGANIZATION ( #784, #822, #457 ) ;
#482 = ORIENTED_EDGE ( 'NONE', *, *, #678, .T. ) ;
#483 = DIRECTION ( 'NONE',  ( 1.000000000000000000, 0.000000000000000000, 0.000000000000000000 ) ) ;
#484 = EDGE_CURVE ( 'NONE', #624, #73, #695, .T. ) ;
#485 = PERSON ( 'UNSPECIFIED', 'UNSPECIFIED', 'UNSPECIFIED', ('UNSPECIFIED'), ('UNSPECIFIED'), ('UNSPECIFIED') ) ;
#486 = ORIENTED_EDGE ( 'NONE', *, *, #672, .F. ) ;
#487 = FACE_BOUND ( 'NONE', #368, .T. ) ;
#488 = ORIENTED_EDGE ( 'NONE', *, *, #746, .T. ) ;
#489 = DIRECTION ( 'NONE',  ( 0.000000000000000000, 0.000000000000000000, 1.000000000000000000 ) ) ;
#490 = DIRECTION ( 'NONE',  ( 1.000000000000000000, 0.000000000000000000, 0.000000000000000000 ) ) ;
#491 = AXIS2_PLACEMENT_3D ( 'NONE', #573, #99, #436 ) ;
#492 = ORIENTED_EDGE ( 'NONE', *, *, #484, .T. ) ;
#493 = CARTESIAN_POINT ( 'NONE',  ( -0.6064960629921257729, 0.000000000000000000, 0.5000000000000000000 ) ) ;
#494 = CARTESIAN_POINT ( 'NONE',  ( -0.2202755905511836754, -0.5114323250695491652, 0.000000000000000000 ) ) ;
#495 = DIRECTION ( 'NONE',  ( -0.000000000000000000, -0.000000000000000000, -1.000000000000000000 ) ) ;
#496 = CIRCLE ( 'NONE', #117, 0.1774999999999999634 ) ;
#497 = ORIENTED_EDGE ( 'NONE', *, *, #261, .F. ) ;
#498 = CC_DESIGN_PERSON_AND_ORGANIZATION_ASSIGNMENT ( #465, #390, ( #448 ) ) ;
#499 = CARTESIAN_POINT ( 'NONE',  ( 0.5905511811023624880, 0.000000000000000000, 0.5000000000000000000 ) ) ;
#500 = ORIENTED_EDGE ( 'NONE', *, *, #809, .F. ) ;
#501 = AXIS2_PLACEMENT_3D ( 'NONE', #855, #46, #840 ) ;
#502 = CYLINDRICAL_SURFACE ( 'NONE', #3, 0.07500000000000002498 ) ;
#503 = ORIENTED_EDGE ( 'NONE', *, *, #60, .T. ) ;
#504 = VECTOR ( 'NONE', #495, 39.37007874015748143 ) ;
#505 =( NAMED_UNIT ( * ) PLANE_ANGLE_UNIT ( ) SI_UNIT ( $, .RADIAN. ) );
#506 = AXIS2_PLACEMENT_3D ( 'NONE', #687, #760, #360 ) ;
#507 = DIRECTION ( 'NONE',  ( -0.000000000000000000, -0.000000000000000000, -1.000000000000000000 ) ) ;
#508 = EDGE_LOOP ( 'NONE', ( #178, #351 ) ) ;
#509 = EDGE_CURVE ( 'NONE', #265, #362, #666, .T. ) ;
#510 = ADVANCED_FACE ( 'NONE', ( #378 ), #51, .T. ) ;
#511 = DIRECTION ( 'NONE',  ( 1.000000000000000000, 0.000000000000000000, 0.000000000000000000 ) ) ;
#512 = DIRECTION ( 'NONE',  ( 0.000000000000000000, 0.000000000000000000, 1.000000000000000000 ) ) ;
#513 = ORIENTED_EDGE ( 'NONE', *, *, #68, .F. ) ;
#514 = AXIS2_PLACEMENT_3D ( 'NONE', #632, #165, #306 ) ;
#515 = DIRECTION ( 'NONE',  ( 0.000000000000000000, 0.000000000000000000, 1.000000000000000000 ) ) ;
#516 = ORIENTED_EDGE ( 'NONE', *, *, #198, .T. ) ;
#517 = PERSON_AND_ORGANIZATION ( #485, #354 ) ;
#518 = CARTESIAN_POINT ( 'NONE',  ( -0.2952755905511764700, 0.5114323250695533840, 0.5000000000000000000 ) ) ;
#519 = VERTEX_POINT ( 'NONE', #782 ) ;
#520 = CALENDAR_DATE ( 2026, 22, 8 ) ;
#521 = CARTESIAN_POINT ( 'NONE',  ( -0.8267716535433070613, 0.000000000000000000, 0.5000000000000000000 ) ) ;
#522 = CARTESIAN_POINT ( 'NONE',  ( 3.759507874015748374, 0.000000000000000000, 0.000000000000000000 ) ) ;
#523 = ORIENTED_EDGE ( 'NONE', *, *, #96, .T. ) ;
#524 = CARTESIAN_POINT ( 'NONE',  ( 0.6655511811023624436, 9.184850993605148746E-18, 0.000000000000000000 ) ) ;
#525 = PRODUCT ( 'ServoArm_Default_sldprt', 'ServoArm_Default_sldprt', '', ( #668 ) ) ;
#526 = FACE_OUTER_BOUND ( 'NONE', #582, .T. ) ;
#527 = ORIENTED_EDGE ( 'NONE', *, *, #214, .T. ) ;
#528 = COORDINATED_UNIVERSAL_TIME_OFFSET ( 8, 0, .BEHIND. ) ;
#529 = VERTEX_POINT ( 'NONE', #426 ) ;
#530 = DIRECTION ( 'NONE',  ( 0.000000000000000000, 0.000000000000000000, 1.000000000000000000 ) ) ;
#531 = LINE ( 'NONE', #126, #140 ) ;
#532 = PERSON_AND_ORGANIZATION ( #485, #354 ) ;
#533 = EDGE_CURVE ( 'NONE', #383, #689, #399, .T. ) ;
#534 = VERTEX_POINT ( 'NONE', #431 ) ;
#535 = DIRECTION ( 'NONE',  ( 1.000000000000000000, 0.000000000000000000, 0.000000000000000000 ) ) ;
#536 = AXIS2_PLACEMENT_3D ( 'NONE', #77, #686, #81 ) ;
#537 = EDGE_LOOP ( 'NONE', ( #486, #503, #619, #730 ) ) ;
#538 = ORIENTED_EDGE ( 'NONE', *, *, #484, .F. ) ;
#539 = DIRECTION ( 'NONE',  ( -0.000000000000000000, -0.000000000000000000, -1.000000000000000000 ) ) ;
#540 = CIRCLE ( 'NONE', #609, 0.07500000000000002498 ) ;
#541 = CARTESIAN_POINT ( 'NONE',  ( 0.2657480314960650181, 0.4602890925625939267, 0.5000000000000000000 ) ) ;
#542 = EDGE_LOOP ( 'NONE', ( #53, #199, #338, #274 ) ) ;
#543 = DIRECTION ( 'NONE',  ( 1.000000000000000000, 0.000000000000000000, 0.000000000000000000 ) ) ;
#544 = ADVANCED_FACE ( 'NONE', ( #106 ), #644, .T. ) ;
#545 = SECURITY_CLASSIFICATION ( '', '', #131 ) ;
#546 = ORIENTED_EDGE ( 'NONE', *, *, #733, .T. ) ;
#547 = CARTESIAN_POINT ( 'NONE',  ( 2.731847993664263218E-16, 0.000000000000000000, 0.5000000000000000000 ) ) ;
#548 =( GEOMETRIC_REPRESENTATION_CONTEXT ( 3 ) GLOBAL_UNCERTAINTY_ASSIGNED_CONTEXT ( ( #842 ) ) GLOBAL_UNIT_ASSIGNED_CONTEXT ( ( #844, #505, #242 ) ) REPRESENTATION_CONTEXT ( 'NONE', 'WORKASPACE' ) );
#549 = EDGE_CURVE ( 'NONE', #437, #550, #693, .T. ) ;
#550 = VERTEX_POINT ( 'NONE', #560 ) ;
#551 = CARTESIAN_POINT ( 'NONE',  ( 0.2657480314960650181, 0.4602890925625939267, 0.5000000000000000000 ) ) ;
#552 = AXIS2_PLACEMENT_3D ( 'NONE', #296, #180, #372 ) ;
#553 = EDGE_LOOP ( 'NONE', ( #104, #783 ) ) ;
#554 = AXIS2_PLACEMENT_3D ( 'NONE', #406, #675, #89 ) ;
#555 = ORIENTED_EDGE ( 'NONE', *, *, #214, .F. ) ;
#556 = PRODUCT_RELATED_PRODUCT_CATEGORY ( 'detail', '', ( #525 ) ) ;
#557 = LINE ( 'NONE', #230, #350 ) ;
#558 = ORIENTED_EDGE ( 'NONE', *, *, #356, .F. ) ;
#559 = DIRECTION ( 'NONE',  ( 0.000000000000000000, 0.000000000000000000, 1.000000000000000000 ) ) ;
#560 = CARTESIAN_POINT ( 'NONE',  ( -0.3702755905511836421, -0.5114323250695491652, 0.000000000000000000 ) ) ;
#561 = CARTESIAN_POINT ( 'NONE',  ( 0.1907480314960586509, -0.4602890925625977014, 0.5000000000000000000 ) ) ;
#562 = EDGE_LOOP ( 'NONE', ( #211, #320, #27, #340 ) ) ;
#563 = AXIS2_PLACEMENT_3D ( 'NONE', #845, #572, #511 ) ;
#564 = CARTESIAN_POINT ( 'NONE',  ( 3.759507874015748374, 0.000000000000000000, 0.5000000000000000000 ) ) ;
#565 = CARTESIAN_POINT ( 'NONE',  ( -0.6064960629921257729, 0.000000000000000000, 0.000000000000000000 ) ) ;
#566 = APPROVAL ( #729, 'UNSPECIFIED' ) ;
#567 = EDGE_CURVE ( 'NONE', #23, #664, #777, .T. ) ;
#568 = ORIENTED_EDGE ( 'NONE', *, *, #710, .F. ) ;
#569 = DIRECTION ( 'NONE',  ( 1.000000000000000000, 0.000000000000000000, 0.000000000000000000 ) ) ;
#570 = AXIS2_PLACEMENT_3D ( 'NONE', #328, #856, #787 ) ;
#571 = CIRCLE ( 'NONE', #308, 0.8267716535433072833 ) ;
#572 = DIRECTION ( 'NONE',  ( 0.000000000000000000, 0.000000000000000000, 1.000000000000000000 ) ) ;
#573 = CARTESIAN_POINT ( 'NONE',  ( 2.731847993664263218E-16, 0.000000000000000000, 0.5000000000000000000 ) ) ;
#574 = CARTESIAN_POINT ( 'NONE',  ( 0.000000000000000000, 0.8267716535433072833, 0.5000000000000000000 ) ) ;
#575 = ORIENTED_EDGE ( 'NONE', *, *, #549, .F. ) ;
#576 = AXIS2_PLACEMENT_3D ( 'NONE', #820, #828, #277 ) ;
#577 = CARTESIAN_POINT ( 'NONE',  ( 0.000000000000000000, 0.8267716535433072833, 0.5000000000000000000 ) ) ;
#578 = CARTESIAN_POINT ( 'NONE',  ( -0.3702755905511836421, -0.5114323250695491652, 0.5000000000000000000 ) ) ;
#579 = ORIENTED_EDGE ( 'NONE', *, *, #295, .F. ) ;
#580 = EDGE_CURVE ( 'NONE', #664, #529, #232, .T. ) ;
#581 = CYLINDRICAL_SURFACE ( 'NONE', #570, 0.07500000000000002498 ) ;
#582 = EDGE_LOOP ( 'NONE', ( #753, #720, #314, #669 ) ) ;
#583 = CIRCLE ( 'NONE', #815, 0.07500000000000002498 ) ;
#584 = CALENDAR_DATE ( 2026, 22, 8 ) ;
#585 = CIRCLE ( 'NONE', #305, 0.07499999999999998335 ) ;
#586 = CARTESIAN_POINT ( 'NONE',  ( 0.3407480314960650292, 0.4602890925625939267, 0.5000000000000000000 ) ) ;
#587 = AXIS2_PLACEMENT_3D ( 'NONE', #518, #248, #858 ) ;
#588 = EDGE_CURVE ( 'NONE', #823, #624, #679, .T. ) ;
#589 = EDGE_LOOP ( 'NONE', ( #527, #249, #410, #113 ) ) ;
#590 = CALENDAR_DATE ( 2026, 22, 8 ) ;
#591 = LINE ( 'NONE', #586, #738 ) ;
#592 = CARTESIAN_POINT ( 'NONE',  ( -0.2952755905511764700, 0.5114323250695533840, 0.5000000000000000000 ) ) ;
#593 = DIRECTION ( 'NONE',  ( -0.000000000000000000, -0.000000000000000000, -1.000000000000000000 ) ) ;
#594 = CARTESIAN_POINT ( 'NONE',  ( 0.000000000000000000, 0.000000000000000000, 0.000000000000000000 ) ) ;
#595 = EDGE_LOOP ( 'NONE', ( #805, #492, #4, #204 ) ) ;
#596 = DIRECTION ( 'NONE',  ( 1.000000000000000000, 0.000000000000000000, 0.000000000000000000 ) ) ;
#597 = CARTESIAN_POINT ( 'NONE',  ( 2.731847993664263218E-16, 0.000000000000000000, 0.000000000000000000 ) ) ;
#598 = EDGE_LOOP ( 'NONE', ( #62, #142, #780, #281 ) ) ;
#599 = EDGE_CURVE ( 'NONE', #265, #529, #638, .T. ) ;
#600 = EDGE_LOOP ( 'NONE', ( #332, #407 ) ) ;
#601 = LINE ( 'NONE', #273, #286 ) ;
#602 = DIRECTION ( 'NONE',  ( 1.000000000000000000, 0.000000000000000000, 0.000000000000000000 ) ) ;
#603 = ORIENTED_EDGE ( 'NONE', *, *, #832, .T. ) ;
#604 = CARTESIAN_POINT ( 'NONE',  ( -0.5314960629921257063, 0.000000000000000000, 0.000000000000000000 ) ) ;
#605 = CIRCLE ( 'NONE', #228, 0.07499999999999998335 ) ;
#606 = CARTESIAN_POINT ( 'NONE',  ( 0.2657480314960586343, -0.4602890925625977014, 0.5000000000000000000 ) ) ;
#607 = VERTEX_POINT ( 'NONE', #246 ) ;
#608 = EDGE_CURVE ( 'NONE', #23, #265, #253, .T. ) ;
#609 = AXIS2_PLACEMENT_3D ( 'NONE', #194, #55, #791 ) ;
#610 = ORIENTED_EDGE ( 'NONE', *, *, #22, .T. ) ;
#611 = CARTESIAN_POINT ( 'NONE',  ( 2.731847993664263218E-16, 0.000000000000000000, 0.000000000000000000 ) ) ;
#612 = DIRECTION ( 'NONE',  ( 0.000000000000000000, -1.000000000000000000, 0.000000000000000000 ) ) ;
#613 = VECTOR ( 'NONE', #396, 39.37007874015748143 ) ;
#614 = EDGE_CURVE ( 'NONE', #348, #550, #601, .T. ) ;
#615 = AXIS2_PLACEMENT_3D ( 'NONE', #335, #152, #829 ) ;
#616 = LOCAL_TIME ( 17, 51, 32.00000000000000000, #66 ) ;
#617 = ORIENTED_EDGE ( 'NONE', *, *, #580, .F. ) ;
#618 = FACE_BOUND ( 'NONE', #466, .T. ) ;
#619 = ORIENTED_EDGE ( 'NONE', *, *, #824, .T. ) ;
#620 = CARTESIAN_POINT ( 'NONE',  ( 0.1907480314960649792, 0.4602890925625939267, 0.5000000000000000000 ) ) ;
#621 = CARTESIAN_POINT ( 'NONE',  ( -0.1774999999999997136, 0.000000000000000000, 0.5000000000000000000 ) ) ;
#622 = AXIS2_PLACEMENT_3D ( 'NONE', #311, #769, #700 ) ;
#623 = EDGE_CURVE ( 'NONE', #325, #443, #41, .T. ) ;
#624 = VERTEX_POINT ( 'NONE', #871 ) ;
#625 = EDGE_CURVE ( 'NONE', #362, #648, #657, .T. ) ;
#626 = DIRECTION ( 'NONE',  ( 1.000000000000000000, 0.000000000000000000, 0.000000000000000000 ) ) ;
#627 = DIRECTION ( 'NONE',  ( 0.000000000000000000, -0.000000000000000000, 1.000000000000000000 ) ) ;
#628 = MANIFOLD_SOLID_BREP ( 'Boss-Extrude2', #162 ) ;
#629 = AXIS2_PLACEMENT_3D ( 'NONE', #830, #156, #627 ) ;
#630 = ORIENTED_EDGE ( 'NONE', *, *, #198, .F. ) ;
#631 = APPLICATION_CONTEXT ( 'configuration controlled 3d designs of mechanical parts and assemblies' ) ;
#632 = CARTESIAN_POINT ( 'NONE',  ( 3.937007874015748143, 0.000000000000000000, 0.5000000000000000000 ) ) ;
#633 = PLANE ( 'NONE',  #629 ) ;
#634 = AXIS2_PLACEMENT_3D ( 'NONE', #282, #825, #483 ) ;
#635 = EDGE_LOOP ( 'NONE', ( #488, #80 ) ) ;
#636 = CARTESIAN_POINT ( 'NONE',  ( 0.3407480314960650292, 0.4602890925625939267, 0.5000000000000000000 ) ) ;
#637 = EDGE_CURVE ( 'NONE', #257, #694, #334, .T. ) ;
#638 = LINE ( 'NONE', #577, #409 ) ;
#639 = FACE_BOUND ( 'NONE', #843, .T. ) ;
#640 = ORIENTED_EDGE ( 'NONE', *, *, #303, .F. ) ;
#641 = DIRECTION ( 'NONE',  ( 0.000000000000000000, 0.000000000000000000, 1.000000000000000000 ) ) ;
#642 = FACE_OUTER_BOUND ( 'NONE', #595, .T. ) ;
#643 = ORIENTED_EDGE ( 'NONE', *, *, #317, .F. ) ;
#644 = CYLINDRICAL_SURFACE ( 'NONE', #514, 0.8267716535433072833 ) ;
#645 = LINE ( 'NONE', #561, #164 ) ;
#646 = DIRECTION ( 'NONE',  ( 1.000000000000000000, 0.000000000000000000, 0.000000000000000000 ) ) ;
#647 = EDGE_CURVE ( 'NONE', #269, #158, #122, .T. ) ;
#648 = VERTEX_POINT ( 'NONE', #333 ) ;
#649 = DIRECTION ( 'NONE',  ( -0.000000000000000000, -0.000000000000000000, -1.000000000000000000 ) ) ;
#650 = ORIENTED_EDGE ( 'NONE', *, *, #773, .T. ) ;
#651 = DATE_AND_TIME ( #590, #21 ) ;
#652 = AXIS2_PLACEMENT_3D ( 'NONE', #665, #327, #343 ) ;
#653 = CARTESIAN_POINT ( 'NONE',  ( 0.2657480314960650181, 0.4602890925625939267, 0.000000000000000000 ) ) ;
#654 = ORIENTED_EDGE ( 'NONE', *, *, #429, .T. ) ;
#655 = AXIS2_PLACEMENT_3D ( 'NONE', #40, #302, #94 ) ;
#656 = CIRCLE ( 'NONE', #860, 0.07500000000000002498 ) ;
#657 = LINE ( 'NONE', #521, #852 ) ;
#658 = AXIS2_PLACEMENT_3D ( 'NONE', #395, #799, #793 ) ;
#659 = APPROVAL_PERSON_ORGANIZATION ( #661, #48, #58 ) ;
#660 = DIRECTION ( 'NONE',  ( 0.000000000000000000, 0.000000000000000000, 1.000000000000000000 ) ) ;
#661 = PERSON_AND_ORGANIZATION ( #485, #354 ) ;
#662 = DIRECTION ( 'NONE',  ( 1.000000000000000000, 0.000000000000000000, 0.000000000000000000 ) ) ;
#663 = CYLINDRICAL_SURFACE ( 'NONE', #19, 0.07499999999999998335 ) ;
#664 = VERTEX_POINT ( 'NONE', #808 ) ;
#665 = CARTESIAN_POINT ( 'NONE',  ( 3.937007874015748143, 0.000000000000000000, 0.5000000000000000000 ) ) ;
#666 = CIRCLE ( 'NONE', #207, 0.8267716535433072833 ) ;
#667 = CARTESIAN_POINT ( 'NONE',  ( 0.1775000000000002687, 2.173748068486551752E-17, 0.000000000000000000 ) ) ;
#668 = MECHANICAL_CONTEXT ( 'NONE', #631, 'mechanical' ) ;
#669 = ORIENTED_EDGE ( 'NONE', *, *, #357, .F. ) ;
#670 = CYLINDRICAL_SURFACE ( 'NONE', #652, 0.1774999999999999634 ) ;
#671 = EDGE_LOOP ( 'NONE', ( #404, #477, #480, #650, #86 ) ) ;
#672 = EDGE_CURVE ( 'NONE', #607, #217, #205, .T. ) ;
#673 = ORIENTED_EDGE ( 'NONE', *, *, #588, .F. ) ;
#674 = CIRCLE ( 'NONE', #255, 0.07499999999999998335 ) ;
#675 = DIRECTION ( 'NONE',  ( 0.000000000000000000, 0.000000000000000000, 1.000000000000000000 ) ) ;
#676 = ORIENTED_EDGE ( 'NONE', *, *, #284, .F. ) ;
#677 = CARTESIAN_POINT ( 'NONE',  ( 2.731847993664263218E-16, 0.000000000000000000, 0.5000000000000000000 ) ) ;
#678 = EDGE_CURVE ( 'NONE', #835, #386, #591, .T. ) ;
#679 = CIRCLE ( 'NONE', #622, 0.1774999999999999911 ) ;
#680 = ORIENTED_EDGE ( 'NONE', *, *, #134, .F. ) ;
#681 = CYLINDRICAL_SURFACE ( 'NONE', #536, 0.07500000000000002498 ) ;
#682 = VECTOR ( 'NONE', #331, 39.37007874015748143 ) ;
#683 = AXIS2_PLACEMENT_3D ( 'NONE', #202, #660, #393 ) ;
#684 = DIRECTION ( 'NONE',  ( 1.000000000000000000, 0.000000000000000000, 0.000000000000000000 ) ) ;
#685 = ORIENTED_EDGE ( 'NONE', *, *, #20, .T. ) ;
#686 = DIRECTION ( 'NONE',  ( -0.000000000000000000, -0.000000000000000000, -1.000000000000000000 ) ) ;
#687 = CARTESIAN_POINT ( 'NONE',  ( 0.2657480314960650181, 0.4602890925625939267, 0.5000000000000000000 ) ) ;
#688 = EDGE_CURVE ( 'NONE', #17, #437, #200, .T. ) ;
#689 = VERTEX_POINT ( 'NONE', #5 ) ;
#690 = DIRECTION ( 'NONE',  ( 0.000000000000000000, 0.000000000000000000, 1.000000000000000000 ) ) ;
#691 = DIRECTION ( 'NONE',  ( -0.000000000000000000, -0.000000000000000000, -1.000000000000000000 ) ) ;
#692 = FACE_BOUND ( 'NONE', #508, .T. ) ;
#693 = CIRCLE ( 'NONE', #563, 0.07499999999999998335 ) ;
#694 = VERTEX_POINT ( 'NONE', #467 ) ;
#695 = LINE ( 'NONE', #300, #79 ) ;
#696 = FACE_BOUND ( 'NONE', #272, .T. ) ;
#697 = CIRCLE ( 'NONE', #817, 0.07499999999999998335 ) ;
#698 = ORIENTED_EDGE ( 'NONE', *, *, #245, .T. ) ;
#699 = ADVANCED_FACE ( 'NONE', ( #459 ), #737, .F. ) ;
#700 = DIRECTION ( 'NONE',  ( 1.000000000000000000, 0.000000000000000000, 0.000000000000000000 ) ) ;
#701 = FACE_OUTER_BOUND ( 'NONE', #671, .T. ) ;
#702 = ORIENTED_EDGE ( 'NONE', *, *, #832, .F. ) ;
#703 = DIRECTION ( 'NONE',  ( 0.000000000000000000, 0.000000000000000000, 1.000000000000000000 ) ) ;
#704 = ADVANCED_FACE ( 'NONE', ( #732 ), #670, .F. ) ;
#705 = FACE_BOUND ( 'NONE', #294, .T. ) ;
#706 = VERTEX_POINT ( 'NONE', #12 ) ;
#707 = CARTESIAN_POINT ( 'NONE',  ( -0.4564960629921256952, 9.184850993605148746E-18, 0.5000000000000000000 ) ) ;
#708 = CARTESIAN_POINT ( 'NONE',  ( -0.2952755905511836865, -0.5114323250695491652, 0.5000000000000000000 ) ) ;
#709 = CARTESIAN_POINT ( 'NONE',  ( 0.2657480314960650181, 0.4602890925625939267, 0.000000000000000000 ) ) ;
#710 = EDGE_CURVE ( 'NONE', #418, #835, #540, .T. ) ;
#711 = CIRCLE ( 'NONE', #238, 0.07500000000000002498 ) ;
#712 = EDGE_LOOP ( 'NONE', ( #36, #290, #811, #741 ) ) ;
#713 = CIRCLE ( 'NONE', #339, 0.07499999999999998335 ) ;
#714 = DIRECTION ( 'NONE',  ( -0.000000000000000000, -0.000000000000000000, -1.000000000000000000 ) ) ;
#715 = LINE ( 'NONE', #121, #250 ) ;
#716 = EDGE_CURVE ( 'NONE', #529, #648, #275, .T. ) ;
#717 = EDGE_LOOP ( 'NONE', ( #208, #685 ) ) ;
#718 = VECTOR ( 'NONE', #408, 39.37007874015748143 ) ;
#719 = CARTESIAN_POINT ( 'NONE',  ( 3.937007874015748143, 0.000000000000000000, 0.5000000000000000000 ) ) ;
#720 = ORIENTED_EDGE ( 'NONE', *, *, #533, .T. ) ;
#721 = DATE_AND_TIME ( #520, #616 ) ;
#722 = AXIS2_PLACEMENT_3D ( 'NONE', #551, #691, #365 ) ;
#723 = DIRECTION ( 'NONE',  ( 0.000000000000000000, 0.000000000000000000, 1.000000000000000000 ) ) ;
#724 = CARTESIAN_POINT ( 'NONE',  ( 0.000000000000000000, -0.8267716535433072833, 0.000000000000000000 ) ) ;
#725 = DIRECTION ( 'NONE',  ( 0.000000000000000000, 0.000000000000000000, 1.000000000000000000 ) ) ;
#726 = ADVANCED_FACE ( 'NONE', ( #259 ), #681, .F. ) ;
#727 = FACE_OUTER_BOUND ( 'NONE', #346, .T. ) ;
#728 = CARTESIAN_POINT ( 'NONE',  ( -0.2952755905511764700, 0.5114323250695533840, 0.000000000000000000 ) ) ;
#729 = APPROVAL_STATUS ( 'not_yet_approved' ) ;
#730 = ORIENTED_EDGE ( 'NONE', *, *, #435, .F. ) ;
#731 = AXIS2_PLACEMENT_3D ( 'NONE', #611, #16, #543 ) ;
#732 = FACE_OUTER_BOUND ( 'NONE', #598, .T. ) ;
#733 = EDGE_CURVE ( 'NONE', #325, #694, #816, .T. ) ;
#734 = DIRECTION ( 'NONE',  ( 0.000000000000000000, 0.000000000000000000, 1.000000000000000000 ) ) ;
#735 = CYLINDRICAL_SURFACE ( 'NONE', #744, 0.07500000000000002498 ) ;
#736 = ORIENTED_EDGE ( 'NONE', *, *, #868, .T. ) ;
#737 = CYLINDRICAL_SURFACE ( 'NONE', #233, 0.07500000000000002498 ) ;
#738 = VECTOR ( 'NONE', #539, 39.37007874015748143 ) ;
#739 = EDGE_CURVE ( 'NONE', #167, #73, #25, .T. ) ;
#740 = CARTESIAN_POINT ( 'NONE',  ( 3.937007874015748143, 0.8267716535433072833, 0.5000000000000000000 ) ) ;
#741 = ORIENTED_EDGE ( 'NONE', *, *, #567, .T. ) ;
#742 = CIRCLE ( 'NONE', #683, 0.07500000000000002498 ) ;
#743 = CARTESIAN_POINT ( 'NONE',  ( 2.731847993664263218E-16, 0.000000000000000000, 0.000000000000000000 ) ) ;
#744 = AXIS2_PLACEMENT_3D ( 'NONE', #606, #145, #464 ) ;
#745 = DIRECTION ( 'NONE',  ( 0.000000000000000000, 0.000000000000000000, 1.000000000000000000 ) ) ;
#746 = EDGE_CURVE ( 'NONE', #220, #217, #847, .T. ) ;
#747 = EDGE_LOOP ( 'NONE', ( #802, #10 ) ) ;
#748 = DIRECTION ( 'NONE',  ( -0.000000000000000000, -0.000000000000000000, -1.000000000000000000 ) ) ;
#749 = VECTOR ( 'NONE', #425, 39.37007874015748143 ) ;
#750 = ORIENTED_EDGE ( 'NONE', *, *, #688, .T. ) ;
#751 = FACE_BOUND ( 'NONE', #304, .T. ) ;
#752 = DIRECTION ( 'NONE',  ( 1.000000000000000000, 0.000000000000000000, 0.000000000000000000 ) ) ;
#753 = ORIENTED_EDGE ( 'NONE', *, *, #382, .F. ) ;
#754 = EDGE_CURVE ( 'NONE', #853, #763, #762, .T. ) ;
#755 = CARTESIAN_POINT ( 'NONE',  ( 0.3407480314960587009, -0.4602890925625977014, 0.5000000000000000000 ) ) ;
#756 = ADVANCED_FACE ( 'NONE', ( #213, #416, #87, #18, #487, #279, #618, #751, #347 ), #419, .F. ) ;
#757 = VECTOR ( 'NONE', #349, 39.37007874015748143 ) ;
#758 = CC_DESIGN_APPROVAL ( #566, ( #168 ) ) ;
#759 = VERTEX_POINT ( 'NONE', #216 ) ;
#760 = DIRECTION ( 'NONE',  ( 0.000000000000000000, 0.000000000000000000, 1.000000000000000000 ) ) ;
#761 = CARTESIAN_POINT ( 'NONE',  ( 3.937007874015748143, 0.000000000000000000, 0.000000000000000000 ) ) ;
#762 = CIRCLE ( 'NONE', #384, 0.07500000000000002498 ) ;
#763 = VERTEX_POINT ( 'NONE', #221 ) ;
#764 = CYLINDRICAL_SURFACE ( 'NONE', #615, 0.1774999999999999634 ) ;
#765 = FACE_OUTER_BOUND ( 'NONE', #15, .T. ) ;
#766 = EDGE_CURVE ( 'NONE', #763, #158, #28, .T. ) ;
#767 = AXIS2_PLACEMENT_3D ( 'NONE', #190, #454, #867 ) ;
#768 = ORIENTED_EDGE ( 'NONE', *, *, #509, .F. ) ;
#769 = DIRECTION ( 'NONE',  ( 0.000000000000000000, 0.000000000000000000, 1.000000000000000000 ) ) ;
#770 = CARTESIAN_POINT ( 'NONE',  ( -0.2952755905511836865, -0.5114323250695491652, 0.000000000000000000 ) ) ;
#771 = VECTOR ( 'NONE', #330, 39.37007874015748143 ) ;
#772 = ORIENTED_EDGE ( 'NONE', *, *, #60, .F. ) ;
#773 = EDGE_CURVE ( 'NONE', #859, #23, #147, .T. ) ;
#774 = CYLINDRICAL_SURFACE ( 'NONE', #779, 0.07499999999999998335 ) ;
#775 = CARTESIAN_POINT ( 'NONE',  ( -0.1774999999999997136, 0.000000000000000000, 0.000000000000000000 ) ) ;
#776 = ORIENTED_EDGE ( 'NONE', *, *, #187, .T. ) ;
#777 = LINE ( 'NONE', #850, #191 ) ;
#778 = CARTESIAN_POINT ( 'NONE',  ( 0.1907480314960586509, -0.4602890925625977014, 0.000000000000000000 ) ) ;
#779 = AXIS2_PLACEMENT_3D ( 'NONE', #708, #649, #836 ) ;
#780 = ORIENTED_EDGE ( 'NONE', *, *, #129, .T. ) ;
#781 = CARTESIAN_POINT ( 'NONE',  ( 0.1907480314960649792, 0.4602890925625939267, 0.5000000000000000000 ) ) ;
#782 = CARTESIAN_POINT ( 'NONE',  ( -0.2202755905511765144, 0.5114323250695533840, 0.000000000000000000 ) ) ;
#783 = ORIENTED_EDGE ( 'NONE', *, *, #533, .F. ) ;
#784 = PERSON_AND_ORGANIZATION ( #485, #354 ) ;
#785 = AXIS2_PLACEMENT_3D ( 'NONE', #468, #734, #84 ) ;
#786 = DIRECTION ( 'NONE',  ( -0.000000000000000000, -0.000000000000000000, -1.000000000000000000 ) ) ;
#787 = DIRECTION ( 'NONE',  ( -1.000000000000000000, 0.000000000000000000, 0.000000000000000000 ) ) ;
#788 = ORIENTED_EDGE ( 'NONE', *, *, #716, .T. ) ;
#789 = AXIS2_PLACEMENT_3D ( 'NONE', #743, #359, #24 ) ;
#790 = PERSON_AND_ORGANIZATION_ROLE ( 'design_supplier' ) ;
#791 = DIRECTION ( 'NONE',  ( 1.000000000000000000, 0.000000000000000000, 0.000000000000000000 ) ) ;
#792 = LINE ( 'NONE', #724, #771 ) ;
#793 = DIRECTION ( 'NONE',  ( -1.000000000000000000, 0.000000000000000000, 0.000000000000000000 ) ) ;
#794 = EDGE_CURVE ( 'NONE', #694, #257, #496, .T. ) ;
#795 = EDGE_LOOP ( 'NONE', ( #610, #423, #676, #150 ) ) ;
#796 = DIRECTION ( 'NONE',  ( 1.000000000000000000, 0.000000000000000000, 0.000000000000000000 ) ) ;
#797 = AXIS2_PLACEMENT_3D ( 'NONE', #798, #530, #125 ) ;
#798 = CARTESIAN_POINT ( 'NONE',  ( 3.937007874015748143, 0.000000000000000000, 0.000000000000000000 ) ) ;
#799 = DIRECTION ( 'NONE',  ( -0.000000000000000000, -0.000000000000000000, -1.000000000000000000 ) ) ;
#800 = CARTESIAN_POINT ( 'NONE',  ( 2.731847993664263218E-16, 0.000000000000000000, 0.000000000000000000 ) ) ;
#801 = DATE_AND_TIME ( #184, #324 ) ;
#802 = ORIENTED_EDGE ( 'NONE', *, *, #473, .T. ) ;
#803 = DIRECTION ( 'NONE',  ( -0.000000000000000000, -0.000000000000000000, -1.000000000000000000 ) ) ;
#804 = CARTESIAN_POINT ( 'NONE',  ( 0.3407480314960587009, -0.4602890925625977014, 0.000000000000000000 ) ) ;
#805 = ORIENTED_EDGE ( 'NONE', *, *, #588, .T. ) ;
#806 = DATE_TIME_ROLE ( 'classification_date' ) ;
#807 = VERTEX_POINT ( 'NONE', #287 ) ;
#808 = CARTESIAN_POINT ( 'NONE',  ( 3.937007874015748143, 0.8267716535433072833, 0.000000000000000000 ) ) ;
#809 = EDGE_CURVE ( 'NONE', #348, #17, #605, .T. ) ;
#810 = DIRECTION ( 'NONE',  ( 0.000000000000000000, 0.000000000000000000, 1.000000000000000000 ) ) ;
#811 = ORIENTED_EDGE ( 'NONE', *, *, #608, .F. ) ;
#812 = CARTESIAN_POINT ( 'NONE',  ( -0.1774999999999997136, 0.000000000000000000, 0.5000000000000000000 ) ) ;
#813 = CARTESIAN_POINT ( 'NONE',  ( 0.000000000000000000, -0.8267716535433072833, 0.5000000000000000000 ) ) ;
#814 = EDGE_LOOP ( 'NONE', ( #643, #285, #452, #183 ) ) ;
#815 = AXIS2_PLACEMENT_3D ( 'NONE', #869, #810, #141 ) ;
#816 = LINE ( 'NONE', #209, #865 ) ;
#817 = AXIS2_PLACEMENT_3D ( 'NONE', #592, #385, #49 ) ;
#818 = LOCAL_TIME ( 17, 51, 32.00000000000000000, #450 ) ;
#819 = EDGE_LOOP ( 'NONE', ( #864, #617, #148, #497, #402 ) ) ;
#820 = CARTESIAN_POINT ( 'NONE',  ( 0.5905511811023624880, 0.000000000000000000, 0.000000000000000000 ) ) ;
#821 = DIRECTION ( 'NONE',  ( 0.000000000000000000, 0.000000000000000000, 1.000000000000000000 ) ) ;
#822 = APPROVAL ( #197, 'UNSPECIFIED' ) ;
#823 = VERTEX_POINT ( 'NONE', #812 ) ;
#824 = EDGE_CURVE ( 'NONE', #153, #220, #405, .T. ) ;
#825 = DIRECTION ( 'NONE',  ( 0.000000000000000000, 0.000000000000000000, 1.000000000000000000 ) ) ;
#826 = CARTESIAN_POINT ( 'NONE',  ( 0.3407480314960587009, -0.4602890925625977014, 0.5000000000000000000 ) ) ;
#827 = ORIENTED_EDGE ( 'NONE', *, *, #134, .T. ) ;
#828 = DIRECTION ( 'NONE',  ( 0.000000000000000000, 0.000000000000000000, 1.000000000000000000 ) ) ;
#829 = DIRECTION ( 'NONE',  ( -1.000000000000000000, 0.000000000000000000, 0.000000000000000000 ) ) ;
#830 = CARTESIAN_POINT ( 'NONE',  ( 0.000000000000000000, -0.8267716535433072833, 0.5000000000000000000 ) ) ;
#831 = ORIENTED_EDGE ( 'NONE', *, *, #373, .F. ) ;
#832 = EDGE_CURVE ( 'NONE', #624, #823, #345, .T. ) ;
#833 = CARTESIAN_POINT ( 'NONE',  ( 0.2657480314960586343, -0.4602890925625977014, 0.000000000000000000 ) ) ;
#834 = FACE_BOUND ( 'NONE', #553, .T. ) ;
#835 = VERTEX_POINT ( 'NONE', #636 ) ;
#836 = DIRECTION ( 'NONE',  ( -1.000000000000000000, 0.000000000000000000, 0.000000000000000000 ) ) ;
#837 = DIRECTION ( 'NONE',  ( -0.000000000000000000, -0.000000000000000000, -1.000000000000000000 ) ) ;
#838 = AXIS2_PLACEMENT_3D ( 'NONE', #67, #612, #171 ) ;
#839 = ORIENTED_EDGE ( 'NONE', *, *, #473, .F. ) ;
#840 = DIRECTION ( 'NONE',  ( 1.000000000000000000, 0.000000000000000000, 0.000000000000000000 ) ) ;
#841 = CARTESIAN_POINT ( 'NONE',  ( -0.2952755905511764700, 0.5114323250695533840, 0.5000000000000000000 ) ) ;
#842 = UNCERTAINTY_MEASURE_WITH_UNIT (LENGTH_MEASURE( 1.000000000000000082E-05 ), #844, 'distance_accuracy_value', 'NONE');
#843 = EDGE_LOOP ( 'NONE', ( #673, #702 ) ) ;
#844 =( CONVERSION_BASED_UNIT ( 'INCH', #237 ) LENGTH_UNIT ( ) NAMED_UNIT ( #417 ) );
#845 = CARTESIAN_POINT ( 'NONE',  ( -0.2952755905511836865, -0.5114323250695491652, 0.000000000000000000 ) ) ;
#846 = DIRECTION ( 'NONE',  ( -0.000000000000000000, -0.000000000000000000, -1.000000000000000000 ) ) ;
#847 = CIRCLE ( 'NONE', #576, 0.07500000000000002498 ) ;
#848 = ORIENTED_EDGE ( 'NONE', *, *, #413, .F. ) ;
#849 = EDGE_CURVE ( 'NONE', #706, #759, #674, .T. ) ;
#850 = CARTESIAN_POINT ( 'NONE',  ( 3.937007874015748143, 0.8267716535433072833, 0.5000000000000000000 ) ) ;
#851 = CARTESIAN_POINT ( 'NONE',  ( 0.2657480314960586343, -0.4602890925625977014, 0.000000000000000000 ) ) ;
#852 = VECTOR ( 'NONE', #120, 39.37007874015748143 ) ;
#853 = VERTEX_POINT ( 'NONE', #707 ) ;
#854 = CC_DESIGN_PERSON_AND_ORGANIZATION_ASSIGNMENT ( #124, #387, ( #545 ) ) ;
#855 = CARTESIAN_POINT ( 'NONE',  ( -0.2952755905511764700, 0.5114323250695533840, 0.000000000000000000 ) ) ;
#856 = DIRECTION ( 'NONE',  ( -0.000000000000000000, -0.000000000000000000, -1.000000000000000000 ) ) ;
#857 = AXIS2_PLACEMENT_3D ( 'NONE', #728, #469, #401 ) ;
#858 = DIRECTION ( 'NONE',  ( -1.000000000000000000, 0.000000000000000000, 0.000000000000000000 ) ) ;
#859 = VERTEX_POINT ( 'NONE', #299 ) ;
#860 = AXIS2_PLACEMENT_3D ( 'NONE', #34, #447, #596 ) ;
#861 = PERSON_AND_ORGANIZATION_ROLE ( 'creator' ) ;
#862 = LOCAL_TIME ( 17, 51, 32.00000000000000000, #528 ) ;
#863 = APPLICATION_CONTEXT ( 'configuration controlled 3d designs of mechanical parts and assemblies' ) ;
#864 = ORIENTED_EDGE ( 'NONE', *, *, #716, .F. ) ;
#865 = VECTOR ( 'NONE', #353, 39.37007874015748143 ) ;
#866 = APPROVAL_STATUS ( 'not_yet_approved' ) ;
#867 = DIRECTION ( 'NONE',  ( 1.000000000000000000, 0.000000000000000000, 0.000000000000000000 ) ) ;
#868 = EDGE_CURVE ( 'NONE', #418, #807, #169, .T. ) ;
#869 = CARTESIAN_POINT ( 'NONE',  ( -0.5314960629921257063, 0.000000000000000000, 0.000000000000000000 ) ) ;
#870 = ORIENTED_EDGE ( 'NONE', *, *, #295, .T. ) ;
#871 = CARTESIAN_POINT ( 'NONE',  ( 0.1775000000000002687, 2.173748068486551752E-17, 0.5000000000000000000 ) ) ;
ENDSEC;
END-ISO-10303-21;
