ISO-10303-21;
HEADER;
FILE_DESCRIPTION (( 'STEP AP203' ),
    '1' );
FILE_NAME ('92510A494_Aluminum Unthreaded Spacer_92510A494_sldprt.STEP',
    '2026-08-23T00:51:22',
    ( '' ),
    ( '' ),
    'SwSTEP 2.0',
    'SolidWorks 2025',
    '' );
FILE_SCHEMA (( 'CONFIG_CONTROL_DESIGN' ));
ENDSEC;

DATA;
#1 = CARTESIAN_POINT ( 'NONE',  ( 0.000000000000000000, 0.000000000000000000, -0.1302499999999999769 ) ) ;
#2 = VECTOR ( 'NONE', #15, 39.37007874015748143 ) ;
#3 = EDGE_CURVE ( 'NONE', #17, #82, #179, .T. ) ;
#4 = DIRECTION ( 'NONE',  ( -0.000000000000000000, -0.000000000000000000, -1.000000000000000000 ) ) ;
#5 = CARTESIAN_POINT ( 'NONE',  ( 0.000000000000000000, 0.000000000000000000, 0.1375000000000000111 ) ) ;
#6 = SHAPE_DEFINITION_REPRESENTATION ( #74, #411 ) ;
#7 = MANIFOLD_SOLID_BREP ( 'Chamfer1', #251 ) ;
#8 = LOCAL_TIME ( 17, 51, 22.00000000000000000, #29 ) ;
#9 = AXIS2_PLACEMENT_3D ( 'NONE', #191, #184, #219 ) ;
#10 = EDGE_LOOP ( 'NONE', ( #418, #345, #124, #19 ) ) ;
#11 = DIRECTION ( 'NONE',  ( 0.000000000000000000, 0.000000000000000000, 1.000000000000000000 ) ) ;
#12 = ORIENTED_EDGE ( 'NONE', *, *, #118, .T. ) ;
#13 = ADVANCED_FACE ( 'NONE', ( #441 ), #317, .F. ) ;
#14 = LOCAL_TIME ( 17, 51, 22.00000000000000000, #388 ) ;
#15 = DIRECTION ( 'NONE',  ( 0.7071067811865492381, 0.000000000000000000, 0.7071067811865459074 ) ) ;
#16 = AXIS2_PLACEMENT_3D ( 'NONE', #424, #137, #141 ) ;
#17 = VERTEX_POINT ( 'NONE', #374 ) ;
#18 = CARTESIAN_POINT ( 'NONE',  ( -0.2552499999999999769, 0.000000000000000000, 0.1375000000000000111 ) ) ;
#19 = ORIENTED_EDGE ( 'NONE', *, *, #207, .T. ) ;
#20 = CARTESIAN_POINT ( 'NONE',  ( 0.000000000000000000, 0.000000000000000000, -0.1375000000000000111 ) ) ;
#21 = ADVANCED_FACE ( 'NONE', ( #306 ), #300, .F. ) ;
#22 = DIRECTION ( 'NONE',  ( 0.000000000000000000, 0.000000000000000000, 1.000000000000000000 ) ) ;
#23 = CONICAL_SURFACE ( 'NONE', #282, 0.1972499999999999254, 0.7853981633974412846 ) ;
#24 = FACE_OUTER_BOUND ( 'NONE', #163, .T. ) ;
#25 = AXIS2_PLACEMENT_3D ( 'NONE', #117, #159, #270 ) ;
#26 = CARTESIAN_POINT ( 'NONE',  ( -0.1899999999999999745, 2.326828918379970872E-17, -0.1375000000000000111 ) ) ;
#27 = LINE ( 'NONE', #86, #378 ) ;
#28 = VERTEX_POINT ( 'NONE', #379 ) ;
#29 = COORDINATED_UNIVERSAL_TIME_OFFSET ( 8, 0, .BEHIND. ) ;
#30 = ORIENTED_EDGE ( 'NONE', *, *, #78, .F. ) ;
#31 = ADVANCED_FACE ( 'NONE', ( #195 ), #447, .T. ) ;
#32 = LOCAL_TIME ( 17, 51, 22.00000000000000000, #363 ) ;
#33 = CARTESIAN_POINT ( 'NONE',  ( 0.000000000000000000, 0.000000000000000000, -0.1375000000000000111 ) ) ;
#34 = PERSON_AND_ORGANIZATION_ROLE ( 'design_owner' ) ;
#35 = CARTESIAN_POINT ( 'NONE',  ( 0.000000000000000000, 0.000000000000000000, -0.1302499999999999769 ) ) ;
#36 = PERSON_AND_ORGANIZATION ( #246, #298 ) ;
#37 = EDGE_CURVE ( 'NONE', #277, #309, #340, .T. ) ;
#38 = FACE_OUTER_BOUND ( 'NONE', #10, .T. ) ;
#39 = DIRECTION ( 'NONE',  ( 1.000000000000000000, 0.000000000000000000, 0.000000000000000000 ) ) ;
#40 = CC_DESIGN_APPROVAL ( #146, ( #233 ) ) ;
#41 = CIRCLE ( 'NONE', #432, 0.2625000000000000111 ) ;
#42 = VECTOR ( 'NONE', #445, 39.37007874015748854 ) ;
#43 = VECTOR ( 'NONE', #204, 39.37007874015748143 ) ;
#44 = ORIENTED_EDGE ( 'NONE', *, *, #260, .F. ) ;
#45 = ORIENTED_EDGE ( 'NONE', *, *, #47, .T. ) ;
#46 = DIRECTION ( 'NONE',  ( 0.000000000000000000, 0.000000000000000000, -1.000000000000000000 ) ) ;
#47 = EDGE_CURVE ( 'NONE', #221, #28, #198, .T. ) ;
#48 = ORIENTED_EDGE ( 'NONE', *, *, #177, .T. ) ;
#49 = LINE ( 'NONE', #330, #2 ) ;
#50 = VERTEX_POINT ( 'NONE', #271 ) ;
#51 = LINE ( 'NONE', #297, #178 ) ;
#52 = ORIENTED_EDGE ( 'NONE', *, *, #260, .T. ) ;
#53 = EDGE_CURVE ( 'NONE', #434, #82, #342, .T. ) ;
#54 = CARTESIAN_POINT ( 'NONE',  ( -0.1899999999999999745, 2.326828918379970564E-17, 0.1302500000000000602 ) ) ;
#55 = EDGE_LOOP ( 'NONE', ( #12, #362 ) ) ;
#56 = DIRECTION ( 'NONE',  ( 0.000000000000000000, 0.000000000000000000, 1.000000000000000000 ) ) ;
#57 = ORIENTED_EDGE ( 'NONE', *, *, #442, .T. ) ;
#58 = LOCAL_TIME ( 17, 51, 22.00000000000000000, #64 ) ;
#59 = CARTESIAN_POINT ( 'NONE',  ( 0.000000000000000000, 0.000000000000000000, 0.1302499999999999214 ) ) ;
#60 = VECTOR ( 'NONE', #56, 39.37007874015748143 ) ;
#61 = DIRECTION ( 'NONE',  ( 0.000000000000000000, 0.000000000000000000, 1.000000000000000000 ) ) ;
#62 = ORIENTED_EDGE ( 'NONE', *, *, #37, .F. ) ;
#63 = ADVANCED_FACE ( 'NONE', ( #128 ), #331, .T. ) ;
#64 = COORDINATED_UNIVERSAL_TIME_OFFSET ( 8, 0, .BEHIND. ) ;
#65 = EDGE_LOOP ( 'NONE', ( #296, #182 ) ) ;
#66 = APPROVAL_DATE_TIME ( #164, #276 ) ;
#67 = CIRCLE ( 'NONE', #234, 0.1972499999999999809 ) ;
#68 = CARTESIAN_POINT ( 'NONE',  ( 0.000000000000000000, 0.000000000000000000, 0.1302500000000000602 ) ) ;
#69 = APPROVAL_STATUS ( 'not_yet_approved' ) ;
#70 = ADVANCED_FACE ( 'NONE', ( #312 ), #324, .T. ) ;
#71 = DIRECTION ( 'NONE',  ( 1.000000000000000000, 0.000000000000000000, 0.000000000000000000 ) ) ;
#72 = PERSON_AND_ORGANIZATION_ROLE ( 'classification_officer' ) ;
#73 = DIRECTION ( 'NONE',  ( -0.000000000000000000, -0.000000000000000000, 1.000000000000000000 ) ) ;
#74 = PRODUCT_DEFINITION_SHAPE ( 'NONE', 'NONE',  #142 ) ;
#75 = CYLINDRICAL_SURFACE ( 'NONE', #299, 0.1899999999999999745 ) ;
#76 = APPROVAL_PERSON_ORGANIZATION ( #415, #228, #97 ) ;
#77 = DIRECTION ( 'NONE',  ( -0.000000000000000000, -0.000000000000000000, 1.000000000000000000 ) ) ;
#78 = EDGE_CURVE ( 'NONE', #372, #180, #109, .T. ) ;
#79 = ORIENTED_EDGE ( 'NONE', *, *, #161, .F. ) ;
#80 = CONICAL_SURFACE ( 'NONE', #339, 0.2625000000000000111, 0.7853981633974506105 ) ;
#81 = EDGE_CURVE ( 'NONE', #309, #292, #123, .T. ) ;
#82 = VERTEX_POINT ( 'NONE', #384 ) ;
#83 = FACE_OUTER_BOUND ( 'NONE', #399, .T. ) ;
#84 = DIRECTION ( 'NONE',  ( 0.7071067811865492381, 0.000000000000000000, 0.7071067811865457964 ) ) ;
#85 = ORIENTED_EDGE ( 'NONE', *, *, #356, .F. ) ;
#86 = CARTESIAN_POINT ( 'NONE',  ( -0.2625000000000000111, 3.214697847761801830E-17, -0.1302499999999999769 ) ) ;
#87 = AXIS2_PLACEMENT_3D ( 'NONE', #416, #61, #346 ) ;
#88 = ORIENTED_EDGE ( 'NONE', *, *, #3, .F. ) ;
#89 = CARTESIAN_POINT ( 'NONE',  ( -0.1899999999999999745, 2.326828918379970872E-17, 0.1302500000000000602 ) ) ;
#90 = ORIENTED_EDGE ( 'NONE', *, *, #348, .T. ) ;
#91 = FACE_BOUND ( 'NONE', #115, .T. ) ;
#92 = VERTEX_POINT ( 'NONE', #286 ) ;
#93 = CARTESIAN_POINT ( 'NONE',  ( 0.000000000000000000, 0.000000000000000000, 0.000000000000000000 ) ) ;
#94 = EDGE_CURVE ( 'NONE', #288, #221, #368, .T. ) ;
#95 = AXIS2_PLACEMENT_3D ( 'NONE', #391, #203, #71 ) ;
#96 = DIRECTION ( 'NONE',  ( 0.000000000000000000, 0.000000000000000000, -1.000000000000000000 ) ) ;
#97 = APPROVAL_ROLE ( '' ) ;
#98 = EDGE_LOOP ( 'NONE', ( #135, #79, #52, #369 ) ) ;
#99 = DIRECTION ( 'NONE',  ( 0.000000000000000000, 0.000000000000000000, 1.000000000000000000 ) ) ;
#100 = CARTESIAN_POINT ( 'NONE',  ( 0.000000000000000000, 0.000000000000000000, 0.1375000000000000111 ) ) ;
#101 = ADVANCED_FACE ( 'NONE', ( #105 ), #414, .T. ) ;
#102 = CIRCLE ( 'NONE', #215, 0.2625000000000000111 ) ;
#103 = CARTESIAN_POINT ( 'NONE',  ( -0.1972499999999999809, 2.415615811318153475E-17, 0.1375000000000000111 ) ) ;
#104 = PERSON_AND_ORGANIZATION ( #246, #298 ) ;
#105 = FACE_OUTER_BOUND ( 'NONE', #380, .T. ) ;
#106 = DIRECTION ( 'NONE',  ( 1.000000000000000000, 0.000000000000000000, 0.000000000000000000 ) ) ;
#107 = CC_DESIGN_DATE_AND_TIME_ASSIGNMENT ( #130, #275, ( #142 ) ) ;
#108 = CARTESIAN_POINT ( 'NONE',  ( 0.000000000000000000, 0.000000000000000000, -0.1375000000000000111 ) ) ;
#109 = CIRCLE ( 'NONE', #267, 0.2625000000000000111 ) ;
#110 = DIMENSIONAL_EXPONENTS ( 1.000000000000000000, 0.000000000000000000, 0.000000000000000000, 0.000000000000000000, 0.000000000000000000, 0.000000000000000000, 0.000000000000000000 ) ;
#111 = VERTEX_POINT ( 'NONE', #208 ) ;
#112 = EDGE_CURVE ( 'NONE', #277, #434, #302, .T. ) ;
#113 = AXIS2_PLACEMENT_3D ( 'NONE', #365, #197, #435 ) ;
#114 = DIRECTION ( 'NONE',  ( 0.7071067811865441310, 8.659560562354890950E-17, -0.7071067811865507924 ) ) ;
#115 = EDGE_LOOP ( 'NONE', ( #397, #147 ) ) ;
#116 = CARTESIAN_POINT ( 'NONE',  ( 0.2552499999999999769, 3.170304401292710220E-17, 0.1375000000000000111 ) ) ;
#117 = CARTESIAN_POINT ( 'NONE',  ( 0.000000000000000000, 0.000000000000000000, 0.1302500000000000602 ) ) ;
#118 = EDGE_CURVE ( 'NONE', #405, #165, #151, .T. ) ;
#119 = ORIENTED_EDGE ( 'NONE', *, *, #94, .T. ) ;
#120 = CC_DESIGN_APPROVAL ( #228, ( #338 ) ) ;
#121 = CIRCLE ( 'NONE', #201, 0.2625000000000000111 ) ;
#122 = CARTESIAN_POINT ( 'NONE',  ( -0.1899999999999999745, 2.326828918379970872E-17, -0.1302499999999999769 ) ) ;
#123 = CIRCLE ( 'NONE', #95, 0.1899999999999999745 ) ;
#124 = ORIENTED_EDGE ( 'NONE', *, *, #356, .T. ) ;
#125 = DIRECTION ( 'NONE',  ( -0.000000000000000000, -0.000000000000000000, -1.000000000000000000 ) ) ;
#126 = DIRECTION ( 'NONE',  ( 0.000000000000000000, 0.000000000000000000, 1.000000000000000000 ) ) ;
#127 = EDGE_CURVE ( 'NONE', #292, #309, #274, .T. ) ;
#128 = FACE_OUTER_BOUND ( 'NONE', #224, .T. ) ;
#129 = AXIS2_PLACEMENT_3D ( 'NONE', #93, #99, #244 ) ;
#130 = DATE_AND_TIME ( #136, #144 ) ;
#131 = AXIS2_PLACEMENT_3D ( 'NONE', #68, #426, #39 ) ;
#132 = DIRECTION ( 'NONE',  ( 0.000000000000000000, 0.000000000000000000, 1.000000000000000000 ) ) ;
#133 =( CONVERSION_BASED_UNIT ( 'INCH', #352 ) LENGTH_UNIT ( ) NAMED_UNIT ( #110 ) );
#134 = ADVANCED_FACE ( 'NONE', ( #351 ), #23, .F. ) ;
#135 = ORIENTED_EDGE ( 'NONE', *, *, #266, .F. ) ;
#136 = CALENDAR_DATE ( 2026, 22, 8 ) ;
#137 = DIRECTION ( 'NONE',  ( -0.000000000000000000, -0.000000000000000000, -1.000000000000000000 ) ) ;
#138 = PERSON_AND_ORGANIZATION ( #246, #298 ) ;
#139 = CARTESIAN_POINT ( 'NONE',  ( 0.000000000000000000, 0.000000000000000000, -0.1302499999999999769 ) ) ;
#140 = AXIS2_PLACEMENT_3D ( 'NONE', #1, #349, #247 ) ;
#141 = DIRECTION ( 'NONE',  ( 1.000000000000000000, 0.000000000000000000, 0.000000000000000000 ) ) ;
#142 = PRODUCT_DEFINITION ( 'UNKNOWN', '', #338, #212 ) ;
#143 = CYLINDRICAL_SURFACE ( 'NONE', #145, 0.2625000000000000111 ) ;
#144 = LOCAL_TIME ( 17, 51, 22.00000000000000000, #450 ) ;
#145 = AXIS2_PLACEMENT_3D ( 'NONE', #183, #319, #106 ) ;
#146 = APPROVAL ( #359, 'UNSPECIFIED' ) ;
#147 = ORIENTED_EDGE ( 'NONE', *, *, #423, .T. ) ;
#148 = ORIENTED_EDGE ( 'NONE', *, *, #442, .F. ) ;
#149 = CARTESIAN_POINT ( 'NONE',  ( 0.000000000000000000, 0.000000000000000000, -0.1302499999999999769 ) ) ;
#150 = CC_DESIGN_SECURITY_CLASSIFICATION ( #233, ( #338 ) ) ;
#151 = CIRCLE ( 'NONE', #16, 0.1972499999999999809 ) ;
#152 = CARTESIAN_POINT ( 'NONE',  ( 0.1899999999999999745, 0.000000000000000000, 0.1302500000000000602 ) ) ;
#153 = ORIENTED_EDGE ( 'NONE', *, *, #448, .T. ) ;
#154 = DIRECTION ( 'NONE',  ( 0.000000000000000000, 0.000000000000000000, 1.000000000000000000 ) ) ;
#155 = EDGE_CURVE ( 'NONE', #434, #277, #257, .T. ) ;
#156 = ORIENTED_EDGE ( 'NONE', *, *, #118, .F. ) ;
#157 = CARTESIAN_POINT ( 'NONE',  ( 0.000000000000000000, 0.000000000000000000, -0.1375000000000000111 ) ) ;
#158 = CARTESIAN_POINT ( 'NONE',  ( 0.000000000000000000, 0.000000000000000000, 0.1302500000000000602 ) ) ;
#159 = DIRECTION ( 'NONE',  ( 0.000000000000000000, 0.000000000000000000, 1.000000000000000000 ) ) ;
#160 = CARTESIAN_POINT ( 'NONE',  ( -0.2552499999999999769, 0.000000000000000000, 0.1375000000000000111 ) ) ;
#161 = EDGE_CURVE ( 'NONE', #50, #111, #404, .T. ) ;
#162 = DIRECTION ( 'NONE',  ( -0.7071067811865492381, 8.659560562354955045E-17, 0.7071067811865459074 ) ) ;
#163 = EDGE_LOOP ( 'NONE', ( #227, #430, #438, #263 ) ) ;
#164 = DATE_AND_TIME ( #383, #8 ) ;
#165 = VERTEX_POINT ( 'NONE', #103 ) ;
#166 = EDGE_LOOP ( 'NONE', ( #62, #332, #57, #255 ) ) ;
#167 =( LENGTH_UNIT ( ) NAMED_UNIT ( * ) SI_UNIT ( $, .METRE. ) );
#168 = DIRECTION ( 'NONE',  ( 1.000000000000000000, 0.000000000000000000, 0.000000000000000000 ) ) ;
#169 = DATE_AND_TIME ( #350, #14 ) ;
#170 = CARTESIAN_POINT ( 'NONE',  ( 0.000000000000000000, 0.000000000000000000, 0.1302499999999999214 ) ) ;
#171 = APPROVAL_PERSON_ORGANIZATION ( #36, #276, #452 ) ;
#172 = CARTESIAN_POINT ( 'NONE',  ( -0.1972499999999999254, 0.000000000000000000, -0.1375000000000000111 ) ) ;
#173 = AXIS2_PLACEMENT_3D ( 'NONE', #158, #310, #269 ) ;
#174 = VECTOR ( 'NONE', #304, 39.37007874015748854 ) ;
#175 = ADVANCED_FACE ( 'NONE', ( #353 ), #80, .T. ) ;
#176 = FACE_OUTER_BOUND ( 'NONE', #166, .T. ) ;
#177 = EDGE_CURVE ( 'NONE', #277, #17, #387, .T. ) ;
#178 = VECTOR ( 'NONE', #84, 39.37007874015748143 ) ;
#179 = CIRCLE ( 'NONE', #301, 0.1972499999999999254 ) ;
#180 = VERTEX_POINT ( 'NONE', #205 ) ;
#181 = AXIS2_PLACEMENT_3D ( 'NONE', #100, #11, #451 ) ;
#182 = ORIENTED_EDGE ( 'NONE', *, *, #408, .T. ) ;
#183 = CARTESIAN_POINT ( 'NONE',  ( 0.000000000000000000, 0.000000000000000000, -0.1375000000000000111 ) ) ;
#184 = DIRECTION ( 'NONE',  ( -0.000000000000000000, -0.000000000000000000, -1.000000000000000000 ) ) ;
#185 = APPLICATION_CONTEXT ( 'configuration controlled 3d designs of mechanical parts and assemblies' ) ;
#186 = EDGE_LOOP ( 'NONE', ( #364, #393, #48, #413 ) ) ;
#187 = CC_DESIGN_PERSON_AND_ORGANIZATION_ASSIGNMENT ( #202, #446, ( #142 ) ) ;
#188 = AXIS2_PLACEMENT_3D ( 'NONE', #407, #132, #232 ) ;
#189 = DIRECTION ( 'NONE',  ( -0.000000000000000000, -0.000000000000000000, -1.000000000000000000 ) ) ;
#190 = EDGE_LOOP ( 'NONE', ( #358, #153, #230, #85 ) ) ;
#191 = CARTESIAN_POINT ( 'NONE',  ( 0.000000000000000000, 0.000000000000000000, -0.1375000000000000111 ) ) ;
#192 = ORIENTED_EDGE ( 'NONE', *, *, #392, .F. ) ;
#193 = DIRECTION ( 'NONE',  ( 1.000000000000000000, 0.000000000000000000, 0.000000000000000000 ) ) ;
#194 = ADVANCED_FACE ( 'NONE', ( #38 ), #143, .T. ) ;
#195 = FACE_OUTER_BOUND ( 'NONE', #190, .T. ) ;
#196 = AXIS2_PLACEMENT_3D ( 'NONE', #259, #335, #439 ) ;
#197 = DIRECTION ( 'NONE',  ( 0.000000000000000000, 0.000000000000000000, 1.000000000000000000 ) ) ;
#198 = LINE ( 'NONE', #160, #174 ) ;
#199 = ORIENTED_EDGE ( 'NONE', *, *, #94, .F. ) ;
#200 = DIRECTION ( 'NONE',  ( 1.000000000000000000, 0.000000000000000000, 0.000000000000000000 ) ) ;
#201 = AXIS2_PLACEMENT_3D ( 'NONE', #170, #285, #390 ) ;
#202 = PERSON_AND_ORGANIZATION ( #246, #298 ) ;
#203 = DIRECTION ( 'NONE',  ( 0.000000000000000000, 0.000000000000000000, 1.000000000000000000 ) ) ;
#204 = DIRECTION ( 'NONE',  ( 0.000000000000000000, 0.000000000000000000, 1.000000000000000000 ) ) ;
#205 = CARTESIAN_POINT ( 'NONE',  ( -0.2625000000000000111, 3.214697847761801830E-17, -0.1302499999999999769 ) ) ;
#206 = CARTESIAN_POINT ( 'NONE',  ( 0.1899999999999999745, 0.000000000000000000, -0.1375000000000000111 ) ) ;
#207 = EDGE_CURVE ( 'NONE', #92, #28, #121, .T. ) ;
#208 = CARTESIAN_POINT ( 'NONE',  ( -0.2552499999999999214, 3.170304401292710220E-17, -0.1375000000000000111 ) ) ;
#209 = DIRECTION ( 'NONE',  ( 0.000000000000000000, 0.000000000000000000, 1.000000000000000000 ) ) ;
#210 = DIRECTION ( 'NONE',  ( 1.000000000000000000, 0.000000000000000000, 0.000000000000000000 ) ) ;
#211 = ADVANCED_FACE ( 'NONE', ( #176 ), #75, .F. ) ;
#212 = DESIGN_CONTEXT ( 'detailed design', #320, 'design' ) ;
#213 = PRODUCT ( '92510A494_Aluminum Unthreaded Spacer_92510A494_sldprt', '92510A494_Aluminum Unthreaded Spacer_92510A494_sldprt', '', ( #235 ) ) ;
#214 = DATE_AND_TIME ( #287, #58 ) ;
#215 = AXIS2_PLACEMENT_3D ( 'NONE', #252, #295, #398 ) ;
#216 = ORIENTED_EDGE ( 'NONE', *, *, #428, .T. ) ;
#217 = DATE_TIME_ROLE ( 'classification_date' ) ;
#218 = EDGE_LOOP ( 'NONE', ( #199, #90, #278, #444 ) ) ;
#219 = DIRECTION ( 'NONE',  ( -1.000000000000000000, 0.000000000000000000, 0.000000000000000000 ) ) ;
#220 = EDGE_CURVE ( 'NONE', #180, #372, #102, .T. ) ;
#221 = VERTEX_POINT ( 'NONE', #18 ) ;
#222 = CARTESIAN_POINT ( 'NONE',  ( 0.1972499999999999809, 0.000000000000000000, 0.1375000000000000111 ) ) ;
#223 = CC_DESIGN_APPROVAL ( #276, ( #142 ) ) ;
#224 = EDGE_LOOP ( 'NONE', ( #431, #329, #45, #238 ) ) ;
#225 = VECTOR ( 'NONE', #126, 39.37007874015748143 ) ;
#226 = LINE ( 'NONE', #54, #377 ) ;
#227 = ORIENTED_EDGE ( 'NONE', *, *, #428, .F. ) ;
#228 = APPROVAL ( #69, 'UNSPECIFIED' ) ;
#229 = DIRECTION ( 'NONE',  ( 0.000000000000000000, 0.000000000000000000, 1.000000000000000000 ) ) ;
#230 = ORIENTED_EDGE ( 'NONE', *, *, #307, .T. ) ;
#231 = LINE ( 'NONE', #206, #43 ) ;
#232 = DIRECTION ( 'NONE',  ( 1.000000000000000000, 0.000000000000000000, 0.000000000000000000 ) ) ;
#233 = SECURITY_CLASSIFICATION ( '', '', #421 ) ;
#234 = AXIS2_PLACEMENT_3D ( 'NONE', #433, #125, #193 ) ;
#235 = MECHANICAL_CONTEXT ( 'NONE', #185, 'mechanical' ) ;
#236 = DIRECTION ( 'NONE',  ( -1.000000000000000000, 0.000000000000000000, 0.000000000000000000 ) ) ;
#237 = APPROVAL_DATE_TIME ( #169, #228 ) ;
#238 = ORIENTED_EDGE ( 'NONE', *, *, #207, .F. ) ;
#239 = APPROVAL_STATUS ( 'not_yet_approved' ) ;
#240 = DIRECTION ( 'NONE',  ( 1.000000000000000000, 0.000000000000000000, 0.000000000000000000 ) ) ;
#241 = VECTOR ( 'NONE', #114, 39.37007874015748854 ) ;
#242 = AXIS2_PLACEMENT_3D ( 'NONE', #35, #73, #240 ) ;
#243 = DIRECTION ( 'NONE',  ( 1.000000000000000000, 0.000000000000000000, 0.000000000000000000 ) ) ;
#244 = DIRECTION ( 'NONE',  ( 1.000000000000000000, 0.000000000000000000, 0.000000000000000000 ) ) ;
#245 = ADVANCED_FACE ( 'NONE', ( #83, #337 ), #367, .T. ) ;
#246 = PERSON ( 'UNSPECIFIED', 'UNSPECIFIED', 'UNSPECIFIED', ('UNSPECIFIED'), ('UNSPECIFIED'), ('UNSPECIFIED') ) ;
#247 = DIRECTION ( 'NONE',  ( 1.000000000000000000, 0.000000000000000000, 0.000000000000000000 ) ) ;
#248 = APPROVAL_DATE_TIME ( #429, #146 ) ;
#249 = CARTESIAN_POINT ( 'NONE',  ( 0.000000000000000000, 0.000000000000000000, -0.1375000000000000111 ) ) ;
#250 = AXIS2_PLACEMENT_3D ( 'NONE', #157, #189, #333 ) ;
#251 = CLOSED_SHELL ( 'NONE', ( #291, #13, #101, #70, #21, #31, #194, #376, #211, #245, #63, #175, #326, #134 ) ) ;
#252 = CARTESIAN_POINT ( 'NONE',  ( 0.000000000000000000, 0.000000000000000000, -0.1302499999999999769 ) ) ;
#253 = PERSON_AND_ORGANIZATION ( #246, #298 ) ;
#254 = PRODUCT_RELATED_PRODUCT_CATEGORY ( 'detail', '', ( #213 ) ) ;
#255 = ORIENTED_EDGE ( 'NONE', *, *, #127, .T. ) ;
#256 = VECTOR ( 'NONE', #305, 39.37007874015748143 ) ;
#257 = CIRCLE ( 'NONE', #396, 0.1899999999999999745 ) ;
#258 = EDGE_LOOP ( 'NONE', ( #334, #382, #436, #148 ) ) ;
#259 = CARTESIAN_POINT ( 'NONE',  ( 0.000000000000000000, 0.000000000000000000, 0.1375000000000000111 ) ) ;
#260 = EDGE_CURVE ( 'NONE', #50, #372, #49, .T. ) ;
#261 = ORIENTED_EDGE ( 'NONE', *, *, #155, .F. ) ;
#262 = FACE_OUTER_BOUND ( 'NONE', #65, .T. ) ;
#263 = ORIENTED_EDGE ( 'NONE', *, *, #343, .F. ) ;
#264 = PLANE ( 'NONE',  #323 ) ;
#265 = ORIENTED_EDGE ( 'NONE', *, *, #81, .F. ) ;
#266 = EDGE_CURVE ( 'NONE', #111, #180, #27, .T. ) ;
#267 = AXIS2_PLACEMENT_3D ( 'NONE', #149, #328, #168 ) ;
#268 = LINE ( 'NONE', #409, #241 ) ;
#269 = DIRECTION ( 'NONE',  ( 1.000000000000000000, 0.000000000000000000, 0.000000000000000000 ) ) ;
#270 = DIRECTION ( 'NONE',  ( 1.000000000000000000, 0.000000000000000000, 0.000000000000000000 ) ) ;
#271 = CARTESIAN_POINT ( 'NONE',  ( 0.2552499999999999214, 0.000000000000000000, -0.1375000000000000111 ) ) ;
#272 =( NAMED_UNIT ( * ) SI_UNIT ( $, .STERADIAN. ) SOLID_ANGLE_UNIT ( ) );
#273 = CARTESIAN_POINT ( 'NONE',  ( 0.000000000000000000, 0.000000000000000000, 0.1375000000000000111 ) ) ;
#274 = CIRCLE ( 'NONE', #131, 0.1899999999999999745 ) ;
#275 = DATE_TIME_ROLE ( 'creation_date' ) ;
#276 = APPROVAL ( #239, 'UNSPECIFIED' ) ;
#277 = VERTEX_POINT ( 'NONE', #122 ) ;
#278 = ORIENTED_EDGE ( 'NONE', *, *, #307, .F. ) ;
#279 = LINE ( 'NONE', #344, #256 ) ;
#280 = DIRECTION ( 'NONE',  ( -0.000000000000000000, -0.000000000000000000, -1.000000000000000000 ) ) ;
#281 = CC_DESIGN_PERSON_AND_ORGANIZATION_ASSIGNMENT ( #381, #283, ( #338 ) ) ;
#282 = AXIS2_PLACEMENT_3D ( 'NONE', #249, #280, #321 ) ;
#283 = PERSON_AND_ORGANIZATION_ROLE ( 'design_supplier' ) ;
#284 = DIRECTION ( 'NONE',  ( -0.7071067811865424657, 0.000000000000000000, -0.7071067811865524577 ) ) ;
#285 = DIRECTION ( 'NONE',  ( 0.000000000000000000, 0.000000000000000000, -1.000000000000000000 ) ) ;
#286 = CARTESIAN_POINT ( 'NONE',  ( 0.2625000000000000111, 0.000000000000000000, 0.1302499999999999214 ) ) ;
#287 = CALENDAR_DATE ( 2026, 22, 8 ) ;
#288 = VERTEX_POINT ( 'NONE', #116 ) ;
#289 = UNCERTAINTY_MEASURE_WITH_UNIT (LENGTH_MEASURE( 1.000000000000000082E-05 ), #133, 'distance_accuracy_value', 'NONE');
#290 = ORIENTED_EDGE ( 'NONE', *, *, #408, .F. ) ;
#291 = ADVANCED_FACE ( 'NONE', ( #437 ), #360, .F. ) ;
#292 = VERTEX_POINT ( 'NONE', #152 ) ;
#293 = AXIS2_PLACEMENT_3D ( 'NONE', #273, #96, #236 ) ;
#294 = DIRECTION ( 'NONE',  ( 1.000000000000000000, 0.000000000000000000, 0.000000000000000000 ) ) ;
#295 = DIRECTION ( 'NONE',  ( -0.000000000000000000, -0.000000000000000000, 1.000000000000000000 ) ) ;
#296 = ORIENTED_EDGE ( 'NONE', *, *, #161, .T. ) ;
#297 = CARTESIAN_POINT ( 'NONE',  ( 0.1899999999999999745, 0.000000000000000000, 0.1302500000000000602 ) ) ;
#298 = ORGANIZATION ( 'UNSPECIFIED', 'UNSPECIFIED', '' ) ;
#299 = AXIS2_PLACEMENT_3D ( 'NONE', #108, #209, #355 ) ;
#300 = CYLINDRICAL_SURFACE ( 'NONE', #188, 0.1899999999999999745 ) ;
#301 = AXIS2_PLACEMENT_3D ( 'NONE', #33, #22, #200 ) ;
#302 = CIRCLE ( 'NONE', #140, 0.1899999999999999745 ) ;
#303 = DIRECTION ( 'NONE',  ( -0.7071067811865492381, 8.659560562354953812E-17, 0.7071067811865457964 ) ) ;
#304 = DIRECTION ( 'NONE',  ( -0.7071067811865441310, 0.000000000000000000, -0.7071067811865507924 ) ) ;
#305 = DIRECTION ( 'NONE',  ( 0.000000000000000000, 0.000000000000000000, 1.000000000000000000 ) ) ;
#306 = FACE_OUTER_BOUND ( 'NONE', #258, .T. ) ;
#307 = EDGE_CURVE ( 'NONE', #28, #92, #41, .T. ) ;
#308 = PERSON_AND_ORGANIZATION ( #246, #298 ) ;
#309 = VERTEX_POINT ( 'NONE', #89 ) ;
#310 = DIRECTION ( 'NONE',  ( 0.000000000000000000, 0.000000000000000000, 1.000000000000000000 ) ) ;
#311 = CC_DESIGN_PERSON_AND_ORGANIZATION_ASSIGNMENT ( #308, #34, ( #213 ) ) ;
#312 = FACE_OUTER_BOUND ( 'NONE', #218, .T. ) ;
#313 = PERSON_AND_ORGANIZATION_ROLE ( 'creator' ) ;
#314 = DIRECTION ( 'NONE',  ( -1.000000000000000000, 0.000000000000000000, 0.000000000000000000 ) ) ;
#315 = APPROVAL_PERSON_ORGANIZATION ( #253, #146, #425 ) ;
#316 = CIRCLE ( 'NONE', #113, 0.2552499999999999769 ) ;
#317 = CONICAL_SURFACE ( 'NONE', #173, 0.1899999999999999745, 0.7853981633974506105 ) ;
#318 = AXIS2_PLACEMENT_3D ( 'NONE', #5, #46, #314 ) ;
#319 = DIRECTION ( 'NONE',  ( 0.000000000000000000, 0.000000000000000000, 1.000000000000000000 ) ) ;
#320 = APPLICATION_CONTEXT ( 'configuration controlled 3d designs of mechanical parts and assemblies' ) ;
#321 = DIRECTION ( 'NONE',  ( -1.000000000000000000, 0.000000000000000000, 0.000000000000000000 ) ) ;
#322 = CC_DESIGN_DATE_AND_TIME_ASSIGNMENT ( #214, #217, ( #233 ) ) ;
#323 = AXIS2_PLACEMENT_3D ( 'NONE', #20, #229, #400 ) ;
#324 = CONICAL_SURFACE ( 'NONE', #318, 0.2552499999999999769, 0.7853981633974437271 ) ;
#325 = ORIENTED_EDGE ( 'NONE', *, *, #266, .T. ) ;
#326 = ADVANCED_FACE ( 'NONE', ( #24 ), #420, .F. ) ;
#327 = EDGE_LOOP ( 'NONE', ( #265, #216, #156, #192 ) ) ;
#328 = DIRECTION ( 'NONE',  ( -0.000000000000000000, -0.000000000000000000, 1.000000000000000000 ) ) ;
#329 = ORIENTED_EDGE ( 'NONE', *, *, #361, .F. ) ;
#330 = CARTESIAN_POINT ( 'NONE',  ( 0.2625000000000000111, 0.000000000000000000, -0.1302499999999999769 ) ) ;
#331 = CONICAL_SURFACE ( 'NONE', #293, 0.2552499999999999769, 0.7853981633974437271 ) ;
#332 = ORIENTED_EDGE ( 'NONE', *, *, #112, .T. ) ;
#333 = DIRECTION ( 'NONE',  ( 1.000000000000000000, 0.000000000000000000, 0.000000000000000000 ) ) ;
#334 = ORIENTED_EDGE ( 'NONE', *, *, #155, .T. ) ;
#335 = DIRECTION ( 'NONE',  ( 0.000000000000000000, 0.000000000000000000, 1.000000000000000000 ) ) ;
#336 = ORIENTED_EDGE ( 'NONE', *, *, #177, .F. ) ;
#337 = FACE_BOUND ( 'NONE', #55, .T. ) ;
#338 = PRODUCT_DEFINITION_FORMATION_WITH_SPECIFIED_SOURCE ( 'ANY', '', #213, .NOT_KNOWN. ) ;
#339 = AXIS2_PLACEMENT_3D ( 'NONE', #389, #77, #243 ) ;
#340 = LINE ( 'NONE', #26, #225 ) ;
#341 = CARTESIAN_POINT ( 'NONE',  ( 0.2625000000000000111, 0.000000000000000000, -0.1302499999999999769 ) ) ;
#342 = LINE ( 'NONE', #410, #42 ) ;
#343 = EDGE_CURVE ( 'NONE', #165, #405, #67, .T. ) ;
#344 = CARTESIAN_POINT ( 'NONE',  ( -0.2625000000000000111, 3.214697847761801830E-17, -0.1375000000000000111 ) ) ;
#345 = ORIENTED_EDGE ( 'NONE', *, *, #220, .T. ) ;
#346 = DIRECTION ( 'NONE',  ( 1.000000000000000000, 0.000000000000000000, 0.000000000000000000 ) ) ;
#347 = VECTOR ( 'NONE', #284, 39.37007874015748854 ) ;
#348 = EDGE_CURVE ( 'NONE', #288, #92, #268, .T. ) ;
#349 = DIRECTION ( 'NONE',  ( -0.000000000000000000, -0.000000000000000000, -1.000000000000000000 ) ) ;
#350 = CALENDAR_DATE ( 2026, 22, 8 ) ;
#351 = FACE_OUTER_BOUND ( 'NONE', #186, .T. ) ;
#352 = LENGTH_MEASURE_WITH_UNIT ( LENGTH_MEASURE( 0.02539999999999999897 ), #167 );
#353 = FACE_OUTER_BOUND ( 'NONE', #98, .T. ) ;
#354 = CIRCLE ( 'NONE', #427, 0.1972499999999999254 ) ;
#355 = DIRECTION ( 'NONE',  ( 1.000000000000000000, 0.000000000000000000, 0.000000000000000000 ) ) ;
#356 = EDGE_CURVE ( 'NONE', #372, #92, #371, .T. ) ;
#357 = DIRECTION ( 'NONE',  ( -0.000000000000000000, -0.000000000000000000, -1.000000000000000000 ) ) ;
#358 = ORIENTED_EDGE ( 'NONE', *, *, #78, .T. ) ;
#359 = APPROVAL_STATUS ( 'not_yet_approved' ) ;
#360 = CONICAL_SURFACE ( 'NONE', #9, 0.1972499999999999254, 0.7853981633974412846 ) ;
#361 = EDGE_CURVE ( 'NONE', #221, #288, #316, .T. ) ;
#362 = ORIENTED_EDGE ( 'NONE', *, *, #343, .T. ) ;
#363 = COORDINATED_UNIVERSAL_TIME_OFFSET ( 8, 0, .BEHIND. ) ;
#364 = ORIENTED_EDGE ( 'NONE', *, *, #53, .F. ) ;
#365 = CARTESIAN_POINT ( 'NONE',  ( 0.000000000000000000, 0.000000000000000000, 0.1375000000000000111 ) ) ;
#366 = ORIENTED_EDGE ( 'NONE', *, *, #361, .T. ) ;
#367 = PLANE ( 'NONE',  #196 ) ;
#368 = CIRCLE ( 'NONE', #181, 0.2552499999999999769 ) ;
#369 = ORIENTED_EDGE ( 'NONE', *, *, #220, .F. ) ;
#370 = CC_DESIGN_PERSON_AND_ORGANIZATION_ASSIGNMENT ( #104, #72, ( #233 ) ) ;
#371 = LINE ( 'NONE', #375, #60 ) ;
#372 = VERTEX_POINT ( 'NONE', #341 ) ;
#373 = CARTESIAN_POINT ( 'NONE',  ( 0.000000000000000000, 0.000000000000000000, -0.1375000000000000111 ) ) ;
#374 = CARTESIAN_POINT ( 'NONE',  ( -0.1972499999999999254, 0.000000000000000000, -0.1375000000000000111 ) ) ;
#375 = CARTESIAN_POINT ( 'NONE',  ( 0.2625000000000000111, 0.000000000000000000, -0.1375000000000000111 ) ) ;
#376 = ADVANCED_FACE ( 'NONE', ( #262, #91 ), #264, .F. ) ;
#377 = VECTOR ( 'NONE', #303, 39.37007874015748143 ) ;
#378 = VECTOR ( 'NONE', #162, 39.37007874015748143 ) ;
#379 = CARTESIAN_POINT ( 'NONE',  ( -0.2625000000000000111, 3.214697847761801830E-17, 0.1302499999999999214 ) ) ;
#380 = EDGE_LOOP ( 'NONE', ( #290, #325, #30, #44 ) ) ;
#381 = PERSON_AND_ORGANIZATION ( #246, #298 ) ;
#382 = ORIENTED_EDGE ( 'NONE', *, *, #37, .T. ) ;
#383 = CALENDAR_DATE ( 2026, 22, 8 ) ;
#384 = CARTESIAN_POINT ( 'NONE',  ( 0.1972499999999999254, 2.415615811318153166E-17, -0.1375000000000000111 ) ) ;
#385 = AXIS2_PLACEMENT_3D ( 'NONE', #422, #357, #419 ) ;
#386 = APPLICATION_PROTOCOL_DEFINITION ( 'international standard', 'config_control_design', 1994, #320 ) ;
#387 = LINE ( 'NONE', #172, #347 ) ;
#388 = COORDINATED_UNIVERSAL_TIME_OFFSET ( 8, 0, .BEHIND. ) ;
#389 = CARTESIAN_POINT ( 'NONE',  ( 0.000000000000000000, 0.000000000000000000, -0.1302499999999999769 ) ) ;
#390 = DIRECTION ( 'NONE',  ( 1.000000000000000000, 0.000000000000000000, 0.000000000000000000 ) ) ;
#391 = CARTESIAN_POINT ( 'NONE',  ( 0.000000000000000000, 0.000000000000000000, 0.1302500000000000602 ) ) ;
#392 = EDGE_CURVE ( 'NONE', #292, #405, #51, .T. ) ;
#393 = ORIENTED_EDGE ( 'NONE', *, *, #112, .F. ) ;
#394 = CALENDAR_DATE ( 2026, 22, 8 ) ;
#395 =( GEOMETRIC_REPRESENTATION_CONTEXT ( 3 ) GLOBAL_UNCERTAINTY_ASSIGNED_CONTEXT ( ( #289 ) ) GLOBAL_UNIT_ASSIGNED_CONTEXT ( ( #133, #412, #272 ) ) REPRESENTATION_CONTEXT ( 'NONE', 'WORKASPACE' ) );
#396 = AXIS2_PLACEMENT_3D ( 'NONE', #139, #4, #210 ) ;
#397 = ORIENTED_EDGE ( 'NONE', *, *, #3, .T. ) ;
#398 = DIRECTION ( 'NONE',  ( 1.000000000000000000, 0.000000000000000000, 0.000000000000000000 ) ) ;
#399 = EDGE_LOOP ( 'NONE', ( #366, #119 ) ) ;
#400 = DIRECTION ( 'NONE',  ( 1.000000000000000000, 0.000000000000000000, -0.000000000000000000 ) ) ;
#401 = CC_DESIGN_PERSON_AND_ORGANIZATION_ASSIGNMENT ( #138, #313, ( #338 ) ) ;
#402 = ORIENTED_EDGE ( 'NONE', *, *, #53, .T. ) ;
#403 = DIRECTION ( 'NONE',  ( 1.000000000000000000, 0.000000000000000000, 0.000000000000000000 ) ) ;
#404 = CIRCLE ( 'NONE', #385, 0.2552499999999999214 ) ;
#405 = VERTEX_POINT ( 'NONE', #222 ) ;
#406 = DIRECTION ( 'NONE',  ( 0.000000000000000000, 0.000000000000000000, -1.000000000000000000 ) ) ;
#407 = CARTESIAN_POINT ( 'NONE',  ( 0.000000000000000000, 0.000000000000000000, -0.1375000000000000111 ) ) ;
#408 = EDGE_CURVE ( 'NONE', #111, #50, #440, .T. ) ;
#409 = CARTESIAN_POINT ( 'NONE',  ( 0.2552499999999999769, 3.125910954823618611E-17, 0.1375000000000000111 ) ) ;
#410 = CARTESIAN_POINT ( 'NONE',  ( 0.1972499999999999254, 2.415615811318153166E-17, -0.1375000000000000111 ) ) ;
#411 = ADVANCED_BREP_SHAPE_REPRESENTATION ( '92510A494_Aluminum Unthreaded Spacer_92510A494_sldprt', ( #7, #129 ), #395 ) ;
#412 =( NAMED_UNIT ( * ) PLANE_ANGLE_UNIT ( ) SI_UNIT ( $, .RADIAN. ) );
#413 = ORIENTED_EDGE ( 'NONE', *, *, #423, .F. ) ;
#414 = CONICAL_SURFACE ( 'NONE', #242, 0.2625000000000000111, 0.7853981633974506105 ) ;
#415 = PERSON_AND_ORGANIZATION ( #246, #298 ) ;
#416 = CARTESIAN_POINT ( 'NONE',  ( 0.000000000000000000, 0.000000000000000000, -0.1375000000000000111 ) ) ;
#417 = APPLICATION_PROTOCOL_DEFINITION ( 'international standard', 'config_control_design', 1994, #185 ) ;
#418 = ORIENTED_EDGE ( 'NONE', *, *, #448, .F. ) ;
#419 = DIRECTION ( 'NONE',  ( 1.000000000000000000, 0.000000000000000000, 0.000000000000000000 ) ) ;
#420 = CONICAL_SURFACE ( 'NONE', #25, 0.1899999999999999745, 0.7853981633974506105 ) ;
#421 = SECURITY_CLASSIFICATION_LEVEL ( 'unclassified' ) ;
#422 = CARTESIAN_POINT ( 'NONE',  ( 0.000000000000000000, 0.000000000000000000, -0.1375000000000000111 ) ) ;
#423 = EDGE_CURVE ( 'NONE', #82, #17, #354, .T. ) ;
#424 = CARTESIAN_POINT ( 'NONE',  ( 0.000000000000000000, 0.000000000000000000, 0.1375000000000000111 ) ) ;
#425 = APPROVAL_ROLE ( '' ) ;
#426 = DIRECTION ( 'NONE',  ( 0.000000000000000000, 0.000000000000000000, 1.000000000000000000 ) ) ;
#427 = AXIS2_PLACEMENT_3D ( 'NONE', #373, #154, #403 ) ;
#428 = EDGE_CURVE ( 'NONE', #309, #165, #226, .T. ) ;
#429 = DATE_AND_TIME ( #394, #32 ) ;
#430 = ORIENTED_EDGE ( 'NONE', *, *, #127, .F. ) ;
#431 = ORIENTED_EDGE ( 'NONE', *, *, #348, .F. ) ;
#432 = AXIS2_PLACEMENT_3D ( 'NONE', #59, #406, #294 ) ;
#433 = CARTESIAN_POINT ( 'NONE',  ( 0.000000000000000000, 0.000000000000000000, 0.1375000000000000111 ) ) ;
#434 = VERTEX_POINT ( 'NONE', #443 ) ;
#435 = DIRECTION ( 'NONE',  ( 1.000000000000000000, 0.000000000000000000, 0.000000000000000000 ) ) ;
#436 = ORIENTED_EDGE ( 'NONE', *, *, #81, .T. ) ;
#437 = FACE_OUTER_BOUND ( 'NONE', #449, .T. ) ;
#438 = ORIENTED_EDGE ( 'NONE', *, *, #392, .T. ) ;
#439 = DIRECTION ( 'NONE',  ( 1.000000000000000000, 0.000000000000000000, -0.000000000000000000 ) ) ;
#440 = CIRCLE ( 'NONE', #250, 0.2552499999999999214 ) ;
#441 = FACE_OUTER_BOUND ( 'NONE', #327, .T. ) ;
#442 = EDGE_CURVE ( 'NONE', #434, #292, #231, .T. ) ;
#443 = CARTESIAN_POINT ( 'NONE',  ( 0.1899999999999999745, 0.000000000000000000, -0.1302499999999999769 ) ) ;
#444 = ORIENTED_EDGE ( 'NONE', *, *, #47, .F. ) ;
#445 = DIRECTION ( 'NONE',  ( 0.7071067811865424657, 8.659560562354872461E-17, -0.7071067811865524577 ) ) ;
#446 = PERSON_AND_ORGANIZATION_ROLE ( 'creator' ) ;
#447 = CYLINDRICAL_SURFACE ( 'NONE', #87, 0.2625000000000000111 ) ;
#448 = EDGE_CURVE ( 'NONE', #180, #28, #279, .T. ) ;
#449 = EDGE_LOOP ( 'NONE', ( #261, #402, #88, #336 ) ) ;
#450 = COORDINATED_UNIVERSAL_TIME_OFFSET ( 8, 0, .BEHIND. ) ;
#451 = DIRECTION ( 'NONE',  ( 1.000000000000000000, 0.000000000000000000, 0.000000000000000000 ) ) ;
#452 = APPROVAL_ROLE ( '' ) ;
ENDSEC;
END-ISO-10303-21;
