ISO-10303-21;
HEADER;
FILE_DESCRIPTION (( 'STEP AP203' ),
    '1' );
FILE_NAME ('93413A312_Black Super-Corrosion-Resistant-Coated Steel Washer_93413A312_sldprt.STEP',
    '2026-08-23T00:51:23',
    ( '' ),
    ( '' ),
    'SwSTEP 2.0',
    'SolidWorks 2025',
    '' );
FILE_SCHEMA (( 'CONFIG_CONTROL_DESIGN' ));
ENDSEC;

DATA;
#1 = PRODUCT_DEFINITION_SHAPE ( 'NONE', 'NONE',  #104 ) ;
#2 = ORIENTED_EDGE ( 'NONE', *, *, #326, .T. ) ;
#3 = VECTOR ( 'NONE', #79, 39.37007874015748143 ) ;
#4 = AXIS2_PLACEMENT_3D ( 'NONE', #36, #265, #268 ) ;
#5 = EDGE_LOOP ( 'NONE', ( #2, #153 ) ) ;
#6 = DIRECTION ( 'NONE',  ( 0.000000000000000000, 0.000000000000000000, 1.000000000000000000 ) ) ;
#7 = CALENDAR_DATE ( 2026, 22, 8 ) ;
#8 = ORIENTED_EDGE ( 'NONE', *, *, #200, .T. ) ;
#9 = AXIS2_PLACEMENT_3D ( 'NONE', #59, #291, #313 ) ;
#10 = CARTESIAN_POINT ( 'NONE',  ( 0.000000000000000000, 0.000000000000000000, 0.03999999999999995920 ) ) ;
#11 = AXIS2_PLACEMENT_3D ( 'NONE', #98, #320, #355 ) ;
#12 = ORIENTED_EDGE ( 'NONE', *, *, #163, .T. ) ;
#13 = COORDINATED_UNIVERSAL_TIME_OFFSET ( 8, 0, .BEHIND. ) ;
#14 = EDGE_CURVE ( 'NONE', #214, #217, #168, .T. ) ;
#15 = DIRECTION ( 'NONE',  ( 0.000000000000000000, 0.000000000000000000, 1.000000000000000000 ) ) ;
#16 = CARTESIAN_POINT ( 'NONE',  ( 0.000000000000000000, 0.000000000000000000, -0.05000000000000003747 ) ) ;
#17 = ADVANCED_FACE ( 'NONE', ( #127 ), #295, .T. ) ;
#18 = CARTESIAN_POINT ( 'NONE',  ( 0.000000000000000000, 0.000000000000000000, -0.05000000000000003747 ) ) ;
#19 = DATE_AND_TIME ( #93, #23 ) ;
#20 =( NAMED_UNIT ( * ) SI_UNIT ( $, .STERADIAN. ) SOLID_ANGLE_UNIT ( ) );
#21 = FACE_OUTER_BOUND ( 'NONE', #303, .T. ) ;
#22 = EDGE_CURVE ( 'NONE', #217, #214, #53, .T. ) ;
#23 = LOCAL_TIME ( 17, 51, 23.00000000000000000, #13 ) ;
#24 = CARTESIAN_POINT ( 'NONE',  ( -0.4375000000000000000, 5.357829746269670127E-17, -0.05000000000000003747 ) ) ;
#25 = ADVANCED_FACE ( 'NONE', ( #126 ), #250, .F. ) ;
#26 = EDGE_LOOP ( 'NONE', ( #252, #123 ) ) ;
#27 = AXIS2_PLACEMENT_3D ( 'NONE', #16, #112, #260 ) ;
#28 = DIRECTION ( 'NONE',  ( -0.000000000000000000, -0.000000000000000000, -1.000000000000000000 ) ) ;
#29 = ORIENTED_EDGE ( 'NONE', *, *, #46, .F. ) ;
#30 = ORIENTED_EDGE ( 'NONE', *, *, #137, .T. ) ;
#31 = EDGE_CURVE ( 'NONE', #157, #50, #222, .T. ) ;
#32 = CARTESIAN_POINT ( 'NONE',  ( 0.000000000000000000, 0.000000000000000000, -0.05000000000000003747 ) ) ;
#33 = DIRECTION ( 'NONE',  ( -1.000000000000000000, 1.224646799147354933E-16, 0.000000000000000000 ) ) ;
#34 = DIRECTION ( 'NONE',  ( 1.000000000000000000, 0.000000000000000000, 0.000000000000000000 ) ) ;
#35 = DIRECTION ( 'NONE',  ( 0.000000000000000000, 0.000000000000000000, 1.000000000000000000 ) ) ;
#36 = CARTESIAN_POINT ( 'NONE',  ( 0.000000000000000000, 0.000000000000000000, 0.04999999999999996808 ) ) ;
#37 = AXIS2_PLACEMENT_3D ( 'NONE', #18, #15, #87 ) ;
#38 = LENGTH_MEASURE_WITH_UNIT ( LENGTH_MEASURE( 0.02539999999999999897 ), #270 );
#39 = ORIENTED_EDGE ( 'NONE', *, *, #221, .T. ) ;
#40 = AXIS2_PLACEMENT_3D ( 'NONE', #203, #139, #289 ) ;
#41 = DIRECTION ( 'NONE',  ( 0.000000000000000000, 0.000000000000000000, 1.000000000000000000 ) ) ;
#42 = DIRECTION ( 'NONE',  ( 0.000000000000000000, 0.000000000000000000, 1.000000000000000000 ) ) ;
#43 = PLANE ( 'NONE',  #324 ) ;
#44 = CIRCLE ( 'NONE', #119, 0.009999999999999995004 ) ;
#45 = ORIENTED_EDGE ( 'NONE', *, *, #121, .T. ) ;
#46 = EDGE_CURVE ( 'NONE', #349, #337, #106, .T. ) ;
#47 = CARTESIAN_POINT ( 'NONE',  ( 0.4375000000000000000, 0.000000000000000000, -0.05000000000000003747 ) ) ;
#48 = ORIENTED_EDGE ( 'NONE', *, *, #31, .T. ) ;
#49 = DIRECTION ( 'NONE',  ( 0.000000000000000000, 0.000000000000000000, 1.000000000000000000 ) ) ;
#50 = VERTEX_POINT ( 'NONE', #107 ) ;
#51 = COORDINATED_UNIVERSAL_TIME_OFFSET ( 8, 0, .BEHIND. ) ;
#52 = DIRECTION ( 'NONE',  ( 0.000000000000000000, 0.000000000000000000, 1.000000000000000000 ) ) ;
#53 = CIRCLE ( 'NONE', #266, 0.4375000000000000000 ) ;
#54 = VERTEX_POINT ( 'NONE', #134 ) ;
#55 = PERSON_AND_ORGANIZATION ( #356, #116 ) ;
#56 = DIRECTION ( 'NONE',  ( 0.000000000000000000, 0.000000000000000000, 1.000000000000000000 ) ) ;
#57 = AXIS2_PLACEMENT_3D ( 'NONE', #140, #339, #85 ) ;
#58 = PERSON_AND_ORGANIZATION ( #356, #116 ) ;
#59 = CARTESIAN_POINT ( 'NONE',  ( 0.000000000000000000, 0.000000000000000000, 0.04999999999999996808 ) ) ;
#60 = DIRECTION ( 'NONE',  ( 1.000000000000000000, 0.000000000000000000, 0.000000000000000000 ) ) ;
#61 = CARTESIAN_POINT ( 'NONE',  ( 0.000000000000000000, 0.000000000000000000, 0.03999999999999995920 ) ) ;
#62 = AXIS2_PLACEMENT_3D ( 'NONE', #198, #167, #60 ) ;
#63 = CARTESIAN_POINT ( 'NONE',  ( -0.4375000000000000000, 5.357829746269670127E-17, -0.05000000000000003747 ) ) ;
#64 = SHAPE_DEFINITION_REPRESENTATION ( #1, #131 ) ;
#65 = DIRECTION ( 'NONE',  ( 0.000000000000000000, 0.000000000000000000, 1.000000000000000000 ) ) ;
#66 = EDGE_LOOP ( 'NONE', ( #45, #39 ) ) ;
#67 = AXIS2_PLACEMENT_3D ( 'NONE', #10, #28, #73 ) ;
#68 = ORIENTED_EDGE ( 'NONE', *, *, #285, .T. ) ;
#69 = DIRECTION ( 'NONE',  ( 1.000000000000000000, 0.000000000000000000, 0.000000000000000000 ) ) ;
#70 = VERTEX_POINT ( 'NONE', #317 ) ;
#71 = CYLINDRICAL_SURFACE ( 'NONE', #304, 0.1875000000000000278 ) ;
#72 = EDGE_LOOP ( 'NONE', ( #12, #180 ) ) ;
#73 = DIRECTION ( 'NONE',  ( 1.000000000000000000, 0.000000000000000000, 0.000000000000000000 ) ) ;
#74 = CC_DESIGN_DATE_AND_TIME_ASSIGNMENT ( #166, #347, ( #275 ) ) ;
#75 = CARTESIAN_POINT ( 'NONE',  ( 0.000000000000000000, 0.000000000000000000, 0.03999999999999995920 ) ) ;
#76 = CLOSED_SHELL ( 'NONE', ( #189, #17, #344, #269, #301, #318, #330, #25, #216, #195 ) ) ;
#77 = DATE_AND_TIME ( #7, #242 ) ;
#78 = CC_DESIGN_APPROVAL ( #340, ( #104 ) ) ;
#79 = DIRECTION ( 'NONE',  ( 0.000000000000000000, 0.000000000000000000, 1.000000000000000000 ) ) ;
#80 = DIRECTION ( 'NONE',  ( 1.000000000000000000, 0.000000000000000000, 0.000000000000000000 ) ) ;
#81 = CC_DESIGN_PERSON_AND_ORGANIZATION_ASSIGNMENT ( #262, #142, ( #336 ) ) ;
#82 = DATE_AND_TIME ( #338, #290 ) ;
#83 = CARTESIAN_POINT ( 'NONE',  ( -0.1975000000000000089, 2.418677428316022775E-17, 0.03999999999999995920 ) ) ;
#84 = TOROIDAL_SURFACE ( 'NONE', #130, 0.1975000000000000089, 0.01000000000000000021 ) ;
#85 = DIRECTION ( 'NONE',  ( 1.000000000000000000, 0.000000000000000000, 0.000000000000000000 ) ) ;
#86 = VECTOR ( 'NONE', #89, 39.37007874015748143 ) ;
#87 = DIRECTION ( 'NONE',  ( 1.000000000000000000, 0.000000000000000000, 0.000000000000000000 ) ) ;
#88 = DESIGN_CONTEXT ( 'detailed design', #277, 'design' ) ;
#89 = DIRECTION ( 'NONE',  ( 0.000000000000000000, 0.000000000000000000, 1.000000000000000000 ) ) ;
#90 = CARTESIAN_POINT ( 'NONE',  ( 0.1975000000000000089, 0.000000000000000000, 0.03999999999999995920 ) ) ;
#91 = CC_DESIGN_APPROVAL ( #249, ( #275 ) ) ;
#92 = EDGE_CURVE ( 'NONE', #105, #352, #175, .T. ) ;
#93 = CALENDAR_DATE ( 2026, 22, 8 ) ;
#94 = CYLINDRICAL_SURFACE ( 'NONE', #11, 0.4375000000000000000 ) ;
#95 = ORIENTED_EDGE ( 'NONE', *, *, #243, .F. ) ;
#96 = PERSON_AND_ORGANIZATION ( #356, #116 ) ;
#97 = ORIENTED_EDGE ( 'NONE', *, *, #163, .F. ) ;
#98 = CARTESIAN_POINT ( 'NONE',  ( 0.000000000000000000, 0.000000000000000000, -0.05000000000000003747 ) ) ;
#99 = FACE_OUTER_BOUND ( 'NONE', #26, .T. ) ;
#100 = AXIS2_PLACEMENT_3D ( 'NONE', #248, #6, #80 ) ;
#101 = VERTEX_POINT ( 'NONE', #229 ) ;
#102 = TOROIDAL_SURFACE ( 'NONE', #218, 0.1975000000000000089, 0.01000000000000000021 ) ;
#103 = EDGE_LOOP ( 'NONE', ( #245, #154, #305, #246 ) ) ;
#104 = PRODUCT_DEFINITION ( 'UNKNOWN', '', #336, #88 ) ;
#105 = VERTEX_POINT ( 'NONE', #288 ) ;
#106 = LINE ( 'NONE', #191, #3 ) ;
#107 = CARTESIAN_POINT ( 'NONE',  ( 0.4375000000000000000, 0.000000000000000000, -0.05000000000000003747 ) ) ;
#108 = DIRECTION ( 'NONE',  ( -0.000000000000000000, -0.000000000000000000, -1.000000000000000000 ) ) ;
#109 = CARTESIAN_POINT ( 'NONE',  ( 0.000000000000000000, 0.000000000000000000, 0.03999999999999995920 ) ) ;
#110 = FACE_OUTER_BOUND ( 'NONE', #255, .T. ) ;
#111 = EDGE_CURVE ( 'NONE', #54, #101, #186, .T. ) ;
#112 = DIRECTION ( 'NONE',  ( 0.000000000000000000, 0.000000000000000000, 1.000000000000000000 ) ) ;
#113 = MANIFOLD_SOLID_BREP ( 'Fillet1', #76 ) ;
#114 = APPROVAL_ROLE ( '' ) ;
#115 = DIRECTION ( 'NONE',  ( 0.000000000000000000, 0.000000000000000000, 1.000000000000000000 ) ) ;
#116 = ORGANIZATION ( 'UNSPECIFIED', 'UNSPECIFIED', '' ) ;
#117 = SECURITY_CLASSIFICATION_LEVEL ( 'unclassified' ) ;
#118 = CARTESIAN_POINT ( 'NONE',  ( 0.000000000000000000, 0.000000000000000000, 0.000000000000000000 ) ) ;
#119 = AXIS2_PLACEMENT_3D ( 'NONE', #83, #165, #33 ) ;
#120 = DIRECTION ( 'NONE',  ( 0.000000000000000000, -1.000000000000000000, 0.000000000000000000 ) ) ;
#121 = EDGE_CURVE ( 'NONE', #54, #70, #333, .T. ) ;
#122 = DIRECTION ( 'NONE',  ( 1.000000000000000000, 0.000000000000000000, -0.000000000000000000 ) ) ;
#123 = ORIENTED_EDGE ( 'NONE', *, *, #31, .F. ) ;
#124 = EDGE_LOOP ( 'NONE', ( #332, #226, #208, #133 ) ) ;
#125 = AXIS2_PLACEMENT_3D ( 'NONE', #272, #42, #69 ) ;
#126 = FACE_OUTER_BOUND ( 'NONE', #286, .T. ) ;
#127 = FACE_OUTER_BOUND ( 'NONE', #124, .T. ) ;
#128 = COORDINATED_UNIVERSAL_TIME_OFFSET ( 8, 0, .BEHIND. ) ;
#129 = ORIENTED_EDGE ( 'NONE', *, *, #14, .F. ) ;
#130 = AXIS2_PLACEMENT_3D ( 'NONE', #143, #115, #235 ) ;
#131 = ADVANCED_BREP_SHAPE_REPRESENTATION ( '93413A312_Black Super-Corrosion-Resistant-Coated Steel Washer_93413A312_sldprt', ( #113, #236 ), #188 ) ;
#132 = CC_DESIGN_SECURITY_CLASSIFICATION ( #275, ( #336 ) ) ;
#133 = ORIENTED_EDGE ( 'NONE', *, *, #285, .F. ) ;
#134 = CARTESIAN_POINT ( 'NONE',  ( 0.1975000000000000089, 0.000000000000000000, 0.04999999999999996114 ) ) ;
#135 = PRODUCT ( '93413A312_Black Super-Corrosion-Resistant-Coated Steel Washer_93413A312_sldprt', '93413A312_Black Super-Corrosion-Resistant-Coated Steel Washer_93413A312_sldprt', '', ( #178 ) ) ;
#136 = CYLINDRICAL_SURFACE ( 'NONE', #27, 0.4375000000000000000 ) ;
#137 = EDGE_CURVE ( 'NONE', #70, #337, #44, .T. ) ;
#138 = COORDINATED_UNIVERSAL_TIME_OFFSET ( 8, 0, .BEHIND. ) ;
#139 = DIRECTION ( 'NONE',  ( 1.224646799147353207E-16, 1.000000000000000000, -0.000000000000000000 ) ) ;
#140 = CARTESIAN_POINT ( 'NONE',  ( 0.000000000000000000, 0.000000000000000000, 0.03999999999999995920 ) ) ;
#141 = EDGE_CURVE ( 'NONE', #50, #157, #193, .T. ) ;
#142 = PERSON_AND_ORGANIZATION_ROLE ( 'creator' ) ;
#143 = CARTESIAN_POINT ( 'NONE',  ( 0.000000000000000000, 0.000000000000000000, 0.03999999999999995920 ) ) ;
#144 = AXIS2_PLACEMENT_3D ( 'NONE', #170, #108, #315 ) ;
#145 = APPLICATION_PROTOCOL_DEFINITION ( 'international standard', 'config_control_design', 1994, #277 ) ;
#146 = PLANE ( 'NONE',  #155 ) ;
#147 = CIRCLE ( 'NONE', #4, 0.1975000000000000089 ) ;
#148 = APPLICATION_PROTOCOL_DEFINITION ( 'international standard', 'config_control_design', 1994, #152 ) ;
#149 = DIRECTION ( 'NONE',  ( 0.000000000000000000, 0.000000000000000000, 1.000000000000000000 ) ) ;
#150 = CARTESIAN_POINT ( 'NONE',  ( 0.000000000000000000, 0.000000000000000000, 0.04999999999999996808 ) ) ;
#151 = FACE_OUTER_BOUND ( 'NONE', #5, .T. ) ;
#152 = APPLICATION_CONTEXT ( 'configuration controlled 3d designs of mechanical parts and assemblies' ) ;
#153 = ORIENTED_EDGE ( 'NONE', *, *, #92, .T. ) ;
#154 = ORIENTED_EDGE ( 'NONE', *, *, #306, .T. ) ;
#155 = AXIS2_PLACEMENT_3D ( 'NONE', #150, #274, #122 ) ;
#156 = ORIENTED_EDGE ( 'NONE', *, *, #264, .F. ) ;
#157 = VERTEX_POINT ( 'NONE', #63 ) ;
#158 = VERTEX_POINT ( 'NONE', #194 ) ;
#159 = APPROVAL_STATUS ( 'not_yet_approved' ) ;
#160 = APPROVAL_PERSON_ORGANIZATION ( #58, #340, #258 ) ;
#161 = DIRECTION ( 'NONE',  ( 0.000000000000000000, 0.000000000000000000, 1.000000000000000000 ) ) ;
#162 = APPROVAL_STATUS ( 'not_yet_approved' ) ;
#163 = EDGE_CURVE ( 'NONE', #158, #349, #251, .T. ) ;
#164 = PERSON_AND_ORGANIZATION ( #356, #116 ) ;
#165 = DIRECTION ( 'NONE',  ( 1.224646799147353207E-16, 1.000000000000000000, -0.000000000000000000 ) ) ;
#166 = DATE_AND_TIME ( #199, #202 ) ;
#167 = DIRECTION ( 'NONE',  ( 0.000000000000000000, 0.000000000000000000, 1.000000000000000000 ) ) ;
#168 = CIRCLE ( 'NONE', #67, 0.4375000000000000000 ) ;
#169 = APPROVAL_PERSON_ORGANIZATION ( #55, #312, #256 ) ;
#170 = CARTESIAN_POINT ( 'NONE',  ( 0.000000000000000000, 0.000000000000000000, 0.04999999999999996808 ) ) ;
#171 = CC_DESIGN_DATE_AND_TIME_ASSIGNMENT ( #82, #192, ( #104 ) ) ;
#172 = CARTESIAN_POINT ( 'NONE',  ( -0.4375000000000000000, 5.357829746269670127E-17, 0.03999999999999995920 ) ) ;
#173 =( CONVERSION_BASED_UNIT ( 'INCH', #38 ) LENGTH_UNIT ( ) NAMED_UNIT ( #225 ) );
#174 = ORIENTED_EDGE ( 'NONE', *, *, #279, .F. ) ;
#175 = CIRCLE ( 'NONE', #9, 0.4274999999999999356 ) ;
#176 = ORIENTED_EDGE ( 'NONE', *, *, #306, .F. ) ;
#177 = PRODUCT_RELATED_PRODUCT_CATEGORY ( 'detail', '', ( #135 ) ) ;
#178 = MECHANICAL_CONTEXT ( 'NONE', #152, 'mechanical' ) ;
#179 = FACE_OUTER_BOUND ( 'NONE', #276, .T. ) ;
#180 = ORIENTED_EDGE ( 'NONE', *, *, #243, .T. ) ;
#181 = CARTESIAN_POINT ( 'NONE',  ( 0.000000000000000000, 0.000000000000000000, -0.05000000000000003747 ) ) ;
#182 = CC_DESIGN_PERSON_AND_ORGANIZATION_ASSIGNMENT ( #204, #238, ( #275 ) ) ;
#183 = CIRCLE ( 'NONE', #125, 0.4274999999999999356 ) ;
#184 = ORIENTED_EDGE ( 'NONE', *, *, #46, .T. ) ;
#185 = DIRECTION ( 'NONE',  ( 1.000000000000000000, 0.000000000000000000, 0.000000000000000000 ) ) ;
#186 = CIRCLE ( 'NONE', #308, 0.01000000000000000021 ) ;
#187 = ORIENTED_EDGE ( 'NONE', *, *, #121, .F. ) ;
#188 =( GEOMETRIC_REPRESENTATION_CONTEXT ( 3 ) GLOBAL_UNCERTAINTY_ASSIGNED_CONTEXT ( ( #292 ) ) GLOBAL_UNIT_ASSIGNED_CONTEXT ( ( #173, #205, #20 ) ) REPRESENTATION_CONTEXT ( 'NONE', 'WORKASPACE' ) );
#189 = ADVANCED_FACE ( 'NONE', ( #231 ), #84, .T. ) ;
#190 = EDGE_LOOP ( 'NONE', ( #156, #129, #68, #297 ) ) ;
#191 = CARTESIAN_POINT ( 'NONE',  ( -0.1875000000000000278, 2.296212748401287726E-17, -0.05000000000000003747 ) ) ;
#192 = DATE_TIME_ROLE ( 'creation_date' ) ;
#193 = CIRCLE ( 'NONE', #273, 0.4375000000000000000 ) ;
#194 = CARTESIAN_POINT ( 'NONE',  ( 0.1875000000000000278, 0.000000000000000000, -0.05000000000000003747 ) ) ;
#195 = ADVANCED_FACE ( 'NONE', ( #110 ), #102, .T. ) ;
#196 = PERSON_AND_ORGANIZATION ( #356, #116 ) ;
#197 = CIRCLE ( 'NONE', #40, 0.01000000000000002970 ) ;
#198 = CARTESIAN_POINT ( 'NONE',  ( 0.000000000000000000, 0.000000000000000000, 0.03999999999999995920 ) ) ;
#199 = CALENDAR_DATE ( 2026, 22, 8 ) ;
#200 = EDGE_CURVE ( 'NONE', #337, #101, #316, .T. ) ;
#201 = DIRECTION ( 'NONE',  ( 1.000000000000000000, 0.000000000000000000, 0.000000000000000000 ) ) ;
#202 = LOCAL_TIME ( 17, 51, 23.00000000000000000, #350 ) ;
#203 = CARTESIAN_POINT ( 'NONE',  ( -0.4274999999999999356, 5.235365066354934461E-17, 0.03999999999999995920 ) ) ;
#204 = PERSON_AND_ORGANIZATION ( #356, #116 ) ;
#205 =( NAMED_UNIT ( * ) PLANE_ANGLE_UNIT ( ) SI_UNIT ( $, .RADIAN. ) );
#206 = PERSON_AND_ORGANIZATION ( #356, #116 ) ;
#207 = FACE_BOUND ( 'NONE', #66, .T. ) ;
#208 = ORIENTED_EDGE ( 'NONE', *, *, #326, .F. ) ;
#209 = EDGE_CURVE ( 'NONE', #101, #337, #310, .T. ) ;
#210 = APPROVAL_DATE_TIME ( #322, #249 ) ;
#211 = DIRECTION ( 'NONE',  ( 1.000000000000000000, 0.000000000000000000, 0.000000000000000000 ) ) ;
#212 = ORIENTED_EDGE ( 'NONE', *, *, #221, .F. ) ;
#213 = CARTESIAN_POINT ( 'NONE',  ( 0.000000000000000000, 0.000000000000000000, -0.05000000000000003747 ) ) ;
#214 = VERTEX_POINT ( 'NONE', #309 ) ;
#215 = CARTESIAN_POINT ( 'NONE',  ( -0.1875000000000000278, 2.296212748401287726E-17, 0.03999999999999995920 ) ) ;
#216 = ADVANCED_FACE ( 'NONE', ( #287 ), #353, .T. ) ;
#217 = VERTEX_POINT ( 'NONE', #172 ) ;
#218 = AXIS2_PLACEMENT_3D ( 'NONE', #109, #35, #293 ) ;
#219 = ORIENTED_EDGE ( 'NONE', *, *, #209, .F. ) ;
#220 = DIRECTION ( 'NONE',  ( 1.000000000000000000, 0.000000000000000000, 0.000000000000000000 ) ) ;
#221 = EDGE_CURVE ( 'NONE', #70, #54, #147, .T. ) ;
#222 = CIRCLE ( 'NONE', #351, 0.4375000000000000000 ) ;
#223 = DIRECTION ( 'NONE',  ( -0.000000000000000000, -0.000000000000000000, -1.000000000000000000 ) ) ;
#224 = CC_DESIGN_APPROVAL ( #312, ( #336 ) ) ;
#225 = DIMENSIONAL_EXPONENTS ( 1.000000000000000000, 0.000000000000000000, 0.000000000000000000, 0.000000000000000000, 0.000000000000000000, 0.000000000000000000, 0.000000000000000000 ) ;
#226 = ORIENTED_EDGE ( 'NONE', *, *, #264, .T. ) ;
#227 = PERSON_AND_ORGANIZATION_ROLE ( 'creator' ) ;
#228 = CARTESIAN_POINT ( 'NONE',  ( 0.000000000000000000, 0.000000000000000000, -0.05000000000000003747 ) ) ;
#229 = CARTESIAN_POINT ( 'NONE',  ( 0.1875000000000000278, 0.000000000000000000, 0.03999999999999995920 ) ) ;
#230 = AXIS2_PLACEMENT_3D ( 'NONE', #32, #311, #345 ) ;
#231 = FACE_OUTER_BOUND ( 'NONE', #321, .T. ) ;
#232 = CC_DESIGN_PERSON_AND_ORGANIZATION_ASSIGNMENT ( #164, #227, ( #104 ) ) ;
#233 = LINE ( 'NONE', #343, #86 ) ;
#234 = AXIS2_PLACEMENT_3D ( 'NONE', #75, #49, #185 ) ;
#235 = DIRECTION ( 'NONE',  ( 1.000000000000000000, 0.000000000000000000, 0.000000000000000000 ) ) ;
#236 = AXIS2_PLACEMENT_3D ( 'NONE', #118, #241, #211 ) ;
#237 = FACE_BOUND ( 'NONE', #72, .T. ) ;
#238 = PERSON_AND_ORGANIZATION_ROLE ( 'classification_officer' ) ;
#239 = CC_DESIGN_PERSON_AND_ORGANIZATION_ASSIGNMENT ( #196, #319, ( #135 ) ) ;
#240 = PERSON_AND_ORGANIZATION_ROLE ( 'design_supplier' ) ;
#241 = DIRECTION ( 'NONE',  ( 0.000000000000000000, 0.000000000000000000, 1.000000000000000000 ) ) ;
#242 = LOCAL_TIME ( 17, 51, 23.00000000000000000, #51 ) ;
#243 = EDGE_CURVE ( 'NONE', #349, #158, #281, .T. ) ;
#244 = DIRECTION ( 'NONE',  ( 0.000000000000000000, 0.000000000000000000, 1.000000000000000000 ) ) ;
#245 = ORIENTED_EDGE ( 'NONE', *, *, #141, .T. ) ;
#246 = ORIENTED_EDGE ( 'NONE', *, *, #334, .F. ) ;
#247 = CIRCLE ( 'NONE', #261, 0.01000000000000000021 ) ;
#248 = CARTESIAN_POINT ( 'NONE',  ( 0.000000000000000000, 0.000000000000000000, -0.05000000000000003747 ) ) ;
#249 = APPROVAL ( #267, 'UNSPECIFIED' ) ;
#250 = CYLINDRICAL_SURFACE ( 'NONE', #100, 0.1875000000000000278 ) ;
#251 = CIRCLE ( 'NONE', #37, 0.1875000000000000278 ) ;
#252 = ORIENTED_EDGE ( 'NONE', *, *, #141, .F. ) ;
#253 = LOCAL_TIME ( 17, 51, 23.00000000000000000, #138 ) ;
#254 = CC_DESIGN_PERSON_AND_ORGANIZATION_ASSIGNMENT ( #206, #240, ( #336 ) ) ;
#255 = EDGE_LOOP ( 'NONE', ( #307, #187, #329, #284 ) ) ;
#256 = APPROVAL_ROLE ( '' ) ;
#257 = DIRECTION ( 'NONE',  ( 0.000000000000000000, -1.000000000000000000, 0.000000000000000000 ) ) ;
#258 = APPROVAL_ROLE ( '' ) ;
#259 = APPROVAL_DATE_TIME ( #77, #340 ) ;
#260 = DIRECTION ( 'NONE',  ( 1.000000000000000000, 0.000000000000000000, 0.000000000000000000 ) ) ;
#261 = AXIS2_PLACEMENT_3D ( 'NONE', #354, #120, #296 ) ;
#262 = PERSON_AND_ORGANIZATION ( #356, #116 ) ;
#263 = FACE_OUTER_BOUND ( 'NONE', #103, .T. ) ;
#264 = EDGE_CURVE ( 'NONE', #217, #105, #197, .T. ) ;
#265 = DIRECTION ( 'NONE',  ( -0.000000000000000000, -0.000000000000000000, -1.000000000000000000 ) ) ;
#266 = AXIS2_PLACEMENT_3D ( 'NONE', #280, #223, #302 ) ;
#267 = APPROVAL_STATUS ( 'not_yet_approved' ) ;
#268 = DIRECTION ( 'NONE',  ( 1.000000000000000000, 0.000000000000000000, 0.000000000000000000 ) ) ;
#269 = ADVANCED_FACE ( 'NONE', ( #263 ), #136, .T. ) ;
#270 =( LENGTH_UNIT ( ) NAMED_UNIT ( * ) SI_UNIT ( $, .METRE. ) );
#271 = ORIENTED_EDGE ( 'NONE', *, *, #111, .F. ) ;
#272 = CARTESIAN_POINT ( 'NONE',  ( 0.000000000000000000, 0.000000000000000000, 0.04999999999999996808 ) ) ;
#273 = AXIS2_PLACEMENT_3D ( 'NONE', #228, #161, #34 ) ;
#274 = DIRECTION ( 'NONE',  ( 0.000000000000000000, 0.000000000000000000, 1.000000000000000000 ) ) ;
#275 = SECURITY_CLASSIFICATION ( '', '', #117 ) ;
#276 = EDGE_LOOP ( 'NONE', ( #176, #48, #278, #300 ) ) ;
#277 = APPLICATION_CONTEXT ( 'configuration controlled 3d designs of mechanical parts and assemblies' ) ;
#278 = ORIENTED_EDGE ( 'NONE', *, *, #334, .T. ) ;
#279 = EDGE_CURVE ( 'NONE', #158, #101, #233, .T. ) ;
#280 = CARTESIAN_POINT ( 'NONE',  ( 0.000000000000000000, 0.000000000000000000, 0.03999999999999995920 ) ) ;
#281 = CIRCLE ( 'NONE', #230, 0.1875000000000000278 ) ;
#282 = AXIS2_PLACEMENT_3D ( 'NONE', #61, #56, #201 ) ;
#283 = ORIENTED_EDGE ( 'NONE', *, *, #209, .T. ) ;
#284 = ORIENTED_EDGE ( 'NONE', *, *, #200, .F. ) ;
#285 = EDGE_CURVE ( 'NONE', #214, #352, #247, .T. ) ;
#286 = EDGE_LOOP ( 'NONE', ( #29, #97, #331, #283 ) ) ;
#287 = FACE_OUTER_BOUND ( 'NONE', #190, .T. ) ;
#288 = CARTESIAN_POINT ( 'NONE',  ( -0.4274999999999999356, 5.296597406312302603E-17, 0.04999999999999996808 ) ) ;
#289 = DIRECTION ( 'NONE',  ( -1.000000000000000000, 1.224646799147346798E-16, 0.000000000000000000 ) ) ;
#290 = LOCAL_TIME ( 17, 51, 23.00000000000000000, #128 ) ;
#291 = DIRECTION ( 'NONE',  ( 0.000000000000000000, 0.000000000000000000, 1.000000000000000000 ) ) ;
#292 = UNCERTAINTY_MEASURE_WITH_UNIT (LENGTH_MEASURE( 1.000000000000000082E-05 ), #173, 'distance_accuracy_value', 'NONE');
#293 = DIRECTION ( 'NONE',  ( 1.000000000000000000, 0.000000000000000000, 0.000000000000000000 ) ) ;
#294 = VECTOR ( 'NONE', #41, 39.37007874015748143 ) ;
#295 = TOROIDAL_SURFACE ( 'NONE', #234, 0.4274999999999999356, 0.01000000000000000021 ) ;
#296 = DIRECTION ( 'NONE',  ( 0.000000000000000000, 0.000000000000000000, -1.000000000000000000 ) ) ;
#297 = ORIENTED_EDGE ( 'NONE', *, *, #92, .F. ) ;
#298 = CARTESIAN_POINT ( 'NONE',  ( -0.1875000000000000278, 2.296212748401287726E-17, -0.05000000000000003747 ) ) ;
#299 = APPROVAL_PERSON_ORGANIZATION ( #96, #249, #114 ) ;
#300 = ORIENTED_EDGE ( 'NONE', *, *, #14, .T. ) ;
#301 = ADVANCED_FACE ( 'NONE', ( #179 ), #94, .T. ) ;
#302 = DIRECTION ( 'NONE',  ( 1.000000000000000000, 0.000000000000000000, 0.000000000000000000 ) ) ;
#303 = EDGE_LOOP ( 'NONE', ( #95, #184, #8, #174 ) ) ;
#304 = AXIS2_PLACEMENT_3D ( 'NONE', #181, #149, #346 ) ;
#305 = ORIENTED_EDGE ( 'NONE', *, *, #22, .T. ) ;
#306 = EDGE_CURVE ( 'NONE', #157, #217, #348, .T. ) ;
#307 = ORIENTED_EDGE ( 'NONE', *, *, #137, .F. ) ;
#308 = AXIS2_PLACEMENT_3D ( 'NONE', #90, #257, #342 ) ;
#309 = CARTESIAN_POINT ( 'NONE',  ( 0.4375000000000000000, 0.000000000000000000, 0.03999999999999995920 ) ) ;
#310 = CIRCLE ( 'NONE', #282, 0.1875000000000000278 ) ;
#311 = DIRECTION ( 'NONE',  ( 0.000000000000000000, 0.000000000000000000, 1.000000000000000000 ) ) ;
#312 = APPROVAL ( #159, 'UNSPECIFIED' ) ;
#313 = DIRECTION ( 'NONE',  ( 1.000000000000000000, 0.000000000000000000, 0.000000000000000000 ) ) ;
#314 = APPROVAL_DATE_TIME ( #19, #312 ) ;
#315 = DIRECTION ( 'NONE',  ( 1.000000000000000000, 0.000000000000000000, 0.000000000000000000 ) ) ;
#316 = CIRCLE ( 'NONE', #57, 0.1875000000000000278 ) ;
#317 = CARTESIAN_POINT ( 'NONE',  ( -0.1975000000000000089, 2.418677428316022775E-17, 0.04999999999999996114 ) ) ;
#318 = ADVANCED_FACE ( 'NONE', ( #237, #99 ), #43, .F. ) ;
#319 = PERSON_AND_ORGANIZATION_ROLE ( 'design_owner' ) ;
#320 = DIRECTION ( 'NONE',  ( 0.000000000000000000, 0.000000000000000000, 1.000000000000000000 ) ) ;
#321 = EDGE_LOOP ( 'NONE', ( #212, #30, #219, #271 ) ) ;
#322 = DATE_AND_TIME ( #323, #253 ) ;
#323 = CALENDAR_DATE ( 2026, 22, 8 ) ;
#324 = AXIS2_PLACEMENT_3D ( 'NONE', #213, #65, #327 ) ;
#325 = CARTESIAN_POINT ( 'NONE',  ( 0.4274999999999999356, 0.000000000000000000, 0.04999999999999996808 ) ) ;
#326 = EDGE_CURVE ( 'NONE', #352, #105, #183, .T. ) ;
#327 = DIRECTION ( 'NONE',  ( 1.000000000000000000, 0.000000000000000000, -0.000000000000000000 ) ) ;
#328 = LINE ( 'NONE', #47, #341 ) ;
#329 = ORIENTED_EDGE ( 'NONE', *, *, #111, .T. ) ;
#330 = ADVANCED_FACE ( 'NONE', ( #151, #207 ), #146, .T. ) ;
#331 = ORIENTED_EDGE ( 'NONE', *, *, #279, .T. ) ;
#332 = ORIENTED_EDGE ( 'NONE', *, *, #22, .F. ) ;
#333 = CIRCLE ( 'NONE', #144, 0.1975000000000000089 ) ;
#334 = EDGE_CURVE ( 'NONE', #50, #214, #328, .T. ) ;
#335 = CARTESIAN_POINT ( 'NONE',  ( 0.000000000000000000, 0.000000000000000000, -0.05000000000000003747 ) ) ;
#336 = PRODUCT_DEFINITION_FORMATION_WITH_SPECIFIED_SOURCE ( 'ANY', '', #135, .NOT_KNOWN. ) ;
#337 = VERTEX_POINT ( 'NONE', #215 ) ;
#338 = CALENDAR_DATE ( 2026, 22, 8 ) ;
#339 = DIRECTION ( 'NONE',  ( 0.000000000000000000, 0.000000000000000000, 1.000000000000000000 ) ) ;
#340 = APPROVAL ( #162, 'UNSPECIFIED' ) ;
#341 = VECTOR ( 'NONE', #244, 39.37007874015748143 ) ;
#342 = DIRECTION ( 'NONE',  ( 0.000000000000000000, 0.000000000000000000, -1.000000000000000000 ) ) ;
#343 = CARTESIAN_POINT ( 'NONE',  ( 0.1875000000000000278, 0.000000000000000000, -0.05000000000000003747 ) ) ;
#344 = ADVANCED_FACE ( 'NONE', ( #21 ), #71, .F. ) ;
#345 = DIRECTION ( 'NONE',  ( 1.000000000000000000, 0.000000000000000000, 0.000000000000000000 ) ) ;
#346 = DIRECTION ( 'NONE',  ( 1.000000000000000000, 0.000000000000000000, 0.000000000000000000 ) ) ;
#347 = DATE_TIME_ROLE ( 'classification_date' ) ;
#348 = LINE ( 'NONE', #24, #294 ) ;
#349 = VERTEX_POINT ( 'NONE', #298 ) ;
#350 = COORDINATED_UNIVERSAL_TIME_OFFSET ( 8, 0, .BEHIND. ) ;
#351 = AXIS2_PLACEMENT_3D ( 'NONE', #335, #52, #220 ) ;
#352 = VERTEX_POINT ( 'NONE', #325 ) ;
#353 = TOROIDAL_SURFACE ( 'NONE', #62, 0.4274999999999999356, 0.01000000000000000021 ) ;
#354 = CARTESIAN_POINT ( 'NONE',  ( 0.4274999999999999356, 0.000000000000000000, 0.03999999999999995920 ) ) ;
#355 = DIRECTION ( 'NONE',  ( 1.000000000000000000, 0.000000000000000000, 0.000000000000000000 ) ) ;
#356 = PERSON ( 'UNSPECIFIED', 'UNSPECIFIED', 'UNSPECIFIED', ('UNSPECIFIED'), ('UNSPECIFIED'), ('UNSPECIFIED') ) ;
ENDSEC;
END-ISO-10303-21;
