ISO-10303-21;
HEADER;
FILE_DESCRIPTION (( 'STEP AP203' ),
    '1' );
FILE_NAME ('ball_6960T431_sldprt.STEP',
    '2026-08-23T00:51:34',
    ( '' ),
    ( '' ),
    'SwSTEP 2.0',
    'SolidWorks 2025',
    '' );
FILE_SCHEMA (( 'CONFIG_CONTROL_DESIGN' ));
ENDSEC;

DATA;
#1 = ORIENTED_EDGE ( 'NONE', *, *, #304, .T. ) ;
#2 = EDGE_CURVE ( 'NONE', #403, #364, #360, .T. ) ;
#3 = DIRECTION ( 'NONE',  ( 0.000000000000000000, 0.000000000000000000, 1.000000000000000000 ) ) ;
#4 = EDGE_LOOP ( 'NONE', ( #1, #380 ) ) ;
#5 = AXIS2_PLACEMENT_3D ( 'NONE', #436, #439, #258 ) ;
#6 = CARTESIAN_POINT ( 'NONE',  ( 2.643572659412458267E-16, 1.062499999999999778, -0.4375000000000000000 ) ) ;
#7 = AXIS2_PLACEMENT_3D ( 'NONE', #59, #28, #97 ) ;
#8 = EDGE_CURVE ( 'NONE', #319, #14, #124, .T. ) ;
#9 = APPROVAL_ROLE ( '' ) ;
#10 = AXIS2_PLACEMENT_3D ( 'NONE', #246, #338, #410 ) ;
#11 = CARTESIAN_POINT ( 'NONE',  ( 2.643572659412458267E-16, 1.062499999999999778, -0.4375000000000000000 ) ) ;
#12 = EDGE_LOOP ( 'NONE', ( #156, #70, #116, #177 ) ) ;
#13 = AXIS2_PLACEMENT_3D ( 'NONE', #315, #390, #171 ) ;
#14 = VERTEX_POINT ( 'NONE', #387 ) ;
#15 = PERSON_AND_ORGANIZATION ( #460, #353 ) ;
#16 = CARTESIAN_POINT ( 'NONE',  ( 2.643572659412458267E-16, 1.062499999999999778, -0.4375000000000000000 ) ) ;
#17 = EDGE_LOOP ( 'NONE', ( #305, #85, #434, #181 ) ) ;
#18 = PERSON_AND_ORGANIZATION ( #460, #353 ) ;
#19 = DIRECTION ( 'NONE',  ( -0.7071067811865462405, 0.000000000000000000, -0.7071067811865486830 ) ) ;
#20 = ORIENTED_EDGE ( 'NONE', *, *, #363, .T. ) ;
#21 = APPROVAL_STATUS ( 'not_yet_approved' ) ;
#22 = CARTESIAN_POINT ( 'NONE',  ( 2.643572659412458267E-16, 1.062499999999999778, -0.4187499999999999556 ) ) ;
#23 = AXIS2_PLACEMENT_3D ( 'NONE', #462, #399, #77 ) ;
#24 = DIRECTION ( 'NONE',  ( 1.000000000000000000, 0.000000000000000000, 0.000000000000000000 ) ) ;
#25 = PERSON_AND_ORGANIZATION_ROLE ( 'creator' ) ;
#26 = DIRECTION ( 'NONE',  ( 1.000000000000000000, 0.000000000000000000, 0.000000000000000000 ) ) ;
#27 = DIRECTION ( 'NONE',  ( 1.000000000000000000, 0.000000000000000000, 0.000000000000000000 ) ) ;
#28 = DIRECTION ( 'NONE',  ( -0.000000000000000000, -0.000000000000000000, -1.000000000000000000 ) ) ;
#29 = FACE_OUTER_BOUND ( 'NONE', #79, .T. ) ;
#30 = LINE ( 'NONE', #400, #373 ) ;
#31 = CARTESIAN_POINT ( 'NONE',  ( 2.643572659412458267E-16, 1.062499999999999778, -0.4375000000000000000 ) ) ;
#32 = EDGE_CURVE ( 'NONE', #292, #109, #334, .T. ) ;
#33 = CIRCLE ( 'NONE', #412, 0.2062499999999999611 ) ;
#34 = VERTEX_POINT ( 'NONE', #64 ) ;
#35 = LINE ( 'NONE', #252, #296 ) ;
#36 = CARTESIAN_POINT ( 'NONE',  ( 2.643572659412458267E-16, 1.062499999999999778, -0.4375000000000000000 ) ) ;
#37 = ADVANCED_FACE ( 'NONE', ( #232 ), #130, .F. ) ;
#38 = EDGE_LOOP ( 'NONE', ( #413, #249 ) ) ;
#39 = CC_DESIGN_APPROVAL ( #253, ( #212 ) ) ;
#40 = DIRECTION ( 'NONE',  ( 0.000000000000000000, 0.000000000000000000, -1.000000000000000000 ) ) ;
#41 = VERTEX_POINT ( 'NONE', #448 ) ;
#42 = DIRECTION ( 'NONE',  ( 0.000000000000000000, 0.000000000000000000, 1.000000000000000000 ) ) ;
#43 = EDGE_CURVE ( 'NONE', #372, #109, #236, .T. ) ;
#44 = ORIENTED_EDGE ( 'NONE', *, *, #111, .T. ) ;
#45 = AXIS2_PLACEMENT_3D ( 'NONE', #389, #283, #430 ) ;
#46 = DIRECTION ( 'NONE',  ( 0.000000000000000000, 0.000000000000000000, 1.000000000000000000 ) ) ;
#47 = ORIENTED_EDGE ( 'NONE', *, *, #119, .T. ) ;
#48 =( LENGTH_UNIT ( ) NAMED_UNIT ( * ) SI_UNIT ( $, .METRE. ) );
#49 = FACE_BOUND ( 'NONE', #4, .T. ) ;
#50 = ORIENTED_EDGE ( 'NONE', *, *, #225, .T. ) ;
#51 = EDGE_CURVE ( 'NONE', #268, #113, #155, .T. ) ;
#52 = VECTOR ( 'NONE', #242, 39.37007874015748854 ) ;
#53 = CARTESIAN_POINT ( 'NONE',  ( 2.643572659412458267E-16, 1.062499999999999778, 0.3097252814995897219 ) ) ;
#54 = EDGE_CURVE ( 'NONE', #403, #364, #163, .T. ) ;
#55 = APPROVAL_STATUS ( 'not_yet_approved' ) ;
#56 = LINE ( 'NONE', #196, #453 ) ;
#57 = DIRECTION ( 'NONE',  ( 1.000000000000000000, 0.000000000000000000, -0.000000000000000000 ) ) ;
#58 = AXIS2_PLACEMENT_3D ( 'NONE', #16, #224, #149 ) ;
#59 = CARTESIAN_POINT ( 'NONE',  ( 2.643572659412458267E-16, 1.062499999999999778, 0.4375000000000000000 ) ) ;
#60 = PERSON_AND_ORGANIZATION ( #460, #353 ) ;
#61 = CARTESIAN_POINT ( 'NONE',  ( 2.643572659412458267E-16, 1.062499999999999778, 0.4375000000000000000 ) ) ;
#62 = ADVANCED_FACE ( 'NONE', ( #276, #279 ), #243, .T. ) ;
#63 = CARTESIAN_POINT ( 'NONE',  ( -0.2624999999999997335, 1.062499999999999778, -0.4375000000000000000 ) ) ;
#64 = CARTESIAN_POINT ( 'NONE',  ( -0.1874999999999996947, 1.062499999999999778, -0.4187499999999999556 ) ) ;
#65 = CARTESIAN_POINT ( 'NONE',  ( 2.643572659412458267E-16, 1.062499999999999778, 0.000000000000000000 ) ) ;
#66 = CONICAL_SURFACE ( 'NONE', #151, 0.1874999999999999722, 0.7853981633974538301 ) ;
#67 = CARTESIAN_POINT ( 'NONE',  ( 0.1875000000000002498, 1.062499999999999778, 0.4187500000000002331 ) ) ;
#68 = ORIENTED_EDGE ( 'NONE', *, *, #2, .T. ) ;
#69 = FACE_OUTER_BOUND ( 'NONE', #286, .T. ) ;
#70 = ORIENTED_EDGE ( 'NONE', *, *, #354, .T. ) ;
#71 = CYLINDRICAL_SURFACE ( 'NONE', #23, 0.2625000000000000111 ) ;
#72 = ADVANCED_FACE ( 'NONE', ( #101 ), #143, .F. ) ;
#73 = ORIENTED_EDGE ( 'NONE', *, *, #431, .F. ) ;
#74 = DIRECTION ( 'NONE',  ( 1.000000000000000000, 0.000000000000000000, 0.000000000000000000 ) ) ;
#75 = EDGE_CURVE ( 'NONE', #432, #268, #30, .T. ) ;
#76 = ORIENTED_EDGE ( 'NONE', *, *, #90, .F. ) ;
#77 = DIRECTION ( 'NONE',  ( 1.000000000000000000, 0.000000000000000000, 0.000000000000000000 ) ) ;
#78 = CARTESIAN_POINT ( 'NONE',  ( 0.2625000000000002887, 1.062499999999999778, -0.4375000000000000000 ) ) ;
#79 = EDGE_LOOP ( 'NONE', ( #447, #106, #139, #397 ) ) ;
#80 = CARTESIAN_POINT ( 'NONE',  ( -0.2624999999999997335, 1.062499999999999778, 0.4375000000000000000 ) ) ;
#81 = CIRCLE ( 'NONE', #10, 0.2625000000000000111 ) ;
#82 = EDGE_LOOP ( 'NONE', ( #20, #441, #260, #174 ) ) ;
#83 =( CONVERSION_BASED_UNIT ( 'INCH', #182 ) LENGTH_UNIT ( ) NAMED_UNIT ( #105 ) );
#84 = AXIS2_PLACEMENT_3D ( 'NONE', #22, #352, #27 ) ;
#85 = ORIENTED_EDGE ( 'NONE', *, *, #418, .T. ) ;
#86 = CARTESIAN_POINT ( 'NONE',  ( -0.2624999999999997335, 1.062499999999999778, -0.3097252814995897219 ) ) ;
#87 = ORIENTED_EDGE ( 'NONE', *, *, #126, .T. ) ;
#88 = CARTESIAN_POINT ( 'NONE',  ( 0.000000000000000000, 0.000000000000000000, 0.000000000000000000 ) ) ;
#89 = DIRECTION ( 'NONE',  ( 1.000000000000000000, 0.000000000000000000, 0.000000000000000000 ) ) ;
#90 = EDGE_CURVE ( 'NONE', #113, #268, #220, .T. ) ;
#91 = CALENDAR_DATE ( 2026, 22, 8 ) ;
#92 = DIRECTION ( 'NONE',  ( 1.000000000000000000, 0.000000000000000000, 0.000000000000000000 ) ) ;
#93 = ORIENTED_EDGE ( 'NONE', *, *, #8, .F. ) ;
#94 = CARTESIAN_POINT ( 'NONE',  ( -0.2062499999999996836, 1.062499999999999778, -0.4375000000000000000 ) ) ;
#95 = VERTEX_POINT ( 'NONE', #78 ) ;
#96 = AXIS2_PLACEMENT_3D ( 'NONE', #207, #3, #254 ) ;
#97 = DIRECTION ( 'NONE',  ( 1.000000000000000000, 0.000000000000000000, 0.000000000000000000 ) ) ;
#98 = PRODUCT_DEFINITION_FORMATION_WITH_SPECIFIED_SOURCE ( 'ANY', '', #266, .NOT_KNOWN. ) ;
#99 = CALENDAR_DATE ( 2026, 22, 8 ) ;
#100 = LINE ( 'NONE', #310, #52 ) ;
#101 = FACE_OUTER_BOUND ( 'NONE', #312, .T. ) ;
#102 = CARTESIAN_POINT ( 'NONE',  ( 2.643572659412458267E-16, 1.062499999999999778, -0.4187499999999999556 ) ) ;
#103 = DIRECTION ( 'NONE',  ( -1.000000000000000000, 0.000000000000000000, 0.000000000000000000 ) ) ;
#104 = FACE_OUTER_BOUND ( 'NONE', #173, .T. ) ;
#105 = DIMENSIONAL_EXPONENTS ( 1.000000000000000000, 0.000000000000000000, 0.000000000000000000, 0.000000000000000000, 0.000000000000000000, 0.000000000000000000, 0.000000000000000000 ) ;
#106 = ORIENTED_EDGE ( 'NONE', *, *, #201, .T. ) ;
#107 = EDGE_LOOP ( 'NONE', ( #73, #214, #142, #404 ) ) ;
#108 = CARTESIAN_POINT ( 'NONE',  ( -0.1874999999999996947, 1.062499999999999778, -0.4375000000000000000 ) ) ;
#109 = VERTEX_POINT ( 'NONE', #67 ) ;
#110 = DIRECTION ( 'NONE',  ( 0.000000000000000000, 0.000000000000000000, 1.000000000000000000 ) ) ;
#111 = EDGE_CURVE ( 'NONE', #398, #41, #329, .T. ) ;
#112 = CARTESIAN_POINT ( 'NONE',  ( 0.2625000000000002887, 1.062499999999999778, -0.4375000000000000000 ) ) ;
#113 = VERTEX_POINT ( 'NONE', #356 ) ;
#114 = DIRECTION ( 'NONE',  ( -0.000000000000000000, -0.000000000000000000, -1.000000000000000000 ) ) ;
#115 = ADVANCED_FACE ( 'NONE', ( #359 ), #66, .F. ) ;
#116 = ORIENTED_EDGE ( 'NONE', *, *, #111, .F. ) ;
#117 = APPROVAL_PERSON_ORGANIZATION ( #15, #291, #302 ) ;
#118 = ORIENTED_EDGE ( 'NONE', *, *, #54, .T. ) ;
#119 = EDGE_CURVE ( 'NONE', #95, #392, #370, .T. ) ;
#120 = VECTOR ( 'NONE', #282, 39.37007874015748143 ) ;
#121 = VECTOR ( 'NONE', #19, 39.37007874015748854 ) ;
#122 = FACE_OUTER_BOUND ( 'NONE', #38, .T. ) ;
#123 = DIRECTION ( 'NONE',  ( 0.000000000000000000, 0.000000000000000000, 1.000000000000000000 ) ) ;
#124 = CIRCLE ( 'NONE', #7, 0.2062499999999999611 ) ;
#125 = APPLICATION_CONTEXT ( 'configuration controlled 3d designs of mechanical parts and assemblies' ) ;
#126 = EDGE_CURVE ( 'NONE', #284, #392, #234, .T. ) ;
#127 = COORDINATED_UNIVERSAL_TIME_OFFSET ( 8, 0, .BEHIND. ) ;
#128 = CARTESIAN_POINT ( 'NONE',  ( 2.643572659412458267E-16, 1.062499999999999778, -0.4375000000000000000 ) ) ;
#129 = PERSON_AND_ORGANIZATION_ROLE ( 'classification_officer' ) ;
#130 = CYLINDRICAL_SURFACE ( 'NONE', #395, 0.1874999999999999722 ) ;
#131 = AXIS2_PLACEMENT_3D ( 'NONE', #128, #162, #92 ) ;
#132 = CARTESIAN_POINT ( 'NONE',  ( -0.2062499999999996836, 1.062499999999999778, 0.4375000000000000000 ) ) ;
#133 = ORIENTED_EDGE ( 'NONE', *, *, #201, .F. ) ;
#134 = DATE_AND_TIME ( #459, #189 ) ;
#135 = DIRECTION ( 'NONE',  ( -0.000000000000000000, 0.000000000000000000, 1.000000000000000000 ) ) ;
#136 = PRODUCT_RELATED_PRODUCT_CATEGORY ( 'detail', '', ( #266 ) ) ;
#137 = ORIENTED_EDGE ( 'NONE', *, *, #147, .T. ) ;
#138 = DIRECTION ( 'NONE',  ( 1.000000000000000000, 0.000000000000000000, 0.000000000000000000 ) ) ;
#139 = ORIENTED_EDGE ( 'NONE', *, *, #333, .T. ) ;
#140 = FACE_OUTER_BOUND ( 'NONE', #251, .T. ) ;
#141 = DIRECTION ( 'NONE',  ( 0.000000000000000000, 0.000000000000000000, 1.000000000000000000 ) ) ;
#142 = ORIENTED_EDGE ( 'NONE', *, *, #43, .T. ) ;
#143 = CONICAL_SURFACE ( 'NONE', #210, 0.1874999999999999722, 0.7853981633974538301 ) ;
#144 = EDGE_LOOP ( 'NONE', ( #401, #118 ) ) ;
#145 = ORIENTED_EDGE ( 'NONE', *, *, #204, .T. ) ;
#146 = CARTESIAN_POINT ( 'NONE',  ( 2.643572659412458267E-16, 1.062499999999999778, -0.4375000000000000000 ) ) ;
#147 = EDGE_CURVE ( 'NONE', #371, #284, #172, .T. ) ;
#148 = DIRECTION ( 'NONE',  ( 0.000000000000000000, 0.000000000000000000, 1.000000000000000000 ) ) ;
#149 = DIRECTION ( 'NONE',  ( 1.000000000000000000, 0.000000000000000000, 0.000000000000000000 ) ) ;
#150 = UNCERTAINTY_MEASURE_WITH_UNIT (LENGTH_MEASURE( 1.000000000000000082E-05 ), #83, 'distance_accuracy_value', 'NONE');
#151 = AXIS2_PLACEMENT_3D ( 'NONE', #394, #42, #216 ) ;
#152 = DIRECTION ( 'NONE',  ( 1.000000000000000000, 0.000000000000000000, 0.000000000000000000 ) ) ;
#153 = CC_DESIGN_APPROVAL ( #408, ( #366 ) ) ;
#154 = ADVANCED_FACE ( 'NONE', ( #104 ), #362, .T. ) ;
#155 = CIRCLE ( 'NONE', #176, 0.2625000000000000111 ) ;
#156 = ORIENTED_EDGE ( 'NONE', *, *, #363, .F. ) ;
#157 = DIRECTION ( 'NONE',  ( 1.000000000000000000, 0.000000000000000000, -1.224646799147353207E-16 ) ) ;
#158 = APPROVAL_ROLE ( '' ) ;
#159 = CARTESIAN_POINT ( 'NONE',  ( 0.1875000000000002498, 1.062499999999999778, -0.4187499999999999556 ) ) ;
#160 = ADVANCED_FACE ( 'NONE', ( #211 ), #375, .F. ) ;
#161 = PRODUCT_DEFINITION_SHAPE ( 'NONE', 'NONE',  #212 ) ;
#162 = DIRECTION ( 'NONE',  ( 0.000000000000000000, 0.000000000000000000, 1.000000000000000000 ) ) ;
#163 = CIRCLE ( 'NONE', #264, 0.4060000000000001386 ) ;
#164 = LOCAL_TIME ( 17, 51, 34.00000000000000000, #277 ) ;
#165 = DIRECTION ( 'NONE',  ( -0.000000000000000000, 0.000000000000000000, 1.000000000000000000 ) ) ;
#166 = CC_DESIGN_PERSON_AND_ORGANIZATION_ASSIGNMENT ( #402, #337, ( #266 ) ) ;
#167 = DIRECTION ( 'NONE',  ( 0.000000000000000000, 0.000000000000000000, 1.000000000000000000 ) ) ;
#168 = ORIENTED_EDGE ( 'NONE', *, *, #285, .T. ) ;
#169 = DIRECTION ( 'NONE',  ( 0.000000000000000000, 0.000000000000000000, 1.000000000000000000 ) ) ;
#170 = ORIENTED_EDGE ( 'NONE', *, *, #368, .T. ) ;
#171 = DIRECTION ( 'NONE',  ( 1.000000000000000000, 0.000000000000000000, 0.000000000000000000 ) ) ;
#172 = LINE ( 'NONE', #248, #388 ) ;
#173 = EDGE_LOOP ( 'NONE', ( #331, #137, #87, #221 ) ) ;
#174 = ORIENTED_EDGE ( 'NONE', *, *, #43, .F. ) ;
#175 = ORIENTED_EDGE ( 'NONE', *, *, #354, .F. ) ;
#176 = AXIS2_PLACEMENT_3D ( 'NONE', #61, #198, #24 ) ;
#177 = ORIENTED_EDGE ( 'NONE', *, *, #377, .F. ) ;
#178 = PLANE ( 'NONE',  #295 ) ;
#179 = ORIENTED_EDGE ( 'NONE', *, *, #194, .T. ) ;
#180 = APPROVAL_PERSON_ORGANIZATION ( #348, #408, #158 ) ;
#181 = ORIENTED_EDGE ( 'NONE', *, *, #368, .F. ) ;
#182 = LENGTH_MEASURE_WITH_UNIT ( LENGTH_MEASURE( 0.02539999999999999897 ), #48 );
#183 = CARTESIAN_POINT ( 'NONE',  ( 2.643572659412458267E-16, 1.062499999999999778, 0.4375000000000000000 ) ) ;
#184 = CC_DESIGN_PERSON_AND_ORGANIZATION_ASSIGNMENT ( #417, #25, ( #212 ) ) ;
#185 = ORIENTED_EDGE ( 'NONE', *, *, #126, .F. ) ;
#186 = ORIENTED_EDGE ( 'NONE', *, *, #285, .F. ) ;
#187 = AXIS2_PLACEMENT_3D ( 'NONE', #183, #123, #374 ) ;
#188 =( NAMED_UNIT ( * ) PLANE_ANGLE_UNIT ( ) SI_UNIT ( $, .RADIAN. ) );
#189 = LOCAL_TIME ( 17, 51, 34.00000000000000000, #449 ) ;
#190 = DATE_AND_TIME ( #99, #164 ) ;
#191 = CARTESIAN_POINT ( 'NONE',  ( 2.643572659412458267E-16, 1.062499999999999778, -0.4375000000000000000 ) ) ;
#192 = DATE_AND_TIME ( #307, #247 ) ;
#193 = AXIS2_PLACEMENT_3D ( 'NONE', #53, #229, #443 ) ;
#194 = EDGE_CURVE ( 'NONE', #392, #284, #255, .T. ) ;
#195 = COORDINATED_UNIVERSAL_TIME_OFFSET ( 8, 0, .BEHIND. ) ;
#196 = CARTESIAN_POINT ( 'NONE',  ( 0.2625000000000002887, 1.062499999999999778, -0.4375000000000000000 ) ) ;
#197 = ADVANCED_FACE ( 'NONE', ( #69 ), #461, .F. ) ;
#198 = DIRECTION ( 'NONE',  ( 0.000000000000000000, 0.000000000000000000, 1.000000000000000000 ) ) ;
#199 = LINE ( 'NONE', #265, #121 ) ;
#200 = CARTESIAN_POINT ( 'NONE',  ( 0.1875000000000002498, 1.062499999999999778, -0.4375000000000000000 ) ) ;
#201 = EDGE_CURVE ( 'NONE', #432, #369, #81, .T. ) ;
#202 = CARTESIAN_POINT ( 'NONE',  ( 1.257308481008055315E-16, 0.6564999999999996394, 0.000000000000000000 ) ) ;
#203 = CARTESIAN_POINT ( 'NONE',  ( 2.643572659412458267E-16, 1.062499999999999778, 0.000000000000000000 ) ) ;
#204 = EDGE_CURVE ( 'NONE', #369, #432, #346, .T. ) ;
#205 = ADVANCED_BREP_SHAPE_REPRESENTATION ( 'ball_6960T431_sldprt', ( #336, #223 ), #314 ) ;
#206 = LOCAL_TIME ( 17, 51, 34.00000000000000000, #349 ) ;
#207 = CARTESIAN_POINT ( 'NONE',  ( 2.643572659412458267E-16, 1.062499999999999778, -0.4375000000000000000 ) ) ;
#208 = ORIENTED_EDGE ( 'NONE', *, *, #377, .T. ) ;
#209 = DIRECTION ( 'NONE',  ( 0.000000000000000000, 0.000000000000000000, 1.000000000000000000 ) ) ;
#210 = AXIS2_PLACEMENT_3D ( 'NONE', #457, #426, #138 ) ;
#211 = FACE_OUTER_BOUND ( 'NONE', #12, .T. ) ;
#212 = PRODUCT_DEFINITION ( 'UNKNOWN', '', #98, #330 ) ;
#213 = CC_DESIGN_SECURITY_CLASSIFICATION ( #366, ( #98 ) ) ;
#214 = ORIENTED_EDGE ( 'NONE', *, *, #455, .T. ) ;
#215 = FACE_BOUND ( 'NONE', #376, .T. ) ;
#216 = DIRECTION ( 'NONE',  ( 1.000000000000000000, 0.000000000000000000, 0.000000000000000000 ) ) ;
#217 = ADVANCED_FACE ( 'NONE', ( #49, #122 ), #341, .T. ) ;
#218 = ORIENTED_EDGE ( 'NONE', *, *, #333, .F. ) ;
#219 = APPLICATION_PROTOCOL_DEFINITION ( 'international standard', 'config_control_design', 1994, #433 ) ;
#220 = CIRCLE ( 'NONE', #45, 0.2625000000000000111 ) ;
#221 = ORIENTED_EDGE ( 'NONE', *, *, #119, .F. ) ;
#222 = EDGE_LOOP ( 'NONE', ( #44, #50 ) ) ;
#223 = AXIS2_PLACEMENT_3D ( 'NONE', #88, #148, #294 ) ;
#224 = DIRECTION ( 'NONE',  ( 0.000000000000000000, 0.000000000000000000, 1.000000000000000000 ) ) ;
#225 = EDGE_CURVE ( 'NONE', #41, #398, #33, .T. ) ;
#226 = APPLICATION_PROTOCOL_DEFINITION ( 'international standard', 'config_control_design', 1994, #125 ) ;
#227 = FACE_BOUND ( 'NONE', #222, .T. ) ;
#228 = AXIS2_PLACEMENT_3D ( 'NONE', #323, #40, #429 ) ;
#229 = DIRECTION ( 'NONE',  ( -0.000000000000000000, -0.000000000000000000, 1.000000000000000000 ) ) ;
#230 = CIRCLE ( 'NONE', #299, 0.1874999999999999722 ) ;
#231 = PERSON_AND_ORGANIZATION_ROLE ( 'creator' ) ;
#232 = FACE_OUTER_BOUND ( 'NONE', #82, .T. ) ;
#233 = PERSON_AND_ORGANIZATION ( #460, #353 ) ;
#234 = CIRCLE ( 'NONE', #228, 0.2625000000000000111 ) ;
#235 = DIRECTION ( 'NONE',  ( 1.000000000000000000, 0.000000000000000000, 0.000000000000000000 ) ) ;
#236 = LINE ( 'NONE', #200, #120 ) ;
#237 = APPROVAL_DATE_TIME ( #272, #291 ) ;
#238 = APPROVAL_PERSON_ORGANIZATION ( #409, #253, #9 ) ;
#239 = DIRECTION ( 'NONE',  ( -0.000000000000000000, -0.000000000000000000, -1.000000000000000000 ) ) ;
#240 = DIRECTION ( 'NONE',  ( 1.224646799147353207E-16, -4.931367548610701205E-32, 1.000000000000000000 ) ) ;
#241 = EDGE_CURVE ( 'NONE', #95, #371, #261, .T. ) ;
#242 = DIRECTION ( 'NONE',  ( 0.7071067811865462405, 8.659560562354916834E-17, -0.7071067811865486830 ) ) ;
#243 = SPHERICAL_SURFACE ( 'NONE', #416, 0.4060000000000001386 ) ;
#244 = ORIENTED_EDGE ( 'NONE', *, *, #204, .F. ) ;
#245 = DIRECTION ( 'NONE',  ( -0.000000000000000000, -0.000000000000000000, -1.000000000000000000 ) ) ;
#246 = CARTESIAN_POINT ( 'NONE',  ( 2.643572659412458267E-16, 1.062499999999999778, 0.3097252814995897219 ) ) ;
#247 = LOCAL_TIME ( 17, 51, 34.00000000000000000, #195 ) ;
#248 = CARTESIAN_POINT ( 'NONE',  ( -0.2624999999999997335, 1.062499999999999778, -0.4375000000000000000 ) ) ;
#249 = ORIENTED_EDGE ( 'NONE', *, *, #51, .T. ) ;
#250 = DIRECTION ( 'NONE',  ( -0.000000000000000000, -0.000000000000000000, 1.000000000000000000 ) ) ;
#251 = EDGE_LOOP ( 'NONE', ( #407, #68 ) ) ;
#252 = CARTESIAN_POINT ( 'NONE',  ( -0.1874999999999996947, 1.062499999999999778, 0.4187500000000002331 ) ) ;
#253 = APPROVAL ( #405, 'UNSPECIFIED' ) ;
#254 = DIRECTION ( 'NONE',  ( 1.000000000000000000, 0.000000000000000000, 0.000000000000000000 ) ) ;
#255 = CIRCLE ( 'NONE', #428, 0.2625000000000000111 ) ;
#256 = CARTESIAN_POINT ( 'NONE',  ( 2.643572659412458267E-16, 1.062499999999999778, 0.4187500000000002331 ) ) ;
#257 = AXIS2_PLACEMENT_3D ( 'NONE', #281, #135, #425 ) ;
#258 = DIRECTION ( 'NONE',  ( 1.000000000000000000, 0.000000000000000000, 0.000000000000000000 ) ) ;
#259 = EDGE_LOOP ( 'NONE', ( #326, #168, #47, #179 ) ) ;
#260 = ORIENTED_EDGE ( 'NONE', *, *, #32, .T. ) ;
#261 = CIRCLE ( 'NONE', #58, 0.2625000000000000111 ) ;
#262 = CYLINDRICAL_SURFACE ( 'NONE', #5, 0.2625000000000000111 ) ;
#263 = AXIS2_PLACEMENT_3D ( 'NONE', #65, #240, #157 ) ;
#264 = AXIS2_PLACEMENT_3D ( 'NONE', #311, #269, #451 ) ;
#265 = CARTESIAN_POINT ( 'NONE',  ( -0.2062499999999996836, 1.062499999999999778, -0.4375000000000000000 ) ) ;
#266 = PRODUCT ( 'ball_6960T431_sldprt', 'ball_6960T431_sldprt', '', ( #438 ) ) ;
#267 = DATE_TIME_ROLE ( 'classification_date' ) ;
#268 = VERTEX_POINT ( 'NONE', #80 ) ;
#269 = DIRECTION ( 'NONE',  ( 0.000000000000000000, 0.000000000000000000, -1.000000000000000000 ) ) ;
#270 = APPROVAL_DATE_TIME ( #421, #253 ) ;
#271 = DIRECTION ( 'NONE',  ( 0.000000000000000000, 0.000000000000000000, 1.000000000000000000 ) ) ;
#272 = DATE_AND_TIME ( #91, #206 ) ;
#273 = VECTOR ( 'NONE', #209, 39.37007874015748143 ) ;
#274 = ADVANCED_FACE ( 'NONE', ( #411 ), #262, .T. ) ;
#275 = DIRECTION ( 'NONE',  ( 0.7071067811865513475, 0.000000000000000000, 0.7071067811865435759 ) ) ;
#276 = FACE_OUTER_BOUND ( 'NONE', #144, .T. ) ;
#277 = COORDINATED_UNIVERSAL_TIME_OFFSET ( 8, 0, .BEHIND. ) ;
#278 = LOCAL_TIME ( 17, 51, 34.00000000000000000, #127 ) ;
#279 = FACE_BOUND ( 'NONE', #287, .T. ) ;
#280 = ORIENTED_EDGE ( 'NONE', *, *, #194, .F. ) ;
#281 = CARTESIAN_POINT ( 'NONE',  ( 2.643572659412458267E-16, 1.062499999999999778, 0.000000000000000000 ) ) ;
#282 = DIRECTION ( 'NONE',  ( -0.000000000000000000, -0.000000000000000000, 1.000000000000000000 ) ) ;
#283 = DIRECTION ( 'NONE',  ( 0.000000000000000000, 0.000000000000000000, 1.000000000000000000 ) ) ;
#284 = VERTEX_POINT ( 'NONE', #86 ) ;
#285 = EDGE_CURVE ( 'NONE', #371, #95, #381, .T. ) ;
#286 = EDGE_LOOP ( 'NONE', ( #175, #339, #208, #345 ) ) ;
#287 = EDGE_LOOP ( 'NONE', ( #280, #185 ) ) ;
#288 = LINE ( 'NONE', #108, #361 ) ;
#289 = DIRECTION ( 'NONE',  ( 1.000000000000000000, 0.000000000000000000, 0.000000000000000000 ) ) ;
#290 = CARTESIAN_POINT ( 'NONE',  ( 2.643572659412458267E-16, 1.062499999999999778, -0.3097252814995897219 ) ) ;
#291 = APPROVAL ( #55, 'UNSPECIFIED' ) ;
#292 = VERTEX_POINT ( 'NONE', #298 ) ;
#293 = CLOSED_SHELL ( 'NONE', ( #115, #160, #37, #154, #437, #274, #435, #217, #62, #297, #300, #442, #197, #72 ) ) ;
#294 = DIRECTION ( 'NONE',  ( 1.000000000000000000, 0.000000000000000000, 0.000000000000000000 ) ) ;
#295 = AXIS2_PLACEMENT_3D ( 'NONE', #444, #271, #57 ) ;
#296 = VECTOR ( 'NONE', #456, 39.37007874015748854 ) ;
#297 = ADVANCED_FACE ( 'NONE', ( #227, #301 ), #178, .F. ) ;
#298 = CARTESIAN_POINT ( 'NONE',  ( -0.1874999999999996947, 1.062499999999999778, 0.4187500000000002331 ) ) ;
#299 = AXIS2_PLACEMENT_3D ( 'NONE', #102, #245, #74 ) ;
#300 = ADVANCED_FACE ( 'NONE', ( #386 ), #422, .T. ) ;
#301 = FACE_OUTER_BOUND ( 'NONE', #445, .T. ) ;
#302 = APPROVAL_ROLE ( '' ) ;
#303 = CARTESIAN_POINT ( 'NONE',  ( 0.2625000000000002887, 1.062499999999999778, 0.3097252814995897219 ) ) ;
#304 = EDGE_CURVE ( 'NONE', #14, #319, #335, .T. ) ;
#305 = ORIENTED_EDGE ( 'NONE', *, *, #32, .F. ) ;
#306 = AXIS2_PLACEMENT_3D ( 'NONE', #36, #141, #396 ) ;
#307 = CALENDAR_DATE ( 2026, 22, 8 ) ;
#308 = CARTESIAN_POINT ( 'NONE',  ( 0.2625000000000002887, 1.062499999999999778, -0.3097252814995897219 ) ) ;
#309 = DIRECTION ( 'NONE',  ( 0.000000000000000000, 0.000000000000000000, 1.000000000000000000 ) ) ;
#310 = CARTESIAN_POINT ( 'NONE',  ( 0.2062500000000002109, 1.062499999999999778, -0.4375000000000000000 ) ) ;
#311 = CARTESIAN_POINT ( 'NONE',  ( 2.643572659412458267E-16, 1.062499999999999778, 0.000000000000000000 ) ) ;
#312 = EDGE_LOOP ( 'NONE', ( #378, #458, #170, #93 ) ) ;
#313 = AXIS2_PLACEMENT_3D ( 'NONE', #415, #239, #235 ) ;
#314 =( GEOMETRIC_REPRESENTATION_CONTEXT ( 3 ) GLOBAL_UNCERTAINTY_ASSIGNED_CONTEXT ( ( #150 ) ) GLOBAL_UNIT_ASSIGNED_CONTEXT ( ( #83, #188, #328 ) ) REPRESENTATION_CONTEXT ( 'NONE', 'WORKASPACE' ) );
#315 = CARTESIAN_POINT ( 'NONE',  ( 2.643572659412458267E-16, 1.062499999999999778, -0.4375000000000000000 ) ) ;
#316 = DIRECTION ( 'NONE',  ( 1.000000000000000000, -3.364344819783574508E-16, 0.000000000000000000 ) ) ;
#317 = EDGE_LOOP ( 'NONE', ( #145, #342, #76, #218 ) ) ;
#318 = SPHERICAL_SURFACE ( 'NONE', #257, 0.4060000000000001386 ) ;
#319 = VERTEX_POINT ( 'NONE', #132 ) ;
#320 = SHAPE_DEFINITION_REPRESENTATION ( #161, #205 ) ;
#321 = AXIS2_PLACEMENT_3D ( 'NONE', #11, #46, #89 ) ;
#322 = CIRCLE ( 'NONE', #84, 0.1874999999999999722 ) ;
#323 = CARTESIAN_POINT ( 'NONE',  ( 2.643572659412458267E-16, 1.062499999999999778, -0.3097252814995897219 ) ) ;
#324 = CARTESIAN_POINT ( 'NONE',  ( 4.527043438270686998E-16, 1.468499999999999917, 0.000000000000000000 ) ) ;
#325 = DIRECTION ( 'NONE',  ( -1.000000000000000000, 0.000000000000000000, 0.000000000000000000 ) ) ;
#326 = ORIENTED_EDGE ( 'NONE', *, *, #147, .F. ) ;
#327 = CC_DESIGN_PERSON_AND_ORGANIZATION_ASSIGNMENT ( #18, #129, ( #366 ) ) ;
#328 =( NAMED_UNIT ( * ) SI_UNIT ( $, .STERADIAN. ) SOLID_ANGLE_UNIT ( ) );
#329 = CIRCLE ( 'NONE', #96, 0.2062499999999999611 ) ;
#330 = DESIGN_CONTEXT ( 'detailed design', #433, 'design' ) ;
#331 = ORIENTED_EDGE ( 'NONE', *, *, #241, .T. ) ;
#332 = DIRECTION ( 'NONE',  ( 0.000000000000000000, 0.000000000000000000, 1.000000000000000000 ) ) ;
#333 = EDGE_CURVE ( 'NONE', #369, #113, #56, .T. ) ;
#334 = CIRCLE ( 'NONE', #446, 0.1874999999999999722 ) ;
#335 = CIRCLE ( 'NONE', #313, 0.2062499999999999611 ) ;
#336 = MANIFOLD_SOLID_BREP ( 'Chamfer1', #293 ) ;
#337 = PERSON_AND_ORGANIZATION_ROLE ( 'design_owner' ) ;
#338 = DIRECTION ( 'NONE',  ( -0.000000000000000000, -0.000000000000000000, 1.000000000000000000 ) ) ;
#339 = ORIENTED_EDGE ( 'NONE', *, *, #455, .F. ) ;
#340 = CC_DESIGN_APPROVAL ( #291, ( #98 ) ) ;
#341 = PLANE ( 'NONE',  #187 ) ;
#342 = ORIENTED_EDGE ( 'NONE', *, *, #75, .T. ) ;
#343 = SECURITY_CLASSIFICATION_LEVEL ( 'unclassified' ) ;
#344 = LINE ( 'NONE', #419, #347 ) ;
#345 = ORIENTED_EDGE ( 'NONE', *, *, #225, .F. ) ;
#346 = CIRCLE ( 'NONE', #193, 0.2625000000000000111 ) ;
#347 = VECTOR ( 'NONE', #275, 39.37007874015748854 ) ;
#348 = PERSON_AND_ORGANIZATION ( #460, #353 ) ;
#349 = COORDINATED_UNIVERSAL_TIME_OFFSET ( 8, 0, .BEHIND. ) ;
#350 = DIRECTION ( 'NONE',  ( 0.000000000000000000, 0.000000000000000000, 1.000000000000000000 ) ) ;
#351 = AXIS2_PLACEMENT_3D ( 'NONE', #31, #114, #103 ) ;
#352 = DIRECTION ( 'NONE',  ( -0.000000000000000000, -0.000000000000000000, -1.000000000000000000 ) ) ;
#353 = ORGANIZATION ( 'UNSPECIFIED', 'UNSPECIFIED', '' ) ;
#354 = EDGE_CURVE ( 'NONE', #372, #41, #100, .T. ) ;
#355 = CARTESIAN_POINT ( 'NONE',  ( -0.2624999999999997335, 1.062499999999999778, 0.3097252814995897219 ) ) ;
#356 = CARTESIAN_POINT ( 'NONE',  ( 0.2625000000000002887, 1.062499999999999778, 0.4375000000000000000 ) ) ;
#357 = FACE_OUTER_BOUND ( 'NONE', #107, .T. ) ;
#358 = CC_DESIGN_DATE_AND_TIME_ASSIGNMENT ( #190, #383, ( #212 ) ) ;
#359 = FACE_OUTER_BOUND ( 'NONE', #17, .T. ) ;
#360 = CIRCLE ( 'NONE', #263, 0.4060000000000001386 ) ;
#361 = VECTOR ( 'NONE', #250, 39.37007874015748143 ) ;
#362 = CYLINDRICAL_SURFACE ( 'NONE', #306, 0.2625000000000000111 ) ;
#363 = EDGE_CURVE ( 'NONE', #372, #34, #322, .T. ) ;
#364 = VERTEX_POINT ( 'NONE', #202 ) ;
#365 = DIRECTION ( 'NONE',  ( 1.000000000000000000, 0.000000000000000000, 0.000000000000000000 ) ) ;
#366 = SECURITY_CLASSIFICATION ( '', '', #343 ) ;
#367 = DIRECTION ( 'NONE',  ( -0.000000000000000000, -0.000000000000000000, -1.000000000000000000 ) ) ;
#368 = EDGE_CURVE ( 'NONE', #109, #14, #344, .T. ) ;
#369 = VERTEX_POINT ( 'NONE', #303 ) ;
#370 = LINE ( 'NONE', #112, #273 ) ;
#371 = VERTEX_POINT ( 'NONE', #63 ) ;
#372 = VERTEX_POINT ( 'NONE', #159 ) ;
#373 = VECTOR ( 'NONE', #167, 39.37007874015748143 ) ;
#374 = DIRECTION ( 'NONE',  ( 1.000000000000000000, 0.000000000000000000, -0.000000000000000000 ) ) ;
#375 = CONICAL_SURFACE ( 'NONE', #406, 0.2062499999999999611, 0.7853981633974465026 ) ;
#376 = EDGE_LOOP ( 'NONE', ( #244, #133 ) ) ;
#377 = EDGE_CURVE ( 'NONE', #34, #398, #199, .T. ) ;
#378 = ORIENTED_EDGE ( 'NONE', *, *, #418, .F. ) ;
#379 = PERSON_AND_ORGANIZATION_ROLE ( 'design_supplier' ) ;
#380 = ORIENTED_EDGE ( 'NONE', *, *, #8, .T. ) ;
#381 = CIRCLE ( 'NONE', #321, 0.2625000000000000111 ) ;
#382 = CIRCLE ( 'NONE', #440, 0.1874999999999999722 ) ;
#383 = DATE_TIME_ROLE ( 'creation_date' ) ;
#384 = CC_DESIGN_PERSON_AND_ORGANIZATION_ASSIGNMENT ( #233, #231, ( #98 ) ) ;
#385 = DIRECTION ( 'NONE',  ( 1.000000000000000000, 0.000000000000000000, 0.000000000000000000 ) ) ;
#386 = FACE_OUTER_BOUND ( 'NONE', #259, .T. ) ;
#387 = CARTESIAN_POINT ( 'NONE',  ( 0.2062500000000002109, 1.062499999999999778, 0.4375000000000000000 ) ) ;
#388 = VECTOR ( 'NONE', #169, 39.37007874015748143 ) ;
#389 = CARTESIAN_POINT ( 'NONE',  ( 2.643572659412458267E-16, 1.062499999999999778, 0.4375000000000000000 ) ) ;
#390 = DIRECTION ( 'NONE',  ( -0.000000000000000000, -0.000000000000000000, 1.000000000000000000 ) ) ;
#391 = DIRECTION ( 'NONE',  ( 0.000000000000000000, 0.000000000000000000, -1.000000000000000000 ) ) ;
#392 = VERTEX_POINT ( 'NONE', #308 ) ;
#393 = CYLINDRICAL_SURFACE ( 'NONE', #13, 0.1874999999999999722 ) ;
#394 = CARTESIAN_POINT ( 'NONE',  ( 2.643572659412458267E-16, 1.062499999999999778, 0.4187500000000002331 ) ) ;
#395 = AXIS2_PLACEMENT_3D ( 'NONE', #191, #420, #26 ) ;
#396 = DIRECTION ( 'NONE',  ( 1.000000000000000000, 0.000000000000000000, 0.000000000000000000 ) ) ;
#397 = ORIENTED_EDGE ( 'NONE', *, *, #51, .F. ) ;
#398 = VERTEX_POINT ( 'NONE', #94 ) ;
#399 = DIRECTION ( 'NONE',  ( 0.000000000000000000, 0.000000000000000000, 1.000000000000000000 ) ) ;
#400 = CARTESIAN_POINT ( 'NONE',  ( -0.2624999999999997335, 1.062499999999999778, -0.4375000000000000000 ) ) ;
#401 = ORIENTED_EDGE ( 'NONE', *, *, #2, .F. ) ;
#402 = PERSON_AND_ORGANIZATION ( #460, #353 ) ;
#403 = VERTEX_POINT ( 'NONE', #324 ) ;
#404 = ORIENTED_EDGE ( 'NONE', *, *, #414, .T. ) ;
#405 = APPROVAL_STATUS ( 'not_yet_approved' ) ;
#406 = AXIS2_PLACEMENT_3D ( 'NONE', #6, #367, #325 ) ;
#407 = ORIENTED_EDGE ( 'NONE', *, *, #54, .F. ) ;
#408 = APPROVAL ( #21, 'UNSPECIFIED' ) ;
#409 = PERSON_AND_ORGANIZATION ( #460, #353 ) ;
#410 = DIRECTION ( 'NONE',  ( -1.000000000000000000, 0.000000000000000000, 0.000000000000000000 ) ) ;
#411 = FACE_OUTER_BOUND ( 'NONE', #317, .T. ) ;
#412 = AXIS2_PLACEMENT_3D ( 'NONE', #146, #332, #152 ) ;
#413 = ORIENTED_EDGE ( 'NONE', *, *, #90, .T. ) ;
#414 = EDGE_CURVE ( 'NONE', #109, #292, #382, .T. ) ;
#415 = CARTESIAN_POINT ( 'NONE',  ( 2.643572659412458267E-16, 1.062499999999999778, 0.4375000000000000000 ) ) ;
#416 = AXIS2_PLACEMENT_3D ( 'NONE', #203, #165, #316 ) ;
#417 = PERSON_AND_ORGANIZATION ( #460, #353 ) ;
#418 = EDGE_CURVE ( 'NONE', #292, #319, #35, .T. ) ;
#419 = CARTESIAN_POINT ( 'NONE',  ( 0.1875000000000002498, 1.062499999999999778, 0.4187500000000002331 ) ) ;
#420 = DIRECTION ( 'NONE',  ( -0.000000000000000000, -0.000000000000000000, 1.000000000000000000 ) ) ;
#421 = DATE_AND_TIME ( #454, #278 ) ;
#422 = CYLINDRICAL_SURFACE ( 'NONE', #131, 0.2625000000000000111 ) ;
#423 = CARTESIAN_POINT ( 'NONE',  ( 2.643572659412458267E-16, 1.062499999999999778, 0.4187500000000002331 ) ) ;
#424 = APPROVAL_DATE_TIME ( #134, #408 ) ;
#425 = DIRECTION ( 'NONE',  ( 1.000000000000000000, -3.364344819783574508E-16, 0.000000000000000000 ) ) ;
#426 = DIRECTION ( 'NONE',  ( 0.000000000000000000, 0.000000000000000000, 1.000000000000000000 ) ) ;
#427 = CC_DESIGN_PERSON_AND_ORGANIZATION_ASSIGNMENT ( #60, #379, ( #98 ) ) ;
#428 = AXIS2_PLACEMENT_3D ( 'NONE', #290, #391, #289 ) ;
#429 = DIRECTION ( 'NONE',  ( 1.000000000000000000, 0.000000000000000000, 0.000000000000000000 ) ) ;
#430 = DIRECTION ( 'NONE',  ( 1.000000000000000000, 0.000000000000000000, 0.000000000000000000 ) ) ;
#431 = EDGE_CURVE ( 'NONE', #34, #292, #288, .T. ) ;
#432 = VERTEX_POINT ( 'NONE', #355 ) ;
#433 = APPLICATION_CONTEXT ( 'configuration controlled 3d designs of mechanical parts and assemblies' ) ;
#434 = ORIENTED_EDGE ( 'NONE', *, *, #304, .F. ) ;
#435 = ADVANCED_FACE ( 'NONE', ( #29 ), #71, .T. ) ;
#436 = CARTESIAN_POINT ( 'NONE',  ( 2.643572659412458267E-16, 1.062499999999999778, -0.4375000000000000000 ) ) ;
#437 = ADVANCED_FACE ( 'NONE', ( #215, #140 ), #318, .T. ) ;
#438 = MECHANICAL_CONTEXT ( 'NONE', #125, 'mechanical' ) ;
#439 = DIRECTION ( 'NONE',  ( 0.000000000000000000, 0.000000000000000000, 1.000000000000000000 ) ) ;
#440 = AXIS2_PLACEMENT_3D ( 'NONE', #256, #110, #365 ) ;
#441 = ORIENTED_EDGE ( 'NONE', *, *, #431, .T. ) ;
#442 = ADVANCED_FACE ( 'NONE', ( #357 ), #393, .F. ) ;
#443 = DIRECTION ( 'NONE',  ( -1.000000000000000000, 0.000000000000000000, 0.000000000000000000 ) ) ;
#444 = CARTESIAN_POINT ( 'NONE',  ( 2.643572659412458267E-16, 1.062499999999999778, -0.4375000000000000000 ) ) ;
#445 = EDGE_LOOP ( 'NONE', ( #452, #186 ) ) ;
#446 = AXIS2_PLACEMENT_3D ( 'NONE', #423, #309, #385 ) ;
#447 = ORIENTED_EDGE ( 'NONE', *, *, #75, .F. ) ;
#448 = CARTESIAN_POINT ( 'NONE',  ( 0.2062500000000002109, 1.062499999999999778, -0.4375000000000000000 ) ) ;
#449 = COORDINATED_UNIVERSAL_TIME_OFFSET ( 8, 0, .BEHIND. ) ;
#450 = CC_DESIGN_DATE_AND_TIME_ASSIGNMENT ( #192, #267, ( #366 ) ) ;
#451 = DIRECTION ( 'NONE',  ( -1.000000000000000000, 0.000000000000000000, 0.000000000000000000 ) ) ;
#452 = ORIENTED_EDGE ( 'NONE', *, *, #241, .F. ) ;
#453 = VECTOR ( 'NONE', #350, 39.37007874015748143 ) ;
#454 = CALENDAR_DATE ( 2026, 22, 8 ) ;
#455 = EDGE_CURVE ( 'NONE', #34, #372, #230, .T. ) ;
#456 = DIRECTION ( 'NONE',  ( -0.7071067811865513475, 8.659560562354980929E-17, 0.7071067811865435759 ) ) ;
#457 = CARTESIAN_POINT ( 'NONE',  ( 2.643572659412458267E-16, 1.062499999999999778, 0.4187500000000002331 ) ) ;
#458 = ORIENTED_EDGE ( 'NONE', *, *, #414, .F. ) ;
#459 = CALENDAR_DATE ( 2026, 22, 8 ) ;
#460 = PERSON ( 'UNSPECIFIED', 'UNSPECIFIED', 'UNSPECIFIED', ('UNSPECIFIED'), ('UNSPECIFIED'), ('UNSPECIFIED') ) ;
#461 = CONICAL_SURFACE ( 'NONE', #351, 0.2062499999999999611, 0.7853981633974465026 ) ;
#462 = CARTESIAN_POINT ( 'NONE',  ( 2.643572659412458267E-16, 1.062499999999999778, -0.4375000000000000000 ) ) ;
ENDSEC;
END-ISO-10303-21;
