ISO-10303-21;
HEADER;
FILE_DESCRIPTION (( 'STEP AP203' ),
    '1' );
FILE_NAME ('spacer_Default_sldprt.STEP',
    '2026-08-23T00:51:43',
    ( '' ),
    ( '' ),
    'SwSTEP 2.0',
    'SolidWorks 2025',
    '' );
FILE_SCHEMA (( 'CONFIG_CONTROL_DESIGN' ));
ENDSEC;

DATA;
#1 = CC_DESIGN_PERSON_AND_ORGANIZATION_ASSIGNMENT ( #23, #22, ( #162 ) ) ;
#2 = AXIS2_PLACEMENT_3D ( 'NONE', #27, #125, #88 ) ;
#3 = CC_DESIGN_APPROVAL ( #32, ( #51 ) ) ;
#4 = MANIFOLD_SOLID_BREP ( 'Boss-Extrude1', #136 ) ;
#5 = PERSON_AND_ORGANIZATION_ROLE ( 'design_supplier' ) ;
#6 = AXIS2_PLACEMENT_3D ( 'NONE', #191, #52, #50 ) ;
#7 = CARTESIAN_POINT ( 'NONE',  ( 6.000000000000000888, 7.347880794884120722E-16, 33.50000000000000000 ) ) ;
#8 = APPROVAL ( #195, 'UNSPECIFIED' ) ;
#9 = DIRECTION ( 'NONE',  ( 0.000000000000000000, 0.000000000000000000, 1.000000000000000000 ) ) ;
#10 = FACE_OUTER_BOUND ( 'NONE', #89, .T. ) ;
#11 = CIRCLE ( 'NONE', #233, 6.000000000000000888 ) ;
#12 = CARTESIAN_POINT ( 'NONE',  ( 6.000000000000000888, 7.347880794884120722E-16, 33.50000000000000000 ) ) ;
#13 = ORIENTED_EDGE ( 'NONE', *, *, #235, .T. ) ;
#14 = CARTESIAN_POINT ( 'NONE',  ( 0.000000000000000000, 0.000000000000000000, 0.000000000000000000 ) ) ;
#15 = VERTEX_POINT ( 'NONE', #237 ) ;
#16 = DIRECTION ( 'NONE',  ( 0.000000000000000000, 0.000000000000000000, 1.000000000000000000 ) ) ;
#17 = ORIENTED_EDGE ( 'NONE', *, *, #158, .F. ) ;
#18 = DIRECTION ( 'NONE',  ( -0.000000000000000000, -0.000000000000000000, -1.000000000000000000 ) ) ;
#19 = DIRECTION ( 'NONE',  ( -0.000000000000000000, -0.000000000000000000, -1.000000000000000000 ) ) ;
#20 = CARTESIAN_POINT ( 'NONE',  ( -6.000000000000000888, 0.000000000000000000, 0.000000000000000000 ) ) ;
#21 = ADVANCED_FACE ( 'NONE', ( #167 ), #165, .F. ) ;
#22 = PERSON_AND_ORGANIZATION_ROLE ( 'creator' ) ;
#23 = PERSON_AND_ORGANIZATION ( #157, #211 ) ;
#24 = DIRECTION ( 'NONE',  ( 0.000000000000000000, 0.000000000000000000, 1.000000000000000000 ) ) ;
#25 = FACE_OUTER_BOUND ( 'NONE', #203, .T. ) ;
#26 = DESIGN_CONTEXT ( 'detailed design', #37, 'design' ) ;
#27 = CARTESIAN_POINT ( 'NONE',  ( 0.000000000000000000, 0.000000000000000000, 33.50000000000000000 ) ) ;
#28 = LOCAL_TIME ( 17, 51, 43.00000000000000000, #197 ) ;
#29 = EDGE_LOOP ( 'NONE', ( #91, #73, #72, #94 ) ) ;
#30 = ADVANCED_FACE ( 'NONE', ( #170 ), #201, .T. ) ;
#31 = PERSON_AND_ORGANIZATION_ROLE ( 'design_owner' ) ;
#32 = APPROVAL ( #130, 'UNSPECIFIED' ) ;
#33 = AXIS2_PLACEMENT_3D ( 'NONE', #43, #24, #148 ) ;
#34 = DIRECTION ( 'NONE',  ( 0.000000000000000000, 0.000000000000000000, 1.000000000000000000 ) ) ;
#35 = VERTEX_POINT ( 'NONE', #169 ) ;
#36 = PRODUCT_DEFINITION_SHAPE ( 'NONE', 'NONE',  #51 ) ;
#37 = APPLICATION_CONTEXT ( 'configuration controlled 3d designs of mechanical parts and assemblies' ) ;
#38 = EDGE_CURVE ( 'NONE', #15, #49, #144, .T. ) ;
#39 = DATE_TIME_ROLE ( 'creation_date' ) ;
#40 = DATE_AND_TIME ( #214, #229 ) ;
#41 = APPROVAL ( #60, 'UNSPECIFIED' ) ;
#42 = DATE_TIME_ROLE ( 'classification_date' ) ;
#43 = CARTESIAN_POINT ( 'NONE',  ( 0.000000000000000000, 0.000000000000000000, 33.50000000000000000 ) ) ;
#44 = CC_DESIGN_DATE_AND_TIME_ASSIGNMENT ( #194, #39, ( #51 ) ) ;
#45 = CARTESIAN_POINT ( 'NONE',  ( -15.00000000000000000, 0.000000000000000000, 33.50000000000000000 ) ) ;
#46 = PLANE ( 'NONE',  #6 ) ;
#47 = ORIENTED_EDGE ( 'NONE', *, *, #58, .F. ) ;
#48 = CARTESIAN_POINT ( 'NONE',  ( 0.000000000000000000, 0.000000000000000000, 0.000000000000000000 ) ) ;
#49 = VERTEX_POINT ( 'NONE', #12 ) ;
#50 = DIRECTION ( 'NONE',  ( 1.000000000000000000, 0.000000000000000000, -0.000000000000000000 ) ) ;
#51 = PRODUCT_DEFINITION ( 'UNKNOWN', '', #162, #26 ) ;
#52 = DIRECTION ( 'NONE',  ( 0.000000000000000000, 0.000000000000000000, 1.000000000000000000 ) ) ;
#53 = ORIENTED_EDGE ( 'NONE', *, *, #100, .T. ) ;
#54 = AXIS2_PLACEMENT_3D ( 'NONE', #48, #87, #240 ) ;
#55 = AXIS2_PLACEMENT_3D ( 'NONE', #106, #122, #107 ) ;
#56 = SECURITY_CLASSIFICATION ( '', '', #212 ) ;
#57 = APPROVAL_DATE_TIME ( #228, #32 ) ;
#58 = EDGE_CURVE ( 'NONE', #215, #171, #102, .T. ) ;
#59 = DIRECTION ( 'NONE',  ( 0.000000000000000000, 0.000000000000000000, 1.000000000000000000 ) ) ;
#60 = APPROVAL_STATUS ( 'not_yet_approved' ) ;
#61 = APPLICATION_CONTEXT ( 'configuration controlled 3d designs of mechanical parts and assemblies' ) ;
#62 = CIRCLE ( 'NONE', #92, 15.00000000000000000 ) ;
#63 = CC_DESIGN_APPROVAL ( #8, ( #56 ) ) ;
#64 = CYLINDRICAL_SURFACE ( 'NONE', #227, 15.00000000000000000 ) ;
#65 = EDGE_LOOP ( 'NONE', ( #85, #246 ) ) ;
#66 = DIRECTION ( 'NONE',  ( -1.000000000000000000, 0.000000000000000000, 0.000000000000000000 ) ) ;
#67 = DIRECTION ( 'NONE',  ( 1.000000000000000000, 0.000000000000000000, 0.000000000000000000 ) ) ;
#68 = DIRECTION ( 'NONE',  ( -0.000000000000000000, -0.000000000000000000, -1.000000000000000000 ) ) ;
#69 = VECTOR ( 'NONE', #19, 1000.000000000000000 ) ;
#70 = PERSON_AND_ORGANIZATION ( #157, #211 ) ;
#71 = PERSON_AND_ORGANIZATION ( #157, #211 ) ;
#72 = ORIENTED_EDGE ( 'NONE', *, *, #140, .T. ) ;
#73 = ORIENTED_EDGE ( 'NONE', *, *, #158, .T. ) ;
#74 = VECTOR ( 'NONE', #200, 1000.000000000000000 ) ;
#75 = DIRECTION ( 'NONE',  ( 1.000000000000000000, 0.000000000000000000, -0.000000000000000000 ) ) ;
#76 = FACE_OUTER_BOUND ( 'NONE', #199, .T. ) ;
#77 = PERSON_AND_ORGANIZATION ( #157, #211 ) ;
#78 = APPROVAL_ROLE ( '' ) ;
#79 = EDGE_CURVE ( 'NONE', #113, #219, #137, .T. ) ;
#80 = CALENDAR_DATE ( 2026, 22, 8 ) ;
#81 = CALENDAR_DATE ( 2026, 22, 8 ) ;
#82 = COORDINATED_UNIVERSAL_TIME_OFFSET ( 8, 0, .BEHIND. ) ;
#83 = DIRECTION ( 'NONE',  ( 0.000000000000000000, 0.000000000000000000, 1.000000000000000000 ) ) ;
#84 = ORIENTED_EDGE ( 'NONE', *, *, #38, .T. ) ;
#85 = ORIENTED_EDGE ( 'NONE', *, *, #168, .F. ) ;
#86 = CC_DESIGN_DATE_AND_TIME_ASSIGNMENT ( #121, #42, ( #56 ) ) ;
#87 = DIRECTION ( 'NONE',  ( 0.000000000000000000, 0.000000000000000000, 1.000000000000000000 ) ) ;
#88 = DIRECTION ( 'NONE',  ( -1.000000000000000000, 0.000000000000000000, 0.000000000000000000 ) ) ;
#89 = EDGE_LOOP ( 'NONE', ( #151, #131 ) ) ;
#90 = CARTESIAN_POINT ( 'NONE',  ( 0.000000000000000000, 0.000000000000000000, 33.50000000000000000 ) ) ;
#91 = ORIENTED_EDGE ( 'NONE', *, *, #213, .F. ) ;
#92 = AXIS2_PLACEMENT_3D ( 'NONE', #217, #83, #67 ) ;
#93 = CARTESIAN_POINT ( 'NONE',  ( 0.000000000000000000, 0.000000000000000000, 0.000000000000000000 ) ) ;
#94 = ORIENTED_EDGE ( 'NONE', *, *, #221, .F. ) ;
#95 = CARTESIAN_POINT ( 'NONE',  ( -6.000000000000000888, 0.000000000000000000, 33.50000000000000000 ) ) ;
#96 = FACE_OUTER_BOUND ( 'NONE', #65, .T. ) ;
#97 = CC_DESIGN_PERSON_AND_ORGANIZATION_ASSIGNMENT ( #133, #208, ( #51 ) ) ;
#98 = VECTOR ( 'NONE', #189, 1000.000000000000000 ) ;
#99 = CARTESIAN_POINT ( 'NONE',  ( 0.000000000000000000, 0.000000000000000000, 33.50000000000000000 ) ) ;
#100 = EDGE_CURVE ( 'NONE', #49, #15, #247, .T. ) ;
#101 = AXIS2_PLACEMENT_3D ( 'NONE', #241, #68, #66 ) ;
#102 = CIRCLE ( 'NONE', #54, 6.000000000000000888 ) ;
#103 = APPROVAL_DATE_TIME ( #40, #8 ) ;
#104 = PERSON_AND_ORGANIZATION ( #157, #211 ) ;
#105 = APPROVAL_PERSON_ORGANIZATION ( #71, #32, #206 ) ;
#106 = CARTESIAN_POINT ( 'NONE',  ( 0.000000000000000000, 0.000000000000000000, 0.000000000000000000 ) ) ;
#107 = DIRECTION ( 'NONE',  ( 1.000000000000000000, 0.000000000000000000, 0.000000000000000000 ) ) ;
#108 = DIRECTION ( 'NONE',  ( -0.000000000000000000, -0.000000000000000000, -1.000000000000000000 ) ) ;
#109 = ADVANCED_BREP_SHAPE_REPRESENTATION ( 'spacer_Default_sldprt', ( #4, #114 ), #220 ) ;
#110 = DIRECTION ( 'NONE',  ( 0.000000000000000000, 0.000000000000000000, 1.000000000000000000 ) ) ;
#111 = ORIENTED_EDGE ( 'NONE', *, *, #238, .F. ) ;
#112 = DIRECTION ( 'NONE',  ( 0.000000000000000000, 0.000000000000000000, 1.000000000000000000 ) ) ;
#113 = VERTEX_POINT ( 'NONE', #45 ) ;
#114 = AXIS2_PLACEMENT_3D ( 'NONE', #93, #59, #135 ) ;
#115 = MECHANICAL_CONTEXT ( 'NONE', #61, 'mechanical' ) ;
#116 = ORIENTED_EDGE ( 'NONE', *, *, #221, .T. ) ;
#117 = LINE ( 'NONE', #95, #69 ) ;
#118 = COORDINATED_UNIVERSAL_TIME_OFFSET ( 8, 0, .BEHIND. ) ;
#119 = COORDINATED_UNIVERSAL_TIME_OFFSET ( 8, 0, .BEHIND. ) ;
#120 = CC_DESIGN_PERSON_AND_ORGANIZATION_ASSIGNMENT ( #210, #231, ( #56 ) ) ;
#121 = DATE_AND_TIME ( #81, #154 ) ;
#122 = DIRECTION ( 'NONE',  ( 0.000000000000000000, 0.000000000000000000, 1.000000000000000000 ) ) ;
#123 = CARTESIAN_POINT ( 'NONE',  ( 15.00000000000000000, 1.836970198721029589E-15, 33.50000000000000000 ) ) ;
#124 = UNCERTAINTY_MEASURE_WITH_UNIT (LENGTH_MEASURE( 1.000000000000000082E-05 ), #225, 'distance_accuracy_value', 'NONE');
#125 = DIRECTION ( 'NONE',  ( -0.000000000000000000, -0.000000000000000000, -1.000000000000000000 ) ) ;
#126 = EDGE_LOOP ( 'NONE', ( #236, #53, #13, #111 ) ) ;
#127 = AXIS2_PLACEMENT_3D ( 'NONE', #245, #112, #75 ) ;
#128 = CARTESIAN_POINT ( 'NONE',  ( 0.000000000000000000, 0.000000000000000000, 33.50000000000000000 ) ) ;
#129 = LINE ( 'NONE', #192, #98 ) ;
#130 = APPROVAL_STATUS ( 'not_yet_approved' ) ;
#131 = ORIENTED_EDGE ( 'NONE', *, *, #213, .T. ) ;
#132 = CC_DESIGN_PERSON_AND_ORGANIZATION_ASSIGNMENT ( #77, #5, ( #162 ) ) ;
#133 = PERSON_AND_ORGANIZATION ( #157, #211 ) ;
#134 = ORIENTED_EDGE ( 'NONE', *, *, #168, .T. ) ;
#135 = DIRECTION ( 'NONE',  ( 1.000000000000000000, 0.000000000000000000, 0.000000000000000000 ) ) ;
#136 = CLOSED_SHELL ( 'NONE', ( #224, #30, #196, #242, #180, #21 ) ) ;
#137 = CIRCLE ( 'NONE', #172, 15.00000000000000000 ) ;
#138 = LOCAL_TIME ( 17, 51, 43.00000000000000000, #190 ) ;
#139 = APPROVAL_ROLE ( '' ) ;
#140 = EDGE_CURVE ( 'NONE', #222, #35, #166, .T. ) ;
#141 = CC_DESIGN_PERSON_AND_ORGANIZATION_ASSIGNMENT ( #70, #31, ( #156 ) ) ;
#142 = CIRCLE ( 'NONE', #181, 15.00000000000000000 ) ;
#143 = CARTESIAN_POINT ( 'NONE',  ( 0.000000000000000000, 0.000000000000000000, 33.50000000000000000 ) ) ;
#144 = CIRCLE ( 'NONE', #33, 6.000000000000000888 ) ;
#145 = CARTESIAN_POINT ( 'NONE',  ( 0.000000000000000000, 0.000000000000000000, 33.50000000000000000 ) ) ;
#146 = ORIENTED_EDGE ( 'NONE', *, *, #38, .F. ) ;
#147 = EDGE_LOOP ( 'NONE', ( #153, #244 ) ) ;
#148 = DIRECTION ( 'NONE',  ( 1.000000000000000000, 0.000000000000000000, 0.000000000000000000 ) ) ;
#149 =( NAMED_UNIT ( * ) SI_UNIT ( $, .STERADIAN. ) SOLID_ANGLE_UNIT ( ) );
#150 = DIRECTION ( 'NONE',  ( 1.000000000000000000, 0.000000000000000000, 0.000000000000000000 ) ) ;
#151 = ORIENTED_EDGE ( 'NONE', *, *, #79, .T. ) ;
#152 = CALENDAR_DATE ( 2026, 22, 8 ) ;
#153 = ORIENTED_EDGE ( 'NONE', *, *, #58, .T. ) ;
#154 = LOCAL_TIME ( 17, 51, 43.00000000000000000, #119 ) ;
#155 = CYLINDRICAL_SURFACE ( 'NONE', #216, 6.000000000000000888 ) ;
#156 = PRODUCT ( 'spacer_Default_sldprt', 'spacer_Default_sldprt', '', ( #115 ) ) ;
#157 = PERSON ( 'UNSPECIFIED', 'UNSPECIFIED', 'UNSPECIFIED', ('UNSPECIFIED'), ('UNSPECIFIED'), ('UNSPECIFIED') ) ;
#158 = EDGE_CURVE ( 'NONE', #219, #222, #218, .T. ) ;
#159 = APPROVAL_DATE_TIME ( #198, #41 ) ;
#160 = PRODUCT_RELATED_PRODUCT_CATEGORY ( 'detail', '', ( #156 ) ) ;
#161 = PERSON_AND_ORGANIZATION ( #157, #211 ) ;
#162 = PRODUCT_DEFINITION_FORMATION_WITH_SPECIFIED_SOURCE ( 'ANY', '', #156, .NOT_KNOWN. ) ;
#163 = EDGE_CURVE ( 'NONE', #49, #171, #182, .T. ) ;
#164 = CARTESIAN_POINT ( 'NONE',  ( 6.000000000000000888, 7.347880794884120722E-16, 0.000000000000000000 ) ) ;
#165 = CYLINDRICAL_SURFACE ( 'NONE', #2, 6.000000000000000888 ) ;
#166 = CIRCLE ( 'NONE', #55, 15.00000000000000000 ) ;
#167 = FACE_OUTER_BOUND ( 'NONE', #126, .T. ) ;
#168 = EDGE_CURVE ( 'NONE', #35, #222, #62, .T. ) ;
#169 = CARTESIAN_POINT ( 'NONE',  ( -15.00000000000000000, 0.000000000000000000, 0.000000000000000000 ) ) ;
#170 = FACE_OUTER_BOUND ( 'NONE', #29, .T. ) ;
#171 = VERTEX_POINT ( 'NONE', #164 ) ;
#172 = AXIS2_PLACEMENT_3D ( 'NONE', #145, #110, #186 ) ;
#173 = LOCAL_TIME ( 17, 51, 43.00000000000000000, #118 ) ;
#174 = APPLICATION_PROTOCOL_DEFINITION ( 'international standard', 'config_control_design', 1994, #37 ) ;
#175 =( NAMED_UNIT ( * ) PLANE_ANGLE_UNIT ( ) SI_UNIT ( $, .RADIAN. ) );
#176 = PLANE ( 'NONE',  #127 ) ;
#177 = VECTOR ( 'NONE', #183, 1000.000000000000000 ) ;
#178 = CC_DESIGN_APPROVAL ( #41, ( #162 ) ) ;
#179 = DIRECTION ( 'NONE',  ( 1.000000000000000000, 0.000000000000000000, 0.000000000000000000 ) ) ;
#180 = ADVANCED_FACE ( 'NONE', ( #25 ), #64, .T. ) ;
#181 = AXIS2_PLACEMENT_3D ( 'NONE', #99, #16, #150 ) ;
#182 = LINE ( 'NONE', #7, #177 ) ;
#183 = DIRECTION ( 'NONE',  ( -0.000000000000000000, -0.000000000000000000, -1.000000000000000000 ) ) ;
#184 = DIRECTION ( 'NONE',  ( -1.000000000000000000, 0.000000000000000000, 0.000000000000000000 ) ) ;
#185 = APPROVAL_PERSON_ORGANIZATION ( #104, #8, #78 ) ;
#186 = DIRECTION ( 'NONE',  ( 1.000000000000000000, 0.000000000000000000, 0.000000000000000000 ) ) ;
#187 = EDGE_LOOP ( 'NONE', ( #146, #207 ) ) ;
#188 = ORIENTED_EDGE ( 'NONE', *, *, #235, .F. ) ;
#189 = DIRECTION ( 'NONE',  ( -0.000000000000000000, -0.000000000000000000, -1.000000000000000000 ) ) ;
#190 = COORDINATED_UNIVERSAL_TIME_OFFSET ( 8, 0, .BEHIND. ) ;
#191 = CARTESIAN_POINT ( 'NONE',  ( 0.000000000000000000, 0.000000000000000000, 33.50000000000000000 ) ) ;
#192 = CARTESIAN_POINT ( 'NONE',  ( -15.00000000000000000, 0.000000000000000000, 33.50000000000000000 ) ) ;
#193 = AXIS2_PLACEMENT_3D ( 'NONE', #128, #9, #204 ) ;
#194 = DATE_AND_TIME ( #230, #173 ) ;
#195 = APPROVAL_STATUS ( 'not_yet_approved' ) ;
#196 = ADVANCED_FACE ( 'NONE', ( #10, #239 ), #46, .T. ) ;
#197 = COORDINATED_UNIVERSAL_TIME_OFFSET ( 8, 0, .BEHIND. ) ;
#198 = DATE_AND_TIME ( #80, #28 ) ;
#199 = EDGE_LOOP ( 'NONE', ( #84, #226, #47, #188 ) ) ;
#200 = DIRECTION ( 'NONE',  ( -0.000000000000000000, -0.000000000000000000, -1.000000000000000000 ) ) ;
#201 = CYLINDRICAL_SURFACE ( 'NONE', #101, 15.00000000000000000 ) ;
#202 = CC_DESIGN_SECURITY_CLASSIFICATION ( #56, ( #162 ) ) ;
#203 = EDGE_LOOP ( 'NONE', ( #17, #243, #116, #134 ) ) ;
#204 = DIRECTION ( 'NONE',  ( 1.000000000000000000, 0.000000000000000000, 0.000000000000000000 ) ) ;
#205 = DIRECTION ( 'NONE',  ( -1.000000000000000000, 0.000000000000000000, 0.000000000000000000 ) ) ;
#206 = APPROVAL_ROLE ( '' ) ;
#207 = ORIENTED_EDGE ( 'NONE', *, *, #100, .F. ) ;
#208 = PERSON_AND_ORGANIZATION_ROLE ( 'creator' ) ;
#209 = APPLICATION_PROTOCOL_DEFINITION ( 'international standard', 'config_control_design', 1994, #61 ) ;
#210 = PERSON_AND_ORGANIZATION ( #157, #211 ) ;
#211 = ORGANIZATION ( 'UNSPECIFIED', 'UNSPECIFIED', '' ) ;
#212 = SECURITY_CLASSIFICATION_LEVEL ( 'unclassified' ) ;
#213 = EDGE_CURVE ( 'NONE', #219, #113, #142, .T. ) ;
#214 = CALENDAR_DATE ( 2026, 22, 8 ) ;
#215 = VERTEX_POINT ( 'NONE', #20 ) ;
#216 = AXIS2_PLACEMENT_3D ( 'NONE', #90, #18, #205 ) ;
#217 = CARTESIAN_POINT ( 'NONE',  ( 0.000000000000000000, 0.000000000000000000, 0.000000000000000000 ) ) ;
#218 = LINE ( 'NONE', #123, #74 ) ;
#219 = VERTEX_POINT ( 'NONE', #248 ) ;
#220 =( GEOMETRIC_REPRESENTATION_CONTEXT ( 3 ) GLOBAL_UNCERTAINTY_ASSIGNED_CONTEXT ( ( #124 ) ) GLOBAL_UNIT_ASSIGNED_CONTEXT ( ( #225, #175, #149 ) ) REPRESENTATION_CONTEXT ( 'NONE', 'WORKASPACE' ) );
#221 = EDGE_CURVE ( 'NONE', #113, #35, #129, .T. ) ;
#222 = VERTEX_POINT ( 'NONE', #223 ) ;
#223 = CARTESIAN_POINT ( 'NONE',  ( 15.00000000000000000, 1.836970198721029589E-15, 0.000000000000000000 ) ) ;
#224 = ADVANCED_FACE ( 'NONE', ( #76 ), #155, .F. ) ;
#225 =( LENGTH_UNIT ( ) NAMED_UNIT ( * ) SI_UNIT ( .MILLI., .METRE. ) );
#226 = ORIENTED_EDGE ( 'NONE', *, *, #163, .T. ) ;
#227 = AXIS2_PLACEMENT_3D ( 'NONE', #143, #108, #184 ) ;
#228 = DATE_AND_TIME ( #152, #138 ) ;
#229 = LOCAL_TIME ( 17, 51, 43.00000000000000000, #82 ) ;
#230 = CALENDAR_DATE ( 2026, 22, 8 ) ;
#231 = PERSON_AND_ORGANIZATION_ROLE ( 'classification_officer' ) ;
#232 = SHAPE_DEFINITION_REPRESENTATION ( #36, #109 ) ;
#233 = AXIS2_PLACEMENT_3D ( 'NONE', #14, #34, #179 ) ;
#234 = APPROVAL_PERSON_ORGANIZATION ( #161, #41, #139 ) ;
#235 = EDGE_CURVE ( 'NONE', #15, #215, #117, .T. ) ;
#236 = ORIENTED_EDGE ( 'NONE', *, *, #163, .F. ) ;
#237 = CARTESIAN_POINT ( 'NONE',  ( -6.000000000000000888, 0.000000000000000000, 33.50000000000000000 ) ) ;
#238 = EDGE_CURVE ( 'NONE', #171, #215, #11, .T. ) ;
#239 = FACE_BOUND ( 'NONE', #187, .T. ) ;
#240 = DIRECTION ( 'NONE',  ( 1.000000000000000000, 0.000000000000000000, 0.000000000000000000 ) ) ;
#241 = CARTESIAN_POINT ( 'NONE',  ( 0.000000000000000000, 0.000000000000000000, 33.50000000000000000 ) ) ;
#242 = ADVANCED_FACE ( 'NONE', ( #96, #249 ), #176, .F. ) ;
#243 = ORIENTED_EDGE ( 'NONE', *, *, #79, .F. ) ;
#244 = ORIENTED_EDGE ( 'NONE', *, *, #238, .T. ) ;
#245 = CARTESIAN_POINT ( 'NONE',  ( 0.000000000000000000, 0.000000000000000000, 0.000000000000000000 ) ) ;
#246 = ORIENTED_EDGE ( 'NONE', *, *, #140, .F. ) ;
#247 = CIRCLE ( 'NONE', #193, 6.000000000000000888 ) ;
#248 = CARTESIAN_POINT ( 'NONE',  ( 15.00000000000000000, 1.836970198721029589E-15, 33.50000000000000000 ) ) ;
#249 = FACE_BOUND ( 'NONE', #147, .T. ) ;
ENDSEC;
END-ISO-10303-21;
