ISO-10303-21;
HEADER;
FILE_DESCRIPTION (( 'STEP AP203' ),
    '1' );
FILE_NAME ('bumper_Default_sldprt.STEP',
    '2026-08-23T00:51:39',
    ( '' ),
    ( '' ),
    'SwSTEP 2.0',
    'SolidWorks 2025',
    '' );
FILE_SCHEMA (( 'CONFIG_CONTROL_DESIGN' ));
ENDSEC;

DATA;
#1 = EDGE_CURVE ( 'NONE', #109, #368, #370, .T. ) ;
#2 = CARTESIAN_POINT ( 'NONE',  ( 47.00000000000000000, 0.000000000000000000, 12.69999999999999929 ) ) ;
#3 = DIRECTION ( 'NONE',  ( 1.000000000000000000, 0.000000000000000000, -0.000000000000000000 ) ) ;
#4 = ORIENTED_EDGE ( 'NONE', *, *, #86, .T. ) ;
#5 = CARTESIAN_POINT ( 'NONE',  ( -53.00000000000000000, 0.000000000000000000, 12.69999999999999929 ) ) ;
#6 = CC_DESIGN_DATE_AND_TIME_ASSIGNMENT ( #285, #380, ( #19 ) ) ;
#7 = CARTESIAN_POINT ( 'NONE',  ( -53.00000000000000000, 12.00000000000000000, 0.000000000000000000 ) ) ;
#8 = CYLINDRICAL_SURFACE ( 'NONE', #289, 12.00000000000000355 ) ;
#9 = CARTESIAN_POINT ( 'NONE',  ( 53.00000000000000000, 0.000000000000000000, 12.69999999999999929 ) ) ;
#10 = DIRECTION ( 'NONE',  ( -1.000000000000000000, -1.800184739221215049E-16, -0.000000000000000000 ) ) ;
#11 = CARTESIAN_POINT ( 'NONE',  ( 53.00000000000000000, 0.000000000000000000, 12.69999999999999929 ) ) ;
#12 = EDGE_CURVE ( 'NONE', #110, #102, #175, .T. ) ;
#13 = PERSON_AND_ORGANIZATION_ROLE ( 'design_owner' ) ;
#14 = VERTEX_POINT ( 'NONE', #7 ) ;
#15 = VERTEX_POINT ( 'NONE', #78 ) ;
#16 = CARTESIAN_POINT ( 'NONE',  ( 53.00000000000000000, 12.00000000000001954, 12.69999999999999929 ) ) ;
#17 = PERSON_AND_ORGANIZATION ( #412, #332 ) ;
#18 = CYLINDRICAL_SURFACE ( 'NONE', #204, 12.00000000000000355 ) ;
#19 = PRODUCT_DEFINITION ( 'UNKNOWN', '', #25, #382 ) ;
#20 = CARTESIAN_POINT ( 'NONE',  ( -53.00000000000000000, 0.000000000000000000, 0.000000000000000000 ) ) ;
#21 = EDGE_CURVE ( 'NONE', #27, #15, #407, .T. ) ;
#22 = COORDINATED_UNIVERSAL_TIME_OFFSET ( 8, 0, .BEHIND. ) ;
#23 = DIRECTION ( 'NONE',  ( 1.000000000000000000, 1.800184739221215049E-16, 0.000000000000000000 ) ) ;
#24 = PLANE ( 'NONE',  #337 ) ;
#25 = PRODUCT_DEFINITION_FORMATION_WITH_SPECIFIED_SOURCE ( 'ANY', '', #320, .NOT_KNOWN. ) ;
#26 = DIRECTION ( 'NONE',  ( -1.000000000000000000, 0.000000000000000000, 0.000000000000000000 ) ) ;
#27 = VERTEX_POINT ( 'NONE', #371 ) ;
#28 = FACE_OUTER_BOUND ( 'NONE', #152, .T. ) ;
#29 = VECTOR ( 'NONE', #335, 1000.000000000000000 ) ;
#30 = EDGE_CURVE ( 'NONE', #299, #110, #186, .T. ) ;
#31 = ORIENTED_EDGE ( 'NONE', *, *, #69, .T. ) ;
#32 = DATE_AND_TIME ( #165, #379 ) ;
#33 = ORIENTED_EDGE ( 'NONE', *, *, #275, .F. ) ;
#34 = CC_DESIGN_DATE_AND_TIME_ASSIGNMENT ( #32, #226, ( #176 ) ) ;
#35 = VECTOR ( 'NONE', #241, 1000.000000000000000 ) ;
#36 = ORIENTED_EDGE ( 'NONE', *, *, #222, .T. ) ;
#37 = CARTESIAN_POINT ( 'NONE',  ( -53.00000000000000000, -12.00000000000000000, 0.000000000000000000 ) ) ;
#38 = LOCAL_TIME ( 17, 51, 39.00000000000000000, #327 ) ;
#39 = ORIENTED_EDGE ( 'NONE', *, *, #30, .F. ) ;
#40 = DIRECTION ( 'NONE',  ( 1.000000000000000000, 1.800184739221215049E-16, 0.000000000000000000 ) ) ;
#41 = ORIENTED_EDGE ( 'NONE', *, *, #30, .T. ) ;
#42 = CARTESIAN_POINT ( 'NONE',  ( 47.00000000000000000, 0.000000000000000000, 0.000000000000000000 ) ) ;
#43 = VECTOR ( 'NONE', #173, 1000.000000000000000 ) ;
#44 = ORIENTED_EDGE ( 'NONE', *, *, #46, .T. ) ;
#45 = ORIENTED_EDGE ( 'NONE', *, *, #80, .T. ) ;
#46 = EDGE_CURVE ( 'NONE', #333, #102, #75, .T. ) ;
#47 = DIRECTION ( 'NONE',  ( 0.000000000000000000, 0.000000000000000000, 1.000000000000000000 ) ) ;
#48 = CALENDAR_DATE ( 2026, 22, 8 ) ;
#49 = AXIS2_PLACEMENT_3D ( 'NONE', #57, #224, #187 ) ;
#50 = FACE_OUTER_BOUND ( 'NONE', #202, .T. ) ;
#51 = VECTOR ( 'NONE', #67, 1000.000000000000000 ) ;
#52 = COORDINATED_UNIVERSAL_TIME_OFFSET ( 8, 0, .BEHIND. ) ;
#53 = CARTESIAN_POINT ( 'NONE',  ( -53.00000000000000000, 0.000000000000000000, 12.69999999999999929 ) ) ;
#54 = APPLICATION_CONTEXT ( 'configuration controlled 3d designs of mechanical parts and assemblies' ) ;
#55 = DIRECTION ( 'NONE',  ( 1.000000000000000000, 0.000000000000000000, 0.000000000000000000 ) ) ;
#56 = PERSON_AND_ORGANIZATION_ROLE ( 'classification_officer' ) ;
#57 = CARTESIAN_POINT ( 'NONE',  ( 53.00000000000000000, 0.000000000000000000, 0.000000000000000000 ) ) ;
#58 = CIRCLE ( 'NONE', #144, 5.999999999999998224 ) ;
#59 = CALENDAR_DATE ( 2026, 22, 8 ) ;
#60 = LINE ( 'NONE', #166, #51 ) ;
#61 = CARTESIAN_POINT ( 'NONE',  ( -53.00000000000000000, 0.000000000000000000, 12.69999999999999929 ) ) ;
#62 = ORIENTED_EDGE ( 'NONE', *, *, #334, .T. ) ;
#63 = APPROVAL_STATUS ( 'not_yet_approved' ) ;
#64 = CARTESIAN_POINT ( 'NONE',  ( -65.00000000000000000, 0.000000000000000000, 12.69999999999999929 ) ) ;
#65 = CC_DESIGN_PERSON_AND_ORGANIZATION_ASSIGNMENT ( #352, #56, ( #176 ) ) ;
#66 = AXIS2_PLACEMENT_3D ( 'NONE', #357, #47, #55 ) ;
#67 = DIRECTION ( 'NONE',  ( -0.000000000000000000, -0.000000000000000000, -1.000000000000000000 ) ) ;
#68 = ORIENTED_EDGE ( 'NONE', *, *, #275, .T. ) ;
#69 = EDGE_CURVE ( 'NONE', #336, #292, #266, .T. ) ;
#70 = DATE_AND_TIME ( #59, #38 ) ;
#71 = FACE_OUTER_BOUND ( 'NONE', #79, .T. ) ;
#72 = EDGE_LOOP ( 'NONE', ( #230, #115, #276, #98 ) ) ;
#73 = EDGE_CURVE ( 'NONE', #251, #296, #279, .T. ) ;
#74 = ORIENTED_EDGE ( 'NONE', *, *, #177, .T. ) ;
#75 = CIRCLE ( 'NONE', #421, 5.999999999999998224 ) ;
#76 = AXIS2_PLACEMENT_3D ( 'NONE', #61, #229, #3 ) ;
#77 = DIRECTION ( 'NONE',  ( 1.000000000000000000, 0.000000000000000000, 0.000000000000000000 ) ) ;
#78 = CARTESIAN_POINT ( 'NONE',  ( -53.00000000000000000, -12.00000000000000000, 0.000000000000000000 ) ) ;
#79 = EDGE_LOOP ( 'NONE', ( #249, #36, #45, #136, #404 ) ) ;
#80 = EDGE_CURVE ( 'NONE', #27, #109, #221, .T. ) ;
#81 = ORIENTED_EDGE ( 'NONE', *, *, #297, .F. ) ;
#82 = CIRCLE ( 'NONE', #90, 12.00000000000000355 ) ;
#83 = ORIENTED_EDGE ( 'NONE', *, *, #239, .F. ) ;
#84 = LOCAL_TIME ( 17, 51, 39.00000000000000000, #124 ) ;
#85 = CARTESIAN_POINT ( 'NONE',  ( -53.00000000000000000, 12.00000000000000000, 12.69999999999999929 ) ) ;
#86 = EDGE_CURVE ( 'NONE', #183, #397, #302, .T. ) ;
#87 = CALENDAR_DATE ( 2026, 22, 8 ) ;
#88 = CARTESIAN_POINT ( 'NONE',  ( 53.00000000000000000, 0.000000000000000000, 12.69999999999999929 ) ) ;
#89 = APPROVAL_STATUS ( 'not_yet_approved' ) ;
#90 = AXIS2_PLACEMENT_3D ( 'NONE', #281, #411, #252 ) ;
#91 = DIRECTION ( 'NONE',  ( -1.000000000000000000, 0.000000000000000000, 0.000000000000000000 ) ) ;
#92 = ADVANCED_FACE ( 'NONE', ( #158 ), #189, .F. ) ;
#93 = DIRECTION ( 'NONE',  ( -0.000000000000000000, -0.000000000000000000, -1.000000000000000000 ) ) ;
#94 = APPROVAL_ROLE ( '' ) ;
#95 = CARTESIAN_POINT ( 'NONE',  ( 53.00000000000000000, 0.000000000000000000, 0.000000000000000000 ) ) ;
#96 = CARTESIAN_POINT ( 'NONE',  ( -47.00000000000000000, 7.347880794884108889E-16, 0.000000000000000000 ) ) ;
#97 = FACE_OUTER_BOUND ( 'NONE', #270, .T. ) ;
#98 = ORIENTED_EDGE ( 'NONE', *, *, #219, .T. ) ;
#99 = VECTOR ( 'NONE', #10, 1000.000000000000000 ) ;
#100 = PRODUCT_DEFINITION_SHAPE ( 'NONE', 'NONE',  #19 ) ;
#101 = DIRECTION ( 'NONE',  ( 0.000000000000000000, 0.000000000000000000, 1.000000000000000000 ) ) ;
#102 = VERTEX_POINT ( 'NONE', #121 ) ;
#103 = DIRECTION ( 'NONE',  ( -1.000000000000000000, 0.000000000000000000, 0.000000000000000000 ) ) ;
#104 = DIRECTION ( 'NONE',  ( -0.000000000000000000, -0.000000000000000000, -1.000000000000000000 ) ) ;
#105 = EDGE_CURVE ( 'NONE', #247, #15, #363, .T. ) ;
#106 = ORIENTED_EDGE ( 'NONE', *, *, #105, .T. ) ;
#107 = AXIS2_PLACEMENT_3D ( 'NONE', #399, #342, #150 ) ;
#108 = DIRECTION ( 'NONE',  ( -0.000000000000000000, -0.000000000000000000, -1.000000000000000000 ) ) ;
#109 = VERTEX_POINT ( 'NONE', #322 ) ;
#110 = VERTEX_POINT ( 'NONE', #350 ) ;
#111 = AXIS2_PLACEMENT_3D ( 'NONE', #146, #205, #341 ) ;
#112 = ORIENTED_EDGE ( 'NONE', *, *, #46, .F. ) ;
#113 = CC_DESIGN_PERSON_AND_ORGANIZATION_ASSIGNMENT ( #17, #122, ( #25 ) ) ;
#114 = PERSON_AND_ORGANIZATION ( #412, #332 ) ;
#115 = ORIENTED_EDGE ( 'NONE', *, *, #387, .F. ) ;
#116 = CYLINDRICAL_SURFACE ( 'NONE', #200, 12.00000000000000355 ) ;
#117 = DIRECTION ( 'NONE',  ( 1.000000000000000000, 0.000000000000000000, 0.000000000000000000 ) ) ;
#118 = CIRCLE ( 'NONE', #409, 5.999999999999998224 ) ;
#119 = ORIENTED_EDGE ( 'NONE', *, *, #268, .F. ) ;
#120 = PERSON_AND_ORGANIZATION ( #412, #332 ) ;
#121 = CARTESIAN_POINT ( 'NONE',  ( -59.00000000000000000, 0.000000000000000000, 0.000000000000000000 ) ) ;
#122 = PERSON_AND_ORGANIZATION_ROLE ( 'creator' ) ;
#123 = FACE_OUTER_BOUND ( 'NONE', #311, .T. ) ;
#124 = COORDINATED_UNIVERSAL_TIME_OFFSET ( 8, 0, .BEHIND. ) ;
#125 = CARTESIAN_POINT ( 'NONE',  ( -53.00000000000000000, 0.000000000000000000, 12.69999999999999929 ) ) ;
#126 = CARTESIAN_POINT ( 'NONE',  ( 59.00000000000000000, 7.347880794884112834E-16, 12.69999999999999929 ) ) ;
#127 = ADVANCED_BREP_SHAPE_REPRESENTATION ( 'bumper_Default_sldprt', ( #305, #340 ), #303 ) ;
#128 = DIRECTION ( 'NONE',  ( 1.800184739221215049E-16, -1.000000000000000000, 0.000000000000000000 ) ) ;
#129 = CARTESIAN_POINT ( 'NONE',  ( 53.00000000000000000, -12.00000000000000000, 12.69999999999999929 ) ) ;
#130 = VECTOR ( 'NONE', #181, 1000.000000000000000 ) ;
#131 = APPROVAL ( #385, 'UNSPECIFIED' ) ;
#132 = ORIENTED_EDGE ( 'NONE', *, *, #139, .F. ) ;
#133 = APPROVAL_ROLE ( '' ) ;
#134 = CARTESIAN_POINT ( 'NONE',  ( 53.00000000000000000, 0.000000000000000000, 12.69999999999999929 ) ) ;
#135 = ORIENTED_EDGE ( 'NONE', *, *, #139, .T. ) ;
#136 = ORIENTED_EDGE ( 'NONE', *, *, #1, .T. ) ;
#137 = EDGE_LOOP ( 'NONE', ( #375, #391, #347, #74 ) ) ;
#138 = CARTESIAN_POINT ( 'NONE',  ( 47.00000000000000000, 0.000000000000000000, 12.69999999999999929 ) ) ;
#139 = EDGE_CURVE ( 'NONE', #292, #336, #174, .T. ) ;
#140 = ORIENTED_EDGE ( 'NONE', *, *, #80, .F. ) ;
#141 = ORIENTED_EDGE ( 'NONE', *, *, #334, .F. ) ;
#142 = LINE ( 'NONE', #37, #206 ) ;
#143 = ORIENTED_EDGE ( 'NONE', *, *, #21, .F. ) ;
#144 = AXIS2_PLACEMENT_3D ( 'NONE', #267, #101, #331 ) ;
#145 = CARTESIAN_POINT ( 'NONE',  ( 0.000000000000000000, 0.000000000000000000, 0.000000000000000000 ) ) ;
#146 = CARTESIAN_POINT ( 'NONE',  ( -53.00000000000000000, 0.000000000000000000, 12.69999999999999929 ) ) ;
#147 = EDGE_CURVE ( 'NONE', #201, #312, #310, .T. ) ;
#148 =( NAMED_UNIT ( * ) SI_UNIT ( $, .STERADIAN. ) SOLID_ANGLE_UNIT ( ) );
#149 = EDGE_LOOP ( 'NONE', ( #324, #39 ) ) ;
#150 = DIRECTION ( 'NONE',  ( -1.000000000000000000, -1.800184739221215049E-16, 0.000000000000000000 ) ) ;
#151 = ADVANCED_FACE ( 'NONE', ( #162, #319, #416 ), #24, .F. ) ;
#152 = EDGE_LOOP ( 'NONE', ( #170, #31, #68, #244 ) ) ;
#153 = VECTOR ( 'NONE', #154, 1000.000000000000000 ) ;
#154 = DIRECTION ( 'NONE',  ( -0.000000000000000000, -0.000000000000000000, -1.000000000000000000 ) ) ;
#155 = PERSON_AND_ORGANIZATION ( #412, #332 ) ;
#156 = CC_DESIGN_SECURITY_CLASSIFICATION ( #176, ( #25 ) ) ;
#157 = FACE_OUTER_BOUND ( 'NONE', #72, .T. ) ;
#158 = FACE_OUTER_BOUND ( 'NONE', #362, .T. ) ;
#159 = EDGE_CURVE ( 'NONE', #336, #183, #284, .T. ) ;
#160 = EDGE_CURVE ( 'NONE', #110, #299, #118, .T. ) ;
#161 = AXIS2_PLACEMENT_3D ( 'NONE', #95, #191, #381 ) ;
#162 = FACE_OUTER_BOUND ( 'NONE', #423, .T. ) ;
#163 = DIRECTION ( 'NONE',  ( 0.000000000000000000, 0.000000000000000000, 1.000000000000000000 ) ) ;
#164 = APPROVAL_PERSON_ORGANIZATION ( #280, #131, #215 ) ;
#165 = CALENDAR_DATE ( 2026, 22, 8 ) ;
#166 = CARTESIAN_POINT ( 'NONE',  ( -47.00000000000000000, 7.347880794884112834E-16, 12.69999999999999929 ) ) ;
#167 = ADVANCED_FACE ( 'NONE', ( #157 ), #217, .F. ) ;
#168 = EDGE_LOOP ( 'NONE', ( #132, #278 ) ) ;
#169 = CARTESIAN_POINT ( 'NONE',  ( -47.00000000000000000, 7.347880794884108889E-16, 12.69999999999999929 ) ) ;
#170 = ORIENTED_EDGE ( 'NONE', *, *, #159, .F. ) ;
#171 = DIRECTION ( 'NONE',  ( -0.000000000000000000, -0.000000000000000000, -1.000000000000000000 ) ) ;
#172 = ORIENTED_EDGE ( 'NONE', *, *, #1, .F. ) ;
#173 = DIRECTION ( 'NONE',  ( -0.000000000000000000, -0.000000000000000000, -1.000000000000000000 ) ) ;
#174 = CIRCLE ( 'NONE', #196, 5.999999999999998224 ) ;
#175 = LINE ( 'NONE', #304, #130 ) ;
#176 = SECURITY_CLASSIFICATION ( '', '', #218 ) ;
#177 = EDGE_CURVE ( 'NONE', #14, #247, #211, .T. ) ;
#178 = CARTESIAN_POINT ( 'NONE',  ( -53.00000000000000000, 0.000000000000000000, 0.000000000000000000 ) ) ;
#179 = MECHANICAL_CONTEXT ( 'NONE', #54, 'mechanical' ) ;
#180 = ORIENTED_EDGE ( 'NONE', *, *, #232, .T. ) ;
#181 = DIRECTION ( 'NONE',  ( -0.000000000000000000, -0.000000000000000000, -1.000000000000000000 ) ) ;
#182 = PLANE ( 'NONE',  #107 ) ;
#183 = VERTEX_POINT ( 'NONE', #378 ) ;
#184 = APPLICATION_PROTOCOL_DEFINITION ( 'international standard', 'config_control_design', 1994, #234 ) ;
#185 = DIRECTION ( 'NONE',  ( -0.000000000000000000, -0.000000000000000000, -1.000000000000000000 ) ) ;
#186 = CIRCLE ( 'NONE', #111, 5.999999999999998224 ) ;
#187 = DIRECTION ( 'NONE',  ( 1.000000000000000000, 0.000000000000000000, 0.000000000000000000 ) ) ;
#188 = DIRECTION ( 'NONE',  ( -1.000000000000000000, 0.000000000000000000, 0.000000000000000000 ) ) ;
#189 = CYLINDRICAL_SURFACE ( 'NONE', #377, 5.999999999999998224 ) ;
#190 = AXIS2_PLACEMENT_3D ( 'NONE', #9, #271, #315 ) ;
#191 = DIRECTION ( 'NONE',  ( 0.000000000000000000, 0.000000000000000000, 1.000000000000000000 ) ) ;
#192 = APPROVAL ( #89, 'UNSPECIFIED' ) ;
#193 = LINE ( 'NONE', #265, #29 ) ;
#194 = EDGE_LOOP ( 'NONE', ( #373, #273, #172, #420 ) ) ;
#195 = DIRECTION ( 'NONE',  ( -1.000000000000000000, -1.800184739221215049E-16, -0.000000000000000000 ) ) ;
#196 = AXIS2_PLACEMENT_3D ( 'NONE', #88, #316, #419 ) ;
#197 = PERSON_AND_ORGANIZATION ( #412, #332 ) ;
#198 = CARTESIAN_POINT ( 'NONE',  ( -53.00000000000000000, 12.00000000000000000, 0.000000000000000000 ) ) ;
#199 = CC_DESIGN_PERSON_AND_ORGANIZATION_ASSIGNMENT ( #114, #13, ( #320 ) ) ;
#200 = AXIS2_PLACEMENT_3D ( 'NONE', #5, #243, #308 ) ;
#201 = VERTEX_POINT ( 'NONE', #85 ) ;
#202 = EDGE_LOOP ( 'NONE', ( #203, #180, #106, #143 ) ) ;
#203 = ORIENTED_EDGE ( 'NONE', *, *, #222, .F. ) ;
#204 = AXIS2_PLACEMENT_3D ( 'NONE', #220, #298, #392 ) ;
#205 = DIRECTION ( 'NONE',  ( 0.000000000000000000, 0.000000000000000000, 1.000000000000000000 ) ) ;
#206 = VECTOR ( 'NONE', #40, 1000.000000000000000 ) ;
#207 = ORIENTED_EDGE ( 'NONE', *, *, #12, .T. ) ;
#208 = FACE_OUTER_BOUND ( 'NONE', #213, .T. ) ;
#209 = ORIENTED_EDGE ( 'NONE', *, *, #177, .F. ) ;
#210 = ADVANCED_FACE ( 'NONE', ( #123 ), #216, .F. ) ;
#211 = CIRCLE ( 'NONE', #272, 12.00000000000000355 ) ;
#212 = CARTESIAN_POINT ( 'NONE',  ( -53.00000000000000000, 12.00000000000000000, 12.69999999999999929 ) ) ;
#213 = EDGE_LOOP ( 'NONE', ( #408, #119, #140, #366 ) ) ;
#214 = LOCAL_TIME ( 17, 51, 39.00000000000000000, #283 ) ;
#215 = APPROVAL_ROLE ( '' ) ;
#216 = CYLINDRICAL_SURFACE ( 'NONE', #338, 5.999999999999998224 ) ;
#217 = PLANE ( 'NONE',  #351 ) ;
#218 = SECURITY_CLASSIFICATION_LEVEL ( 'unclassified' ) ;
#219 = EDGE_CURVE ( 'NONE', #368, #296, #313, .T. ) ;
#220 = CARTESIAN_POINT ( 'NONE',  ( -53.00000000000000000, 0.000000000000000000, 12.69999999999999929 ) ) ;
#221 = LINE ( 'NONE', #418, #287 ) ;
#222 = EDGE_CURVE ( 'NONE', #312, #27, #82, .T. ) ;
#223 = APPROVAL_DATE_TIME ( #318, #192 ) ;
#224 = DIRECTION ( 'NONE',  ( 0.000000000000000000, 0.000000000000000000, 1.000000000000000000 ) ) ;
#225 = ADVANCED_FACE ( 'NONE', ( #50 ), #18, .T. ) ;
#226 = DATE_TIME_ROLE ( 'classification_date' ) ;
#227 = CARTESIAN_POINT ( 'NONE',  ( 53.00000000000000000, 12.00000000000001954, 0.000000000000000000 ) ) ;
#228 = APPROVAL_PERSON_ORGANIZATION ( #197, #388, #133 ) ;
#229 = DIRECTION ( 'NONE',  ( 0.000000000000000000, 0.000000000000000000, 1.000000000000000000 ) ) ;
#230 = ORIENTED_EDGE ( 'NONE', *, *, #365, .T. ) ;
#231 = LINE ( 'NONE', #198, #99 ) ;
#232 = EDGE_CURVE ( 'NONE', #312, #247, #193, .T. ) ;
#233 = FACE_BOUND ( 'NONE', #168, .T. ) ;
#234 = APPLICATION_CONTEXT ( 'configuration controlled 3d designs of mechanical parts and assemblies' ) ;
#235 = AXIS2_PLACEMENT_3D ( 'NONE', #134, #394, #103 ) ;
#236 = ORIENTED_EDGE ( 'NONE', *, *, #73, .F. ) ;
#237 =( NAMED_UNIT ( * ) PLANE_ANGLE_UNIT ( ) SI_UNIT ( $, .RADIAN. ) );
#238 = EDGE_LOOP ( 'NONE', ( #393, #44 ) ) ;
#239 = EDGE_CURVE ( 'NONE', #397, #183, #321, .T. ) ;
#240 = DIRECTION ( 'NONE',  ( 0.000000000000000000, 0.000000000000000000, 1.000000000000000000 ) ) ;
#241 = DIRECTION ( 'NONE',  ( -0.000000000000000000, -0.000000000000000000, -1.000000000000000000 ) ) ;
#242 = CLOSED_SHELL ( 'NONE', ( #210, #92, #225, #300, #151, #376, #401, #396, #167, #246, #356 ) ) ;
#243 = DIRECTION ( 'NONE',  ( -0.000000000000000000, -0.000000000000000000, -1.000000000000000000 ) ) ;
#244 = ORIENTED_EDGE ( 'NONE', *, *, #86, .F. ) ;
#245 = CARTESIAN_POINT ( 'NONE',  ( 53.00000000000000000, 0.000000000000000000, 12.69999999999999929 ) ) ;
#246 = ADVANCED_FACE ( 'NONE', ( #97 ), #291, .F. ) ;
#247 = VERTEX_POINT ( 'NONE', #390 ) ;
#248 = LINE ( 'NONE', #212, #274 ) ;
#249 = ORIENTED_EDGE ( 'NONE', *, *, #147, .T. ) ;
#250 = VECTOR ( 'NONE', #171, 1000.000000000000000 ) ;
#251 = VERTEX_POINT ( 'NONE', #395 ) ;
#252 = DIRECTION ( 'NONE',  ( 1.000000000000000000, 0.000000000000000000, 0.000000000000000000 ) ) ;
#253 = PERSON_AND_ORGANIZATION_ROLE ( 'design_supplier' ) ;
#254 = DIRECTION ( 'NONE',  ( 0.000000000000000000, 0.000000000000000000, 1.000000000000000000 ) ) ;
#255 = CALENDAR_DATE ( 2026, 22, 8 ) ;
#256 = CARTESIAN_POINT ( 'NONE',  ( -53.00000000000000000, 12.00000000000000000, 12.69999999999999929 ) ) ;
#257 = CARTESIAN_POINT ( 'NONE',  ( -53.00000000000000000, 0.000000000000000000, 0.000000000000000000 ) ) ;
#258 = DIRECTION ( 'NONE',  ( 1.000000000000000000, 0.000000000000000000, 0.000000000000000000 ) ) ;
#259 = ORIENTED_EDGE ( 'NONE', *, *, #12, .F. ) ;
#260 = ORIENTED_EDGE ( 'NONE', *, *, #159, .T. ) ;
#261 = CC_DESIGN_PERSON_AND_ORGANIZATION_ASSIGNMENT ( #120, #354, ( #19 ) ) ;
#262 = SHAPE_DEFINITION_REPRESENTATION ( #100, #127 ) ;
#263 = CARTESIAN_POINT ( 'NONE',  ( -53.00000000000000000, 12.00000000000000000, 12.69999999999999929 ) ) ;
#264 = ORIENTED_EDGE ( 'NONE', *, *, #239, .T. ) ;
#265 = CARTESIAN_POINT ( 'NONE',  ( -65.00000000000000000, 0.000000000000000000, 12.69999999999999929 ) ) ;
#266 = CIRCLE ( 'NONE', #190, 5.999999999999998224 ) ;
#267 = CARTESIAN_POINT ( 'NONE',  ( -53.00000000000000000, 0.000000000000000000, 0.000000000000000000 ) ) ;
#268 = EDGE_CURVE ( 'NONE', #109, #251, #325, .T. ) ;
#269 = APPROVAL_PERSON_ORGANIZATION ( #314, #192, #94 ) ;
#270 = EDGE_LOOP ( 'NONE', ( #141, #41, #207, #112 ) ) ;
#271 = DIRECTION ( 'NONE',  ( 0.000000000000000000, 0.000000000000000000, 1.000000000000000000 ) ) ;
#272 = AXIS2_PLACEMENT_3D ( 'NONE', #257, #386, #290 ) ;
#273 = ORIENTED_EDGE ( 'NONE', *, *, #219, .F. ) ;
#274 = VECTOR ( 'NONE', #346, 1000.000000000000000 ) ;
#275 = EDGE_CURVE ( 'NONE', #292, #397, #422, .T. ) ;
#276 = ORIENTED_EDGE ( 'NONE', *, *, #348, .F. ) ;
#277 = UNCERTAINTY_MEASURE_WITH_UNIT (LENGTH_MEASURE( 1.000000000000000082E-05 ), #398, 'distance_accuracy_value', 'NONE');
#278 = ORIENTED_EDGE ( 'NONE', *, *, #69, .F. ) ;
#279 = CIRCLE ( 'NONE', #161, 12.00000000000000355 ) ;
#280 = PERSON_AND_ORGANIZATION ( #412, #332 ) ;
#281 = CARTESIAN_POINT ( 'NONE',  ( -53.00000000000000000, 0.000000000000000000, 12.69999999999999929 ) ) ;
#282 = CC_DESIGN_APPROVAL ( #388, ( #176 ) ) ;
#283 = COORDINATED_UNIVERSAL_TIME_OFFSET ( 8, 0, .BEHIND. ) ;
#284 = LINE ( 'NONE', #126, #402 ) ;
#285 = DATE_AND_TIME ( #48, #214 ) ;
#286 = CARTESIAN_POINT ( 'NONE',  ( -53.00000000000000000, 0.000000000000000000, 12.69999999999999929 ) ) ;
#287 = VECTOR ( 'NONE', #353, 1000.000000000000000 ) ;
#288 = DIRECTION ( 'NONE',  ( 1.000000000000000000, 0.000000000000000000, 0.000000000000000000 ) ) ;
#289 = AXIS2_PLACEMENT_3D ( 'NONE', #245, #108, #369 ) ;
#290 = DIRECTION ( 'NONE',  ( 1.000000000000000000, 0.000000000000000000, 0.000000000000000000 ) ) ;
#291 = CYLINDRICAL_SURFACE ( 'NONE', #389, 5.999999999999998224 ) ;
#292 = VERTEX_POINT ( 'NONE', #2 ) ;
#293 = AXIS2_PLACEMENT_3D ( 'NONE', #11, #374, #339 ) ;
#294 = CYLINDRICAL_SURFACE ( 'NONE', #235, 5.999999999999998224 ) ;
#295 = VECTOR ( 'NONE', #195, 1000.000000000000000 ) ;
#296 = VERTEX_POINT ( 'NONE', #227 ) ;
#297 = EDGE_CURVE ( 'NONE', #102, #333, #58, .T. ) ;
#298 = DIRECTION ( 'NONE',  ( -0.000000000000000000, -0.000000000000000000, -1.000000000000000000 ) ) ;
#299 = VERTEX_POINT ( 'NONE', #169 ) ;
#300 = ADVANCED_FACE ( 'NONE', ( #301, #71, #233 ), #361, .T. ) ;
#301 = FACE_BOUND ( 'NONE', #149, .T. ) ;
#302 = CIRCLE ( 'NONE', #49, 5.999999999999998224 ) ;
#303 =( GEOMETRIC_REPRESENTATION_CONTEXT ( 3 ) GLOBAL_UNCERTAINTY_ASSIGNED_CONTEXT ( ( #277 ) ) GLOBAL_UNIT_ASSIGNED_CONTEXT ( ( #398, #237, #148 ) ) REPRESENTATION_CONTEXT ( 'NONE', 'WORKASPACE' ) );
#304 = CARTESIAN_POINT ( 'NONE',  ( -59.00000000000000000, 0.000000000000000000, 12.69999999999999929 ) ) ;
#305 = MANIFOLD_SOLID_BREP ( 'Boss-Extrude1', #242 ) ;
#306 = APPLICATION_PROTOCOL_DEFINITION ( 'international standard', 'config_control_design', 1994, #54 ) ;
#307 = DIRECTION ( 'NONE',  ( 0.000000000000000000, 0.000000000000000000, 1.000000000000000000 ) ) ;
#308 = DIRECTION ( 'NONE',  ( -1.000000000000000000, 0.000000000000000000, 0.000000000000000000 ) ) ;
#309 = ORIENTED_EDGE ( 'NONE', *, *, #365, .F. ) ;
#310 = CIRCLE ( 'NONE', #417, 12.00000000000000355 ) ;
#311 = EDGE_LOOP ( 'NONE', ( #135, #260, #83, #33 ) ) ;
#312 = VERTEX_POINT ( 'NONE', #64 ) ;
#313 = LINE ( 'NONE', #16, #153 ) ;
#314 = PERSON_AND_ORGANIZATION ( #412, #332 ) ;
#315 = DIRECTION ( 'NONE',  ( 1.000000000000000000, 0.000000000000000000, 0.000000000000000000 ) ) ;
#316 = DIRECTION ( 'NONE',  ( 0.000000000000000000, 0.000000000000000000, 1.000000000000000000 ) ) ;
#317 = CC_DESIGN_PERSON_AND_ORGANIZATION_ASSIGNMENT ( #155, #253, ( #25 ) ) ;
#318 = DATE_AND_TIME ( #255, #84 ) ;
#319 = FACE_BOUND ( 'NONE', #238, .T. ) ;
#320 = PRODUCT ( 'bumper_Default_sldprt', 'bumper_Default_sldprt', '', ( #179 ) ) ;
#321 = CIRCLE ( 'NONE', #328, 5.999999999999998224 ) ;
#322 = CARTESIAN_POINT ( 'NONE',  ( 53.00000000000000000, -12.00000000000000000, 12.69999999999999929 ) ) ;
#323 = CC_DESIGN_APPROVAL ( #192, ( #25 ) ) ;
#324 = ORIENTED_EDGE ( 'NONE', *, *, #160, .F. ) ;
#325 = LINE ( 'NONE', #129, #43 ) ;
#326 = ORIENTED_EDGE ( 'NONE', *, *, #105, .F. ) ;
#327 = COORDINATED_UNIVERSAL_TIME_OFFSET ( 8, 0, .BEHIND. ) ;
#328 = AXIS2_PLACEMENT_3D ( 'NONE', #364, #367, #258 ) ;
#329 = CARTESIAN_POINT ( 'NONE',  ( 59.00000000000000000, 7.347880794884108889E-16, 12.69999999999999929 ) ) ;
#330 = APPROVAL_DATE_TIME ( #70, #388 ) ;
#331 = DIRECTION ( 'NONE',  ( 1.000000000000000000, 0.000000000000000000, 0.000000000000000000 ) ) ;
#332 = ORGANIZATION ( 'UNSPECIFIED', 'UNSPECIFIED', '' ) ;
#333 = VERTEX_POINT ( 'NONE', #96 ) ;
#334 = EDGE_CURVE ( 'NONE', #299, #333, #60, .T. ) ;
#335 = DIRECTION ( 'NONE',  ( -0.000000000000000000, -0.000000000000000000, -1.000000000000000000 ) ) ;
#336 = VERTEX_POINT ( 'NONE', #329 ) ;
#337 = AXIS2_PLACEMENT_3D ( 'NONE', #20, #163, #383 ) ;
#338 = AXIS2_PLACEMENT_3D ( 'NONE', #349, #185, #91 ) ;
#339 = DIRECTION ( 'NONE',  ( 1.000000000000000000, 0.000000000000000000, 0.000000000000000000 ) ) ;
#340 = AXIS2_PLACEMENT_3D ( 'NONE', #145, #240, #77 ) ;
#341 = DIRECTION ( 'NONE',  ( 1.000000000000000000, 0.000000000000000000, 0.000000000000000000 ) ) ;
#342 = DIRECTION ( 'NONE',  ( -1.800184739221215049E-16, 1.000000000000000000, 0.000000000000000000 ) ) ;
#343 = ORIENTED_EDGE ( 'NONE', *, *, #160, .T. ) ;
#344 = CARTESIAN_POINT ( 'NONE',  ( 53.00000000000000000, 12.00000000000001954, 12.69999999999999929 ) ) ;
#345 = ORIENTED_EDGE ( 'NONE', *, *, #406, .F. ) ;
#346 = DIRECTION ( 'NONE',  ( -0.000000000000000000, -0.000000000000000000, -1.000000000000000000 ) ) ;
#347 = ORIENTED_EDGE ( 'NONE', *, *, #387, .T. ) ;
#348 = EDGE_CURVE ( 'NONE', #368, #201, #424, .T. ) ;
#349 = CARTESIAN_POINT ( 'NONE',  ( 53.00000000000000000, 0.000000000000000000, 12.69999999999999929 ) ) ;
#350 = CARTESIAN_POINT ( 'NONE',  ( -59.00000000000000000, 0.000000000000000000, 12.69999999999999929 ) ) ;
#351 = AXIS2_PLACEMENT_3D ( 'NONE', #256, #128, #23 ) ;
#352 = PERSON_AND_ORGANIZATION ( #412, #332 ) ;
#353 = DIRECTION ( 'NONE',  ( 1.000000000000000000, 1.800184739221215049E-16, 0.000000000000000000 ) ) ;
#354 = PERSON_AND_ORGANIZATION_ROLE ( 'creator' ) ;
#355 = DIRECTION ( 'NONE',  ( 0.000000000000000000, 0.000000000000000000, 1.000000000000000000 ) ) ;
#356 = ADVANCED_FACE ( 'NONE', ( #28 ), #294, .F. ) ;
#357 = CARTESIAN_POINT ( 'NONE',  ( -53.00000000000000000, 0.000000000000000000, 0.000000000000000000 ) ) ;
#358 = CARTESIAN_POINT ( 'NONE',  ( -53.00000000000000000, 0.000000000000000000, 12.69999999999999929 ) ) ;
#359 = PRODUCT_RELATED_PRODUCT_CATEGORY ( 'detail', '', ( #320 ) ) ;
#360 = CC_DESIGN_APPROVAL ( #131, ( #19 ) ) ;
#361 = PLANE ( 'NONE',  #76 ) ;
#362 = EDGE_LOOP ( 'NONE', ( #343, #62, #81, #259 ) ) ;
#363 = CIRCLE ( 'NONE', #66, 12.00000000000000355 ) ;
#364 = CARTESIAN_POINT ( 'NONE',  ( 53.00000000000000000, 0.000000000000000000, 0.000000000000000000 ) ) ;
#365 = EDGE_CURVE ( 'NONE', #296, #14, #231, .T. ) ;
#366 = ORIENTED_EDGE ( 'NONE', *, *, #21, .T. ) ;
#367 = DIRECTION ( 'NONE',  ( 0.000000000000000000, 0.000000000000000000, 1.000000000000000000 ) ) ;
#368 = VERTEX_POINT ( 'NONE', #344 ) ;
#369 = DIRECTION ( 'NONE',  ( -1.000000000000000000, 0.000000000000000000, 0.000000000000000000 ) ) ;
#370 = CIRCLE ( 'NONE', #293, 12.00000000000000355 ) ;
#371 = CARTESIAN_POINT ( 'NONE',  ( -53.00000000000000000, -12.00000000000000000, 12.69999999999999929 ) ) ;
#372 = FACE_OUTER_BOUND ( 'NONE', #194, .T. ) ;
#373 = ORIENTED_EDGE ( 'NONE', *, *, #73, .T. ) ;
#374 = DIRECTION ( 'NONE',  ( 0.000000000000000000, 0.000000000000000000, 1.000000000000000000 ) ) ;
#375 = ORIENTED_EDGE ( 'NONE', *, *, #232, .F. ) ;
#376 = ADVANCED_FACE ( 'NONE', ( #405 ), #116, .T. ) ;
#377 = AXIS2_PLACEMENT_3D ( 'NONE', #53, #414, #188 ) ;
#378 = CARTESIAN_POINT ( 'NONE',  ( 59.00000000000000000, 7.347880794884108889E-16, 0.000000000000000000 ) ) ;
#379 = LOCAL_TIME ( 17, 51, 39.00000000000000000, #52 ) ;
#380 = DATE_TIME_ROLE ( 'creation_date' ) ;
#381 = DIRECTION ( 'NONE',  ( 1.000000000000000000, 0.000000000000000000, 0.000000000000000000 ) ) ;
#382 = DESIGN_CONTEXT ( 'detailed design', #234, 'design' ) ;
#383 = DIRECTION ( 'NONE',  ( 1.000000000000000000, 0.000000000000000000, -0.000000000000000000 ) ) ;
#384 = DIRECTION ( 'NONE',  ( 1.000000000000000000, 0.000000000000000000, 0.000000000000000000 ) ) ;
#385 = APPROVAL_STATUS ( 'not_yet_approved' ) ;
#386 = DIRECTION ( 'NONE',  ( 0.000000000000000000, 0.000000000000000000, 1.000000000000000000 ) ) ;
#387 = EDGE_CURVE ( 'NONE', #201, #14, #248, .T. ) ;
#388 = APPROVAL ( #63, 'UNSPECIFIED' ) ;
#389 = AXIS2_PLACEMENT_3D ( 'NONE', #358, #104, #26 ) ;
#390 = CARTESIAN_POINT ( 'NONE',  ( -65.00000000000000000, 0.000000000000000000, 0.000000000000000000 ) ) ;
#391 = ORIENTED_EDGE ( 'NONE', *, *, #147, .F. ) ;
#392 = DIRECTION ( 'NONE',  ( -1.000000000000000000, 0.000000000000000000, 0.000000000000000000 ) ) ;
#393 = ORIENTED_EDGE ( 'NONE', *, *, #297, .T. ) ;
#394 = DIRECTION ( 'NONE',  ( -0.000000000000000000, -0.000000000000000000, -1.000000000000000000 ) ) ;
#395 = CARTESIAN_POINT ( 'NONE',  ( 53.00000000000000000, -12.00000000000000000, 0.000000000000000000 ) ) ;
#396 = ADVANCED_FACE ( 'NONE', ( #372 ), #8, .T. ) ;
#397 = VERTEX_POINT ( 'NONE', #42 ) ;
#398 =( LENGTH_UNIT ( ) NAMED_UNIT ( * ) SI_UNIT ( .MILLI., .METRE. ) );
#399 = CARTESIAN_POINT ( 'NONE',  ( -53.00000000000000000, -12.00000000000000000, 12.69999999999999929 ) ) ;
#400 = CARTESIAN_POINT ( 'NONE',  ( -53.00000000000000000, -12.00000000000000000, 12.69999999999999929 ) ) ;
#401 = ADVANCED_FACE ( 'NONE', ( #208 ), #182, .F. ) ;
#402 = VECTOR ( 'NONE', #93, 1000.000000000000000 ) ;
#403 = EDGE_LOOP ( 'NONE', ( #264, #4 ) ) ;
#404 = ORIENTED_EDGE ( 'NONE', *, *, #348, .T. ) ;
#405 = FACE_OUTER_BOUND ( 'NONE', #137, .T. ) ;
#406 = EDGE_CURVE ( 'NONE', #15, #251, #142, .T. ) ;
#407 = LINE ( 'NONE', #400, #35 ) ;
#408 = ORIENTED_EDGE ( 'NONE', *, *, #406, .T. ) ;
#409 = AXIS2_PLACEMENT_3D ( 'NONE', #125, #254, #288 ) ;
#410 = APPROVAL_DATE_TIME ( #415, #131 ) ;
#411 = DIRECTION ( 'NONE',  ( 0.000000000000000000, 0.000000000000000000, 1.000000000000000000 ) ) ;
#412 = PERSON ( 'UNSPECIFIED', 'UNSPECIFIED', 'UNSPECIFIED', ('UNSPECIFIED'), ('UNSPECIFIED'), ('UNSPECIFIED') ) ;
#413 = LOCAL_TIME ( 17, 51, 39.00000000000000000, #22 ) ;
#414 = DIRECTION ( 'NONE',  ( -0.000000000000000000, -0.000000000000000000, -1.000000000000000000 ) ) ;
#415 = DATE_AND_TIME ( #87, #413 ) ;
#416 = FACE_BOUND ( 'NONE', #403, .T. ) ;
#417 = AXIS2_PLACEMENT_3D ( 'NONE', #286, #355, #384 ) ;
#418 = CARTESIAN_POINT ( 'NONE',  ( -53.00000000000000000, -12.00000000000000000, 12.69999999999999929 ) ) ;
#419 = DIRECTION ( 'NONE',  ( 1.000000000000000000, 0.000000000000000000, 0.000000000000000000 ) ) ;
#420 = ORIENTED_EDGE ( 'NONE', *, *, #268, .T. ) ;
#421 = AXIS2_PLACEMENT_3D ( 'NONE', #178, #307, #117 ) ;
#422 = LINE ( 'NONE', #138, #250 ) ;
#423 = EDGE_LOOP ( 'NONE', ( #209, #309, #236, #345, #326 ) ) ;
#424 = LINE ( 'NONE', #263, #295 ) ;
ENDSEC;
END-ISO-10303-21;
