ISO-10303-21;
HEADER;
FILE_DESCRIPTION (( 'STEP AP203' ),
    '1' );
FILE_NAME ('Platform_Default_sldprt.STEP',
    '2026-08-23T00:51:30',
    ( '' ),
    ( '' ),
    'SwSTEP 2.0',
    'SolidWorks 2025',
    '' );
FILE_SCHEMA (( 'CONFIG_CONTROL_DESIGN' ));
ENDSEC;

DATA;
#1 = AXIS2_PLACEMENT_3D ( 'NONE', #523, #1074, #613 ) ;
#2 = EDGE_CURVE ( 'NONE', #773, #104, #549, .T. ) ;
#3 = ORIENTED_EDGE ( 'NONE', *, *, #1126, .F. ) ;
#4 = CC_DESIGN_APPROVAL ( #1039, ( #1100 ) ) ;
#5 = AXIS2_PLACEMENT_3D ( 'NONE', #852, #170, #886 ) ;
#6 = DIRECTION ( 'NONE',  ( -0.000000000000000000, -0.000000000000000000, 1.000000000000000000 ) ) ;
#7 = EDGE_LOOP ( 'NONE', ( #887, #1162 ) ) ;
#8 = VERTEX_POINT ( 'NONE', #69 ) ;
#9 = CARTESIAN_POINT ( 'NONE',  ( -95.19091537844407469, -25.39999999999999858, 6.349999999999999645 ) ) ;
#10 = ORIENTED_EDGE ( 'NONE', *, *, #676, .T. ) ;
#11 = CC_DESIGN_PERSON_AND_ORGANIZATION_ASSIGNMENT ( #641, #1102, ( #1100 ) ) ;
#12 = DIRECTION ( 'NONE',  ( -0.000000000000000000, -0.000000000000000000, 1.000000000000000000 ) ) ;
#13 = AXIS2_PLACEMENT_3D ( 'NONE', #761, #220, #381 ) ;
#14 = EDGE_CURVE ( 'NONE', #1130, #1182, #1118, .T. ) ;
#15 = ORIENTED_EDGE ( 'NONE', *, *, #1081, .T. ) ;
#16 = FACE_OUTER_BOUND ( 'NONE', #416, .T. ) ;
#17 = DIRECTION ( 'NONE',  ( -0.000000000000000000, -0.000000000000000000, 1.000000000000000000 ) ) ;
#18 = DIRECTION ( 'NONE',  ( -0.000000000000000000, -0.000000000000000000, 1.000000000000000000 ) ) ;
#19 = LINE ( 'NONE', #386, #324 ) ;
#20 = ADVANCED_FACE ( 'NONE', ( #805 ), #1159, .F. ) ;
#21 = LINE ( 'NONE', #159, #747 ) ;
#22 = AXIS2_PLACEMENT_3D ( 'NONE', #343, #714, #267 ) ;
#23 = CARTESIAN_POINT ( 'NONE',  ( 127.5585807568877499, 46.18802153517014375, -6.349999999999999645 ) ) ;
#24 = CIRCLE ( 'NONE', #391, 2.705099999999998506 ) ;
#25 = LOCAL_TIME ( 17, 51, 30.00000000000000000, #261 ) ;
#26 = DIRECTION ( 'NONE',  ( 1.000000000000000000, 0.000000000000000000, 0.000000000000000000 ) ) ;
#27 = ORIENTED_EDGE ( 'NONE', *, *, #59, .F. ) ;
#28 = PRODUCT_DEFINITION ( 'UNKNOWN', '', #626, #46 ) ;
#29 = AXIS2_PLACEMENT_3D ( 'NONE', #996, #748, #554 ) ;
#30 = ORIENTED_EDGE ( 'NONE', *, *, #2, .T. ) ;
#31 = CARTESIAN_POINT ( 'NONE',  ( 14.30493743309745014, 80.26224907277256193, 6.349999999999999645 ) ) ;
#32 = DIRECTION ( 'NONE',  ( -0.000000000000000000, -0.000000000000000000, 1.000000000000000000 ) ) ;
#33 = FACE_OUTER_BOUND ( 'NONE', #981, .T. ) ;
#34 = ORIENTED_EDGE ( 'NONE', *, *, #413, .F. ) ;
#35 = VECTOR ( 'NONE', #765, 1000.000000000000000 ) ;
#36 = ORIENTED_EDGE ( 'NONE', *, *, #910, .F. ) ;
#37 = CARTESIAN_POINT ( 'NONE',  ( 0.000000000000000000, 0.000000000000000000, 6.349999999999999645 ) ) ;
#38 = EDGE_CURVE ( 'NONE', #609, #270, #253, .T. ) ;
#39 = DIRECTION ( 'NONE',  ( 1.000000000000000000, 0.000000000000000000, 0.000000000000000000 ) ) ;
#40 = CARTESIAN_POINT ( 'NONE',  ( -75.30906537844363413, -25.39999999999999858, -6.349999999999999645 ) ) ;
#41 = CARTESIAN_POINT ( 'NONE',  ( 72.29760294534615639, -69.73775092722803493, -6.349999999999999645 ) ) ;
#42 = FACE_OUTER_BOUND ( 'NONE', #118, .T. ) ;
#43 = DIRECTION ( 'NONE',  ( -0.000000000000000000, -0.000000000000000000, 1.000000000000000000 ) ) ;
#44 =( NAMED_UNIT ( * ) SI_UNIT ( $, .STERADIAN. ) SOLID_ANGLE_UNIT ( ) );
#45 = VECTOR ( 'NONE', #154, 1000.000000000000000 ) ;
#46 = DESIGN_CONTEXT ( 'detailed design', #1076, 'design' ) ;
#47 = LINE ( 'NONE', #302, #177 ) ;
#48 = CARTESIAN_POINT ( 'NONE',  ( 69.59250294534719217, 69.73775092722696911, 6.349999999999999645 ) ) ;
#49 = CIRCLE ( 'NONE', #721, 2.705100000000002058 ) ;
#50 = PERSON_AND_ORGANIZATION_ROLE ( 'creator' ) ;
#51 = CARTESIAN_POINT ( 'NONE',  ( 127.5585807568877499, 46.18802153517014375, 6.349999999999999645 ) ) ;
#52 = ORIENTED_EDGE ( 'NONE', *, *, #864, .T. ) ;
#53 = PLANE ( 'NONE',  #713 ) ;
#54 = DIRECTION ( 'NONE',  ( 0.5000000000000022204, 0.8660254037844373753, -0.000000000000000000 ) ) ;
#55 = ORIENTED_EDGE ( 'NONE', *, *, #257, .F. ) ;
#56 = FACE_OUTER_BOUND ( 'NONE', #677, .T. ) ;
#57 = ORIENTED_EDGE ( 'NONE', *, *, #1155, .T. ) ;
#58 = AXIS2_PLACEMENT_3D ( 'NONE', #350, #623, #534 ) ;
#59 = EDGE_CURVE ( 'NONE', #1097, #248, #627, .T. ) ;
#60 = CARTESIAN_POINT ( 'NONE',  ( -103.7792903784439176, 87.37496063856856665, 6.349999999999999645 ) ) ;
#61 = CIRCLE ( 'NONE', #1014, 2.705100000000002058 ) ;
#62 = CARTESIAN_POINT ( 'NONE',  ( 127.5585807568877499, 46.18802153517014375, -6.349999999999999645 ) ) ;
#63 = DIRECTION ( 'NONE',  ( -0.000000000000000000, -0.000000000000000000, 1.000000000000000000 ) ) ;
#64 = PERSON_AND_ORGANIZATION ( #710, #700 ) ;
#65 = EDGE_LOOP ( 'NONE', ( #608, #140, #727, #30 ) ) ;
#66 = CARTESIAN_POINT ( 'NONE',  ( 22.89331243309633024, -95.13775092722764271, -6.349999999999999645 ) ) ;
#67 = EDGE_CURVE ( 'NONE', #924, #400, #1022, .T. ) ;
#68 = CARTESIAN_POINT ( 'NONE',  ( 22.89331243309773711, 95.13775092722724480, 6.349999999999999645 ) ) ;
#69 = CARTESIAN_POINT ( 'NONE',  ( 14.30493743309626353, -80.26224907277281773, -6.349999999999999645 ) ) ;
#70 = APPROVAL_ROLE ( '' ) ;
#71 = DIRECTION ( 'NONE',  ( -2.700114437919490195E-15, -1.000000000000000000, 0.000000000000000000 ) ) ;
#72 = DIRECTION ( 'NONE',  ( -2.700114437919490590E-15, -1.000000000000000000, 0.000000000000000000 ) ) ;
#73 = LINE ( 'NONE', #441, #117 ) ;
#74 = ADVANCED_FACE ( 'NONE', ( #330 ), #1070, .F. ) ;
#75 = DIRECTION ( 'NONE',  ( 0.000000000000000000, -0.000000000000000000, 1.000000000000000000 ) ) ;
#76 = ORIENTED_EDGE ( 'NONE', *, *, #1129, .T. ) ;
#77 = LINE ( 'NONE', #722, #849 ) ;
#78 = DIRECTION ( 'NONE',  ( 1.000000000000000000, 0.000000000000000000, 0.000000000000000000 ) ) ;
#79 = ORIENTED_EDGE ( 'NONE', *, *, #1028, .F. ) ;
#80 = CIRCLE ( 'NONE', #1147, 2.705100000000002058 ) ;
#81 = CARTESIAN_POINT ( 'NONE',  ( 17.01003743309744820, 80.26224907277256193, 6.349999999999999645 ) ) ;
#82 = CYLINDRICAL_SURFACE ( 'NONE', #1043, 2.705099999999994953 ) ;
#83 = ORIENTED_EDGE ( 'NONE', *, *, #856, .T. ) ;
#84 = VECTOR ( 'NONE', #1088, 1000.000000000000000 ) ;
#85 = CARTESIAN_POINT ( 'NONE',  ( 19.71513743309744626, 80.26224907277256193, 6.349999999999999645 ) ) ;
#86 = ORIENTED_EDGE ( 'NONE', *, *, #14, .F. ) ;
#87 = EDGE_CURVE ( 'NONE', #8, #881, #654, .T. ) ;
#88 = DIRECTION ( 'NONE',  ( 1.000000000000000000, 0.000000000000000000, 0.000000000000000000 ) ) ;
#89 = CARTESIAN_POINT ( 'NONE',  ( 17.01003743309744820, 80.26224907277256193, -6.349999999999999645 ) ) ;
#90 = VECTOR ( 'NONE', #755, 1000.000000000000000 ) ;
#91 = PLANE ( 'NONE',  #383 ) ;
#92 = CARTESIAN_POINT ( 'NONE',  ( 69.59250294534615477, -69.73775092722803493, 6.349999999999999645 ) ) ;
#93 = PLANE ( 'NONE',  #509 ) ;
#94 = CARTESIAN_POINT ( 'NONE',  ( -78.01416537844360732, 25.40000000000008384, 6.349999999999999645 ) ) ;
#95 = ORIENTED_EDGE ( 'NONE', *, *, #808, .F. ) ;
#96 = ADVANCED_FACE ( 'NONE', ( #216 ), #93, .T. ) ;
#97 = CARTESIAN_POINT ( 'NONE',  ( 61.00412794534606320, -54.86224907277321705, 6.349999999999999645 ) ) ;
#98 = CARTESIAN_POINT ( 'NONE',  ( 28.30351243309631926, -95.13775092722764271, 6.349999999999999645 ) ) ;
#99 = AXIS2_PLACEMENT_3D ( 'NONE', #130, #63, #953 ) ;
#100 = CYLINDRICAL_SURFACE ( 'NONE', #602, 2.705100000000002058 ) ;
#101 = CIRCLE ( 'NONE', #184, 2.705100000000002058 ) ;
#102 = AXIS2_PLACEMENT_3D ( 'NONE', #896, #1191, #930 ) ;
#103 = CARTESIAN_POINT ( 'NONE',  ( -95.19091537844407469, -25.39999999999999858, -6.349999999999999645 ) ) ;
#104 = VERTEX_POINT ( 'NONE', #474 ) ;
#105 = ADVANCED_FACE ( 'NONE', ( #376 ), #100, .F. ) ;
#106 = CARTESIAN_POINT ( 'NONE',  ( 19.71513743309625966, -80.26224907277281773, -6.349999999999999645 ) ) ;
#107 = ORIENTED_EDGE ( 'NONE', *, *, #1068, .F. ) ;
#108 = ORIENTED_EDGE ( 'NONE', *, *, #766, .T. ) ;
#109 = DIRECTION ( 'NONE',  ( 1.000000000000000000, 0.000000000000000000, 0.000000000000000000 ) ) ;
#110 = ORIENTED_EDGE ( 'NONE', *, *, #851, .F. ) ;
#111 = CARTESIAN_POINT ( 'NONE',  ( 22.89331243309632669, -95.13775092722764271, 6.349999999999999645 ) ) ;
#112 = EDGE_CURVE ( 'NONE', #484, #422, #1098, .T. ) ;
#113 = CARTESIAN_POINT ( 'NONE',  ( -23.77929037844384652, -133.5629821737386465, -6.349999999999999645 ) ) ;
#114 = CARTESIAN_POINT ( 'NONE',  ( -78.01416537844363575, -25.39999999999999858, -6.349999999999999645 ) ) ;
#115 = ORIENTED_EDGE ( 'NONE', *, *, #205, .T. ) ;
#116 = DIRECTION ( 'NONE',  ( 0.8660254037844391517, 0.4999999999999990008, 0.000000000000000000 ) ) ;
#117 = VECTOR ( 'NONE', #1169, 1000.000000000000000 ) ;
#118 = EDGE_LOOP ( 'NONE', ( #421, #622, #913, #388 ) ) ;
#119 = CARTESIAN_POINT ( 'NONE',  ( 63.70922794534605771, -54.86224907277321705, 6.349999999999999645 ) ) ;
#120 = AXIS2_PLACEMENT_3D ( 'NONE', #1128, #1034, #778 ) ;
#121 = LINE ( 'NONE', #491, #192 ) ;
#122 = CARTESIAN_POINT ( 'NONE',  ( 58.29902794534687160, 54.86224907277229335, 6.349999999999999645 ) ) ;
#123 = VERTEX_POINT ( 'NONE', #1110 ) ;
#124 = EDGE_CURVE ( 'NONE', #1024, #768, #209, .T. ) ;
#125 = ORIENTED_EDGE ( 'NONE', *, *, #67, .F. ) ;
#126 = DIRECTION ( 'NONE',  ( -0.000000000000000000, -0.000000000000000000, 1.000000000000000000 ) ) ;
#127 = CIRCLE ( 'NONE', #1030, 2.705100000000002058 ) ;
#128 = EDGE_LOOP ( 'NONE', ( #1152, #734, #1177, #702 ) ) ;
#129 = CYLINDRICAL_SURFACE ( 'NONE', #419, 2.705099999999994953 ) ;
#130 = CARTESIAN_POINT ( 'NONE',  ( 17.01003743309626159, -80.26224907277281773, 6.349999999999999645 ) ) ;
#131 = CYLINDRICAL_SURFACE ( 'NONE', #568, 2.705100000000002058 ) ;
#132 = CARTESIAN_POINT ( 'NONE',  ( -78.01416537844360732, 25.40000000000008384, 6.349999999999999645 ) ) ;
#133 = PERSON_AND_ORGANIZATION ( #710, #700 ) ;
#134 = VECTOR ( 'NONE', #1121, 1000.000000000000000 ) ;
#135 = VERTEX_POINT ( 'NONE', #1054 ) ;
#136 = DIRECTION ( 'NONE',  ( -1.000000000000000000, 0.000000000000000000, 0.000000000000000000 ) ) ;
#137 = DIRECTION ( 'NONE',  ( 1.000000000000000000, 0.000000000000000000, 0.000000000000000000 ) ) ;
#138 = FACE_BOUND ( 'NONE', #213, .T. ) ;
#139 = AXIS2_PLACEMENT_3D ( 'NONE', #334, #325, #239 ) ;
#140 = ORIENTED_EDGE ( 'NONE', *, *, #612, .F. ) ;
#141 = VECTOR ( 'NONE', #385, 1000.000000000000000 ) ;
#142 = ORIENTED_EDGE ( 'NONE', *, *, #375, .T. ) ;
#143 = ORIENTED_EDGE ( 'NONE', *, *, #740, .T. ) ;
#144 = CARTESIAN_POINT ( 'NONE',  ( 58.29902794534606869, -54.86224907277321705, -6.349999999999999645 ) ) ;
#145 = CARTESIAN_POINT ( 'NONE',  ( 127.5585807568876362, -46.18802153517035691, -6.349999999999999645 ) ) ;
#146 = CARTESIAN_POINT ( 'NONE',  ( 72.29760294534719378, 69.73775092722696911, 6.349999999999999645 ) ) ;
#147 = EDGE_CURVE ( 'NONE', #270, #881, #235, .T. ) ;
#148 = AXIS2_PLACEMENT_3D ( 'NONE', #151, #249, #71 ) ;
#149 = VERTEX_POINT ( 'NONE', #229 ) ;
#150 = CARTESIAN_POINT ( 'NONE',  ( -75.30906537844363413, -25.39999999999999858, 6.349999999999999645 ) ) ;
#151 = CARTESIAN_POINT ( 'NONE',  ( -103.7792903784439176, 87.37496063856856665, -6.349999999999999645 ) ) ;
#152 = CARTESIAN_POINT ( 'NONE',  ( -78.01416537844363575, -25.39999999999999858, 6.349999999999999645 ) ) ;
#153 = ORIENTED_EDGE ( 'NONE', *, *, #873, .T. ) ;
#154 = DIRECTION ( 'NONE',  ( -0.000000000000000000, -0.000000000000000000, 1.000000000000000000 ) ) ;
#155 = CARTESIAN_POINT ( 'NONE',  ( 25.59841243309773517, 95.13775092722724480, 6.349999999999999645 ) ) ;
#156 = EDGE_CURVE ( 'NONE', #273, #135, #952, .T. ) ;
#157 = LINE ( 'NONE', #435, #411 ) ;
#158 = EDGE_LOOP ( 'NONE', ( #55, #173 ) ) ;
#159 = CARTESIAN_POINT ( 'NONE',  ( -23.77929037844334204, 133.5629821737389591, -6.349999999999999645 ) ) ;
#160 = DIRECTION ( 'NONE',  ( -1.000000000000000000, 0.000000000000000000, 0.000000000000000000 ) ) ;
#161 = VERTEX_POINT ( 'NONE', #859 ) ;
#162 = LINE ( 'NONE', #244, #865 ) ;
#163 = DIRECTION ( 'NONE',  ( -0.000000000000000000, -0.000000000000000000, 1.000000000000000000 ) ) ;
#164 = DATE_AND_TIME ( #332, #238 ) ;
#165 = ORIENTED_EDGE ( 'NONE', *, *, #910, .T. ) ;
#166 = VERTEX_POINT ( 'NONE', #41 ) ;
#167 = EDGE_CURVE ( 'NONE', #1154, #135, #624, .T. ) ;
#168 = CARTESIAN_POINT ( 'NONE',  ( 28.30351243309773324, 95.13775092722724480, -6.349999999999999645 ) ) ;
#169 = CARTESIAN_POINT ( 'NONE',  ( -95.19091537844404627, 25.40000000000010161, -6.349999999999999645 ) ) ;
#170 = DIRECTION ( 'NONE',  ( -0.000000000000000000, -0.000000000000000000, 1.000000000000000000 ) ) ;
#171 = VERTEX_POINT ( 'NONE', #398 ) ;
#172 = AXIS2_PLACEMENT_3D ( 'NONE', #1053, #417, #1173 ) ;
#173 = ORIENTED_EDGE ( 'NONE', *, *, #167, .F. ) ;
#174 = PLANE ( 'NONE',  #1179 ) ;
#175 = CARTESIAN_POINT ( 'NONE',  ( 25.59841243309632475, -95.13775092722764271, -6.349999999999999645 ) ) ;
#176 = ORIENTED_EDGE ( 'NONE', *, *, #478, .T. ) ;
#177 = VECTOR ( 'NONE', #1052, 1000.000000000000000 ) ;
#178 = CARTESIAN_POINT ( 'NONE',  ( 28.30351243309773324, 95.13775092722724480, 6.349999999999999645 ) ) ;
#179 = DIRECTION ( 'NONE',  ( -1.000000000000000000, 0.000000000000000000, 0.000000000000000000 ) ) ;
#180 = EDGE_CURVE ( 'NONE', #775, #985, #322, .T. ) ;
#181 = DIRECTION ( 'NONE',  ( 1.000000000000000000, 0.000000000000000000, 0.000000000000000000 ) ) ;
#182 = EDGE_CURVE ( 'NONE', #591, #1006, #471, .T. ) ;
#183 = CYLINDRICAL_SURFACE ( 'NONE', #274, 2.705100000000002058 ) ;
#184 = AXIS2_PLACEMENT_3D ( 'NONE', #511, #875, #423 ) ;
#185 = ORIENTED_EDGE ( 'NONE', *, *, #241, .T. ) ;
#186 = LOCAL_TIME ( 17, 51, 30.00000000000000000, #344 ) ;
#187 = EDGE_LOOP ( 'NONE', ( #1114, #646, #237, #1069 ) ) ;
#188 = CARTESIAN_POINT ( 'NONE',  ( 127.5585807568877499, 46.18802153517014375, -6.349999999999999645 ) ) ;
#189 = CYLINDRICAL_SURFACE ( 'NONE', #943, 2.705100000000002058 ) ;
#190 = CARTESIAN_POINT ( 'NONE',  ( 14.30493743309626353, -80.26224907277281773, 6.349999999999999645 ) ) ;
#191 = EDGE_CURVE ( 'NONE', #763, #584, #1032, .T. ) ;
#192 = VECTOR ( 'NONE', #32, 1000.000000000000000 ) ;
#193 = CYLINDRICAL_SURFACE ( 'NONE', #29, 2.705100000000002058 ) ;
#194 = CARTESIAN_POINT ( 'NONE',  ( 25.59841243309632475, -95.13775092722764271, 6.349999999999999645 ) ) ;
#195 = DIRECTION ( 'NONE',  ( 1.000000000000000000, 0.000000000000000000, 0.000000000000000000 ) ) ;
#196 = PRODUCT_RELATED_PRODUCT_CATEGORY ( 'detail', '', ( #878 ) ) ;
#197 = EDGE_LOOP ( 'NONE', ( #285, #496 ) ) ;
#198 = EDGE_CURVE ( 'NONE', #123, #845, #1186, .T. ) ;
#199 = CARTESIAN_POINT ( 'NONE',  ( 72.29760294534719378, 69.73775092722696911, 6.349999999999999645 ) ) ;
#200 = FACE_OUTER_BOUND ( 'NONE', #382, .T. ) ;
#201 = DIRECTION ( 'NONE',  ( -0.5000000000000003331, -0.8660254037844385966, 0.000000000000000000 ) ) ;
#202 = CARTESIAN_POINT ( 'NONE',  ( -95.19091537844404627, 25.40000000000010161, 6.349999999999999645 ) ) ;
#203 = ORIENTED_EDGE ( 'NONE', *, *, #257, .T. ) ;
#204 = ORIENTED_EDGE ( 'NONE', *, *, #180, .F. ) ;
#205 = EDGE_CURVE ( 'NONE', #845, #123, #1123, .T. ) ;
#206 = AXIS2_PLACEMENT_3D ( 'NONE', #483, #774, #26 ) ;
#207 = CLOSED_SHELL ( 'NONE', ( #362, #74, #957, #469, #284, #451, #20, #790, #557, #586, #406, #317, #697, #745, #96, #396, #516, #630, #218, #827, #1171, #105, #1112, #234, #1101, #942, #539, #794, #228, #1047, #1190, #901 ) ) ;
#208 = FACE_BOUND ( 'NONE', #911, .T. ) ;
#209 = LINE ( 'NONE', #113, #312 ) ;
#210 = DIRECTION ( 'NONE',  ( -1.000000000000000000, 0.000000000000000000, 0.000000000000000000 ) ) ;
#211 = ORIENTED_EDGE ( 'NONE', *, *, #862, .F. ) ;
#212 = CARTESIAN_POINT ( 'NONE',  ( 66.88740294534719055, 69.73775092722696911, 6.349999999999999645 ) ) ;
#213 = EDGE_LOOP ( 'NONE', ( #948, #513 ) ) ;
#214 = CARTESIAN_POINT ( 'NONE',  ( 127.5585807568876362, -46.18802153517035691, -6.349999999999999645 ) ) ;
#215 = CIRCLE ( 'NONE', #1071, 2.705099999999998506 ) ;
#216 = FACE_OUTER_BOUND ( 'NONE', #128, .T. ) ;
#217 = CARTESIAN_POINT ( 'NONE',  ( -80.71926537844363736, -25.39999999999999858, 6.349999999999999645 ) ) ;
#218 = ADVANCED_FACE ( 'NONE', ( #893 ), #174, .T. ) ;
#219 = CARTESIAN_POINT ( 'NONE',  ( 61.00412794534687322, 54.86224907277229335, -6.349999999999999645 ) ) ;
#220 = DIRECTION ( 'NONE',  ( 0.000000000000000000, -0.000000000000000000, 1.000000000000000000 ) ) ;
#221 = CYLINDRICAL_SURFACE ( 'NONE', #927, 2.705099999999998506 ) ;
#222 = EDGE_CURVE ( 'NONE', #166, #1006, #705, .T. ) ;
#223 = UNCERTAINTY_MEASURE_WITH_UNIT (LENGTH_MEASURE( 1.000000000000000082E-05 ), #1105, 'distance_accuracy_value', 'NONE');
#224 = DIRECTION ( 'NONE',  ( 0.000000000000000000, -0.000000000000000000, 1.000000000000000000 ) ) ;
#225 = DIRECTION ( 'NONE',  ( -0.8660254037844385966, -0.5000000000000001110, 0.000000000000000000 ) ) ;
#226 = AXIS2_PLACEMENT_3D ( 'NONE', #1012, #923, #179 ) ;
#227 = DIRECTION ( 'NONE',  ( 0.000000000000000000, -0.000000000000000000, 1.000000000000000000 ) ) ;
#228 = ADVANCED_FACE ( 'NONE', ( #538 ), #82, .F. ) ;
#229 = CARTESIAN_POINT ( 'NONE',  ( -80.71926537844360894, 25.40000000000008384, -6.349999999999999645 ) ) ;
#230 = DIRECTION ( 'NONE',  ( 1.000000000000000000, 0.000000000000000000, 0.000000000000000000 ) ) ;
#231 = APPROVAL_DATE_TIME ( #590, #547 ) ;
#232 = ORIENTED_EDGE ( 'NONE', *, *, #658, .F. ) ;
#233 = DIRECTION ( 'NONE',  ( -0.000000000000000000, -0.000000000000000000, 1.000000000000000000 ) ) ;
#234 = ADVANCED_FACE ( 'NONE', ( #370 ), #193, .F. ) ;
#235 = CIRCLE ( 'NONE', #120, 2.705099999999998506 ) ;
#236 = AXIS2_PLACEMENT_3D ( 'NONE', #1064, #342, #427 ) ;
#237 = ORIENTED_EDGE ( 'NONE', *, *, #59, .T. ) ;
#238 = LOCAL_TIME ( 17, 51, 30.00000000000000000, #323 ) ;
#239 = DIRECTION ( 'NONE',  ( 1.000000000000000000, 0.000000000000000000, 0.000000000000000000 ) ) ;
#240 = DIRECTION ( 'NONE',  ( 1.000000000000000000, 0.000000000000000000, 0.000000000000000000 ) ) ;
#241 = EDGE_CURVE ( 'NONE', #584, #484, #918, .T. ) ;
#242 = ORIENTED_EDGE ( 'NONE', *, *, #87, .F. ) ;
#243 = FACE_BOUND ( 'NONE', #353, .T. ) ;
#244 = CARTESIAN_POINT ( 'NONE',  ( 22.89331243309633024, -95.13775092722764271, 6.349999999999999645 ) ) ;
#245 = EDGE_CURVE ( 'NONE', #1097, #607, #514, .T. ) ;
#246 = APPLICATION_PROTOCOL_DEFINITION ( 'international standard', 'config_control_design', 1994, #1076 ) ;
#247 = AXIS2_PLACEMENT_3D ( 'NONE', #553, #659, #929 ) ;
#248 = VERTEX_POINT ( 'NONE', #457 ) ;
#249 = DIRECTION ( 'NONE',  ( -1.000000000000000000, 2.700114437919490195E-15, 0.000000000000000000 ) ) ;
#250 = CARTESIAN_POINT ( 'NONE',  ( -103.7792903784439176, 87.37496063856856665, 6.349999999999999645 ) ) ;
#251 = CARTESIAN_POINT ( 'NONE',  ( -103.7792903784439176, 87.37496063856856665, -6.349999999999999645 ) ) ;
#252 = CARTESIAN_POINT ( 'NONE',  ( 72.29760294534615639, -69.73775092722803493, 6.349999999999999645 ) ) ;
#253 = LINE ( 'NONE', #548, #791 ) ;
#254 = FACE_OUTER_BOUND ( 'NONE', #854, .T. ) ;
#255 = EDGE_CURVE ( 'NONE', #732, #273, #1122, .T. ) ;
#256 = CIRCLE ( 'NONE', #1078, 2.705100000000002058 ) ;
#257 = EDGE_CURVE ( 'NONE', #135, #1154, #741, .T. ) ;
#258 = DIRECTION ( 'NONE',  ( 0.000000000000000000, 0.000000000000000000, 1.000000000000000000 ) ) ;
#259 = ORIENTED_EDGE ( 'NONE', *, *, #733, .F. ) ;
#260 = FACE_BOUND ( 'NONE', #309, .T. ) ;
#261 = COORDINATED_UNIVERSAL_TIME_OFFSET ( 8, 0, .BEHIND. ) ;
#262 = VECTOR ( 'NONE', #904, 1000.000000000000114 ) ;
#263 = ORIENTED_EDGE ( 'NONE', *, *, #873, .F. ) ;
#264 = VECTOR ( 'NONE', #310, 1000.000000000000000 ) ;
#265 = DIRECTION ( 'NONE',  ( -0.000000000000000000, -0.000000000000000000, 1.000000000000000000 ) ) ;
#266 = CARTESIAN_POINT ( 'NONE',  ( 25.59841243309632475, -95.13775092722764271, -6.349999999999999645 ) ) ;
#267 = DIRECTION ( 'NONE',  ( 1.000000000000000000, 0.000000000000000000, 0.000000000000000000 ) ) ;
#268 = ORIENTED_EDGE ( 'NONE', *, *, #156, .T. ) ;
#269 = VERTEX_POINT ( 'NONE', #291 ) ;
#270 = VERTEX_POINT ( 'NONE', #462 ) ;
#271 = EDGE_CURVE ( 'NONE', #273, #732, #1184, .T. ) ;
#272 = ORIENTED_EDGE ( 'NONE', *, *, #38, .F. ) ;
#273 = VERTEX_POINT ( 'NONE', #857 ) ;
#274 = AXIS2_PLACEMENT_3D ( 'NONE', #466, #637, #653 ) ;
#275 = EDGE_CURVE ( 'NONE', #671, #1048, #575, .T. ) ;
#276 = CARTESIAN_POINT ( 'NONE',  ( 25.59841243309632475, -95.13775092722764271, 6.349999999999999645 ) ) ;
#277 = EDGE_CURVE ( 'NONE', #1156, #269, #685, .T. ) ;
#278 = ORIENTED_EDGE ( 'NONE', *, *, #1148, .T. ) ;
#279 = CYLINDRICAL_SURFACE ( 'NONE', #1023, 2.705099999999994953 ) ;
#280 = AXIS2_PLACEMENT_3D ( 'NONE', #762, #1125, #307 ) ;
#281 = AXIS2_PLACEMENT_3D ( 'NONE', #585, #43, #409 ) ;
#282 = DIRECTION ( 'NONE',  ( -0.000000000000000000, -0.000000000000000000, 1.000000000000000000 ) ) ;
#283 = LINE ( 'NONE', #464, #292 ) ;
#284 = ADVANCED_FACE ( 'NONE', ( #507 ), #311, .F. ) ;
#285 = ORIENTED_EDGE ( 'NONE', *, *, #803, .T. ) ;
#286 = DIRECTION ( 'NONE',  ( -0.000000000000000000, -0.000000000000000000, 1.000000000000000000 ) ) ;
#287 = DIRECTION ( 'NONE',  ( 1.000000000000000000, 0.000000000000000000, 0.000000000000000000 ) ) ;
#288 = CYLINDRICAL_SURFACE ( 'NONE', #446, 2.705100000000002058 ) ;
#289 = EDGE_CURVE ( 'NONE', #835, #1156, #1051, .T. ) ;
#290 = EDGE_LOOP ( 'NONE', ( #495, #536, #379, #1104 ) ) ;
#291 = CARTESIAN_POINT ( 'NONE',  ( -23.77929037844334204, 133.5629821737389591, 6.349999999999999645 ) ) ;
#292 = VECTOR ( 'NONE', #6, 1000.000000000000000 ) ;
#293 = CYLINDRICAL_SURFACE ( 'NONE', #487, 2.705099999999998506 ) ;
#294 = CARTESIAN_POINT ( 'NONE',  ( 69.59250294534719217, 69.73775092722696911, 6.349999999999999645 ) ) ;
#295 = ORIENTED_EDGE ( 'NONE', *, *, #403, .F. ) ;
#296 = CIRCLE ( 'NONE', #236, 2.705100000000002058 ) ;
#297 = EDGE_CURVE ( 'NONE', #879, #618, #480, .T. ) ;
#298 = VERTEX_POINT ( 'NONE', #801 ) ;
#299 = CARTESIAN_POINT ( 'NONE',  ( 66.88740294534719055, 69.73775092722696911, 6.349999999999999645 ) ) ;
#300 = DIRECTION ( 'NONE',  ( -0.8660254037844373753, 0.5000000000000021094, 0.000000000000000000 ) ) ;
#301 = EDGE_CURVE ( 'NONE', #609, #8, #215, .T. ) ;
#302 = CARTESIAN_POINT ( 'NONE',  ( -80.71926537844360894, 25.40000000000008384, 6.349999999999999645 ) ) ;
#303 = AXIS2_PLACEMENT_3D ( 'NONE', #753, #587, #949 ) ;
#304 = ORIENTED_EDGE ( 'NONE', *, *, #563, .F. ) ;
#305 = EDGE_LOOP ( 'NONE', ( #884, #1025, #689, #636, #779, #860 ) ) ;
#306 = EDGE_CURVE ( 'NONE', #171, #1027, #532, .T. ) ;
#307 = DIRECTION ( 'NONE',  ( 1.000000000000000000, 0.000000000000000000, 0.000000000000000000 ) ) ;
#308 = CYLINDRICAL_SURFACE ( 'NONE', #281, 2.705099999999998506 ) ;
#309 = EDGE_LOOP ( 'NONE', ( #961, #931 ) ) ;
#310 = DIRECTION ( 'NONE',  ( -0.8660254037844385966, -0.5000000000000001110, -0.000000000000000000 ) ) ;
#311 = CYLINDRICAL_SURFACE ( 'NONE', #303, 2.705100000000002058 ) ;
#312 = VECTOR ( 'NONE', #686, 1000.000000000000000 ) ;
#313 = AXIS2_PLACEMENT_3D ( 'NONE', #1031, #477, #840 ) ;
#314 = EDGE_CURVE ( 'NONE', #845, #453, #976, .T. ) ;
#315 = DIRECTION ( 'NONE',  ( 1.000000000000000000, 0.000000000000000000, 0.000000000000000000 ) ) ;
#316 = AXIS2_PLACEMENT_3D ( 'NONE', #588, #1044, #225 ) ;
#317 = ADVANCED_FACE ( 'NONE', ( #704 ), #461, .F. ) ;
#318 = ORIENTED_EDGE ( 'NONE', *, *, #1040, .F. ) ;
#319 = ORIENTED_EDGE ( 'NONE', *, *, #112, .F. ) ;
#320 = DIRECTION ( 'NONE',  ( -0.000000000000000000, -0.000000000000000000, 1.000000000000000000 ) ) ;
#321 = DIRECTION ( 'NONE',  ( -0.000000000000000000, -0.000000000000000000, 1.000000000000000000 ) ) ;
#322 = LINE ( 'NONE', #23, #640 ) ;
#323 = COORDINATED_UNIVERSAL_TIME_OFFSET ( 8, 0, .BEHIND. ) ;
#324 = VECTOR ( 'NONE', #668, 1000.000000000000227 ) ;
#325 = DIRECTION ( 'NONE',  ( -0.000000000000000000, -0.000000000000000000, 1.000000000000000000 ) ) ;
#326 = CARTESIAN_POINT ( 'NONE',  ( 127.5585807568876362, -46.18802153517035691, 6.349999999999999645 ) ) ;
#327 = CC_DESIGN_PERSON_AND_ORGANIZATION_ASSIGNMENT ( #485, #848, ( #878 ) ) ;
#328 = EDGE_LOOP ( 'NONE', ( #754, #903, #795, #1133 ) ) ;
#329 = DIRECTION ( 'NONE',  ( -0.000000000000000000, -0.000000000000000000, 1.000000000000000000 ) ) ;
#330 = FACE_OUTER_BOUND ( 'NONE', #470, .T. ) ;
#331 = APPROVAL_PERSON_ORGANIZATION ( #632, #1039, #902 ) ;
#332 = CALENDAR_DATE ( 2026, 22, 8 ) ;
#333 = ORIENTED_EDGE ( 'NONE', *, *, #888, .T. ) ;
#334 = CARTESIAN_POINT ( 'NONE',  ( -78.01416537844363575, -25.39999999999999858, 6.349999999999999645 ) ) ;
#335 = DIRECTION ( 'NONE',  ( 1.201851678989722689E-15, 1.000000000000000000, 0.000000000000000000 ) ) ;
#336 = EDGE_CURVE ( 'NONE', #104, #773, #127, .T. ) ;
#337 = ORIENTED_EDGE ( 'NONE', *, *, #147, .F. ) ;
#338 = DIRECTION ( 'NONE',  ( 1.000000000000000000, 0.000000000000000000, 0.000000000000000000 ) ) ;
#339 = CIRCLE ( 'NONE', #986, 2.705099999999994953 ) ;
#340 = CARTESIAN_POINT ( 'NONE',  ( 14.30493743309626353, -80.26224907277281773, 6.349999999999999645 ) ) ;
#341 = CARTESIAN_POINT ( 'NONE',  ( 63.70922794534605771, -54.86224907277321705, 6.349999999999999645 ) ) ;
#342 = DIRECTION ( 'NONE',  ( 0.000000000000000000, -0.000000000000000000, 1.000000000000000000 ) ) ;
#343 = CARTESIAN_POINT ( 'NONE',  ( 61.00412794534687322, 54.86224907277229335, 6.349999999999999645 ) ) ;
#344 = COORDINATED_UNIVERSAL_TIME_OFFSET ( 8, 0, .BEHIND. ) ;
#345 = CARTESIAN_POINT ( 'NONE',  ( 28.30351243309773324, 95.13775092722724480, 6.349999999999999645 ) ) ;
#346 = ORIENTED_EDGE ( 'NONE', *, *, #429, .T. ) ;
#347 = VECTOR ( 'NONE', #628, 1000.000000000000000 ) ;
#348 = ORIENTED_EDGE ( 'NONE', *, *, #1033, .T. ) ;
#349 = ORIENTED_EDGE ( 'NONE', *, *, #781, .F. ) ;
#350 = CARTESIAN_POINT ( 'NONE',  ( 61.00412794534606320, -54.86224907277321705, -6.349999999999999645 ) ) ;
#351 = PERSON_AND_ORGANIZATION ( #710, #700 ) ;
#352 = AXIS2_PLACEMENT_3D ( 'NONE', #978, #75, #1135 ) ;
#353 = EDGE_LOOP ( 'NONE', ( #947, #36 ) ) ;
#354 = DIRECTION ( 'NONE',  ( 0.000000000000000000, -0.000000000000000000, 1.000000000000000000 ) ) ;
#355 = LINE ( 'NONE', #905, #35 ) ;
#356 = CARTESIAN_POINT ( 'NONE',  ( -103.7792903784439176, 87.37496063856856665, -6.349999999999999645 ) ) ;
#357 = DIRECTION ( 'NONE',  ( 1.000000000000000000, 0.000000000000000000, 0.000000000000000000 ) ) ;
#358 = CARTESIAN_POINT ( 'NONE',  ( 25.59841243309773517, 95.13775092722724480, 6.349999999999999645 ) ) ;
#359 = CYLINDRICAL_SURFACE ( 'NONE', #900, 2.705100000000002058 ) ;
#360 = DIRECTION ( 'NONE',  ( -1.000000000000000000, 0.000000000000000000, 0.000000000000000000 ) ) ;
#361 = AXIS2_PLACEMENT_3D ( 'NONE', #103, #1185, #364 ) ;
#362 = ADVANCED_FACE ( 'NONE', ( #972 ), #517, .F. ) ;
#363 = VERTEX_POINT ( 'NONE', #178 ) ;
#364 = DIRECTION ( 'NONE',  ( -1.000000000000000000, 0.000000000000000000, 0.000000000000000000 ) ) ;
#365 = DIRECTION ( 'NONE',  ( 0.000000000000000000, -0.000000000000000000, 1.000000000000000000 ) ) ;
#366 = DIRECTION ( 'NONE',  ( -0.000000000000000000, -0.000000000000000000, 1.000000000000000000 ) ) ;
#367 = ORIENTED_EDGE ( 'NONE', *, *, #191, .T. ) ;
#368 = LINE ( 'NONE', #1090, #1163 ) ;
#369 = ORIENTED_EDGE ( 'NONE', *, *, #180, .T. ) ;
#370 = FACE_OUTER_BOUND ( 'NONE', #65, .T. ) ;
#371 = EDGE_CURVE ( 'NONE', #400, #924, #669, .T. ) ;
#372 = CARTESIAN_POINT ( 'NONE',  ( -95.19091537844407469, -25.39999999999999858, 6.349999999999999645 ) ) ;
#373 = ORIENTED_EDGE ( 'NONE', *, *, #14, .T. ) ;
#374 = EDGE_LOOP ( 'NONE', ( #813, #10, #499, #946 ) ) ;
#375 = EDGE_CURVE ( 'NONE', #607, #1097, #1086, .T. ) ;
#376 = FACE_OUTER_BOUND ( 'NONE', #1041, .T. ) ;
#377 = CARTESIAN_POINT ( 'NONE',  ( 28.30351243309631926, -95.13775092722764271, -6.349999999999999645 ) ) ;
#378 = VERTEX_POINT ( 'NONE', #199 ) ;
#379 = ORIENTED_EDGE ( 'NONE', *, *, #1028, .T. ) ;
#380 = VECTOR ( 'NONE', #1002, 1000.000000000000000 ) ;
#381 = DIRECTION ( 'NONE',  ( -1.000000000000000000, 0.000000000000000000, 0.000000000000000000 ) ) ;
#382 = EDGE_LOOP ( 'NONE', ( #395, #1183, #143, #79 ) ) ;
#383 = AXIS2_PLACEMENT_3D ( 'NONE', #1093, #837, #821 ) ;
#384 = DIRECTION ( 'NONE',  ( 1.000000000000000000, 0.000000000000000000, 0.000000000000000000 ) ) ;
#385 = DIRECTION ( 'NONE',  ( -0.000000000000000000, -0.000000000000000000, 1.000000000000000000 ) ) ;
#386 = CARTESIAN_POINT ( 'NONE',  ( -23.77929037844384652, -133.5629821737386465, -6.349999999999999645 ) ) ;
#387 = DIRECTION ( 'NONE',  ( 1.000000000000000000, 0.000000000000000000, 0.000000000000000000 ) ) ;
#388 = ORIENTED_EDGE ( 'NONE', *, *, #760, .T. ) ;
#389 = DIRECTION ( 'NONE',  ( 0.000000000000000000, -0.000000000000000000, 1.000000000000000000 ) ) ;
#390 = VECTOR ( 'NONE', #126, 1000.000000000000000 ) ;
#391 = AXIS2_PLACEMENT_3D ( 'NONE', #276, #282, #1108 ) ;
#392 = CARTESIAN_POINT ( 'NONE',  ( 127.5585807568876362, -46.18802153517035691, -6.349999999999999645 ) ) ;
#393 = DIRECTION ( 'NONE',  ( -0.000000000000000000, -0.000000000000000000, 1.000000000000000000 ) ) ;
#394 = ORIENTED_EDGE ( 'NONE', *, *, #578, .F. ) ;
#395 = ORIENTED_EDGE ( 'NONE', *, *, #1033, .F. ) ;
#396 = ADVANCED_FACE ( 'NONE', ( #782 ), #436, .T. ) ;
#397 = EDGE_LOOP ( 'NONE', ( #746, #597, #108, #799 ) ) ;
#398 = CARTESIAN_POINT ( 'NONE',  ( -103.7792903784439176, 87.37496063856856665, 6.349999999999999645 ) ) ;
#399 =( NAMED_UNIT ( * ) PLANE_ANGLE_UNIT ( ) SI_UNIT ( $, .RADIAN. ) );
#400 = VERTEX_POINT ( 'NONE', #868 ) ;
#401 = EDGE_LOOP ( 'NONE', ( #783, #125 ) ) ;
#402 = CARTESIAN_POINT ( 'NONE',  ( 127.5585807568877499, 46.18802153517014375, 6.349999999999999645 ) ) ;
#403 = EDGE_CURVE ( 'NONE', #1095, #1182, #599, .T. ) ;
#404 = FACE_OUTER_BOUND ( 'NONE', #928, .T. ) ;
#405 = AXIS2_PLACEMENT_3D ( 'NONE', #939, #320, #39 ) ;
#406 = ADVANCED_FACE ( 'NONE', ( #1146 ), #1060, .F. ) ;
#407 = FACE_BOUND ( 'NONE', #615, .T. ) ;
#408 = LINE ( 'NONE', #756, #134 ) ;
#409 = DIRECTION ( 'NONE',  ( 1.000000000000000000, 0.000000000000000000, 0.000000000000000000 ) ) ;
#410 = ORIENTED_EDGE ( 'NONE', *, *, #1120, .F. ) ;
#411 = VECTOR ( 'NONE', #455, 1000.000000000000000 ) ;
#412 = CARTESIAN_POINT ( 'NONE',  ( -97.89601537844407630, -25.39999999999999858, -6.349999999999999645 ) ) ;
#413 = EDGE_CURVE ( 'NONE', #269, #171, #883, .T. ) ;
#414 = DIRECTION ( 'NONE',  ( -0.000000000000000000, -0.000000000000000000, 1.000000000000000000 ) ) ;
#415 = ORIENTED_EDGE ( 'NONE', *, *, #1085, .T. ) ;
#416 = EDGE_LOOP ( 'NONE', ( #263, #1084, #555, #410, #1042, #204 ) ) ;
#417 = DIRECTION ( 'NONE',  ( -0.000000000000000000, -0.000000000000000000, 1.000000000000000000 ) ) ;
#418 = FACE_BOUND ( 'NONE', #1161, .T. ) ;
#419 = AXIS2_PLACEMENT_3D ( 'NONE', #871, #265, #78 ) ;
#420 = CARTESIAN_POINT ( 'NONE',  ( 69.59250294534719217, 69.73775092722696911, -6.349999999999999645 ) ) ;
#421 = ORIENTED_EDGE ( 'NONE', *, *, #277, .F. ) ;
#422 = VERTEX_POINT ( 'NONE', #111 ) ;
#423 = DIRECTION ( 'NONE',  ( -1.000000000000000000, 0.000000000000000000, 0.000000000000000000 ) ) ;
#424 = DIRECTION ( 'NONE',  ( -0.000000000000000000, -0.000000000000000000, 1.000000000000000000 ) ) ;
#425 = CYLINDRICAL_SURFACE ( 'NONE', #472, 2.705100000000002058 ) ;
#426 = DIRECTION ( 'NONE',  ( -0.000000000000000000, -0.000000000000000000, 1.000000000000000000 ) ) ;
#427 = DIRECTION ( 'NONE',  ( -1.000000000000000000, 0.000000000000000000, 0.000000000000000000 ) ) ;
#428 = AXIS2_PLACEMENT_3D ( 'NONE', #81, #814, #1175 ) ;
#429 = EDGE_CURVE ( 'NONE', #1131, #562, #706, .T. ) ;
#430 = DIRECTION ( 'NONE',  ( 1.000000000000000000, -1.201851678989722689E-15, 0.000000000000000000 ) ) ;
#431 = DIRECTION ( 'NONE',  ( -0.000000000000000000, -0.000000000000000000, 1.000000000000000000 ) ) ;
#432 = VECTOR ( 'NONE', #233, 1000.000000000000000 ) ;
#433 = DIRECTION ( 'NONE',  ( -0.000000000000000000, -0.000000000000000000, 1.000000000000000000 ) ) ;
#434 =( GEOMETRIC_REPRESENTATION_CONTEXT ( 3 ) GLOBAL_UNCERTAINTY_ASSIGNED_CONTEXT ( ( #223 ) ) GLOBAL_UNIT_ASSIGNED_CONTEXT ( ( #1105, #399, #44 ) ) REPRESENTATION_CONTEXT ( 'NONE', 'WORKASPACE' ) );
#435 = CARTESIAN_POINT ( 'NONE',  ( -80.71926537844363736, -25.39999999999999858, 6.349999999999999645 ) ) ;
#436 = PLANE ( 'NONE',  #148 ) ;
#437 = EDGE_LOOP ( 'NONE', ( #1106, #86 ) ) ;
#438 = EDGE_CURVE ( 'NONE', #891, #298, #121, .T. ) ;
#439 = DIRECTION ( 'NONE',  ( 0.000000000000000000, -0.000000000000000000, 1.000000000000000000 ) ) ;
#440 = ORIENTED_EDGE ( 'NONE', *, *, #314, .T. ) ;
#441 = CARTESIAN_POINT ( 'NONE',  ( -97.89601537844407630, -25.39999999999999858, 6.349999999999999645 ) ) ;
#442 = CC_DESIGN_PERSON_AND_ORGANIZATION_ASSIGNMENT ( #351, #444, ( #626 ) ) ;
#443 = EDGE_CURVE ( 'NONE', #8, #609, #535, .T. ) ;
#444 = PERSON_AND_ORGANIZATION_ROLE ( 'design_supplier' ) ;
#445 = CARTESIAN_POINT ( 'NONE',  ( -97.89601537844404788, 25.40000000000010161, 6.349999999999999645 ) ) ;
#446 = AXIS2_PLACEMENT_3D ( 'NONE', #202, #1103, #195 ) ;
#447 = VERTEX_POINT ( 'NONE', #858 ) ;
#448 = ORIENTED_EDGE ( 'NONE', *, *, #578, .T. ) ;
#449 = ORIENTED_EDGE ( 'NONE', *, *, #612, .T. ) ;
#450 = CARTESIAN_POINT ( 'NONE',  ( 69.59250294534615477, -69.73775092722803493, 6.349999999999999645 ) ) ;
#451 = ADVANCED_FACE ( 'NONE', ( #200 ), #926, .F. ) ;
#452 = VECTOR ( 'NONE', #625, 1000.000000000000000 ) ;
#453 = VERTEX_POINT ( 'NONE', #1116 ) ;
#454 = APPROVAL_PERSON_ORGANIZATION ( #788, #998, #614 ) ;
#455 = DIRECTION ( 'NONE',  ( -0.000000000000000000, -0.000000000000000000, 1.000000000000000000 ) ) ;
#456 = VECTOR ( 'NONE', #286, 1000.000000000000000 ) ;
#457 = CARTESIAN_POINT ( 'NONE',  ( 19.71513743309744626, 80.26224907277256193, 6.349999999999999645 ) ) ;
#458 = CARTESIAN_POINT ( 'NONE',  ( -95.19091537844404627, 25.40000000000010161, 6.349999999999999645 ) ) ;
#459 = DIRECTION ( 'NONE',  ( -0.000000000000000000, -0.000000000000000000, 1.000000000000000000 ) ) ;
#460 = APPROVAL_DATE_TIME ( #992, #1039 ) ;
#461 = CYLINDRICAL_SURFACE ( 'NONE', #1137, 2.705100000000002058 ) ;
#462 = CARTESIAN_POINT ( 'NONE',  ( 19.71513743309625966, -80.26224907277281773, 6.349999999999999645 ) ) ;
#463 = CARTESIAN_POINT ( 'NONE',  ( -23.77929037844384652, -133.5629821737386465, -6.349999999999999645 ) ) ;
#464 = CARTESIAN_POINT ( 'NONE',  ( -97.89601537844404788, 25.40000000000010161, 6.349999999999999645 ) ) ;
#465 = ORIENTED_EDGE ( 'NONE', *, *, #862, .T. ) ;
#466 = CARTESIAN_POINT ( 'NONE',  ( 69.59250294534719217, 69.73775092722696911, 6.349999999999999645 ) ) ;
#467 = CIRCLE ( 'NONE', #785, 2.705100000000002058 ) ;
#468 = ORIENTED_EDGE ( 'NONE', *, *, #833, .F. ) ;
#469 = ADVANCED_FACE ( 'NONE', ( #577 ), #129, .F. ) ;
#470 = EDGE_LOOP ( 'NONE', ( #537, #798, #811, #730 ) ) ;
#471 = CIRCLE ( 'NONE', #280, 2.705100000000002058 ) ;
#472 = AXIS2_PLACEMENT_3D ( 'NONE', #593, #699, #528 ) ;
#473 = FACE_BOUND ( 'NONE', #945, .T. ) ;
#474 = CARTESIAN_POINT ( 'NONE',  ( -80.71926537844360894, 25.40000000000008384, 6.349999999999999645 ) ) ;
#475 = CARTESIAN_POINT ( 'NONE',  ( -78.01416537844360732, 25.40000000000008384, -6.349999999999999645 ) ) ;
#476 = EDGE_LOOP ( 'NONE', ( #1018, #906, #185, #792 ) ) ;
#477 = DIRECTION ( 'NONE',  ( 0.000000000000000000, 0.000000000000000000, 1.000000000000000000 ) ) ;
#478 = EDGE_CURVE ( 'NONE', #1182, #1130, #855, .T. ) ;
#479 = ORIENTED_EDGE ( 'NONE', *, *, #658, .T. ) ;
#480 = LINE ( 'NONE', #212, #380 ) ;
#481 = CIRCLE ( 'NONE', #405, 2.705099999999998506 ) ;
#482 = CARTESIAN_POINT ( 'NONE',  ( 66.88740294534615316, -69.73775092722803493, -6.349999999999999645 ) ) ;
#483 = CARTESIAN_POINT ( 'NONE',  ( 17.01003743309744820, 80.26224907277256193, 6.349999999999999645 ) ) ;
#484 = VERTEX_POINT ( 'NONE', #510 ) ;
#485 = PERSON_AND_ORGANIZATION ( #710, #700 ) ;
#486 = EDGE_CURVE ( 'NONE', #378, #618, #841, .T. ) ;
#487 = AXIS2_PLACEMENT_3D ( 'NONE', #1020, #17, #576 ) ;
#488 = LOCAL_TIME ( 17, 51, 30.00000000000000000, #649 ) ;
#489 = EDGE_LOOP ( 'NONE', ( #694, #825 ) ) ;
#490 = AXIS2_PLACEMENT_3D ( 'NONE', #772, #227, #1113 ) ;
#491 = CARTESIAN_POINT ( 'NONE',  ( -92.48581537844404465, 25.40000000000010161, 6.349999999999999645 ) ) ;
#492 = CARTESIAN_POINT ( 'NONE',  ( -92.48581537844407308, -25.39999999999999858, 6.349999999999999645 ) ) ;
#493 = ORIENTED_EDGE ( 'NONE', *, *, #864, .F. ) ;
#494 = ORIENTED_EDGE ( 'NONE', *, *, #851, .T. ) ;
#495 = ORIENTED_EDGE ( 'NONE', *, *, #297, .F. ) ;
#496 = ORIENTED_EDGE ( 'NONE', *, *, #571, .T. ) ;
#497 = VECTOR ( 'NONE', #72, 1000.000000000000000 ) ;
#498 = ORIENTED_EDGE ( 'NONE', *, *, #1126, .T. ) ;
#499 = ORIENTED_EDGE ( 'NONE', *, *, #182, .T. ) ;
#500 = EDGE_CURVE ( 'NONE', #607, #724, #355, .T. ) ;
#501 = CIRCLE ( 'NONE', #1094, 2.705100000000002058 ) ;
#502 = CARTESIAN_POINT ( 'NONE',  ( -95.19091537844407469, -25.39999999999999858, 6.349999999999999645 ) ) ;
#503 = FACE_BOUND ( 'NONE', #7, .T. ) ;
#504 = DIRECTION ( 'NONE',  ( 1.000000000000000000, 0.000000000000000000, 0.000000000000000000 ) ) ;
#505 = CARTESIAN_POINT ( 'NONE',  ( 69.59250294534615477, -69.73775092722803493, 6.349999999999999645 ) ) ;
#506 = ORIENTED_EDGE ( 'NONE', *, *, #1001, .T. ) ;
#507 = FACE_OUTER_BOUND ( 'NONE', #1010, .T. ) ;
#508 = LINE ( 'NONE', #251, #264 ) ;
#509 = AXIS2_PLACEMENT_3D ( 'NONE', #463, #201, #739 ) ;
#510 = CARTESIAN_POINT ( 'NONE',  ( 28.30351243309632281, -95.13775092722764271, 6.349999999999999645 ) ) ;
#511 = CARTESIAN_POINT ( 'NONE',  ( 69.59250294534615477, -69.73775092722803493, -6.349999999999999645 ) ) ;
#512 = CARTESIAN_POINT ( 'NONE',  ( 17.01003743309626159, -80.26224907277281773, -6.349999999999999645 ) ) ;
#513 = ORIENTED_EDGE ( 'NONE', *, *, #336, .F. ) ;
#514 = CIRCLE ( 'NONE', #226, 2.705099999999998506 ) ;
#515 = CARTESIAN_POINT ( 'NONE',  ( 127.5585807568876362, -46.18802153517035691, 6.349999999999999645 ) ) ;
#516 = ADVANCED_FACE ( 'NONE', ( #951 ), #681, .T. ) ;
#517 = CYLINDRICAL_SURFACE ( 'NONE', #247, 2.705099999999998506 ) ;
#518 = VERTEX_POINT ( 'NONE', #863 ) ;
#519 = DIRECTION ( 'NONE',  ( 0.000000000000000000, 0.000000000000000000, 1.000000000000000000 ) ) ;
#520 = DIRECTION ( 'NONE',  ( -1.000000000000000000, 0.000000000000000000, 0.000000000000000000 ) ) ;
#521 = DIRECTION ( 'NONE',  ( -2.700114437919490590E-15, -1.000000000000000000, 0.000000000000000000 ) ) ;
#522 = DIRECTION ( 'NONE',  ( -0.000000000000000000, -0.000000000000000000, 1.000000000000000000 ) ) ;
#523 = CARTESIAN_POINT ( 'NONE',  ( -78.01416537844363575, -25.39999999999999858, 6.349999999999999645 ) ) ;
#524 = ORIENTED_EDGE ( 'NONE', *, *, #222, .T. ) ;
#525 = EDGE_CURVE ( 'NONE', #1144, #453, #339, .T. ) ;
#526 = APPLICATION_CONTEXT ( 'configuration controlled 3d designs of mechanical parts and assemblies' ) ;
#527 = ORIENTED_EDGE ( 'NONE', *, *, #1120, .T. ) ;
#528 = DIRECTION ( 'NONE',  ( 1.000000000000000000, 0.000000000000000000, 0.000000000000000000 ) ) ;
#529 = CARTESIAN_POINT ( 'NONE',  ( 61.00412794534606320, -54.86224907277321705, 6.349999999999999645 ) ) ;
#530 = DATE_AND_TIME ( #1160, #644 ) ;
#531 = ORIENTED_EDGE ( 'NONE', *, *, #1080, .T. ) ;
#532 = LINE ( 'NONE', #250, #497 ) ;
#533 = EDGE_CURVE ( 'NONE', #447, #773, #368, .T. ) ;
#534 = DIRECTION ( 'NONE',  ( -1.000000000000000000, 0.000000000000000000, 0.000000000000000000 ) ) ;
#535 = CIRCLE ( 'NONE', #13, 2.705099999999998506 ) ;
#536 = ORIENTED_EDGE ( 'NONE', *, *, #989, .F. ) ;
#537 = ORIENTED_EDGE ( 'NONE', *, *, #191, .F. ) ;
#538 = FACE_OUTER_BOUND ( 'NONE', #397, .T. ) ;
#539 = ADVANCED_FACE ( 'NONE', ( #1004 ), #183, .F. ) ;
#540 = LINE ( 'NONE', #515, #991 ) ;
#541 = FACE_OUTER_BOUND ( 'NONE', #861, .T. ) ;
#542 = CALENDAR_DATE ( 2026, 22, 8 ) ;
#543 = CIRCLE ( 'NONE', #690, 2.705100000000002058 ) ;
#544 = ORIENTED_EDGE ( 'NONE', *, *, #438, .T. ) ;
#545 = DIRECTION ( 'NONE',  ( -1.000000000000000000, 0.000000000000000000, 0.000000000000000000 ) ) ;
#546 = FACE_BOUND ( 'NONE', #920, .T. ) ;
#547 = APPROVAL ( #708, 'UNSPECIFIED' ) ;
#548 = CARTESIAN_POINT ( 'NONE',  ( 19.71513743309625966, -80.26224907277281773, 6.349999999999999645 ) ) ;
#549 = CIRCLE ( 'NONE', #995, 2.705100000000002058 ) ;
#550 = VECTOR ( 'NONE', #1037, 1000.000000000000000 ) ;
#551 = VERTEX_POINT ( 'NONE', #819 ) ;
#552 = LINE ( 'NONE', #800, #262 ) ;
#553 = CARTESIAN_POINT ( 'NONE',  ( 17.01003743309626159, -80.26224907277281773, 6.349999999999999645 ) ) ;
#554 = DIRECTION ( 'NONE',  ( 1.000000000000000000, 0.000000000000000000, 0.000000000000000000 ) ) ;
#555 = ORIENTED_EDGE ( 'NONE', *, *, #688, .F. ) ;
#556 = VERTEX_POINT ( 'NONE', #445 ) ;
#557 = ADVANCED_FACE ( 'NONE', ( #254 ), #359, .F. ) ;
#558 = ORIENTED_EDGE ( 'NONE', *, *, #245, .T. ) ;
#559 = AXIS2_PLACEMENT_3D ( 'NONE', #48, #321, #603 ) ;
#560 = ORIENTED_EDGE ( 'NONE', *, *, #167, .T. ) ;
#561 = CARTESIAN_POINT ( 'NONE',  ( 22.89331243309773711, 95.13775092722724480, -6.349999999999999645 ) ) ;
#562 = VERTEX_POINT ( 'NONE', #993 ) ;
#563 = EDGE_CURVE ( 'NONE', #671, #363, #806, .T. ) ;
#564 = ORIENTED_EDGE ( 'NONE', *, *, #375, .F. ) ;
#565 = FACE_BOUND ( 'NONE', #892, .T. ) ;
#566 = DIRECTION ( 'NONE',  ( -0.000000000000000000, -0.000000000000000000, 1.000000000000000000 ) ) ;
#567 = ORIENTED_EDGE ( 'NONE', *, *, #808, .T. ) ;
#568 = AXIS2_PLACEMENT_3D ( 'NONE', #505, #522, #230 ) ;
#569 = VERTEX_POINT ( 'NONE', #980 ) ;
#570 = CARTESIAN_POINT ( 'NONE',  ( -95.19091537844407469, -25.39999999999999858, -6.349999999999999645 ) ) ;
#571 = EDGE_CURVE ( 'NONE', #815, #891, #256, .T. ) ;
#572 = CARTESIAN_POINT ( 'NONE',  ( 66.88740294534615316, -69.73775092722803493, 6.349999999999999645 ) ) ;
#573 = APPLICATION_PROTOCOL_DEFINITION ( 'international standard', 'config_control_design', 1994, #526 ) ;
#574 = ORIENTED_EDGE ( 'NONE', *, *, #443, .F. ) ;
#575 = CIRCLE ( 'NONE', #652, 2.705099999999998506 ) ;
#576 = DIRECTION ( 'NONE',  ( 1.000000000000000000, 0.000000000000000000, 0.000000000000000000 ) ) ;
#577 = FACE_OUTER_BOUND ( 'NONE', #638, .T. ) ;
#578 = EDGE_CURVE ( 'NONE', #815, #556, #283, .T. ) ;
#579 = DIRECTION ( 'NONE',  ( 0.000000000000000000, -0.000000000000000000, 1.000000000000000000 ) ) ;
#580 = EDGE_LOOP ( 'NONE', ( #718, #348 ) ) ;
#581 = CIRCLE ( 'NONE', #657, 2.705099999999998506 ) ;
#582 = CARTESIAN_POINT ( 'NONE',  ( 61.00412794534687322, 54.86224907277229335, -6.349999999999999645 ) ) ;
#583 = CIRCLE ( 'NONE', #771, 2.705099999999994953 ) ;
#584 = VERTEX_POINT ( 'NONE', #377 ) ;
#585 = CARTESIAN_POINT ( 'NONE',  ( 25.59841243309773517, 95.13775092722724480, 6.349999999999999645 ) ) ;
#586 = ADVANCED_FACE ( 'NONE', ( #915 ), #288, .F. ) ;
#587 = DIRECTION ( 'NONE',  ( -0.000000000000000000, -0.000000000000000000, 1.000000000000000000 ) ) ;
#588 = CARTESIAN_POINT ( 'NONE',  ( -103.7792903784439176, 87.37496063856856665, -6.349999999999999645 ) ) ;
#589 = FACE_OUTER_BOUND ( 'NONE', #374, .T. ) ;
#590 = DATE_AND_TIME ( #1045, #186 ) ;
#591 = VERTEX_POINT ( 'NONE', #572 ) ;
#592 = ORIENTED_EDGE ( 'NONE', *, *, #289, .F. ) ;
#593 = CARTESIAN_POINT ( 'NONE',  ( -95.19091537844404627, 25.40000000000010161, 6.349999999999999645 ) ) ;
#594 = DIRECTION ( 'NONE',  ( -0.000000000000000000, -0.000000000000000000, 1.000000000000000000 ) ) ;
#595 = FACE_BOUND ( 'NONE', #820, .T. ) ;
#596 = CARTESIAN_POINT ( 'NONE',  ( -23.77929037844384652, -133.5629821737386465, -6.349999999999999645 ) ) ;
#597 = ORIENTED_EDGE ( 'NONE', *, *, #198, .F. ) ;
#598 = ORIENTED_EDGE ( 'NONE', *, *, #205, .F. ) ;
#599 = LINE ( 'NONE', #1139, #822 ) ;
#600 = EDGE_LOOP ( 'NONE', ( #917, #259 ) ) ;
#601 = FACE_OUTER_BOUND ( 'NONE', #328, .T. ) ;
#602 = AXIS2_PLACEMENT_3D ( 'NONE', #372, #459, #735 ) ;
#603 = DIRECTION ( 'NONE',  ( 1.000000000000000000, 0.000000000000000000, 0.000000000000000000 ) ) ;
#604 = EDGE_CURVE ( 'NONE', #551, #1024, #19, .T. ) ;
#605 = ORIENTED_EDGE ( 'NONE', *, *, #403, .T. ) ;
#606 = FACE_OUTER_BOUND ( 'NONE', #305, .T. ) ;
#607 = VERTEX_POINT ( 'NONE', #1000 ) ;
#608 = ORIENTED_EDGE ( 'NONE', *, *, #731, .F. ) ;
#609 = VERTEX_POINT ( 'NONE', #106 ) ;
#610 = CARTESIAN_POINT ( 'NONE',  ( -95.19091537844404627, 25.40000000000010161, -6.349999999999999645 ) ) ;
#611 = VECTOR ( 'NONE', #1153, 1000.000000000000000 ) ;
#612 = EDGE_CURVE ( 'NONE', #447, #149, #61, .T. ) ;
#613 = DIRECTION ( 'NONE',  ( 1.000000000000000000, 0.000000000000000000, 0.000000000000000000 ) ) ;
#614 = APPROVAL_ROLE ( '' ) ;
#615 = EDGE_LOOP ( 'NONE', ( #319, #318 ) ) ;
#616 = DIRECTION ( 'NONE',  ( -0.000000000000000000, -0.000000000000000000, 1.000000000000000000 ) ) ;
#617 = DIRECTION ( 'NONE',  ( -1.000000000000000000, 0.000000000000000000, 0.000000000000000000 ) ) ;
#618 = VERTEX_POINT ( 'NONE', #299 ) ;
#619 = CIRCLE ( 'NONE', #99, 2.705099999999998506 ) ;
#620 = EDGE_CURVE ( 'NONE', #248, #724, #581, .T. ) ;
#621 = EDGE_LOOP ( 'NONE', ( #564, #1065, #165, #27 ) ) ;
#622 = ORIENTED_EDGE ( 'NONE', *, *, #1081, .F. ) ;
#623 = DIRECTION ( 'NONE',  ( 0.000000000000000000, -0.000000000000000000, 1.000000000000000000 ) ) ;
#624 = CIRCLE ( 'NONE', #696, 2.705100000000002058 ) ;
#625 = DIRECTION ( 'NONE',  ( -0.000000000000000000, -0.000000000000000000, 1.000000000000000000 ) ) ;
#626 = PRODUCT_DEFINITION_FORMATION_WITH_SPECIFIED_SOURCE ( 'ANY', '', #878, .NOT_KNOWN. ) ;
#627 = LINE ( 'NONE', #85, #867 ) ;
#628 = DIRECTION ( 'NONE',  ( -0.000000000000000000, -0.000000000000000000, 1.000000000000000000 ) ) ;
#629 = VECTOR ( 'NONE', #898, 1000.000000000000000 ) ;
#630 = ADVANCED_FACE ( 'NONE', ( #42 ), #1055, .T. ) ;
#631 = ORIENTED_EDGE ( 'NONE', *, *, #838, .T. ) ;
#632 = PERSON_AND_ORGANIZATION ( #710, #700 ) ;
#633 = CC_DESIGN_DATE_AND_TIME_ASSIGNMENT ( #999, #725, ( #1100 ) ) ;
#634 = DIRECTION ( 'NONE',  ( 1.000000000000000000, 0.000000000000000000, 0.000000000000000000 ) ) ;
#635 = VECTOR ( 'NONE', #329, 1000.000000000000000 ) ;
#636 = ORIENTED_EDGE ( 'NONE', *, *, #413, .T. ) ;
#637 = DIRECTION ( 'NONE',  ( -0.000000000000000000, -0.000000000000000000, 1.000000000000000000 ) ) ;
#638 = EDGE_LOOP ( 'NONE', ( #598, #440, #278, #1019 ) ) ;
#639 = EDGE_CURVE ( 'NONE', #656, #171, #408, .T. ) ;
#640 = VECTOR ( 'NONE', #691, 1000.000000000000000 ) ;
#641 = PERSON_AND_ORGANIZATION ( #710, #700 ) ;
#642 = DIRECTION ( 'NONE',  ( 0.000000000000000000, -0.000000000000000000, 1.000000000000000000 ) ) ;
#643 = AXIS2_PLACEMENT_3D ( 'NONE', #1189, #354, #360 ) ;
#644 = LOCAL_TIME ( 17, 51, 30.00000000000000000, #1056 ) ;
#645 = CIRCLE ( 'NONE', #796, 2.705100000000002058 ) ;
#646 = ORIENTED_EDGE ( 'NONE', *, *, #245, .F. ) ;
#647 = DIRECTION ( 'NONE',  ( 1.000000000000000000, 0.000000000000000000, 0.000000000000000000 ) ) ;
#648 = ORIENTED_EDGE ( 'NONE', *, *, #760, .F. ) ;
#649 = COORDINATED_UNIVERSAL_TIME_OFFSET ( 8, 0, .BEHIND. ) ;
#650 = EDGE_CURVE ( 'NONE', #1131, #924, #1178, .T. ) ;
#651 = VERTEX_POINT ( 'NONE', #68 ) ;
#652 = AXIS2_PLACEMENT_3D ( 'NONE', #1127, #674, #869 ) ;
#653 = DIRECTION ( 'NONE',  ( 1.000000000000000000, 0.000000000000000000, 0.000000000000000000 ) ) ;
#654 = LINE ( 'NONE', #190, #141 ) ;
#655 = CC_DESIGN_DATE_AND_TIME_ASSIGNMENT ( #530, #695, ( #28 ) ) ;
#656 = VERTEX_POINT ( 'NONE', #987 ) ;
#657 = AXIS2_PLACEMENT_3D ( 'NONE', #935, #1038, #504 ) ;
#658 = EDGE_CURVE ( 'NONE', #298, #556, #467, .T. ) ;
#659 = DIRECTION ( 'NONE',  ( -0.000000000000000000, -0.000000000000000000, 1.000000000000000000 ) ) ;
#660 = CARTESIAN_POINT ( 'NONE',  ( 19.71513743309744626, 80.26224907277256193, -6.349999999999999645 ) ) ;
#661 = EDGE_LOOP ( 'NONE', ( #1058, #448, #1124, #1087 ) ) ;
#662 = CIRCLE ( 'NONE', #1151, 2.705100000000002058 ) ;
#663 = EDGE_LOOP ( 'NONE', ( #34, #648, #527, #723 ) ) ;
#664 = ORIENTED_EDGE ( 'NONE', *, *, #650, .T. ) ;
#665 = EDGE_CURVE ( 'NONE', #768, #835, #540, .T. ) ;
#666 = EDGE_LOOP ( 'NONE', ( #894, #839 ) ) ;
#667 = DIRECTION ( 'NONE',  ( 0.000000000000000000, -0.000000000000000000, 1.000000000000000000 ) ) ;
#668 = DIRECTION ( 'NONE',  ( 0.8660254037844384856, -0.5000000000000002220, -0.000000000000000000 ) ) ;
#669 = CIRCLE ( 'NONE', #895, 2.705100000000002058 ) ;
#670 = AXIS2_PLACEMENT_3D ( 'NONE', #266, #701, #160 ) ;
#671 = VERTEX_POINT ( 'NONE', #168 ) ;
#672 = DIRECTION ( 'NONE',  ( 0.8660254037844384856, -0.5000000000000002220, -0.000000000000000000 ) ) ;
#673 = ORIENTED_EDGE ( 'NONE', *, *, #443, .T. ) ;
#674 = DIRECTION ( 'NONE',  ( 0.000000000000000000, -0.000000000000000000, 1.000000000000000000 ) ) ;
#675 = ORIENTED_EDGE ( 'NONE', *, *, #156, .F. ) ;
#676 = EDGE_CURVE ( 'NONE', #751, #591, #882, .T. ) ;
#677 = EDGE_LOOP ( 'NONE', ( #493, #3, #605, #176 ) ) ;
#678 = EDGE_LOOP ( 'NONE', ( #850, #673 ) ) ;
#679 = CC_DESIGN_SECURITY_CLASSIFICATION ( #1100, ( #626 ) ) ;
#680 = DIRECTION ( 'NONE',  ( -1.000000000000000000, 0.000000000000000000, 0.000000000000000000 ) ) ;
#681 = PLANE ( 'NONE',  #316 ) ;
#682 = FACE_BOUND ( 'NONE', #401, .T. ) ;
#683 = ORIENTED_EDGE ( 'NONE', *, *, #731, .T. ) ;
#684 = DIRECTION ( 'NONE',  ( -1.000000000000000000, 0.000000000000000000, 0.000000000000000000 ) ) ;
#685 = LINE ( 'NONE', #402, #933 ) ;
#686 = DIRECTION ( 'NONE',  ( 0.000000000000000000, 0.000000000000000000, 1.000000000000000000 ) ) ;
#687 = DIRECTION ( 'NONE',  ( 0.000000000000000000, -0.000000000000000000, 1.000000000000000000 ) ) ;
#688 = EDGE_CURVE ( 'NONE', #656, #551, #1157, .T. ) ;
#689 = ORIENTED_EDGE ( 'NONE', *, *, #277, .T. ) ;
#690 = AXIS2_PLACEMENT_3D ( 'NONE', #219, #224, #680 ) ;
#691 = DIRECTION ( 'NONE',  ( 1.201851678989722492E-15, 1.000000000000000000, -0.000000000000000000 ) ) ;
#692 = ORIENTED_EDGE ( 'NONE', *, *, #733, .T. ) ;
#693 = FACE_BOUND ( 'NONE', #818, .T. ) ;
#694 = ORIENTED_EDGE ( 'NONE', *, *, #275, .T. ) ;
#695 = DATE_TIME_ROLE ( 'creation_date' ) ;
#696 = AXIS2_PLACEMENT_3D ( 'NONE', #502, #594, #959 ) ;
#697 = ADVANCED_FACE ( 'NONE', ( #711, #707, #260, #208, #16, #749, #1115, #738, #834, #565, #1007, #473, #546 ), #91, .T. ) ;
#698 = VECTOR ( 'NONE', #940, 1000.000000000000000 ) ;
#699 = DIRECTION ( 'NONE',  ( -0.000000000000000000, -0.000000000000000000, 1.000000000000000000 ) ) ;
#700 = ORGANIZATION ( 'UNSPECIFIED', 'UNSPECIFIED', '' ) ;
#701 = DIRECTION ( 'NONE',  ( 0.000000000000000000, -0.000000000000000000, 1.000000000000000000 ) ) ;
#702 = ORIENTED_EDGE ( 'NONE', *, *, #124, .T. ) ;
#703 = APPROVAL_STATUS ( 'not_yet_approved' ) ;
#704 = FACE_OUTER_BOUND ( 'NONE', #720, .T. ) ;
#705 = LINE ( 'NONE', #252, #629 ) ;
#706 = CIRCLE ( 'NONE', #759, 2.705100000000002058 ) ;
#707 = FACE_BOUND ( 'NONE', #832, .T. ) ;
#708 = APPROVAL_STATUS ( 'not_yet_approved' ) ;
#709 = DIRECTION ( 'NONE',  ( -0.000000000000000000, -0.000000000000000000, 1.000000000000000000 ) ) ;
#710 = PERSON ( 'UNSPECIFIED', 'UNSPECIFIED', 'UNSPECIFIED', ('UNSPECIFIED'), ('UNSPECIFIED'), ('UNSPECIFIED') ) ;
#711 = FACE_BOUND ( 'NONE', #678, .T. ) ;
#712 = CARTESIAN_POINT ( 'NONE',  ( -103.7792903784443865, -87.37496063856825401, 6.349999999999999645 ) ) ;
#713 = AXIS2_PLACEMENT_3D ( 'NONE', #214, #934, #116 ) ;
#714 = DIRECTION ( 'NONE',  ( -0.000000000000000000, -0.000000000000000000, 1.000000000000000000 ) ) ;
#715 = EDGE_CURVE ( 'NONE', #985, #569, #997, .T. ) ;
#716 = DIRECTION ( 'NONE',  ( 0.000000000000000000, -0.000000000000000000, 1.000000000000000000 ) ) ;
#717 = ORIENTED_EDGE ( 'NONE', *, *, #38, .T. ) ;
#718 = ORIENTED_EDGE ( 'NONE', *, *, #989, .T. ) ;
#719 = FACE_OUTER_BOUND ( 'NONE', #621, .T. ) ;
#720 = EDGE_LOOP ( 'NONE', ( #966, #52, #373, #295 ) ) ;
#721 = AXIS2_PLACEMENT_3D ( 'NONE', #420, #439, #1143 ) ;
#722 = CARTESIAN_POINT ( 'NONE',  ( -103.7792903784443865, -87.37496063856825401, -6.349999999999999645 ) ) ;
#723 = ORIENTED_EDGE ( 'NONE', *, *, #639, .T. ) ;
#724 = VERTEX_POINT ( 'NONE', #31 ) ;
#725 = DATE_TIME_ROLE ( 'classification_date' ) ;
#726 = DIRECTION ( 'NONE',  ( -0.000000000000000000, -0.000000000000000000, 1.000000000000000000 ) ) ;
#727 = ORIENTED_EDGE ( 'NONE', *, *, #533, .T. ) ;
#728 = EDGE_CURVE ( 'NONE', #562, #1131, #543, .T. ) ;
#729 = DIRECTION ( 'NONE',  ( -0.000000000000000000, -0.000000000000000000, 1.000000000000000000 ) ) ;
#730 = ORIENTED_EDGE ( 'NONE', *, *, #241, .F. ) ;
#731 = EDGE_CURVE ( 'NONE', #149, #104, #47, .T. ) ;
#732 = VERTEX_POINT ( 'NONE', #412 ) ;
#733 = EDGE_CURVE ( 'NONE', #651, #363, #481, .T. ) ;
#734 = ORIENTED_EDGE ( 'NONE', *, *, #888, .F. ) ;
#735 = DIRECTION ( 'NONE',  ( 1.000000000000000000, 0.000000000000000000, 0.000000000000000000 ) ) ;
#736 = CC_DESIGN_APPROVAL ( #998, ( #28 ) ) ;
#737 = ORIENTED_EDGE ( 'NONE', *, *, #728, .T. ) ;
#738 = FACE_BOUND ( 'NONE', #489, .T. ) ;
#739 = DIRECTION ( 'NONE',  ( 0.8660254037844384856, -0.5000000000000002220, 0.000000000000000000 ) ) ;
#740 = EDGE_CURVE ( 'NONE', #618, #378, #80, .T. ) ;
#741 = CIRCLE ( 'NONE', #777, 2.705100000000002058 ) ;
#742 = PRODUCT_DEFINITION_SHAPE ( 'NONE', 'NONE',  #28 ) ;
#743 = FACE_OUTER_BOUND ( 'NONE', #187, .T. ) ;
#744 = DIRECTION ( 'NONE',  ( 1.000000000000000000, 0.000000000000000000, 0.000000000000000000 ) ) ;
#745 = ADVANCED_FACE ( 'NONE', ( #404 ), #53, .T. ) ;
#746 = ORIENTED_EDGE ( 'NONE', *, *, #314, .F. ) ;
#747 = VECTOR ( 'NONE', #519, 1000.000000000000000 ) ;
#748 = DIRECTION ( 'NONE',  ( -0.000000000000000000, -0.000000000000000000, 1.000000000000000000 ) ) ;
#749 = FACE_BOUND ( 'NONE', #197, .T. ) ;
#750 = DIRECTION ( 'NONE',  ( -1.000000000000000000, 0.000000000000000000, 0.000000000000000000 ) ) ;
#751 = VERTEX_POINT ( 'NONE', #482 ) ;
#752 = AXIS2_PLACEMENT_3D ( 'NONE', #194, #12, #744 ) ;
#753 = CARTESIAN_POINT ( 'NONE',  ( 61.00412794534687322, 54.86224907277229335, 6.349999999999999645 ) ) ;
#754 = ORIENTED_EDGE ( 'NONE', *, *, #650, .F. ) ;
#755 = DIRECTION ( 'NONE',  ( -0.8660254037844385966, -0.5000000000000001110, -0.000000000000000000 ) ) ;
#756 = CARTESIAN_POINT ( 'NONE',  ( -103.7792903784439176, 87.37496063856856665, -6.349999999999999645 ) ) ;
#757 = LINE ( 'NONE', #1003, #1083 ) ;
#758 = ORIENTED_EDGE ( 'NONE', *, *, #271, .F. ) ;
#759 = AXIS2_PLACEMENT_3D ( 'NONE', #582, #667, #843 ) ;
#760 = EDGE_CURVE ( 'NONE', #569, #269, #21, .T. ) ;
#761 = CARTESIAN_POINT ( 'NONE',  ( 17.01003743309626159, -80.26224907277281773, -6.349999999999999645 ) ) ;
#762 = CARTESIAN_POINT ( 'NONE',  ( 69.59250294534615477, -69.73775092722803493, 6.349999999999999645 ) ) ;
#763 = VERTEX_POINT ( 'NONE', #66 ) ;
#764 = AXIS2_PLACEMENT_3D ( 'NONE', #960, #54, #1142 ) ;
#765 = DIRECTION ( 'NONE',  ( -0.000000000000000000, -0.000000000000000000, 1.000000000000000000 ) ) ;
#766 = EDGE_CURVE ( 'NONE', #123, #1144, #802, .T. ) ;
#767 = FACE_BOUND ( 'NONE', #666, .T. ) ;
#768 = VERTEX_POINT ( 'NONE', #1079 ) ;
#769 = MANIFOLD_SOLID_BREP ( 'Tap Drill for 1/4-28 Tap1', #207 ) ;
#770 = ORIENTED_EDGE ( 'NONE', *, *, #87, .T. ) ;
#771 = AXIS2_PLACEMENT_3D ( 'NONE', #175, #716, #545 ) ;
#772 = CARTESIAN_POINT ( 'NONE',  ( -78.01416537844363575, -25.39999999999999858, -6.349999999999999645 ) ) ;
#773 = VERTEX_POINT ( 'NONE', #977 ) ;
#774 = DIRECTION ( 'NONE',  ( -0.000000000000000000, -0.000000000000000000, 1.000000000000000000 ) ) ;
#775 = VERTEX_POINT ( 'NONE', #145 ) ;
#776 = PLANE ( 'NONE',  #1168 ) ;
#777 = AXIS2_PLACEMENT_3D ( 'NONE', #9, #729, #1109 ) ;
#778 = DIRECTION ( 'NONE',  ( 1.000000000000000000, 0.000000000000000000, 0.000000000000000000 ) ) ;
#779 = ORIENTED_EDGE ( 'NONE', *, *, #306, .T. ) ;
#780 = EDGE_LOOP ( 'NONE', ( #558, #142 ) ) ;
#781 = EDGE_CURVE ( 'NONE', #732, #1154, #73, .T. ) ;
#782 = FACE_OUTER_BOUND ( 'NONE', #1062, .T. ) ;
#783 = ORIENTED_EDGE ( 'NONE', *, *, #371, .F. ) ;
#784 = FACE_OUTER_BOUND ( 'NONE', #971, .T. ) ;
#785 = AXIS2_PLACEMENT_3D ( 'NONE', #1165, #990, #338 ) ;
#786 = ORIENTED_EDGE ( 'NONE', *, *, #275, .F. ) ;
#787 = FACE_BOUND ( 'NONE', #600, .T. ) ;
#788 = PERSON_AND_ORGANIZATION ( #710, #700 ) ;
#789 = CYLINDRICAL_SURFACE ( 'NONE', #139, 2.705100000000002058 ) ;
#790 = ADVANCED_FACE ( 'NONE', ( #719 ), #983, .F. ) ;
#791 = VECTOR ( 'NONE', #797, 1000.000000000000000 ) ;
#792 = ORIENTED_EDGE ( 'NONE', *, *, #112, .T. ) ;
#793 = CIRCLE ( 'NONE', #206, 2.705099999999998506 ) ;
#794 = ADVANCED_FACE ( 'NONE', ( #601 ), #880, .F. ) ;
#795 = ORIENTED_EDGE ( 'NONE', *, *, #1068, .T. ) ;
#796 = AXIS2_PLACEMENT_3D ( 'NONE', #114, #389, #1119 ) ;
#797 = DIRECTION ( 'NONE',  ( -0.000000000000000000, -0.000000000000000000, 1.000000000000000000 ) ) ;
#798 = ORIENTED_EDGE ( 'NONE', *, *, #970, .T. ) ;
#799 = ORIENTED_EDGE ( 'NONE', *, *, #525, .T. ) ;
#800 = CARTESIAN_POINT ( 'NONE',  ( 127.5585807568876362, -46.18802153517035691, -6.349999999999999645 ) ) ;
#801 = CARTESIAN_POINT ( 'NONE',  ( -92.48581537844404465, 25.40000000000010161, 6.349999999999999645 ) ) ;
#802 = LINE ( 'NONE', #341, #635 ) ;
#803 = EDGE_CURVE ( 'NONE', #891, #815, #501, .T. ) ;
#804 = AXIS2_PLACEMENT_3D ( 'NONE', #89, #831, #1011 ) ;
#805 = FACE_OUTER_BOUND ( 'NONE', #921, .T. ) ;
#806 = LINE ( 'NONE', #345, #347 ) ;
#807 = CARTESIAN_POINT ( 'NONE',  ( 127.5585807568877499, 46.18802153517014375, -6.349999999999999645 ) ) ;
#808 = EDGE_CURVE ( 'NONE', #881, #270, #619, .T. ) ;
#809 = VECTOR ( 'NONE', #521, 1000.000000000000000 ) ;
#810 = SECURITY_CLASSIFICATION_LEVEL ( 'unclassified' ) ;
#811 = ORIENTED_EDGE ( 'NONE', *, *, #1040, .T. ) ;
#812 = ORIENTED_EDGE ( 'NONE', *, *, #255, .F. ) ;
#813 = ORIENTED_EDGE ( 'NONE', *, *, #1001, .F. ) ;
#814 = DIRECTION ( 'NONE',  ( -0.000000000000000000, -0.000000000000000000, 1.000000000000000000 ) ) ;
#815 = VERTEX_POINT ( 'NONE', #973 ) ;
#816 = CIRCLE ( 'NONE', #643, 2.705100000000002058 ) ;
#817 = CARTESIAN_POINT ( 'NONE',  ( 63.70922794534687483, 54.86224907277229335, 6.349999999999999645 ) ) ;
#818 = EDGE_LOOP ( 'NONE', ( #1111, #1096 ) ) ;
#819 = CARTESIAN_POINT ( 'NONE',  ( -103.7792903784443865, -87.37496063856825401, -6.349999999999999645 ) ) ;
#820 = EDGE_LOOP ( 'NONE', ( #337, #95 ) ) ;
#821 = DIRECTION ( 'NONE',  ( -1.000000000000000000, 0.000000000000000000, 0.000000000000000000 ) ) ;
#822 = VECTOR ( 'NONE', #616, 1000.000000000000000 ) ;
#823 = APPROVAL_STATUS ( 'not_yet_approved' ) ;
#824 = AXIS2_PLACEMENT_3D ( 'NONE', #1067, #968, #984 ) ;
#825 = ORIENTED_EDGE ( 'NONE', *, *, #833, .T. ) ;
#826 = FACE_OUTER_BOUND ( 'NONE', #476, .T. ) ;
#827 = ADVANCED_FACE ( 'NONE', ( #595, #407, #693, #767, #682, #503, #787, #243, #138, #418, #1141, #1063, #606 ), #776, .F. ) ;
#828 = ORIENTED_EDGE ( 'NONE', *, *, #124, .F. ) ;
#829 = DIRECTION ( 'NONE',  ( -0.000000000000000000, -0.000000000000000000, 1.000000000000000000 ) ) ;
#830 = ORIENTED_EDGE ( 'NONE', *, *, #301, .F. ) ;
#831 = DIRECTION ( 'NONE',  ( 0.000000000000000000, -0.000000000000000000, 1.000000000000000000 ) ) ;
#832 = EDGE_LOOP ( 'NONE', ( #449, #465 ) ) ;
#833 = EDGE_CURVE ( 'NONE', #1048, #671, #956, .T. ) ;
#834 = FACE_BOUND ( 'NONE', #580, .T. ) ;
#835 = VERTEX_POINT ( 'NONE', #326 ) ;
#836 = ORIENTED_EDGE ( 'NONE', *, *, #688, .T. ) ;
#837 = DIRECTION ( 'NONE',  ( 0.000000000000000000, 0.000000000000000000, -1.000000000000000000 ) ) ;
#838 = EDGE_CURVE ( 'NONE', #1048, #651, #1138, .T. ) ;
#839 = ORIENTED_EDGE ( 'NONE', *, *, #1148, .F. ) ;
#840 = DIRECTION ( 'NONE',  ( 1.000000000000000000, 0.000000000000000000, 0.000000000000000000 ) ) ;
#841 = CIRCLE ( 'NONE', #559, 2.705100000000002058 ) ;
#842 = ORIENTED_EDGE ( 'NONE', *, *, #781, .T. ) ;
#843 = DIRECTION ( 'NONE',  ( -1.000000000000000000, 0.000000000000000000, 0.000000000000000000 ) ) ;
#844 = ORIENTED_EDGE ( 'NONE', *, *, #639, .F. ) ;
#845 = VERTEX_POINT ( 'NONE', #144 ) ;
#846 = DIRECTION ( 'NONE',  ( -1.000000000000000000, 0.000000000000000000, 0.000000000000000000 ) ) ;
#847 = ORIENTED_EDGE ( 'NONE', *, *, #676, .F. ) ;
#848 = PERSON_AND_ORGANIZATION_ROLE ( 'design_owner' ) ;
#849 = VECTOR ( 'NONE', #258, 1000.000000000000000 ) ;
#850 = ORIENTED_EDGE ( 'NONE', *, *, #301, .T. ) ;
#851 = EDGE_CURVE ( 'NONE', #166, #751, #101, .T. ) ;
#852 = CARTESIAN_POINT ( 'NONE',  ( 61.00412794534606320, -54.86224907277321705, 6.349999999999999645 ) ) ;
#853 = AXIS2_PLACEMENT_3D ( 'NONE', #155, #975, #866 ) ;
#854 = EDGE_LOOP ( 'NONE', ( #211, #683, #944, #1172 ) ) ;
#855 = CIRCLE ( 'NONE', #172, 2.705100000000002058 ) ;
#856 = EDGE_CURVE ( 'NONE', #584, #763, #583, .T. ) ;
#857 = CARTESIAN_POINT ( 'NONE',  ( -92.48581537844407308, -25.39999999999999858, -6.349999999999999645 ) ) ;
#858 = CARTESIAN_POINT ( 'NONE',  ( -75.30906537844360571, 25.40000000000008384, -6.349999999999999645 ) ) ;
#859 = CARTESIAN_POINT ( 'NONE',  ( 72.29760294534719378, 69.73775092722696911, -6.349999999999999645 ) ) ;
#860 = ORIENTED_EDGE ( 'NONE', *, *, #922, .T. ) ;
#861 = EDGE_LOOP ( 'NONE', ( #847, #110, #524, #531 ) ) ;
#862 = EDGE_CURVE ( 'NONE', #149, #447, #816, .T. ) ;
#863 = CARTESIAN_POINT ( 'NONE',  ( -80.71926537844363736, -25.39999999999999858, -6.349999999999999645 ) ) ;
#864 = EDGE_CURVE ( 'NONE', #518, #1130, #157, .T. ) ;
#865 = VECTOR ( 'NONE', #1158, 1000.000000000000000 ) ;
#866 = DIRECTION ( 'NONE',  ( 1.000000000000000000, 0.000000000000000000, 0.000000000000000000 ) ) ;
#867 = VECTOR ( 'NONE', #163, 1000.000000000000000 ) ;
#868 = CARTESIAN_POINT ( 'NONE',  ( 63.70922794534687483, 54.86224907277229335, 6.349999999999999645 ) ) ;
#869 = DIRECTION ( 'NONE',  ( -1.000000000000000000, 0.000000000000000000, 0.000000000000000000 ) ) ;
#870 = CIRCLE ( 'NONE', #5, 2.705099999999994953 ) ;
#871 = CARTESIAN_POINT ( 'NONE',  ( 61.00412794534606320, -54.86224907277321705, 6.349999999999999645 ) ) ;
#872 = CARTESIAN_POINT ( 'NONE',  ( 127.5585807568877499, 46.18802153517014375, -6.349999999999999645 ) ) ;
#873 = EDGE_CURVE ( 'NONE', #1024, #775, #552, .T. ) ;
#874 = ORIENTED_EDGE ( 'NONE', *, *, #563, .T. ) ;
#875 = DIRECTION ( 'NONE',  ( 0.000000000000000000, -0.000000000000000000, 1.000000000000000000 ) ) ;
#876 = DIRECTION ( 'NONE',  ( 1.000000000000000000, 0.000000000000000000, 0.000000000000000000 ) ) ;
#877 = AXIS2_PLACEMENT_3D ( 'NONE', #570, #579, #846 ) ;
#878 = PRODUCT ( 'Platform_Default_sldprt', 'Platform_Default_sldprt', '', ( #932 ) ) ;
#879 = VERTEX_POINT ( 'NONE', #1082 ) ;
#880 = CYLINDRICAL_SURFACE ( 'NONE', #937, 2.705100000000002058 ) ;
#881 = VERTEX_POINT ( 'NONE', #340 ) ;
#882 = LINE ( 'NONE', #899, #45 ) ;
#883 = LINE ( 'NONE', #60, #90 ) ;
#884 = ORIENTED_EDGE ( 'NONE', *, *, #665, .T. ) ;
#885 = APPROVAL_DATE_TIME ( #164, #998 ) ;
#886 = DIRECTION ( 'NONE',  ( 1.000000000000000000, 0.000000000000000000, 0.000000000000000000 ) ) ;
#887 = ORIENTED_EDGE ( 'NONE', *, *, #486, .F. ) ;
#888 = EDGE_CURVE ( 'NONE', #551, #1027, #77, .T. ) ;
#889 = APPROVAL_PERSON_ORGANIZATION ( #954, #547, #70 ) ;
#890 = DIRECTION ( 'NONE',  ( -0.000000000000000000, -0.000000000000000000, 1.000000000000000000 ) ) ;
#891 = VERTEX_POINT ( 'NONE', #982 ) ;
#892 = EDGE_LOOP ( 'NONE', ( #737, #346 ) ) ;
#893 = FACE_OUTER_BOUND ( 'NONE', #1075, .T. ) ;
#894 = ORIENTED_EDGE ( 'NONE', *, *, #525, .F. ) ;
#895 = AXIS2_PLACEMENT_3D ( 'NONE', #1092, #1005, #647 ) ;
#896 = CARTESIAN_POINT ( 'NONE',  ( 25.59841243309632475, -95.13775092722764271, 6.349999999999999645 ) ) ;
#897 = CARTESIAN_POINT ( 'NONE',  ( 25.59841243309632475, -95.13775092722764271, 6.349999999999999645 ) ) ;
#898 = DIRECTION ( 'NONE',  ( -0.000000000000000000, -0.000000000000000000, 1.000000000000000000 ) ) ;
#899 = CARTESIAN_POINT ( 'NONE',  ( 66.88740294534615316, -69.73775092722803493, 6.349999999999999645 ) ) ;
#900 = AXIS2_PLACEMENT_3D ( 'NONE', #1089, #890, #634 ) ;
#901 = ADVANCED_FACE ( 'NONE', ( #941 ), #221, .F. ) ;
#902 = APPROVAL_ROLE ( '' ) ;
#903 = ORIENTED_EDGE ( 'NONE', *, *, #728, .F. ) ;
#904 = DIRECTION ( 'NONE',  ( 0.8660254037844391517, 0.4999999999999990563, -0.000000000000000000 ) ) ;
#905 = CARTESIAN_POINT ( 'NONE',  ( 14.30493743309745014, 80.26224907277256193, 6.349999999999999645 ) ) ;
#906 = ORIENTED_EDGE ( 'NONE', *, *, #856, .F. ) ;
#907 = AXIS2_PLACEMENT_3D ( 'NONE', #1050, #955, #136 ) ;
#908 = CC_DESIGN_APPROVAL ( #547, ( #626 ) ) ;
#909 = CIRCLE ( 'NONE', #490, 2.705100000000002058 ) ;
#910 = EDGE_CURVE ( 'NONE', #724, #248, #793, .T. ) ;
#911 = EDGE_LOOP ( 'NONE', ( #498, #76 ) ) ;
#912 = DIRECTION ( 'NONE',  ( -0.000000000000000000, -0.000000000000000000, 1.000000000000000000 ) ) ;
#913 = ORIENTED_EDGE ( 'NONE', *, *, #715, .T. ) ;
#914 = AXIS2_PLACEMENT_3D ( 'NONE', #294, #18, #384 ) ;
#915 = FACE_OUTER_BOUND ( 'NONE', #661, .T. ) ;
#916 = DIRECTION ( 'NONE',  ( 1.000000000000000000, 0.000000000000000000, 0.000000000000000000 ) ) ;
#917 = ORIENTED_EDGE ( 'NONE', *, *, #1155, .F. ) ;
#918 = LINE ( 'NONE', #98, #456 ) ;
#919 = VECTOR ( 'NONE', #431, 1000.000000000000000 ) ;
#920 = EDGE_LOOP ( 'NONE', ( #83, #367 ) ) ;
#921 = EDGE_LOOP ( 'NONE', ( #468, #631, #692, #304 ) ) ;
#922 = EDGE_CURVE ( 'NONE', #1027, #768, #757, .T. ) ;
#923 = DIRECTION ( 'NONE',  ( 0.000000000000000000, -0.000000000000000000, 1.000000000000000000 ) ) ;
#924 = VERTEX_POINT ( 'NONE', #122 ) ;
#925 = LINE ( 'NONE', #807, #550 ) ;
#926 = CYLINDRICAL_SURFACE ( 'NONE', #914, 2.705100000000002058 ) ;
#927 = AXIS2_PLACEMENT_3D ( 'NONE', #936, #393, #387 ) ;
#928 = EDGE_LOOP ( 'NONE', ( #1077, #828, #153, #415 ) ) ;
#929 = DIRECTION ( 'NONE',  ( 1.000000000000000000, 0.000000000000000000, 0.000000000000000000 ) ) ;
#930 = DIRECTION ( 'NONE',  ( 1.000000000000000000, 0.000000000000000000, 0.000000000000000000 ) ) ;
#931 = ORIENTED_EDGE ( 'NONE', *, *, #255, .T. ) ;
#932 = MECHANICAL_CONTEXT ( 'NONE', #526, 'mechanical' ) ;
#933 = VECTOR ( 'NONE', #300, 1000.000000000000114 ) ;
#934 = DIRECTION ( 'NONE',  ( 0.4999999999999990563, -0.8660254037844392627, 0.000000000000000000 ) ) ;
#935 = CARTESIAN_POINT ( 'NONE',  ( 17.01003743309744820, 80.26224907277256193, 6.349999999999999645 ) ) ;
#936 = CARTESIAN_POINT ( 'NONE',  ( 17.01003743309626159, -80.26224907277281773, 6.349999999999999645 ) ) ;
#937 = AXIS2_PLACEMENT_3D ( 'NONE', #967, #426, #315 ) ;
#938 = CARTESIAN_POINT ( 'NONE',  ( 58.29902794534687160, 54.86224907277229335, -6.349999999999999645 ) ) ;
#939 = CARTESIAN_POINT ( 'NONE',  ( 25.59841243309773517, 95.13775092722724480, 6.349999999999999645 ) ) ;
#940 = DIRECTION ( 'NONE',  ( 0.000000000000000000, 0.000000000000000000, 1.000000000000000000 ) ) ;
#941 = FACE_OUTER_BOUND ( 'NONE', #1145, .T. ) ;
#942 = ADVANCED_FACE ( 'NONE', ( #33 ), #308, .F. ) ;
#943 = AXIS2_PLACEMENT_3D ( 'NONE', #450, #566, #357 ) ;
#944 = ORIENTED_EDGE ( 'NONE', *, *, #336, .T. ) ;
#945 = EDGE_LOOP ( 'NONE', ( #494, #506 ) ) ;
#946 = ORIENTED_EDGE ( 'NONE', *, *, #222, .F. ) ;
#947 = ORIENTED_EDGE ( 'NONE', *, *, #620, .F. ) ;
#948 = ORIENTED_EDGE ( 'NONE', *, *, #2, .F. ) ;
#949 = DIRECTION ( 'NONE',  ( 1.000000000000000000, 0.000000000000000000, 0.000000000000000000 ) ) ;
#950 = LINE ( 'NONE', #392, #698 ) ;
#951 = FACE_OUTER_BOUND ( 'NONE', #663, .T. ) ;
#952 = LINE ( 'NONE', #492, #390 ) ;
#953 = DIRECTION ( 'NONE',  ( 1.000000000000000000, 0.000000000000000000, 0.000000000000000000 ) ) ;
#954 = PERSON_AND_ORGANIZATION ( #710, #700 ) ;
#955 = DIRECTION ( 'NONE',  ( 0.000000000000000000, -0.000000000000000000, 1.000000000000000000 ) ) ;
#956 = CIRCLE ( 'NONE', #907, 2.705099999999998506 ) ;
#957 = ADVANCED_FACE ( 'NONE', ( #589 ), #131, .F. ) ;
#958 = DIRECTION ( 'NONE',  ( -0.000000000000000000, -0.000000000000000000, 1.000000000000000000 ) ) ;
#959 = DIRECTION ( 'NONE',  ( 1.000000000000000000, 0.000000000000000000, 0.000000000000000000 ) ) ;
#960 = CARTESIAN_POINT ( 'NONE',  ( 127.5585807568877499, 46.18802153517014375, -6.349999999999999645 ) ) ;
#961 = ORIENTED_EDGE ( 'NONE', *, *, #271, .T. ) ;
#962 = CARTESIAN_POINT ( 'NONE',  ( -97.89601537844407630, -25.39999999999999858, 6.349999999999999645 ) ) ;
#963 = AXIS2_PLACEMENT_3D ( 'NONE', #358, #433, #181 ) ;
#964 = DIRECTION ( 'NONE',  ( -0.000000000000000000, -0.000000000000000000, 1.000000000000000000 ) ) ;
#965 = LINE ( 'NONE', #146, #452 ) ;
#966 = ORIENTED_EDGE ( 'NONE', *, *, #1129, .F. ) ;
#967 = CARTESIAN_POINT ( 'NONE',  ( 61.00412794534687322, 54.86224907277229335, 6.349999999999999645 ) ) ;
#968 = DIRECTION ( 'NONE',  ( 0.000000000000000000, -0.000000000000000000, 1.000000000000000000 ) ) ;
#969 = DIRECTION ( 'NONE',  ( 0.8660254037844391517, 0.4999999999999990563, -0.000000000000000000 ) ) ;
#970 = EDGE_CURVE ( 'NONE', #763, #422, #162, .T. ) ;
#971 = EDGE_LOOP ( 'NONE', ( #394, #1015, #544, #479 ) ) ;
#972 = FACE_OUTER_BOUND ( 'NONE', #1149, .T. ) ;
#973 = CARTESIAN_POINT ( 'NONE',  ( -97.89601537844404788, 25.40000000000010161, -6.349999999999999645 ) ) ;
#974 = CARTESIAN_POINT ( 'NONE',  ( 58.29902794534687160, 54.86224907277229335, 6.349999999999999645 ) ) ;
#975 = DIRECTION ( 'NONE',  ( -0.000000000000000000, -0.000000000000000000, 1.000000000000000000 ) ) ;
#976 = LINE ( 'NONE', #1140, #611 ) ;
#977 = CARTESIAN_POINT ( 'NONE',  ( -75.30906537844360571, 25.40000000000008384, 6.349999999999999645 ) ) ;
#978 = CARTESIAN_POINT ( 'NONE',  ( 69.59250294534719217, 69.73775092722696911, -6.349999999999999645 ) ) ;
#979 = CALENDAR_DATE ( 2026, 22, 8 ) ;
#980 = CARTESIAN_POINT ( 'NONE',  ( -23.77929037844334204, 133.5629821737389591, -6.349999999999999645 ) ) ;
#981 = EDGE_LOOP ( 'NONE', ( #1046, #786, #874, #57 ) ) ;
#982 = CARTESIAN_POINT ( 'NONE',  ( -92.48581537844404465, 25.40000000000010161, -6.349999999999999645 ) ) ;
#983 = CYLINDRICAL_SURFACE ( 'NONE', #428, 2.705099999999998506 ) ;
#984 = DIRECTION ( 'NONE',  ( -1.000000000000000000, 0.000000000000000000, 0.000000000000000000 ) ) ;
#985 = VERTEX_POINT ( 'NONE', #872 ) ;
#986 = AXIS2_PLACEMENT_3D ( 'NONE', #97, #912, #88 ) ;
#987 = CARTESIAN_POINT ( 'NONE',  ( -103.7792903784439176, 87.37496063856856665, -6.349999999999999645 ) ) ;
#988 = LINE ( 'NONE', #817, #84 ) ;
#989 = EDGE_CURVE ( 'NONE', #161, #879, #49, .T. ) ;
#990 = DIRECTION ( 'NONE',  ( -0.000000000000000000, -0.000000000000000000, 1.000000000000000000 ) ) ;
#991 = VECTOR ( 'NONE', #969, 1000.000000000000114 ) ;
#992 = DATE_AND_TIME ( #979, #488 ) ;
#993 = CARTESIAN_POINT ( 'NONE',  ( 63.70922794534687483, 54.86224907277229335, -6.349999999999999645 ) ) ;
#994 = ORIENTED_EDGE ( 'NONE', *, *, #429, .F. ) ;
#995 = AXIS2_PLACEMENT_3D ( 'NONE', #132, #414, #1136 ) ;
#996 = CARTESIAN_POINT ( 'NONE',  ( -78.01416537844360732, 25.40000000000008384, 6.349999999999999645 ) ) ;
#997 = LINE ( 'NONE', #188, #1061 ) ;
#998 = APPROVAL ( #703, 'UNSPECIFIED' ) ;
#999 = DATE_AND_TIME ( #542, #25 ) ;
#1000 = CARTESIAN_POINT ( 'NONE',  ( 14.30493743309745014, 80.26224907277256193, -6.349999999999999645 ) ) ;
#1001 = EDGE_CURVE ( 'NONE', #751, #166, #296, .T. ) ;
#1002 = DIRECTION ( 'NONE',  ( -0.000000000000000000, -0.000000000000000000, 1.000000000000000000 ) ) ;
#1003 = CARTESIAN_POINT ( 'NONE',  ( -23.77929037844384652, -133.5629821737386465, 6.349999999999999645 ) ) ;
#1004 = FACE_OUTER_BOUND ( 'NONE', #290, .T. ) ;
#1005 = DIRECTION ( 'NONE',  ( -0.000000000000000000, -0.000000000000000000, 1.000000000000000000 ) ) ;
#1006 = VERTEX_POINT ( 'NONE', #1072 ) ;
#1007 = FACE_BOUND ( 'NONE', #1167, .T. ) ;
#1008 = VECTOR ( 'NONE', #1026, 1000.000000000000000 ) ;
#1009 = DIRECTION ( 'NONE',  ( -0.000000000000000000, -0.000000000000000000, 1.000000000000000000 ) ) ;
#1010 = EDGE_LOOP ( 'NONE', ( #994, #664, #1029, #107 ) ) ;
#1011 = DIRECTION ( 'NONE',  ( -1.000000000000000000, 0.000000000000000000, 0.000000000000000000 ) ) ;
#1012 = CARTESIAN_POINT ( 'NONE',  ( 17.01003743309744820, 80.26224907277256193, -6.349999999999999645 ) ) ;
#1013 = DIRECTION ( 'NONE',  ( 1.000000000000000000, 0.000000000000000000, 0.000000000000000000 ) ) ;
#1014 = AXIS2_PLACEMENT_3D ( 'NONE', #475, #365, #750 ) ;
#1015 = ORIENTED_EDGE ( 'NONE', *, *, #803, .F. ) ;
#1016 = CC_DESIGN_PERSON_AND_ORGANIZATION_ASSIGNMENT ( #64, #50, ( #28 ) ) ;
#1017 = ORIENTED_EDGE ( 'NONE', *, *, #1073, .F. ) ;
#1018 = ORIENTED_EDGE ( 'NONE', *, *, #970, .F. ) ;
#1019 = ORIENTED_EDGE ( 'NONE', *, *, #766, .F. ) ;
#1020 = CARTESIAN_POINT ( 'NONE',  ( 17.01003743309744820, 80.26224907277256193, 6.349999999999999645 ) ) ;
#1021 = CIRCLE ( 'NONE', #1174, 2.705100000000002058 ) ;
#1022 = CIRCLE ( 'NONE', #22, 2.705100000000002058 ) ;
#1023 = AXIS2_PLACEMENT_3D ( 'NONE', #897, #1009, #1181 ) ;
#1024 = VERTEX_POINT ( 'NONE', #596 ) ;
#1025 = ORIENTED_EDGE ( 'NONE', *, *, #289, .T. ) ;
#1026 = DIRECTION ( 'NONE',  ( 1.201851678989722492E-15, 1.000000000000000000, -0.000000000000000000 ) ) ;
#1027 = VERTEX_POINT ( 'NONE', #712 ) ;
#1028 = EDGE_CURVE ( 'NONE', #161, #378, #965, .T. ) ;
#1029 = ORIENTED_EDGE ( 'NONE', *, *, #67, .T. ) ;
#1030 = AXIS2_PLACEMENT_3D ( 'NONE', #94, #424, #876 ) ;
#1031 = CARTESIAN_POINT ( 'NONE',  ( 0.000000000000000000, 0.000000000000000000, 0.000000000000000000 ) ) ;
#1032 = CIRCLE ( 'NONE', #670, 2.705099999999994953 ) ;
#1033 = EDGE_CURVE ( 'NONE', #879, #161, #1117, .T. ) ;
#1034 = DIRECTION ( 'NONE',  ( -0.000000000000000000, -0.000000000000000000, 1.000000000000000000 ) ) ;
#1035 = ORIENTED_EDGE ( 'NONE', *, *, #198, .T. ) ;
#1036 = ADVANCED_BREP_SHAPE_REPRESENTATION ( 'Platform_Default_sldprt', ( #769, #313 ), #434 ) ;
#1037 = DIRECTION ( 'NONE',  ( 0.000000000000000000, 0.000000000000000000, 1.000000000000000000 ) ) ;
#1038 = DIRECTION ( 'NONE',  ( -0.000000000000000000, -0.000000000000000000, 1.000000000000000000 ) ) ;
#1039 = APPROVAL ( #823, 'UNSPECIFIED' ) ;
#1040 = EDGE_CURVE ( 'NONE', #422, #484, #24, .T. ) ;
#1041 = EDGE_LOOP ( 'NONE', ( #349, #758, #268, #203 ) ) ;
#1042 = ORIENTED_EDGE ( 'NONE', *, *, #715, .F. ) ;
#1043 = AXIS2_PLACEMENT_3D ( 'NONE', #529, #709, #109 ) ;
#1044 = DIRECTION ( 'NONE',  ( -0.5000000000000001110, 0.8660254037844385966, 0.000000000000000000 ) ) ;
#1045 = CALENDAR_DATE ( 2026, 22, 8 ) ;
#1046 = ORIENTED_EDGE ( 'NONE', *, *, #838, .F. ) ;
#1047 = ADVANCED_FACE ( 'NONE', ( #541 ), #189, .F. ) ;
#1048 = VERTEX_POINT ( 'NONE', #561 ) ;
#1049 = AXIS2_PLACEMENT_3D ( 'NONE', #1166, #964, #240 ) ;
#1050 = CARTESIAN_POINT ( 'NONE',  ( 25.59841243309773517, 95.13775092722724480, -6.349999999999999645 ) ) ;
#1051 = LINE ( 'NONE', #51, #1008 ) ;
#1052 = DIRECTION ( 'NONE',  ( -0.000000000000000000, -0.000000000000000000, 1.000000000000000000 ) ) ;
#1053 = CARTESIAN_POINT ( 'NONE',  ( -78.01416537844363575, -25.39999999999999858, 6.349999999999999645 ) ) ;
#1054 = CARTESIAN_POINT ( 'NONE',  ( -92.48581537844407308, -25.39999999999999858, 6.349999999999999645 ) ) ;
#1055 = PLANE ( 'NONE',  #764 ) ;
#1056 = COORDINATED_UNIVERSAL_TIME_OFFSET ( 8, 0, .BEHIND. ) ;
#1057 = CARTESIAN_POINT ( 'NONE',  ( 127.5585807568877499, 46.18802153517014375, 6.349999999999999645 ) ) ;
#1058 = ORIENTED_EDGE ( 'NONE', *, *, #571, .F. ) ;
#1059 = CARTESIAN_POINT ( 'NONE',  ( 22.89331243309773711, 95.13775092722724480, 6.349999999999999645 ) ) ;
#1060 = CYLINDRICAL_SURFACE ( 'NONE', #1049, 2.705100000000002058 ) ;
#1061 = VECTOR ( 'NONE', #1107, 1000.000000000000114 ) ;
#1062 = EDGE_LOOP ( 'NONE', ( #1091, #844, #836, #333 ) ) ;
#1063 = FACE_BOUND ( 'NONE', #437, .T. ) ;
#1064 = CARTESIAN_POINT ( 'NONE',  ( 69.59250294534615477, -69.73775092722803493, -6.349999999999999645 ) ) ;
#1065 = ORIENTED_EDGE ( 'NONE', *, *, #500, .T. ) ;
#1066 = DIRECTION ( 'NONE',  ( 0.000000000000000000, -0.000000000000000000, 1.000000000000000000 ) ) ;
#1067 = CARTESIAN_POINT ( 'NONE',  ( 61.00412794534606320, -54.86224907277321705, -6.349999999999999645 ) ) ;
#1068 = EDGE_CURVE ( 'NONE', #562, #400, #988, .T. ) ;
#1069 = ORIENTED_EDGE ( 'NONE', *, *, #620, .T. ) ;
#1070 = CYLINDRICAL_SURFACE ( 'NONE', #102, 2.705099999999994953 ) ;
#1071 = AXIS2_PLACEMENT_3D ( 'NONE', #512, #1066, #617 ) ;
#1072 = CARTESIAN_POINT ( 'NONE',  ( 72.29760294534615639, -69.73775092722803493, 6.349999999999999645 ) ) ;
#1073 = EDGE_CURVE ( 'NONE', #556, #298, #1021, .T. ) ;
#1074 = DIRECTION ( 'NONE',  ( -0.000000000000000000, -0.000000000000000000, 1.000000000000000000 ) ) ;
#1075 = EDGE_LOOP ( 'NONE', ( #592, #1150, #369, #15 ) ) ;
#1076 = APPLICATION_CONTEXT ( 'configuration controlled 3d designs of mechanical parts and assemblies' ) ;
#1077 = ORIENTED_EDGE ( 'NONE', *, *, #665, .F. ) ;
#1078 = AXIS2_PLACEMENT_3D ( 'NONE', #169, #642, #210 ) ;
#1079 = CARTESIAN_POINT ( 'NONE',  ( -23.77929037844384652, -133.5629821737386465, 6.349999999999999645 ) ) ;
#1080 = EDGE_CURVE ( 'NONE', #1006, #591, #662, .T. ) ;
#1081 = EDGE_CURVE ( 'NONE', #985, #1156, #925, .T. ) ;
#1082 = CARTESIAN_POINT ( 'NONE',  ( 66.88740294534719055, 69.73775092722696911, -6.349999999999999645 ) ) ;
#1083 = VECTOR ( 'NONE', #672, 1000.000000000000227 ) ;
#1084 = ORIENTED_EDGE ( 'NONE', *, *, #604, .F. ) ;
#1085 = EDGE_CURVE ( 'NONE', #775, #835, #950, .T. ) ;
#1086 = CIRCLE ( 'NONE', #804, 2.705099999999998506 ) ;
#1087 = ORIENTED_EDGE ( 'NONE', *, *, #438, .F. ) ;
#1088 = DIRECTION ( 'NONE',  ( -0.000000000000000000, -0.000000000000000000, 1.000000000000000000 ) ) ;
#1089 = CARTESIAN_POINT ( 'NONE',  ( -78.01416537844360732, 25.40000000000008384, 6.349999999999999645 ) ) ;
#1090 = CARTESIAN_POINT ( 'NONE',  ( -75.30906537844360571, 25.40000000000008384, 6.349999999999999645 ) ) ;
#1091 = ORIENTED_EDGE ( 'NONE', *, *, #306, .F. ) ;
#1092 = CARTESIAN_POINT ( 'NONE',  ( 61.00412794534687322, 54.86224907277229335, 6.349999999999999645 ) ) ;
#1093 = CARTESIAN_POINT ( 'NONE',  ( 0.000000000000000000, 0.000000000000000000, -6.349999999999999645 ) ) ;
#1094 = AXIS2_PLACEMENT_3D ( 'NONE', #610, #687, #520 ) ;
#1095 = VERTEX_POINT ( 'NONE', #40 ) ;
#1096 = ORIENTED_EDGE ( 'NONE', *, *, #182, .F. ) ;
#1097 = VERTEX_POINT ( 'NONE', #660 ) ;
#1098 = CIRCLE ( 'NONE', #752, 2.705099999999998506 ) ;
#1099 = ORIENTED_EDGE ( 'NONE', *, *, #147, .T. ) ;
#1100 = SECURITY_CLASSIFICATION ( '', '', #810 ) ;
#1101 = ADVANCED_FACE ( 'NONE', ( #743 ), #293, .F. ) ;
#1102 = PERSON_AND_ORGANIZATION_ROLE ( 'classification_officer' ) ;
#1103 = DIRECTION ( 'NONE',  ( -0.000000000000000000, -0.000000000000000000, 1.000000000000000000 ) ) ;
#1104 = ORIENTED_EDGE ( 'NONE', *, *, #486, .T. ) ;
#1105 =( LENGTH_UNIT ( ) NAMED_UNIT ( * ) SI_UNIT ( .MILLI., .METRE. ) );
#1106 = ORIENTED_EDGE ( 'NONE', *, *, #478, .F. ) ;
#1107 = DIRECTION ( 'NONE',  ( -0.8660254037844373753, 0.5000000000000021094, 0.000000000000000000 ) ) ;
#1108 = DIRECTION ( 'NONE',  ( 1.000000000000000000, 0.000000000000000000, 0.000000000000000000 ) ) ;
#1109 = DIRECTION ( 'NONE',  ( 1.000000000000000000, 0.000000000000000000, 0.000000000000000000 ) ) ;
#1110 = CARTESIAN_POINT ( 'NONE',  ( 63.70922794534605771, -54.86224907277321705, -6.349999999999999645 ) ) ;
#1111 = ORIENTED_EDGE ( 'NONE', *, *, #1080, .F. ) ;
#1112 = ADVANCED_FACE ( 'NONE', ( #784 ), #425, .F. ) ;
#1113 = DIRECTION ( 'NONE',  ( -1.000000000000000000, 0.000000000000000000, 0.000000000000000000 ) ) ;
#1114 = ORIENTED_EDGE ( 'NONE', *, *, #500, .F. ) ;
#1115 = FACE_BOUND ( 'NONE', #780, .T. ) ;
#1116 = CARTESIAN_POINT ( 'NONE',  ( 58.29902794534606869, -54.86224907277321705, 6.349999999999999645 ) ) ;
#1117 = CIRCLE ( 'NONE', #352, 2.705100000000002058 ) ;
#1118 = CIRCLE ( 'NONE', #1, 2.705100000000002058 ) ;
#1119 = DIRECTION ( 'NONE',  ( -1.000000000000000000, 0.000000000000000000, 0.000000000000000000 ) ) ;
#1120 = EDGE_CURVE ( 'NONE', #569, #656, #508, .T. ) ;
#1121 = DIRECTION ( 'NONE',  ( 0.000000000000000000, 0.000000000000000000, 1.000000000000000000 ) ) ;
#1122 = CIRCLE ( 'NONE', #361, 2.705100000000002058 ) ;
#1123 = CIRCLE ( 'NONE', #824, 2.705099999999994953 ) ;
#1124 = ORIENTED_EDGE ( 'NONE', *, *, #1073, .T. ) ;
#1125 = DIRECTION ( 'NONE',  ( -0.000000000000000000, -0.000000000000000000, 1.000000000000000000 ) ) ;
#1126 = EDGE_CURVE ( 'NONE', #1095, #518, #909, .T. ) ;
#1127 = CARTESIAN_POINT ( 'NONE',  ( 25.59841243309773517, 95.13775092722724480, -6.349999999999999645 ) ) ;
#1128 = CARTESIAN_POINT ( 'NONE',  ( 17.01003743309626159, -80.26224907277281773, 6.349999999999999645 ) ) ;
#1129 = EDGE_CURVE ( 'NONE', #518, #1095, #645, .T. ) ;
#1130 = VERTEX_POINT ( 'NONE', #217 ) ;
#1131 = VERTEX_POINT ( 'NONE', #938 ) ;
#1132 = DIRECTION ( 'NONE',  ( 0.000000000000000000, 0.000000000000000000, -1.000000000000000000 ) ) ;
#1133 = ORIENTED_EDGE ( 'NONE', *, *, #371, .T. ) ;
#1134 = CARTESIAN_POINT ( 'NONE',  ( 69.59250294534719217, 69.73775092722696911, 6.349999999999999645 ) ) ;
#1135 = DIRECTION ( 'NONE',  ( -1.000000000000000000, 0.000000000000000000, 0.000000000000000000 ) ) ;
#1136 = DIRECTION ( 'NONE',  ( 1.000000000000000000, 0.000000000000000000, 0.000000000000000000 ) ) ;
#1137 = AXIS2_PLACEMENT_3D ( 'NONE', #152, #366, #916 ) ;
#1138 = LINE ( 'NONE', #1059, #432 ) ;
#1139 = CARTESIAN_POINT ( 'NONE',  ( -75.30906537844363413, -25.39999999999999858, 6.349999999999999645 ) ) ;
#1140 = CARTESIAN_POINT ( 'NONE',  ( 58.29902794534606869, -54.86224907277321705, 6.349999999999999645 ) ) ;
#1141 = FACE_BOUND ( 'NONE', #158, .T. ) ;
#1142 = DIRECTION ( 'NONE',  ( -0.8660254037844373753, 0.5000000000000022204, 0.000000000000000000 ) ) ;
#1143 = DIRECTION ( 'NONE',  ( -1.000000000000000000, 0.000000000000000000, 0.000000000000000000 ) ) ;
#1144 = VERTEX_POINT ( 'NONE', #119 ) ;
#1145 = EDGE_LOOP ( 'NONE', ( #242, #830, #717, #1099 ) ) ;
#1146 = FACE_OUTER_BOUND ( 'NONE', #1170, .T. ) ;
#1147 = AXIS2_PLACEMENT_3D ( 'NONE', #1134, #958, #137 ) ;
#1148 = EDGE_CURVE ( 'NONE', #453, #1144, #870, .T. ) ;
#1149 = EDGE_LOOP ( 'NONE', ( #574, #770, #567, #272 ) ) ;
#1150 = ORIENTED_EDGE ( 'NONE', *, *, #1085, .F. ) ;
#1151 = AXIS2_PLACEMENT_3D ( 'NONE', #92, #829, #1013 ) ;
#1152 = ORIENTED_EDGE ( 'NONE', *, *, #922, .F. ) ;
#1153 = DIRECTION ( 'NONE',  ( -0.000000000000000000, -0.000000000000000000, 1.000000000000000000 ) ) ;
#1154 = VERTEX_POINT ( 'NONE', #962 ) ;
#1155 = EDGE_CURVE ( 'NONE', #363, #651, #1176, .T. ) ;
#1156 = VERTEX_POINT ( 'NONE', #1057 ) ;
#1157 = LINE ( 'NONE', #356, #809 ) ;
#1158 = DIRECTION ( 'NONE',  ( -0.000000000000000000, -0.000000000000000000, 1.000000000000000000 ) ) ;
#1159 = CYLINDRICAL_SURFACE ( 'NONE', #963, 2.705099999999998506 ) ;
#1160 = CALENDAR_DATE ( 2026, 22, 8 ) ;
#1161 = EDGE_LOOP ( 'NONE', ( #232, #1017 ) ) ;
#1162 = ORIENTED_EDGE ( 'NONE', *, *, #740, .F. ) ;
#1163 = VECTOR ( 'NONE', #726, 1000.000000000000000 ) ;
#1164 = CC_DESIGN_PERSON_AND_ORGANIZATION_ASSIGNMENT ( #133, #1180, ( #626 ) ) ;
#1165 = CARTESIAN_POINT ( 'NONE',  ( -95.19091537844404627, 25.40000000000010161, 6.349999999999999645 ) ) ;
#1166 = CARTESIAN_POINT ( 'NONE',  ( -95.19091537844407469, -25.39999999999999858, 6.349999999999999645 ) ) ;
#1167 = EDGE_LOOP ( 'NONE', ( #1035, #115 ) ) ;
#1168 = AXIS2_PLACEMENT_3D ( 'NONE', #37, #1132, #684 ) ;
#1169 = DIRECTION ( 'NONE',  ( -0.000000000000000000, -0.000000000000000000, 1.000000000000000000 ) ) ;
#1170 = EDGE_LOOP ( 'NONE', ( #812, #842, #560, #675 ) ) ;
#1171 = ADVANCED_FACE ( 'NONE', ( #56 ), #789, .F. ) ;
#1172 = ORIENTED_EDGE ( 'NONE', *, *, #533, .F. ) ;
#1173 = DIRECTION ( 'NONE',  ( 1.000000000000000000, 0.000000000000000000, 0.000000000000000000 ) ) ;
#1174 = AXIS2_PLACEMENT_3D ( 'NONE', #458, #1187, #287 ) ;
#1175 = DIRECTION ( 'NONE',  ( 1.000000000000000000, 0.000000000000000000, 0.000000000000000000 ) ) ;
#1176 = CIRCLE ( 'NONE', #853, 2.705099999999998506 ) ;
#1177 = ORIENTED_EDGE ( 'NONE', *, *, #604, .T. ) ;
#1178 = LINE ( 'NONE', #974, #919 ) ;
#1179 = AXIS2_PLACEMENT_3D ( 'NONE', #62, #430, #335 ) ;
#1180 = PERSON_AND_ORGANIZATION_ROLE ( 'creator' ) ;
#1181 = DIRECTION ( 'NONE',  ( 1.000000000000000000, 0.000000000000000000, 0.000000000000000000 ) ) ;
#1182 = VERTEX_POINT ( 'NONE', #150 ) ;
#1183 = ORIENTED_EDGE ( 'NONE', *, *, #297, .T. ) ;
#1184 = CIRCLE ( 'NONE', #877, 2.705100000000002058 ) ;
#1185 = DIRECTION ( 'NONE',  ( 0.000000000000000000, -0.000000000000000000, 1.000000000000000000 ) ) ;
#1186 = CIRCLE ( 'NONE', #58, 2.705099999999994953 ) ;
#1187 = DIRECTION ( 'NONE',  ( -0.000000000000000000, -0.000000000000000000, 1.000000000000000000 ) ) ;
#1188 = SHAPE_DEFINITION_REPRESENTATION ( #742, #1036 ) ;
#1189 = CARTESIAN_POINT ( 'NONE',  ( -78.01416537844360732, 25.40000000000008384, -6.349999999999999645 ) ) ;
#1190 = ADVANCED_FACE ( 'NONE', ( #826 ), #279, .F. ) ;
#1191 = DIRECTION ( 'NONE',  ( -0.000000000000000000, -0.000000000000000000, 1.000000000000000000 ) ) ;
ENDSEC;
END-ISO-10303-21;
